<svg width="61" height="60" viewBox="0 0 61 60" fill="none" xmlns="http://www.w3.org/2000/svg">
<rect x="1.90527" y="1" width="57.2835" height="57.2835" rx="2" fill="white" stroke="#FF5539" stroke-width="2" stroke-miterlimit="1.34563" stroke-linejoin="round"/>
<path d="M30.3993 6.09058C30.1176 6.23503 30.096 6.27836 28.9262 9.04457C27.5181 12.3886 27.4531 12.6486 27.4603 14.6781C27.4603 16.1732 27.5469 16.7437 27.9802 18.0943C28.103 18.4555 28.1752 18.7732 28.1463 18.7877C28.1246 18.8021 27.9585 18.8382 27.778 18.8671C27.2292 18.9538 26.1172 19.3366 25.4095 19.6761C24.6441 20.0516 24.1025 20.5066 23.8859 20.9472C23.7054 21.3228 23.6837 21.9656 23.8426 22.3484C23.9364 22.5723 23.9509 23.6484 23.9509 30.5098V38.4184L23.6548 38.8445C23.171 39.5234 22.42 39.7618 21.6979 39.4584C21.0047 39.1623 20.5209 39.4368 20.4126 40.1807C20.2754 41.1629 19.8782 41.5385 18.8312 41.6829C18.2751 41.7552 18.1452 41.8057 17.9574 41.9791C17.7552 42.1741 17.7408 42.2246 17.7408 42.7302C17.7408 43.4524 17.5747 44.1819 17.3003 44.7453C17.0115 45.3303 16.3038 46.0814 15.69 46.457C15.0401 46.8542 14.8596 47.2443 15.1051 47.7209C15.2423 47.9809 15.5528 48.1543 15.8994 48.1543C16.3616 48.1543 17.257 48.3782 17.7408 48.6093C18.3834 48.9199 19.2066 49.7504 19.546 50.4221C19.9432 51.2094 20.2754 51.3394 21.0336 50.9999C21.8134 50.6533 22.5067 50.7833 22.9616 51.3538C23.4671 51.9894 23.5537 52.0544 23.9075 52.0544C24.218 52.0544 24.283 52.0183 24.6946 51.6283C25.3806 50.9927 25.9655 50.8988 26.6732 51.3033C26.8393 51.3972 27.0704 51.4766 27.1859 51.4766C27.3592 51.4766 27.4386 51.5344 27.5614 51.7294C27.648 51.8666 27.908 52.1555 28.1463 52.3722C29.4677 53.5711 31.3596 53.8384 32.9627 53.0583C33.4465 52.82 34.3131 52.0689 34.5658 51.6572C34.703 51.4333 34.7246 51.4261 35.064 51.4622C35.3457 51.4838 35.4684 51.4622 35.6273 51.3466C35.9089 51.1444 36.4144 51.0216 36.7249 51.0794C37.122 51.1516 37.3892 51.3177 37.7503 51.7005C38.0463 52.0183 38.1113 52.0544 38.3857 52.0544C38.7901 52.0544 38.9128 51.975 39.2667 51.5055C39.7794 50.8049 40.4726 50.6388 41.3319 50.9999C42.1479 51.3394 42.3789 51.2383 42.8772 50.3355C43.2888 49.5916 43.9098 48.9776 44.603 48.6382C45.1879 48.3493 45.9461 48.1543 46.5022 48.1543C46.8054 48.1543 46.8921 48.1182 47.1015 47.9087C47.3037 47.7065 47.347 47.6126 47.347 47.3454C47.347 46.9409 47.2243 46.7748 46.7116 46.4859C46.1194 46.1464 45.3973 45.3953 45.1157 44.8319C44.798 44.1675 44.6752 43.6691 44.6752 42.9541C44.6752 41.9718 44.5164 41.8129 43.426 41.6685C42.9711 41.6107 42.805 41.5529 42.5956 41.3868C42.2634 41.1196 42.0035 40.679 42.0035 40.3685C42.0035 40.0362 41.8374 39.6823 41.5991 39.4945C41.368 39.314 41.108 39.314 40.422 39.5162C39.736 39.7184 39.1439 39.4729 38.6818 38.8084L38.4651 38.4906L38.4507 30.0475L38.429 21.6117L38.1835 21.1133C37.8875 20.5066 37.2881 19.8927 36.696 19.5749C36.1039 19.2644 35.0785 18.9177 34.4214 18.8021C34.0242 18.7299 33.887 18.6794 33.9015 18.6071C33.9159 18.5494 34.0098 18.2099 34.1036 17.856C34.2986 17.1337 34.5297 15.812 34.6019 15.0392C34.6885 14.0497 34.3853 12.3525 33.8726 10.9802C33.2877 9.40569 31.8796 6.77671 31.3524 6.26392C31.0708 5.98946 30.717 5.92446 30.3993 6.09058ZM31.4607 9.65848C32.3345 11.3991 32.7533 12.6558 32.9049 13.9775C33.006 14.8153 32.8905 15.8481 32.5439 17.206C32.3345 18.0366 31.9951 18.9033 31.8868 18.9033C31.8507 18.9033 31.8218 18.2604 31.8218 17.4732C31.8218 16.1876 31.8074 16.0287 31.6774 15.8193C31.3813 15.3281 30.6231 15.3642 30.3054 15.8843C30.1754 16.1009 30.161 16.2454 30.161 17.5165C30.161 18.3616 30.1321 18.896 30.096 18.8671C29.9804 18.8021 29.5761 17.6827 29.3522 16.8087C28.9623 15.292 28.9984 13.5442 29.4461 12.1863C29.6049 11.688 30.8831 8.64734 30.9264 8.64734C30.9408 8.64734 31.1863 9.10235 31.4607 9.65848ZM29.2511 20.4561C29.3378 20.5211 29.5544 20.5644 29.7782 20.5644H30.161V20.8244C30.161 21.5539 30.7892 21.9945 31.3885 21.6839C31.699 21.525 31.8218 21.3011 31.8218 20.9111V20.5644H32.1467C32.3345 20.5644 32.58 20.5139 32.71 20.4489C33.3454 20.1166 35.7212 20.7161 36.3422 21.3661C36.4505 21.4817 36.5227 21.59 36.501 21.6117C36.4144 21.6983 34.9341 22.0884 34.1975 22.2256C31.9446 22.63 29.6338 22.5795 27.4964 22.0811C26.601 21.8717 25.6117 21.5611 25.6117 21.4961C25.6117 21.4095 26.5143 20.9617 27.0631 20.7739C27.5758 20.6005 28.6518 20.3622 28.9334 20.355C29.0345 20.355 29.1789 20.3983 29.2511 20.4561ZM26.8393 23.634C27.3736 23.764 27.9874 23.894 28.1968 23.9229L28.5723 23.9734L28.529 24.3057C28.4785 24.6957 28.6084 27.7652 28.724 28.798C28.7601 29.1736 28.8395 29.6503 28.8973 29.8525C29.15 30.7481 29.8505 31.3404 30.6592 31.3404C31.7279 31.3404 32.4428 30.517 32.6667 29.0292C32.8905 27.498 33.3238 27.5124 33.3382 29.0508C33.3454 30.6326 34.0098 31.8748 35.129 32.4237C35.5551 32.6332 35.6778 32.6621 36.205 32.6621H36.8043V35.9772V39.2851L36.1039 39.9712C35.4323 40.6357 35.4034 40.6574 35.1507 40.614C33.5332 40.3107 32.4139 40.5273 31.3669 41.3218L31.0347 41.5746L30.4715 41.199C29.5905 40.6068 28.594 40.3612 27.6553 40.4985C27.3809 40.5346 27.1065 40.5707 27.027 40.5707C26.9548 40.5707 26.6082 40.289 26.2544 39.9423L25.6117 39.314V31.3042C25.6117 23.7062 25.6189 23.2945 25.7417 23.3451C25.8067 23.3667 26.3049 23.4967 26.8393 23.634ZM36.7899 26.9346C36.7682 30.3437 36.761 30.582 36.631 30.7698C36.3855 31.1309 35.9594 31.1165 35.5695 30.7337C35.1724 30.3364 35.0568 29.9536 34.9918 28.8992C34.9557 28.3719 34.8835 27.8013 34.8113 27.6063C34.4141 26.4291 33.3671 25.8946 32.3634 26.3713C31.634 26.718 31.2441 27.3752 31.0636 28.538C30.9264 29.4914 30.717 29.8814 30.5292 29.5347C30.3704 29.2458 30.1249 25.2518 30.2115 24.4646L30.2476 24.1395L30.8325 24.1612C32.2117 24.219 34.7174 23.9012 36.0461 23.504C36.3638 23.4029 36.6671 23.3234 36.7177 23.3162C36.7899 23.309 36.8043 24.0168 36.7899 26.9346ZM24.904 40.9607L25.359 41.4229L24.9763 41.8491C24.4997 42.3619 24.0592 43.2502 23.9075 43.9652C23.8498 44.2614 23.7848 44.5142 23.7703 44.5286C23.7631 44.543 23.3443 44.6586 22.8388 44.7886C22.3406 44.9186 21.8712 45.0775 21.7846 45.157C21.7051 45.2292 21.604 45.4097 21.5607 45.5542C21.4091 46.0525 21.8207 46.5653 22.3622 46.5653C22.485 46.5653 22.9183 46.4859 23.3154 46.3848C23.7126 46.2837 24.052 46.2042 24.0664 46.2187C24.0736 46.2331 24.1458 46.392 24.2253 46.5653C24.5863 47.4031 25.5251 48.3132 26.3916 48.6743C26.7743 48.8332 26.7743 48.8404 26.731 49.0932C26.6588 49.4616 26.6443 49.476 26.1966 49.4254C25.6406 49.3677 25.0124 49.4832 24.4708 49.7504L24.0159 49.9743L23.7631 49.7793C23.1204 49.2882 22.2034 49.0571 21.3585 49.1727C21.0986 49.2088 20.8747 49.2593 20.853 49.2738C20.8386 49.2954 20.7375 49.1871 20.6364 49.0354C20.0659 48.1904 19.2428 47.4754 18.369 47.0709C18.0296 46.912 17.8996 46.8109 17.943 46.7531C18.795 45.677 19.1633 44.8536 19.3655 43.5969C19.4016 43.3586 19.4305 43.3297 19.8204 43.2141C20.622 42.9613 21.3802 42.3185 21.7268 41.5818L21.8929 41.2279L22.4489 41.2207C23.0699 41.2207 23.5682 41.069 24.0953 40.7224C24.2758 40.6068 24.4275 40.5057 24.4347 40.5057C24.4419 40.4985 24.6513 40.7079 24.904 40.9607ZM38.3207 40.7512C38.7973 41.069 39.375 41.2424 40.0032 41.2424H40.4943L40.6026 41.4952C40.9059 42.2319 41.794 42.9974 42.5956 43.2213C42.9566 43.3224 43.0144 43.3658 43.0144 43.5102C43.0144 44.2325 43.621 45.7348 44.1914 46.4353L44.5236 46.8398L44.2203 46.9626C43.3971 47.2876 42.3501 48.1398 41.8229 48.9126C41.6713 49.1293 41.5196 49.2882 41.4835 49.2665C41.4474 49.2449 41.2308 49.2015 41.007 49.1654C40.1765 49.0571 39.18 49.3099 38.624 49.7793L38.3857 49.9816L37.938 49.7504C37.4181 49.4977 36.6888 49.3604 36.1328 49.4254L35.75 49.4688L35.6634 49.1799C35.5406 48.7682 35.5478 48.7537 35.8872 48.5804C36.6382 48.1976 37.3675 47.4393 37.7575 46.6376C37.8875 46.3776 37.9958 46.1609 37.9958 46.1464C38.003 46.1392 38.4146 46.2259 38.9056 46.3487C40.0466 46.6231 40.2704 46.6303 40.5737 46.3559C40.7831 46.1681 40.812 46.0959 40.812 45.7781C40.812 45.482 40.7759 45.3809 40.6026 45.2003C40.422 45.0125 40.2487 44.9547 39.2883 44.7236C38.198 44.4636 38.1763 44.4564 38.1763 44.2686C38.1763 43.6475 37.6853 42.5641 37.1654 42.0007L36.8115 41.6179L37.3675 41.0546C37.6708 40.7512 37.9236 40.4985 37.9308 40.4985C37.938 40.4985 38.1113 40.614 38.3207 40.7512ZM29.3522 42.4485C30.1321 42.8602 30.6448 43.6258 30.717 44.4708C30.7603 44.9547 30.8036 44.9114 30.1249 45.0414C29.1283 45.222 27.9513 46.0381 27.4531 46.8831C27.3448 47.0637 27.222 47.2154 27.1714 47.2154C27.0054 47.2154 26.4349 46.8037 26.1388 46.4642C25.72 45.9875 25.5178 45.4386 25.5106 44.7597C25.5106 43.9725 25.72 43.4741 26.2905 42.9108C26.9115 42.3041 27.3014 42.1524 28.2113 42.1813C28.8323 42.203 28.9406 42.2246 29.3522 42.4485ZM35.0785 42.398C35.5551 42.6291 36.1039 43.1852 36.3061 43.6475C36.7682 44.6875 36.5155 45.9442 35.7067 46.6737C35.3023 47.0348 34.8402 47.2804 34.7969 47.1504C34.7824 47.107 34.6236 46.8759 34.4503 46.6376C34.0531 46.1175 33.5332 45.6914 32.8977 45.3736L32.4211 45.1281L32.3778 44.4925C32.3561 44.1241 32.2695 43.6619 32.1828 43.4019C32.0023 42.8819 32.0168 42.8385 32.5295 42.5424C33.0855 42.2174 33.331 42.1596 34.0242 42.1813C34.5513 42.203 34.7535 42.2391 35.0785 42.398ZM31.5474 46.6448C32.089 46.7603 32.5295 47.0059 32.9122 47.4104C33.331 47.8437 33.526 48.2193 33.6343 48.826C33.8437 49.9455 33.2155 51.0938 32.1179 51.6138C31.7712 51.7727 31.6196 51.8016 31.0275 51.8016C30.4137 51.8016 30.2982 51.78 29.9154 51.5922C29.3666 51.3249 28.9406 50.8988 28.6734 50.3499C28.4929 49.9743 28.464 49.8443 28.464 49.2377C28.464 48.6454 28.4929 48.4937 28.659 48.1398C29.02 47.367 29.7277 46.8037 30.522 46.6448C30.9842 46.5581 31.1141 46.5581 31.5474 46.6448Z" fill="#FF5539"/>
<path d="M27.2146 42.7374C26.7669 43.0119 26.7091 43.5391 27.0846 43.9508C27.3013 44.1891 27.3735 44.218 27.6695 44.218C27.9656 44.218 28.0378 44.1891 28.2544 43.9508C28.9188 43.2213 28.0595 42.2246 27.2146 42.7374Z" fill="#FF5539"/>
<path d="M32.934 42.8385C32.7462 43.0263 32.6885 43.1419 32.6885 43.3513C32.6885 44.1241 33.5694 44.5214 34.0821 43.9797C34.6093 43.4236 34.2338 42.593 33.4611 42.593C33.2373 42.593 33.129 42.6435 32.934 42.8385Z" fill="#FF5539"/>
<path d="M29.4679 49.2304C28.9986 49.5193 28.9625 50.1405 29.4102 50.5305C29.8073 50.8844 30.3922 50.7833 30.6305 50.321C31.0204 49.5627 30.1972 48.7826 29.4679 49.2304Z" fill="#FF5539"/>
</svg>
