<svg width="10" height="11" viewBox="0 0 10 11" fill="none" xmlns="http://www.w3.org/2000/svg">
<path d="M4.97771 0.552655C4.39993 0.620817 3.99679 0.732798 3.53978 0.955137C2.85264 1.28783 2.2618 1.81853 1.85213 2.47256C1.72156 2.68029 1.53549 3.07141 1.45389 3.3116C1.30373 3.75304 1.24171 4.12955 1.24171 4.62292C1.24171 5.28344 1.36738 5.82387 1.65627 6.40812C1.87172 6.84631 2.11817 7.18712 2.47562 7.53767L2.68453 7.74378L2.62741 7.75351C2.52785 7.77299 2.32219 7.84602 2.20305 7.90607C1.88804 8.06187 1.68402 8.26149 1.54039 8.55036C1.45878 8.7159 1.41471 8.88955 1.40166 9.10215L1.39023 9.27256H1.20906C1.05564 9.27256 1.01973 9.27743 0.974033 9.30502C0.879368 9.36344 0.872839 9.39915 0.872839 9.9055C0.872839 10.3989 0.879368 10.4427 0.959343 10.4946C1.00015 10.5206 1.28088 10.5222 5.34658 10.5222H9.68975L9.74524 10.467L9.80073 10.4118V9.91523C9.80073 9.36182 9.79747 9.34721 9.69627 9.29853C9.65547 9.27905 9.59345 9.27256 9.46941 9.27256H9.2964L9.28824 9.18655C9.28334 9.1411 9.27518 9.05509 9.27028 8.99991C9.25722 8.8717 9.19357 8.64936 9.13808 8.53738C8.95364 8.17223 8.58151 7.89146 8.1343 7.77623L7.9972 7.74215L8.2355 7.50521C8.74636 6.99399 9.08095 6.43571 9.28497 5.75084C9.40085 5.36134 9.4335 5.09681 9.43187 4.59046C9.43023 4.2107 9.42697 4.14416 9.3878 3.93318C9.23601 3.08927 8.87367 2.38817 8.27467 1.77633C7.59895 1.08659 6.76329 0.675996 5.80358 0.565638C5.62078 0.54454 5.11481 0.536425 4.97771 0.552655ZM5.7334 0.932416C6.15286 0.977857 6.6066 1.10769 6.97384 1.28783C8.14736 1.86559 8.91774 2.96592 9.05157 4.25614C9.07606 4.48659 9.06137 4.98807 9.02546 5.19905C8.98792 5.42139 8.89815 5.75246 8.82144 5.94721C8.73493 6.17118 8.7382 6.16468 8.67944 6.13385C8.46073 6.02187 7.89764 5.96182 7.53856 6.01213C7.43084 6.02674 7.22193 6.08029 7.14032 6.11275C7.12236 6.12086 7.05055 6.01051 6.84653 5.65833C6.698 5.40354 6.57559 5.18607 6.57233 5.17471C6.56906 5.16497 6.59518 5.14712 6.62945 5.13738C6.71269 5.11304 6.80736 5.03189 6.84816 4.95237C6.89223 4.86635 6.90529 4.7349 6.87917 4.65375C6.86775 4.61967 6.61966 4.18149 6.3275 3.68163C5.60609 2.44497 5.63057 2.48554 5.58814 2.44659C5.42166 2.29566 5.17683 2.30053 5.02341 2.45633C4.9418 2.5391 3.75033 4.59208 3.72911 4.68459C3.71932 4.72841 3.71605 4.79008 3.72258 4.82254C3.7487 4.97022 3.87927 5.12115 4.00168 5.14387C4.03106 5.14874 4.05554 5.15686 4.05554 5.15848C4.05554 5.16172 3.90538 5.42139 3.72095 5.73623C3.53652 6.0527 3.37657 6.33671 3.36841 6.36917L3.35045 6.4276L3.18071 6.43733C2.90324 6.45518 2.60945 6.52822 2.34994 6.64344L2.24385 6.69051L2.16061 6.55743C1.9011 6.14034 1.70524 5.58368 1.63669 5.06922C1.60731 4.84363 1.61384 4.32106 1.64648 4.10359C1.82275 2.96917 2.4544 2.02301 3.419 1.44363C3.86785 1.17423 4.42441 0.985972 4.93038 0.932416C5.12134 0.912941 5.55223 0.911318 5.7334 0.932416ZM5.92599 3.73843C6.25243 4.29671 6.51683 4.75924 6.5152 4.76736C6.51031 4.78196 6.28344 4.83876 6.22141 4.84039C6.2002 4.84201 6.16592 4.78845 6.09411 4.63915C5.99128 4.42654 5.95374 4.3876 5.85908 4.3876C5.80195 4.3876 5.72524 4.42817 5.70239 4.47036C5.6926 4.48984 5.66648 4.59208 5.64526 4.70082C5.62241 4.80793 5.59956 4.90368 5.59467 4.9118C5.58161 4.93452 4.89284 4.91342 4.66271 4.88421C4.45216 4.85662 4.1192 4.79332 4.10124 4.77872C4.09472 4.77223 4.22366 4.53853 4.38687 4.25776C5.21764 2.83122 5.28782 2.71437 5.30904 2.71924C5.3221 2.72249 5.59956 3.18015 5.92599 3.73843ZM6.06799 5.22177C6.08758 5.22664 6.11859 5.23313 6.13654 5.23475C6.15939 5.238 6.26875 5.41328 6.53152 5.86282C6.73228 6.20526 6.89549 6.49738 6.89549 6.51361C6.89549 6.52984 6.88407 6.55094 6.87264 6.5623C6.81715 6.60774 6.19693 6.70998 5.79216 6.73919C5.51306 6.76029 4.98587 6.76191 4.93364 6.74244C4.89937 6.72946 4.88958 6.70511 4.85856 6.57528C4.84061 6.49251 4.81613 6.37242 4.8047 6.31075C4.78185 6.17118 4.7688 6.14683 4.70351 6.10788C4.63659 6.06731 4.58273 6.06731 4.51744 6.10788C4.47338 6.13385 4.44073 6.18903 4.33954 6.40001C4.25467 6.57528 4.2057 6.65967 4.18775 6.65967C4.17306 6.65967 4.07023 6.64182 3.95761 6.6191C3.74707 6.57853 3.703 6.55581 3.72258 6.49251C3.73238 6.4633 4.42441 5.26721 4.44563 5.24449C4.45216 5.238 4.54845 5.24449 4.65944 5.2591C4.80634 5.27857 4.98914 5.28669 5.30414 5.28669C5.79542 5.28831 5.81501 5.28507 5.88682 5.17633L5.92273 5.12115L5.97659 5.16822C6.0076 5.19418 6.04677 5.21853 6.06799 5.22177ZM8.32526 6.41461C8.48195 6.45356 8.54397 6.47953 8.54397 6.50549C8.54397 6.53146 8.35138 6.81872 8.26161 6.92583C8.03964 7.19523 7.79318 7.43055 7.55325 7.60421L7.44553 7.68211H5.34168H3.23783L3.07951 7.56526C2.92446 7.45165 2.48867 7.03781 2.48867 7.00373C2.48867 6.98101 2.70412 6.89986 2.88855 6.8528C3.0028 6.82359 3.08115 6.81547 3.24763 6.81547L3.45981 6.81385L3.52509 6.86416C3.561 6.89175 3.61323 6.92258 3.63934 6.93232C3.70789 6.95829 4.19591 7.04917 4.26283 7.04917C4.33954 7.04917 4.39993 7.01347 4.47664 6.92583L4.54029 6.85118L4.55988 6.90473C4.58763 6.98588 4.65781 7.06702 4.7231 7.09299C4.8047 7.12869 5.43145 7.14168 5.76931 7.11571C6.24753 7.07838 6.90855 6.97127 7.02607 6.91122C7.15338 6.84631 7.27089 6.65967 7.27089 6.5201C7.27089 6.45356 7.28721 6.44545 7.49939 6.39838C7.68872 6.35619 8.12777 6.3643 8.32526 6.41461ZM7.89111 8.09919C8.53418 8.24039 8.87204 8.57633 8.89815 9.1054L8.90794 9.27256H5.33679H1.76563L1.77705 9.11838C1.79011 8.9285 1.84724 8.74349 1.93048 8.61366C2.12797 8.31017 2.53437 8.10731 3.01912 8.0716C3.11869 8.06511 4.22039 8.06024 5.46736 8.06349C7.69852 8.06674 7.73932 8.06674 7.89111 8.09919ZM9.42534 9.89738V10.1489H5.33679H1.24823V9.89738V9.64583H5.33679H9.42534V9.89738Z" fill="#FF5539"/>
<path d="M4.79654 1.32678C4.73126 1.3917 4.72146 1.47609 4.77369 1.55886C4.86509 1.70816 5.11644 1.63838 5.11644 1.46473C5.11644 1.33814 5.04953 1.2716 4.91895 1.2716C4.86509 1.2716 4.84224 1.28134 4.79654 1.32678Z" fill="#FF5539"/>
<path d="M6.54458 1.82177C6.42543 1.87533 6.40095 2.01003 6.49235 2.10902C6.53805 2.15933 6.556 2.16745 6.61803 2.16745C6.65883 2.16907 6.70943 2.16096 6.72901 2.1496C6.83837 2.09117 6.85142 1.91265 6.75186 1.84287C6.68331 1.79418 6.61803 1.78769 6.54458 1.82177Z" fill="#FF5539"/>
<path d="M4.14041 2.35245C4.09635 2.38329 4.05554 2.45794 4.05554 2.50825C4.05554 2.62023 4.19101 2.71761 4.30037 2.68515C4.39503 2.65756 4.4391 2.59914 4.4391 2.50176C4.4391 2.43198 4.43257 2.41575 4.38524 2.37355C4.3428 2.33622 4.31832 2.32649 4.25467 2.32649C4.2106 2.32649 4.16163 2.33785 4.14041 2.35245Z" fill="#FF5539"/>
<path d="M2.83143 2.95618C2.70901 3.01785 2.68616 3.16229 2.78573 3.2548C2.8249 3.2905 2.84938 3.30024 2.9114 3.30024C2.95384 3.30024 3.0028 3.28888 3.02402 3.27427C3.06809 3.24344 3.10889 3.16878 3.10889 3.11847C3.10889 3.06005 3.0485 2.97566 2.98648 2.94969C2.91467 2.92048 2.89998 2.92048 2.83143 2.95618Z" fill="#FF5539"/>
<path d="M8.07718 3.66377C7.95477 3.78549 8.03964 3.97375 8.21591 3.97375C8.38566 3.97375 8.46563 3.77575 8.34485 3.65728C8.30405 3.61671 8.28446 3.60859 8.21428 3.60859C8.14246 3.60859 8.12614 3.61508 8.07718 3.66377Z" fill="#FF5539"/>
<path d="M2.01535 4.96048C1.9517 4.9832 1.88478 5.06921 1.88478 5.1325C1.88478 5.19742 1.94353 5.27857 2.01045 5.30778C2.1247 5.35484 2.25528 5.27857 2.26997 5.15522C2.28629 5.01728 2.15245 4.91503 2.01535 4.96048Z" fill="#FF5539"/>
<path d="M7.48144 5.05785C7.34923 5.12439 7.32149 5.25909 7.41778 5.36133C7.52551 5.47494 7.76054 5.37756 7.76054 5.22014C7.76054 5.06921 7.62017 4.98806 7.48144 5.05785Z" fill="#FF5539"/>
<path d="M3.02729 5.49279C2.90977 5.53986 2.85591 5.65508 2.90487 5.75733C2.97179 5.8969 3.17255 5.90014 3.25579 5.7622C3.29659 5.69728 3.29659 5.64372 3.25579 5.57718C3.20845 5.49766 3.10726 5.46033 3.02729 5.49279Z" fill="#FF5539"/>
<path d="M5.01688 3.90883C4.94996 3.94454 4.91569 4.03217 4.93691 4.11007C4.99566 4.33079 5.3123 4.28535 5.3123 4.05652C5.3123 4.00783 5.30088 3.98349 5.25681 3.93967C5.21111 3.89423 5.18989 3.88449 5.13113 3.88449C5.09196 3.88611 5.03973 3.89585 5.01688 3.90883Z" fill="#FF5539"/>
<path d="M5.9717 5.75732C5.92436 5.80439 5.9162 5.82386 5.9162 5.88553C5.9162 5.94558 5.926 5.9683 5.96517 6.00725C6.09248 6.13384 6.2916 6.05919 6.2916 5.88553C6.2916 5.82386 6.28344 5.80439 6.23611 5.75732C6.18877 5.71026 6.16919 5.70214 6.1039 5.70214C6.03861 5.70214 6.01903 5.71026 5.9717 5.75732Z" fill="#FF5539"/>
</svg>
