<svg width="14" height="14" viewBox="0 0 14 14" fill="none" xmlns="http://www.w3.org/2000/svg">
<path d="M5.21047 0.764583C4.98524 0.850597 4.63922 1.3326 4.35359 1.96067C4.2426 2.20573 4.05654 2.66988 3.99615 2.8484L3.95208 2.97986H3.8264C3.66482 2.97986 3.54241 3.01556 3.41347 3.1032C3.29432 3.1811 3.20292 3.2947 3.15069 3.42291C3.12295 3.4927 3.11478 3.54625 3.11315 3.66635V3.82215L2.92545 3.88869C2.20241 4.14835 1.52506 4.49079 1.16273 4.78129C0.916271 4.97928 0.841192 5.12048 0.857513 5.36067C0.880363 5.7242 1.1562 6.1705 1.68991 6.71255L1.91678 6.94138L1.84986 7.02902C1.76499 7.14263 1.73398 7.23026 1.73398 7.36496C1.73398 7.55485 1.75357 7.57919 2.34767 8.16668C2.91566 8.72821 2.97115 8.77203 3.13927 8.78988C3.25189 8.80124 3.38246 8.76554 3.47712 8.69738L3.54404 8.64869L3.54894 10.2359L3.55383 11.8215L3.59137 11.9172C3.69257 12.185 3.8819 12.37 4.12835 12.4463C4.23281 12.4788 4.27688 12.4788 7.03686 12.4788C9.35288 12.4788 9.85232 12.4739 9.92087 12.456C10.1249 12.4025 10.3338 12.2386 10.4317 12.0568C10.5362 11.8637 10.5313 11.9984 10.5313 9.31408C10.5313 7.40716 10.5264 6.86349 10.5101 6.83265C10.5003 6.81155 10.4693 6.77747 10.4448 6.75962C10.3991 6.72554 10.3844 6.72554 9.12275 6.7158C8.42092 6.70931 7.48243 6.70444 7.03686 6.70282L6.22567 6.70119L6.20609 6.54215C6.1963 6.45613 6.17344 6.3117 6.15549 6.22243L6.12448 6.06014L6.17834 6.00821C6.22731 5.95952 6.23383 5.95628 6.29912 5.97088C6.43459 6.00172 6.70226 6.0358 6.93566 6.05203C7.06787 6.06177 7.17885 6.07313 7.18212 6.07637C7.18538 6.07962 7.17396 6.10234 7.15437 6.12668C7.11357 6.17699 7.1103 6.24516 7.14458 6.3117C7.17885 6.37986 7.23108 6.40907 7.31269 6.40907C7.3943 6.40907 7.40409 6.40096 7.64075 6.12668C7.78438 5.96277 8.06511 5.69337 8.27893 5.51647C8.89914 5.00201 9.69727 4.55733 10.417 4.32363C10.5917 4.26683 10.6619 4.20516 10.6619 4.10778C10.6619 4.02826 10.6047 3.9536 10.5248 3.92601C10.4774 3.91141 10.4464 3.9179 10.2522 3.98444C9.27454 4.32201 8.37522 4.87704 7.64075 5.59275L7.42041 5.81022L7.21313 5.50024C7.09888 5.33146 7.00584 5.18702 7.00584 5.18215C7.00584 5.17728 7.42204 4.75532 7.92964 4.24573C8.61841 3.55437 8.86487 3.29632 8.89588 3.23628C8.92526 3.17948 8.93995 3.11943 8.94485 3.03666C8.9579 2.82893 8.93832 2.80296 8.32463 2.19599C7.71583 1.59389 7.69951 1.58253 7.48733 1.58253C7.33391 1.58415 7.26372 1.61012 7.15927 1.70587L7.08745 1.77079L6.88017 1.57279C6.4199 1.13298 5.97269 0.832745 5.65932 0.753222C5.51895 0.717518 5.32146 0.722387 5.21047 0.764583ZM5.57608 1.06158C5.69359 1.09241 5.91556 1.20439 6.08041 1.318C6.47703 1.59064 7.05318 2.1684 7.26536 2.50759C7.29637 2.55628 7.31759 2.59847 7.31432 2.6001C7.31106 2.60334 7.24904 2.6001 7.17722 2.5936C6.55374 2.53518 5.41123 2.93928 4.78122 3.44076C4.72735 3.48458 4.67676 3.51866 4.67186 3.51704C4.66533 3.5138 4.56577 3.42291 4.44989 3.31255L4.24097 3.11456L4.28667 2.97986C4.56577 2.18138 4.93301 1.45757 5.21047 1.16057C5.32636 1.03561 5.39817 1.01613 5.57608 1.06158ZM8.05369 2.46053C8.50253 2.90683 8.57271 2.9831 8.57271 3.02368C8.57271 3.06587 8.50416 3.14215 8.05858 3.5852L7.54446 4.09642L7.30453 4.14024C6.87038 4.21976 6.66636 4.24086 6.26321 4.24086C5.85354 4.24086 5.79315 4.23275 5.47488 4.13375L5.3084 4.08344L5.34105 4.04773C5.37206 4.01365 5.39491 4.01041 5.64789 4.00229C6.03634 3.98931 6.29259 3.92926 6.62882 3.77022C7.04665 3.57384 7.42368 3.22167 7.60321 2.86138C7.68645 2.69422 7.68645 2.62444 7.60485 2.46215C7.5722 2.39723 7.49712 2.27876 7.43673 2.19924L7.32738 2.0548L7.38614 1.99962C7.49549 1.90062 7.47754 1.88926 8.05369 2.46053ZM7.18375 2.93928C7.14784 3.0042 6.90302 3.23465 6.7855 3.31255C6.5162 3.48945 6.2828 3.59007 5.99064 3.65337C5.84701 3.6842 5.77357 3.68907 5.47978 3.68907C5.29208 3.68907 5.10928 3.68096 5.07664 3.67284L5.01461 3.65823L5.16967 3.55599C5.56955 3.29308 6.10326 3.06912 6.58638 2.96201C6.80672 2.91332 6.83773 2.91007 7.04338 2.90683L7.20334 2.90358L7.18375 2.93928ZM3.98636 3.33365C4.0647 3.3726 4.47111 3.77346 4.51028 3.84974C4.64575 4.1094 4.45968 4.41289 4.16589 4.41289C4.0239 4.41127 3.95371 4.36907 3.72031 4.14024C3.48365 3.90654 3.45427 3.86759 3.43142 3.74587C3.38572 3.50406 3.58485 3.28172 3.8313 3.29795C3.88679 3.30119 3.95534 3.31742 3.98636 3.33365ZM3.4657 4.32525L3.67298 4.53136L3.59464 4.63036C3.26168 5.05556 2.96136 5.69823 2.821 6.29547C2.75897 6.55675 2.74102 6.71418 2.74918 6.95275C2.75245 7.07284 2.75081 7.17184 2.74592 7.17184C2.74102 7.17184 2.68553 7.13938 2.62351 7.09881C2.23342 6.84239 1.68175 6.29384 1.41245 5.88974C1.23128 5.61871 1.14804 5.38988 1.17905 5.24706C1.21659 5.07666 1.75357 4.72286 2.41133 4.43561C2.65615 4.33012 3.19966 4.12239 3.23556 4.12076C3.24862 4.12076 3.35308 4.21327 3.4657 4.32525ZM5.24312 4.39341C5.60056 4.51026 5.7295 4.53785 6.01186 4.56057C6.22894 4.5768 6.62555 4.5622 6.88017 4.52649C6.94219 4.51675 6.99768 4.51189 7.00095 4.51675C7.00421 4.52 6.90465 4.61413 6.77897 4.72773C6.55211 4.93222 6.51946 4.97766 6.54231 5.05069C6.54884 5.07017 6.64677 5.22434 6.76102 5.39475C6.87364 5.56353 6.97157 5.71122 6.9781 5.72258C7.01237 5.77938 6.1914 5.64306 5.99064 5.55866C5.9531 5.54243 5.91883 5.5116 5.90251 5.47914C5.78662 5.25843 5.49447 4.89165 5.15335 4.54434C5.00972 4.39828 4.90363 4.28143 4.91668 4.2863C4.92974 4.29117 5.07664 4.33986 5.24312 4.39341ZM5.02767 4.86568C5.47162 5.34444 5.67237 5.64955 5.77357 5.9936C5.84049 6.2273 5.93189 6.78396 5.9074 6.80831C5.90414 6.81317 5.75398 6.72067 5.57608 6.60382C5.39654 6.48697 5.23496 6.38797 5.21537 6.3831C5.13866 6.36363 5.09622 6.39446 4.8971 6.61843C4.78611 6.74339 4.69308 6.84563 4.68818 6.84563C4.68329 6.84726 4.68818 6.75475 4.70124 6.63952C4.71593 6.50158 4.72083 6.30845 4.71593 6.06014C4.70614 5.6106 4.69145 5.5327 4.52497 5.04258C4.46131 4.85432 4.41072 4.70014 4.41398 4.6969C4.41725 4.69527 4.44826 4.67742 4.48416 4.65957C4.52007 4.64172 4.5772 4.60439 4.6131 4.5768L4.67513 4.52649L4.75673 4.59465C4.80243 4.63198 4.92321 4.7537 5.02767 4.86568ZM3.82967 5.36229C3.82967 5.7664 3.82967 5.76964 3.77744 5.95952C3.71868 6.17862 3.59301 6.45289 3.46407 6.64601C3.4151 6.7158 3.31064 6.83914 3.22904 6.92029L3.08051 7.06635L3.06582 6.99494C3.0446 6.8927 3.07725 6.59084 3.136 6.35227C3.25841 5.8589 3.45427 5.40286 3.71379 5.0085C3.79213 4.89165 3.79866 4.88516 3.81335 4.91924C3.82314 4.94033 3.82967 5.13184 3.82967 5.36229ZM4.2932 5.35418C4.38297 5.63494 4.40092 5.76477 4.40092 6.14129C4.39929 6.50644 4.37318 6.79045 4.30299 7.17022L4.26219 7.38931L3.76275 7.89241C3.48692 8.16993 3.24862 8.40363 3.23393 8.41174C3.21761 8.41986 3.18823 8.42148 3.16701 8.41661C3.1458 8.41012 2.89934 8.18129 2.61861 7.90702C2.13549 7.43475 2.10774 7.40391 2.10938 7.34874C2.10938 7.27895 2.19262 7.18644 2.23179 7.21241C2.62351 7.48506 2.68716 7.51914 2.8112 7.51914C2.97605 7.51914 3.25678 7.34549 3.50161 7.09069C3.68441 6.90243 3.80682 6.72391 3.9276 6.47236C4.07939 6.15914 4.14467 5.87838 4.161 5.4759C4.16753 5.28926 4.17569 5.22597 4.19527 5.20325C4.20996 5.18864 4.22628 5.18053 4.23281 5.18702C4.23934 5.19513 4.26709 5.26979 4.2932 5.35418ZM5.77846 7.11666L5.81437 7.141V9.62406V12.1055H5.04073H4.26709L4.16426 12.0519C4.04511 11.9903 3.96677 11.8913 3.93902 11.7647C3.92597 11.7079 3.92107 11.1431 3.92107 9.97785V8.27217L4.50538 7.68143L5.08806 7.09069H5.41449C5.6838 7.09069 5.74745 7.09556 5.77846 7.11666ZM7.90027 9.35465C7.90353 10.5946 7.90027 11.7225 7.89537 11.8572L7.88394 12.1055H7.03686H6.18977L6.19466 9.65814C6.19793 7.55322 6.20282 7.2043 6.22241 7.15074L6.24689 7.09069L7.07113 7.09394L7.89537 7.09881L7.90027 9.35465ZM10.1526 9.43905L10.1477 11.789L10.1069 11.8669C10.0612 11.9578 9.9829 12.0325 9.88823 12.0747C9.82621 12.1022 9.76419 12.1055 9.05094 12.1055H8.27893V9.59809V7.09069H9.21742H10.1559L10.1526 9.43905Z" fill="#FF5539"/>
<path d="M10.9459 2.36802C10.9279 2.37451 10.892 2.40372 10.8692 2.43294C10.83 2.47838 10.8251 2.49785 10.8251 2.60983C10.8251 2.67962 10.8202 2.80458 10.8137 2.88735L10.8039 3.03828L10.5933 3.17461C10.4791 3.24926 10.3714 3.32554 10.3534 3.34339C10.2832 3.41967 10.3061 3.55761 10.3991 3.61442C10.4252 3.63064 10.5493 3.67933 10.6749 3.72315L10.9034 3.80267L10.9736 4.06234C11.0552 4.36745 11.0862 4.41289 11.2086 4.41289C11.3017 4.41289 11.3376 4.38043 11.5188 4.14511L11.664 3.95685L11.9529 3.96821L12.2434 3.97957L12.3022 3.92115C12.3561 3.86759 12.3675 3.83351 12.3593 3.75561C12.3577 3.73776 12.2875 3.62253 12.2026 3.50081L12.0492 3.27685L12.1471 3.02368C12.201 2.8841 12.2451 2.75914 12.2451 2.74616C12.2451 2.69747 12.1896 2.60983 12.1455 2.58711C12.077 2.55141 12.0296 2.55628 11.7652 2.6358C11.6265 2.678 11.5139 2.70234 11.5041 2.69585C11.4943 2.68773 11.4078 2.61795 11.3115 2.54005C11.0781 2.35179 11.0356 2.33069 10.9459 2.36802ZM11.3082 3.01718C11.4306 3.10969 11.46 3.11456 11.6297 3.06749C11.6901 3.04964 11.7391 3.03666 11.7391 3.0399C11.7391 3.04153 11.7211 3.09021 11.6983 3.14702C11.6395 3.29795 11.6444 3.34663 11.7309 3.47647L11.806 3.5852L11.6591 3.58196L11.5122 3.57709L11.4551 3.63227C11.4225 3.6631 11.3768 3.71666 11.3539 3.75074C11.3294 3.78482 11.3049 3.80916 11.2984 3.8043C11.2935 3.80105 11.2788 3.75561 11.2674 3.70368C11.2331 3.5495 11.1972 3.51217 11.0177 3.44726L10.9165 3.41155L11.0258 3.34014C11.1581 3.25413 11.1842 3.20706 11.1842 3.05126C11.1842 2.98797 11.1874 2.93604 11.1923 2.93604C11.1972 2.93604 11.2495 2.97174 11.3082 3.01718Z" fill="#FF5539"/>
<path d="M10.9295 5.40935C10.8594 5.44019 10.8251 5.49537 10.8251 5.57814C10.8251 5.63818 10.8349 5.65928 10.8806 5.70472C10.923 5.74692 10.9491 5.7599 10.9965 5.7599C11.0764 5.7599 11.145 5.71771 11.1776 5.64792C11.2021 5.59761 11.2021 5.58301 11.1825 5.5262C11.1581 5.4548 11.0732 5.38663 11.0144 5.38663C10.9948 5.38826 10.9573 5.39799 10.9295 5.40935Z" fill="#FF5539"/>
<path d="M10.0417 5.47752C9.53732 5.54568 9.03298 5.73394 8.68044 5.98549C8.51559 6.10234 8.49111 6.1348 8.49111 6.22893C8.49274 6.33604 8.56292 6.40907 8.66738 6.40907C8.73267 6.40907 8.75388 6.39771 8.88772 6.29871C9.18151 6.07638 9.67768 5.89623 10.1396 5.84105C10.3681 5.81509 10.4432 5.75666 10.4268 5.62358C10.4171 5.54244 10.3469 5.46941 10.2702 5.45967C10.2391 5.45642 10.1363 5.46454 10.0417 5.47752Z" fill="#FF5539"/>
</svg>
