<svg width="8" height="11" viewBox="0 0 8 11" fill="none" xmlns="http://www.w3.org/2000/svg">
    <path d="M3.74995 0.0295019C3.55409 0.0927954 3.41209 0.198285 3.306 0.362199C3.20154 0.522867 3.17543 0.631602 3.16727 0.949693L3.15911 1.22721L3.00079 1.26454C2.91428 1.28401 2.82451 1.3116 2.80003 1.32296C2.70374 1.37165 2.70537 1.36354 2.70537 2.01108V2.60344L2.57806 2.64888C2.50951 2.67485 2.34956 2.74463 2.22388 2.8063C1.05852 3.36783 0.227755 4.499 0.0351605 5.78435C-0.00564338 6.06024 -0.012172 6.52602 0.0221033 6.79867C0.0367927 6.9285 0.0514821 7.06645 0.0514821 7.10702C0.0531142 7.14759 0.061275 7.19466 0.0727001 7.21251C0.082493 7.23036 0.113504 7.32774 0.141251 7.42998C0.34527 8.16029 0.782688 8.8484 1.35557 9.34339C1.84359 9.76373 2.37567 10.0429 2.99099 10.1987C3.37129 10.296 3.51655 10.3123 3.97845 10.3123C4.44525 10.3123 4.61173 10.2928 4.98222 10.1987C5.41801 10.0883 5.81299 9.90979 6.21287 9.64363C6.4887 9.45862 6.52298 9.42941 6.8184 9.13566C7.43862 8.52058 7.82054 7.73833 7.93806 6.84735C7.9756 6.55848 7.96254 5.97747 7.91194 5.69671C7.76342 4.86253 7.38966 4.15007 6.79555 3.56096C6.57847 3.34511 6.42179 3.2169 6.17696 3.05461C5.97621 2.92153 5.62856 2.74301 5.40985 2.66024L5.26785 2.60669V2.03218C5.26785 1.63781 5.26132 1.4463 5.2499 1.42196C5.20583 1.33757 5.16829 1.31647 4.98222 1.27103L4.79779 1.22559L4.79126 0.933464C4.77984 0.543965 4.74556 0.441722 4.55134 0.237235C4.44688 0.126877 4.33263 0.0587149 4.19879 0.0230103C4.06985 -0.00944805 3.86257 -0.0078249 3.74995 0.0295019ZM4.11229 0.388165C4.20532 0.414132 4.30814 0.501769 4.36201 0.599144C4.40934 0.685159 4.41097 0.696519 4.41587 0.928596L4.4224 1.17041L4.34242 1.15743C4.24123 1.1412 3.7173 1.1412 3.61285 1.15743L3.53287 1.17041L3.54103 0.933464C3.54919 0.719239 3.55409 0.690027 3.59326 0.608882C3.68629 0.420624 3.90011 0.329741 4.11229 0.388165ZM4.41097 1.54206C4.49258 1.55017 4.63131 1.57451 4.72108 1.59399L4.8843 1.62969L4.88919 2.06301C4.89082 2.3032 4.88919 2.49795 4.88593 2.49795C4.88103 2.49795 4.82391 2.48659 4.75862 2.47361C4.27224 2.37136 3.61285 2.37786 3.1183 2.48984L3.08076 2.49795V2.06301V1.62645L3.24398 1.59074C3.61611 1.51284 3.99967 1.49661 4.41097 1.54206ZM4.5497 2.81442C5.33151 2.9475 6.01701 3.29967 6.56052 3.84984C6.81514 4.10788 7.03058 4.4065 7.19869 4.7327C7.28846 4.90635 7.39455 5.15953 7.38313 5.17089C7.37986 5.17413 7.19869 5.03618 6.97998 4.86578C6.50176 4.49251 6.52298 4.50712 6.44627 4.50387C6.38914 4.50387 6.32712 4.54444 5.75097 4.96153C5.12422 5.41595 5.11933 5.41919 5.08179 5.3916C5.0622 5.37537 4.82717 5.179 4.5595 4.95666C4.29346 4.7327 4.04537 4.53795 4.00946 4.52172C3.95723 4.499 3.93275 4.49576 3.89684 4.50874C3.87073 4.51685 3.5851 4.71809 3.26193 4.95666C2.93713 5.19361 2.66293 5.3916 2.64987 5.39647C2.63355 5.40296 2.46707 5.25852 2.15533 4.9664C1.66732 4.50712 1.61998 4.47303 1.52695 4.50874C1.50737 4.51685 1.28376 4.67265 1.03241 4.85604C0.781056 5.03943 0.573772 5.18712 0.57214 5.18549C0.562347 5.17576 0.674966 4.91122 0.756573 4.74731C1.23153 3.80764 2.09821 3.12277 3.13136 2.87284C3.24235 2.84688 3.39251 2.81604 3.46432 2.80793C3.53613 2.79819 3.61774 2.78683 3.64386 2.78358C3.76137 2.76735 4.40118 2.78845 4.5497 2.81442ZM2.03782 5.38673C2.28917 5.62368 2.51277 5.82492 2.53236 5.83628C2.55031 5.84764 2.59275 5.85576 2.62702 5.85738C2.67925 5.85738 2.75433 5.80707 3.27989 5.42081C3.60795 5.18062 3.89031 4.97614 3.90827 4.96478C3.93765 4.9453 3.98824 4.98263 4.46973 5.38673C4.76025 5.62855 5.01487 5.83466 5.03609 5.84277C5.13891 5.88334 5.15034 5.87685 5.80157 5.40296C6.14595 5.15303 6.43321 4.94855 6.443 4.94855C6.4528 4.94855 6.70415 5.14005 7.00283 5.37213C7.44841 5.72105 7.54634 5.80545 7.55777 5.84764C7.57735 5.91905 7.59041 6.64774 7.57409 6.72239L7.56103 6.78244L7.07138 6.39943C6.80208 6.19008 6.56215 6.00669 6.53767 5.9937C6.42505 5.93528 6.42342 5.9369 5.74771 6.42702C5.19277 6.82788 5.11606 6.87981 5.09158 6.86034C5.07689 6.84898 4.84023 6.65261 4.56603 6.42377C4.29182 6.19494 4.0519 6.00019 4.03231 5.99046C4.01272 5.9791 3.96866 5.97098 3.93438 5.97098C3.87726 5.97098 3.81034 6.01642 3.25214 6.4254L2.63355 6.87981L2.51767 6.76945C2.3871 6.64287 1.87297 6.16249 1.74729 6.04726C1.67221 5.9791 1.65426 5.97098 1.58734 5.97098C1.51389 5.97098 1.49268 5.98559 0.954064 6.37671L0.395867 6.78244L0.384442 6.69642C0.355063 6.4611 0.38281 5.85251 0.425246 5.78759C0.448096 5.75514 1.5498 4.95017 1.56612 4.95342C1.57265 4.95504 1.78483 5.14979 2.03782 5.38673ZM2.03618 6.84735C2.28917 7.0843 2.51114 7.28554 2.53073 7.2969C2.55031 7.30826 2.59275 7.31638 2.62702 7.318C2.69231 7.318 2.6662 7.33585 3.49207 6.72888C3.77117 6.52277 3.93601 6.41241 3.94907 6.41891C3.9605 6.42702 4.19389 6.61852 4.4681 6.84735C4.7423 7.07618 4.98386 7.2758 5.00671 7.29041C5.02793 7.30502 5.07689 7.318 5.1128 7.318C5.17319 7.318 5.23195 7.27905 5.80483 6.86358C6.14922 6.61366 6.43648 6.40917 6.443 6.40917C6.45117 6.40917 6.6862 6.58931 6.96856 6.81003C7.42067 7.1622 7.47942 7.21413 7.47616 7.25146C7.468 7.34234 7.33416 7.71237 7.23623 7.91198C7.02732 8.33881 6.73679 8.73156 6.42342 9.00745L6.3108 9.10645L6.07087 9.03991C5.41148 8.85814 4.84186 8.76401 4.17104 8.72831C3.34517 8.68287 2.3871 8.8127 1.76525 9.05289L1.63957 9.10158L1.46166 8.92793C1.11075 8.58874 0.846342 8.20735 0.658644 7.76592C0.560715 7.54034 0.462785 7.22062 0.484003 7.19953C0.518279 7.16545 1.5547 6.41241 1.56449 6.41404C1.57102 6.41566 1.7832 6.61041 2.03618 6.84735ZM4.26408 9.12105C4.80758 9.15514 5.28091 9.23303 5.84564 9.38072L5.90929 9.39857L5.81299 9.45537C5.4278 9.68907 4.93 9.85786 4.43545 9.9244C4.23143 9.95036 3.79565 9.95361 3.57367 9.92926C3.10525 9.87895 2.56011 9.69881 2.16676 9.46673C2.09494 9.42454 2.03618 9.38397 2.03618 9.37747C2.03618 9.35962 2.3773 9.26712 2.63192 9.21843C2.84247 9.17623 3.20481 9.13404 3.49696 9.11456C3.68793 9.10158 4.02089 9.10482 4.26408 9.12105Z"
          fill="#FF5539"/>
</svg>
