<svg width="9" height="10" viewBox="0 0 9 10" fill="none" xmlns="http://www.w3.org/2000/svg">
    <path d="M2.39077 0.216527C2.33025 0.248288 2.28836 0.318161 2.29146 0.383271C2.29301 0.445204 2.698 1.43455 2.74145 1.48537C2.80662 1.56 2.94627 1.55365 3.00989 1.47107C3.07041 1.39326 3.05489 1.33609 2.84541 0.832684C2.59869 0.241936 2.6018 0.2467 2.53663 0.218115C2.47145 0.191119 2.43887 0.191119 2.39077 0.216527Z"
          fill="#FF5539"/>
    <path d="M6.38325 0.206996C6.36463 0.210172 6.33515 0.229229 6.31808 0.248285C6.30101 0.267342 6.18774 0.521427 6.06671 0.812037C5.82775 1.38373 5.82309 1.40437 5.90223 1.4806C5.97826 1.55365 6.11946 1.55206 6.16601 1.47742C6.22188 1.39008 6.6129 0.424557 6.6129 0.375328C6.6129 0.305454 6.57411 0.246697 6.50894 0.218113C6.45463 0.19588 6.44377 0.194292 6.38325 0.206996Z"
          fill="#FF5539"/>
    <path d="M4.40796 0.454734C4.37847 0.469026 4.25589 0.708819 3.85556 1.53777C3.1092 3.08134 3.05644 3.18774 3.04247 3.20203C3.03161 3.21315 1.95009 3.3783 0.575297 3.5784C0.333234 3.61492 0.115998 3.65303 0.0927228 3.66574C0.0694476 3.67844 0.0384139 3.71497 0.022897 3.74673C-0.0329636 3.86901 -0.0795142 3.81501 1.07804 4.9711C1.80578 5.69683 2.14095 6.03985 2.14095 6.06367C2.14095 6.08114 2.03233 6.74017 1.90043 7.52784C1.76854 8.31709 1.65992 8.99042 1.65992 9.02535C1.65992 9.07299 1.67079 9.10158 1.70492 9.13969C1.74527 9.18574 1.75923 9.1921 1.82595 9.19051C1.89268 9.19051 2.00905 9.13175 3.05644 8.56641C3.69263 8.2234 4.27917 7.90738 4.35985 7.86609L4.50726 7.78986L5.80292 8.4886C6.69514 8.96977 7.11875 9.19051 7.16064 9.19527C7.2134 9.20162 7.23202 9.19686 7.27237 9.16192C7.32357 9.11746 7.36391 9.02535 7.3484 8.98565C7.33288 8.94436 6.85651 6.07002 6.86117 6.0462C6.86427 6.03509 7.34219 5.54915 7.92407 4.96793C9.08318 3.81184 9.03508 3.86742 8.97456 3.74355C8.95749 3.71179 8.92801 3.67685 8.90629 3.66415C8.88457 3.65303 8.23596 3.54981 7.46322 3.43547C6.69048 3.31955 6.03412 3.22268 6.00464 3.21791L5.95033 3.20838L5.6431 2.57158C4.62054 0.448381 4.63761 0.48173 4.59261 0.45791C4.53985 0.429325 4.46071 0.429325 4.40796 0.454734ZM4.32882 2.967C4.32882 3.81819 4.32417 4.51534 4.31796 4.51534C4.30555 4.51375 3.39471 3.38148 3.3854 3.35766C3.38074 3.34178 4.3071 1.41867 4.31951 1.41867C4.32417 1.41867 4.32882 2.11582 4.32882 2.967ZM5.44603 2.98606L5.62137 3.35448L5.56086 3.43071C5.44758 3.57522 4.71209 4.49152 4.69967 4.50581C4.69191 4.51534 4.68571 3.82772 4.68571 2.96859V1.41391L4.97742 2.01577C5.1388 2.34608 5.34828 2.78279 5.44603 2.98606ZM3.54988 4.14374C3.7997 4.45499 3.99366 4.7059 3.9828 4.70272C3.84314 4.66938 1.0858 3.88489 1.0858 3.87854C1.0858 3.87377 1.14632 3.86107 1.22235 3.85154C1.29683 3.84042 1.7344 3.77531 2.19525 3.70703C2.6561 3.63715 3.04713 3.57998 3.0642 3.57998C3.08902 3.5784 3.21471 3.7245 3.54988 4.14374ZM6.91703 3.7245C7.46477 3.80549 7.91321 3.87536 7.91321 3.88012C7.91321 3.88965 5.02242 4.7059 5.01466 4.69796C5.00846 4.69161 5.90068 3.5784 5.91154 3.5784C5.91619 3.57681 6.36773 3.64351 6.91703 3.7245ZM2.4249 4.64397C3.81056 5.03462 3.95331 5.07909 3.91452 5.09497C3.33729 5.34747 2.4218 5.74448 2.40318 5.74924C2.38456 5.754 2.15957 5.53962 1.68941 5.07115C0.773912 4.15803 0.806497 4.19138 0.853048 4.20249C0.874772 4.20885 1.58234 4.40735 2.4249 4.64397ZM8.02959 4.35336C7.64787 4.73766 6.71997 5.65872 6.66876 5.70477L6.6098 5.75718L5.82775 5.41734C5.39793 5.23154 5.05191 5.07591 5.06122 5.07274C5.11242 5.05527 8.14131 4.20091 8.16148 4.19932C8.17389 4.19773 8.11493 4.2676 8.02959 4.35336ZM3.99366 5.46975C3.96883 5.51262 2.16888 8.19322 2.15801 8.20434C2.1487 8.21387 2.48542 6.16372 2.50094 6.11607C2.50559 6.10496 3.96573 5.46022 3.99986 5.45386C4.00297 5.45228 3.99986 5.46022 3.99366 5.46975ZM5.7874 5.7937C6.16757 5.95886 6.48256 6.09702 6.49032 6.10337C6.49652 6.10813 6.57876 6.57343 6.67186 7.13718C6.76652 7.69934 6.84565 8.17417 6.84876 8.19005C6.85341 8.20593 6.85031 8.21387 6.8441 8.20593C6.83324 8.19481 5.40879 6.0732 5.03949 5.51897L4.99294 5.45069L5.0457 5.47292C5.07363 5.48563 5.40724 5.63014 5.7874 5.7937ZM4.32572 7.01808L4.32106 7.47067L3.36678 7.9836C2.84231 8.26627 2.41094 8.49654 2.40784 8.49336C2.40318 8.4886 4.06038 6.01126 4.24968 5.73812L4.32106 5.6349L4.32572 6.10019C4.32727 6.35587 4.32727 6.77034 4.32572 7.01808ZM5.66172 7.09272C6.17688 7.85974 6.59428 8.49019 6.59273 8.49177C6.58962 8.49495 6.16136 8.26786 5.63999 7.98678L4.69347 7.47702L4.68881 6.55596C4.68571 5.77941 4.68881 5.63966 4.70588 5.66666C4.71829 5.68413 5.14811 6.3257 5.66172 7.09272Z"
          fill="#FF5539"/>
    <path d="M0.974079 0.76122C0.885633 0.810449 0.859254 0.932728 0.91977 1.02007C0.961665 1.082 2.06181 2.12375 2.1006 2.13805C2.15491 2.16028 2.24491 2.14916 2.28525 2.11581C2.33801 2.07452 2.36439 1.98083 2.34266 1.91572C2.32404 1.8649 1.23166 0.815213 1.14321 0.762808C1.08425 0.72946 1.02994 0.72946 0.974079 0.76122Z"
          fill="#FF5539"/>
    <path d="M7.7627 0.754869C7.74408 0.765985 7.46788 1.02325 7.14823 1.32656C6.69824 1.75374 6.56324 1.88872 6.55549 1.92684C6.52911 2.04753 6.60669 2.14916 6.72462 2.14916C6.76031 2.14916 6.80531 2.13805 6.82548 2.12217C6.92789 2.0507 7.98614 1.02801 8.00321 0.985133C8.03114 0.920024 8.01562 0.845386 7.96131 0.792981C7.91011 0.742164 7.81545 0.724696 7.7627 0.754869Z"
          fill="#FF5539"/>
    <path d="M0.508572 2.09517C0.421678 2.14281 0.395299 2.26033 0.448057 2.34926C0.483745 2.40801 0.471332 2.40325 1.13235 2.6351C1.47682 2.75579 1.61803 2.79867 1.64906 2.79073C1.70958 2.77803 1.7794 2.71133 1.79181 2.65734C1.80578 2.59223 1.77475 2.50488 1.72509 2.46995C1.67389 2.43342 0.63581 2.06976 0.586156 2.06976C0.565985 2.07135 0.531847 2.08088 0.508572 2.09517Z"
          fill="#FF5539"/>
    <path d="M7.72701 2.26192C7.27237 2.42231 7.18547 2.45724 7.14978 2.49853C7.08772 2.56682 7.09082 2.65257 7.15444 2.72721C7.23513 2.82249 7.24133 2.82249 7.84339 2.60969C8.33993 2.43501 8.39113 2.41437 8.43923 2.36196C8.48578 2.31114 8.49044 2.29685 8.48268 2.2381C8.47027 2.15234 8.38803 2.06976 8.31355 2.07135C8.28562 2.07135 8.02183 2.15711 7.72701 2.26192Z"
          fill="#FF5539"/>
</svg>
