<svg width="11" height="12" viewBox="0 0 11 12" fill="none" xmlns="http://www.w3.org/2000/svg">
    <path d="M8.02996 0.507401C7.97121 0.523631 7.8847 0.547975 7.83737 0.562581C7.76229 0.583678 7.73454 0.583678 7.60887 0.564203C7.31508 0.515516 7.19267 0.541483 7.04904 0.684299C6.97396 0.758953 6.94948 0.797903 6.92826 0.872557C6.89398 0.987783 6.90378 1.11112 6.95111 1.21175C6.98375 1.27829 6.98538 1.30263 6.98212 1.78463L6.97722 2.28774L6.56918 1.94855C6.10402 1.56229 5.97834 1.47141 5.78901 1.38377C5.37281 1.19227 5.03169 1.26043 4.53878 1.63208C4.28743 1.82196 1.80982 3.78731 1.66456 3.91227C1.5144 4.04048 1.4132 4.15571 1.36261 4.25471C1.25325 4.47055 1.24509 4.67829 1.33813 4.86654C1.38383 4.95905 1.38709 4.9769 1.36587 4.98826C1.29406 5.02883 1.15696 5.15704 1.11289 5.22521C1.04597 5.32907 1.02312 5.43294 1.03128 5.58387C1.04107 5.73967 1.06719 5.7916 1.25815 6.04478C1.4638 6.31418 1.52419 6.3369 1.69557 6.21194L1.79513 6.13891V7.70339V9.26626L1.69883 9.27762C1.55031 9.29385 1.31364 9.36363 1.16512 9.43179C0.582437 9.70444 0.185823 10.279 0.151548 10.9038C0.141755 11.1034 0.149916 11.1359 0.233156 11.1862C0.285385 11.2186 0.365361 11.2186 5.43484 11.2186C10.5043 11.2186 10.5843 11.2186 10.6365 11.1862C10.7181 11.1375 10.7279 11.1034 10.7198 10.9119C10.692 10.3098 10.3101 9.73528 9.75189 9.45452C9.53481 9.34416 9.25571 9.27113 9.05659 9.27113H8.96029V7.6969V6.12105L9.00762 6.15676C9.06149 6.19733 9.15289 6.20382 9.21328 6.17136C9.27203 6.14053 9.56093 5.75103 9.6001 5.64879C9.64743 5.52869 9.6458 5.3664 9.59683 5.23819C9.56745 5.16354 9.53155 5.11323 9.44667 5.02883L9.33242 4.91523L9.35038 4.85031C9.38302 4.72048 9.38628 4.68153 9.36833 4.57442C9.33569 4.36993 9.23449 4.22549 8.94397 3.97232L8.76443 3.8149L8.77096 2.52144C8.77586 1.8106 8.78402 1.16793 8.78892 1.09165C8.79708 0.973178 8.79381 0.939096 8.76443 0.861197C8.69915 0.687545 8.5294 0.53986 8.34171 0.497664C8.22093 0.468451 8.15727 0.470075 8.02996 0.507401ZM8.29764 0.870934C8.38088 0.905015 8.42168 0.968308 8.42168 1.06081V1.14034H7.90102H7.38037L7.32977 1.09327C7.27101 1.03809 7.26611 0.99103 7.31345 0.943965C7.34283 0.914753 7.36078 0.911507 7.43096 0.919621C7.47829 0.92449 7.59744 0.932605 7.69537 0.937473C7.86512 0.947211 7.88307 0.943965 8.0218 0.898523C8.18828 0.843345 8.22256 0.840098 8.29764 0.870934ZM8.38904 2.50521V3.49681L8.32702 3.44163C8.29111 3.41241 8.06097 3.21442 7.81289 3.00182L7.36078 2.61394V2.06377V1.51361H7.87491H8.38904V2.50521ZM5.61764 1.7116C5.8494 1.81872 6.12197 2.03943 7.84227 3.5179C8.82319 4.36019 8.92765 4.45757 8.97661 4.56793C8.9962 4.61175 9.00926 4.65556 9.00599 4.6653C9.0011 4.67829 7.04251 3.23714 5.70414 2.2358C5.58826 2.14817 5.46748 2.06702 5.43647 2.05404C5.36955 2.02482 5.30263 2.0443 5.23082 2.11408C5.2047 2.14005 4.40005 2.74053 3.44361 3.44974C1.52256 4.87466 1.6564 4.78864 1.6564 4.60039C1.6564 4.47704 1.69557 4.40239 1.82614 4.27256C1.95834 4.14272 4.75912 1.92258 4.92887 1.81222C5.11493 1.69213 5.21939 1.65967 5.38587 1.66454C5.49523 1.66778 5.54419 1.67752 5.61764 1.7116ZM7.28733 3.87494C8.32865 4.64745 9.19695 5.29824 9.21654 5.32258C9.27856 5.39724 9.26877 5.49786 9.18879 5.61633C9.15289 5.66988 9.11372 5.72019 9.10229 5.72993C9.0876 5.74129 9.05006 5.72019 8.96029 5.64879C8.89337 5.59361 8.79055 5.51895 8.73179 5.48163C8.67303 5.4443 8.00548 4.95418 7.24653 4.39428C5.31406 2.96449 5.43973 3.05537 5.37771 3.05537C5.33854 3.05537 5.29121 3.07972 5.2047 3.14139C4.89786 3.3621 1.80655 5.65203 1.7021 5.73642C1.63844 5.78836 1.58132 5.83055 1.57642 5.83055C1.57316 5.83055 1.53398 5.78511 1.49155 5.72993C1.42626 5.64716 1.4132 5.61633 1.40668 5.54654C1.40015 5.47189 1.40504 5.45566 1.44748 5.41022C1.48665 5.3664 5.36139 2.47599 5.38587 2.47275C5.39077 2.47275 6.24602 3.10244 7.28733 3.87494ZM6.65079 4.417C7.33303 4.9201 8.04792 5.44917 8.23888 5.59036L8.5849 5.8484V8.20487C8.5849 9.77585 8.57837 10.5808 8.56857 10.6214C8.54572 10.7025 8.47881 10.7788 8.3972 10.8145C8.33518 10.8437 8.23235 10.8454 6.19216 10.8454H4.05077L4.03281 10.7382C3.89245 9.93977 3.20694 9.31494 2.43167 9.27762C2.3468 9.27275 2.25213 9.26626 2.22439 9.26139L2.17052 9.25327L2.17216 7.54597V5.83867L3.52521 4.84058C5.28631 3.54225 5.37445 3.47895 5.39403 3.49031C5.40219 3.49518 5.96855 3.91227 6.65079 4.417ZM2.61121 9.6801C2.88214 9.74502 3.10575 9.87485 3.29998 10.081C3.43055 10.2205 3.50563 10.3358 3.57091 10.4916C3.60682 10.5808 3.67048 10.7983 3.67211 10.8324C3.67211 10.8405 2.96375 10.8454 2.09871 10.8454H0.526944L0.541633 10.7626C0.56938 10.6117 0.65262 10.412 0.750549 10.266C0.923558 10.0047 1.17817 9.81156 1.48176 9.70769C1.62865 9.659 1.65966 9.65413 1.91754 9.64602C2.28967 9.63304 2.44636 9.64115 2.61121 9.6801ZM9.38465 9.70769C9.85471 9.85862 10.2203 10.2643 10.3215 10.7431L10.3444 10.8454H9.61805H8.89174L8.90317 10.808C8.95703 10.636 8.96029 10.6035 8.96029 10.1248V9.63953L9.09576 9.64926C9.179 9.65413 9.28672 9.67523 9.38465 9.70769Z"
          fill="#FF5539"/>
    <path d="M4.41801 5.0694C4.16502 5.12945 3.96753 5.37126 3.93326 5.66339C3.9202 5.77699 3.93162 5.98148 3.95937 6.10807C3.9659 6.14377 3.95774 6.15838 3.9202 6.18597C3.85818 6.22978 3.70312 6.43103 3.64763 6.54138C3.62478 6.59007 3.58887 6.6842 3.56928 6.75236C3.53664 6.87246 3.53501 6.91141 3.53501 7.73747C3.53338 8.51647 3.53664 8.60897 3.56276 8.7242C3.6411 9.05527 3.87613 9.35389 4.17318 9.50157C4.4327 9.63141 4.47187 9.63628 5.29611 9.63628C5.93101 9.63628 6.02568 9.63303 6.11871 9.60706C6.60346 9.47399 6.92337 9.13967 7.0115 8.67064C7.04741 8.48239 7.03598 6.88544 6.99844 6.76372C6.95601 6.62577 6.89235 6.4862 6.84013 6.4083C6.79279 6.34014 6.78953 6.3304 6.80585 6.26549C6.82707 6.17298 6.82707 5.98148 6.80422 5.87599C6.79443 5.82892 6.76015 5.7348 6.72914 5.66826C6.62142 5.44429 6.36517 5.23818 6.12034 5.18301C5.97835 5.15055 5.78249 5.16191 5.57357 5.21384C5.34181 5.27227 5.28958 5.2674 5.01374 5.16353C4.74444 5.06291 4.5649 5.03532 4.41801 5.0694ZM4.84237 5.49947C5.23245 5.64229 5.35813 5.65527 5.64702 5.579C5.88042 5.51895 6.02078 5.52544 6.16605 5.60334C6.22317 5.63255 6.28846 5.67962 6.31131 5.70721C6.36354 5.76888 6.42393 5.89871 6.43862 5.98148L6.45004 6.04315L6.39618 6.01069C6.36517 5.99284 6.28193 5.95876 6.21011 5.93279L6.07954 5.88735L5.3467 5.88248C4.72648 5.87761 4.59428 5.88086 4.48656 5.90358C4.41637 5.91656 4.34782 5.93279 4.33477 5.93766C4.31844 5.94415 4.31028 5.92468 4.30212 5.85976C4.27927 5.68286 4.35109 5.49623 4.46044 5.44754C4.53552 5.41346 4.65304 5.42969 4.84237 5.49947ZM6.0469 6.27685C6.34232 6.35475 6.56592 6.58196 6.63447 6.87733C6.65732 6.97145 6.66059 7.10616 6.65569 7.80888C6.6508 8.60573 6.64916 8.63332 6.61489 8.72258C6.53491 8.93356 6.39128 9.08935 6.18563 9.18835L6.06322 9.24678L5.39404 9.25651C5.0268 9.26301 4.67589 9.26138 4.6155 9.25327C4.29886 9.2127 4.03935 8.99847 3.94958 8.70635C3.91693 8.60086 3.9153 8.56353 3.9202 7.72124L3.92509 6.84487L3.98548 6.71828C4.08994 6.50081 4.28254 6.33852 4.50451 6.27847C4.63835 6.24277 5.90816 6.24114 6.0469 6.27685Z"
          fill="#FF5539"/>
    <path d="M4.50451 6.43589C4.29722 6.48296 4.14054 6.6063 4.04587 6.79618C3.99364 6.90329 3.99038 6.91628 3.99038 7.0883C3.99038 7.24735 3.99528 7.27656 4.03445 7.35933C4.09484 7.48916 4.20909 7.60439 4.33966 7.66931L4.44738 7.72286L4.35925 7.76181C4.24336 7.81212 4.12748 7.9306 4.06056 8.0653C4.00997 8.16916 4.0067 8.18377 4.0067 8.35418C4.0067 8.51322 4.0116 8.54243 4.05077 8.6252C4.23194 9.01146 4.73954 9.12993 5.07576 8.86539C5.14921 8.80697 5.26509 8.64305 5.27978 8.57327C5.28958 8.5262 5.29121 8.52783 5.3467 8.63656C5.41525 8.77451 5.5295 8.88162 5.6764 8.95141C5.77596 8.99847 5.79881 9.00334 5.94897 9.00334C6.10076 9.00334 6.12034 9.00009 6.21827 8.95141C6.48595 8.81995 6.64753 8.51809 6.59693 8.24544C6.55776 8.03933 6.41576 7.84783 6.23623 7.76019L6.14972 7.71799L6.23623 7.66931C6.48105 7.53136 6.62631 7.24573 6.58224 6.98931C6.51859 6.62415 6.17747 6.37098 5.82982 6.43103C5.60295 6.46998 5.42668 6.59981 5.33364 6.7978L5.28468 6.90329L5.24388 6.81728C5.11167 6.53165 4.7983 6.36935 4.50451 6.43589ZM4.77871 6.83351C4.80972 6.84649 4.85379 6.88706 4.87664 6.92277C4.9354 7.01203 4.93866 7.15971 4.88317 7.23761C4.82604 7.31876 4.75912 7.35771 4.66283 7.36745C4.55184 7.37718 4.44738 7.32525 4.39352 7.23274C4.34619 7.1516 4.34945 6.99093 4.40005 6.92277C4.49472 6.7978 4.63018 6.76535 4.77871 6.83351ZM6.07138 6.84C6.22317 6.92277 6.26071 7.12725 6.14972 7.26845C6.10729 7.322 5.99956 7.37069 5.92612 7.37231C5.79718 7.37231 5.6666 7.26358 5.63886 7.13212C5.61437 7.01365 5.72373 6.83675 5.83961 6.81079C5.86409 6.80592 5.89184 6.79943 5.9 6.79618C5.93101 6.78807 6.01425 6.80916 6.07138 6.84ZM5.45442 7.54597C5.49359 7.58492 5.57031 7.64009 5.6258 7.66931L5.72699 7.72286L5.64375 7.76019C5.5295 7.81212 5.41035 7.93384 5.34997 8.06205L5.301 8.16916L5.25367 8.07017C5.19654 7.95007 5.06597 7.81537 4.94845 7.75857L4.86032 7.71475L4.93213 7.67904C4.96967 7.65957 5.03006 7.62062 5.06434 7.59303C5.13615 7.53623 5.24877 7.37231 5.26346 7.30415C5.27325 7.26196 5.27652 7.2652 5.32875 7.36907C5.35976 7.42912 5.41525 7.50864 5.45442 7.54597ZM4.80483 8.10749C4.99742 8.21623 4.98436 8.50024 4.78197 8.60735C4.65956 8.67389 4.48166 8.62196 4.40984 8.49862C4.36088 8.41747 4.36578 8.2568 4.41637 8.18864C4.50777 8.06692 4.67262 8.03284 4.80483 8.10749ZM6.06811 8.09289C6.28519 8.20487 6.28193 8.50835 6.06485 8.60735C5.89021 8.68687 5.69435 8.58625 5.65518 8.39799C5.63396 8.29413 5.71067 8.14807 5.81839 8.08964C5.86409 8.06367 6.01588 8.0653 6.06811 8.09289Z"
          fill="#FF5539"/>
    <path d="M6.13666 0.518761C6.01588 0.582054 5.9914 0.723248 6.0877 0.818999C6.12687 0.856326 6.14809 0.864441 6.21827 0.864441C6.29335 0.864441 6.30967 0.857949 6.35864 0.809262C6.43535 0.732985 6.43698 0.643725 6.3619 0.564202C6.29498 0.494417 6.21664 0.478188 6.13666 0.518761Z"
          fill="#FF5539"/>
    <path d="M3.38321 0.767064C3.22 0.866061 3.32609 1.12248 3.52195 1.10301C3.69985 1.08515 3.76514 0.867684 3.62314 0.767064C3.56275 0.724868 3.45176 0.724868 3.38321 0.767064Z"
          fill="#FF5539"/>
    <path d="M1.48991 1.20525C1.42626 1.2442 1.38709 1.31399 1.38709 1.39351C1.38709 1.48115 1.47359 1.56229 1.56663 1.56229C1.68577 1.56229 1.77881 1.46654 1.77881 1.34158C1.77881 1.29614 1.76575 1.27017 1.72331 1.22797C1.65803 1.16306 1.57315 1.15332 1.48991 1.20525Z"
          fill="#FF5539"/>
    <path d="M9.9608 1.54769C9.85308 1.57852 9.79922 1.70998 9.85145 1.81709C9.9151 1.94205 10.0571 1.96802 10.155 1.87065C10.1942 1.8317 10.2007 1.81222 10.2007 1.73757C10.2007 1.63532 10.1713 1.58501 10.093 1.55255C10.0326 1.52659 10.0326 1.52659 9.9608 1.54769Z"
          fill="#FF5539"/>
    <path d="M2.25539 1.85441C2.13788 1.92582 2.13135 2.08 2.23907 2.17088C2.28314 2.20821 2.30273 2.21308 2.36475 2.20659C2.46921 2.19523 2.5296 2.12706 2.5296 2.01995C2.5296 1.93231 2.50022 1.882 2.43167 1.8463C2.36801 1.81384 2.31905 1.81546 2.25539 1.85441Z"
          fill="#FF5539"/>
    <path d="M1.10636 2.7454C1.06229 2.78435 1.05413 2.80382 1.0476 2.88821C1.04107 2.98234 1.04271 2.99046 1.0982 3.04888C1.14553 3.10081 1.16512 3.11217 1.22061 3.11217C1.35771 3.11217 1.42953 3.02454 1.41647 2.87685C1.40831 2.80544 1.39852 2.7811 1.35608 2.74377C1.28427 2.67886 1.17981 2.68048 1.10636 2.7454Z"
          fill="#FF5539"/>
    <path d="M9.40097 2.93528C9.36017 2.97261 9.33242 3.01318 9.32589 3.04889C9.29325 3.22416 9.4989 3.33614 9.63437 3.21767C9.71435 3.14951 9.7372 3.08621 9.71271 3.00669C9.68823 2.92554 9.62131 2.87686 9.53318 2.87686C9.47932 2.87686 9.4532 2.88822 9.40097 2.93528Z"
          fill="#FF5539"/>
    <path d="M10.1779 4.53222C10.0065 4.58578 9.96733 4.81948 10.1191 4.89738C10.2236 4.95093 10.346 4.90225 10.4031 4.7854C10.4309 4.72697 10.4325 4.71561 10.4113 4.65719C10.3754 4.55494 10.2774 4.50139 10.1779 4.53222Z"
          fill="#FF5539"/>
    <path d="M0.481239 4.72535C0.411056 4.75618 0.375149 4.81136 0.375149 4.88926C0.375149 5.03208 0.508986 5.11485 0.650983 5.05804C0.819095 4.99151 0.799509 4.75943 0.623236 4.71074C0.548157 4.69127 0.559582 4.68964 0.481239 4.72535Z"
          fill="#FF5539"/>
    <path d="M9.88246 6.61279C9.80411 6.68258 9.78779 6.7832 9.84165 6.86597C9.94937 7.03637 10.1844 6.95848 10.1844 6.75237C10.1844 6.64525 10.124 6.57709 10.0179 6.56573C9.94937 6.55762 9.93795 6.56248 9.88246 6.61279Z"
          fill="#FF5539"/>
    <path d="M0.464922 7.11589C0.362096 7.1727 0.321293 7.2652 0.358832 7.35771C0.393107 7.43885 0.448601 7.46969 0.557955 7.46969C0.647724 7.46969 0.660781 7.46482 0.711378 7.41451C0.7734 7.35284 0.784825 7.27494 0.742389 7.19542C0.701585 7.11427 0.548162 7.07045 0.464922 7.11589Z"
          fill="#FF5539"/>
    <path d="M1.47359 7.33986C1.40831 7.37881 1.38709 7.41776 1.38709 7.50215C1.38709 7.55895 1.39688 7.58005 1.44421 7.62712C1.49971 7.68229 1.50624 7.68392 1.59437 7.67743C1.67272 7.67093 1.69393 7.6612 1.73311 7.61738C1.78697 7.55895 1.79513 7.45184 1.75269 7.39179C1.69393 7.3074 1.56499 7.28306 1.47359 7.33986Z"
          fill="#FF5539"/>
    <path d="M9.58541 8.16592C9.39118 8.28764 9.49727 8.58301 9.71435 8.52296C9.80085 8.50024 9.86124 8.42721 9.87103 8.33308C9.87756 8.26167 9.87267 8.24706 9.83023 8.2C9.76821 8.13184 9.66375 8.11723 9.58541 8.16592Z"
          fill="#FF5539"/>
    <path d="M0.556326 8.77126C0.455133 8.82482 0.420858 8.95628 0.484512 9.04229C0.526948 9.09747 0.616716 9.15752 0.655888 9.15752C0.713013 9.15752 0.791357 9.11045 0.822368 9.05852C0.913769 8.90434 0.713013 8.68849 0.556326 8.77126Z"
          fill="#FF5539"/>
</svg>
