<svg width="12" height="12" viewBox="0 0 12 12" fill="none" xmlns="http://www.w3.org/2000/svg">
<path d="M4.88392 0.283037C4.55259 0.357691 4.27023 0.54108 4.08417 0.802369C3.88831 1.07502 3.80017 1.42232 3.84587 1.73392C3.8573 1.80695 3.92095 2.03741 3.98787 2.24351C4.05315 2.45125 4.10865 2.6249 4.10865 2.63139C4.10865 2.63626 4.06132 2.65736 4.00256 2.67683C3.87362 2.71903 3.81486 2.7807 3.81486 2.87158C3.81486 2.91865 3.82792 2.94948 3.86382 2.99168C3.92748 3.06308 3.98787 3.07607 4.09396 3.04199C4.13966 3.02738 4.17883 3.01764 4.18209 3.02089C4.18536 3.02413 4.15598 3.08256 4.11518 3.15234C3.79527 3.70089 3.72672 4.41172 3.93564 5.00571L3.99276 5.168L3.92095 5.25402C3.75447 5.45363 3.69898 5.68896 3.75773 5.93726L3.78222 6.0395L3.63206 6.19855L3.48027 6.35922L3.39866 6.27158C3.35459 6.22452 3.26156 6.1239 3.19301 6.04924L3.06896 5.91454L3.10977 5.39034C3.15384 4.81421 3.15384 4.81096 3.0608 4.75416C2.96124 4.69411 2.84373 4.72495 2.79803 4.82232C2.7817 4.8564 2.76375 4.98948 2.74743 5.19884C2.73274 5.37573 2.71968 5.52504 2.71642 5.52666C2.71315 5.52991 2.64134 5.4585 2.5581 5.36924C2.38836 5.18585 2.3247 5.14853 2.24146 5.17612C2.13537 5.2102 2.07661 5.3238 2.11415 5.41955C2.12395 5.44227 2.19413 5.52829 2.27247 5.61106C2.35082 5.69382 2.41121 5.76523 2.40631 5.7701C2.40141 5.77497 2.25941 5.77172 2.0913 5.76361C1.76324 5.74738 1.71591 5.75387 1.65552 5.82041C1.61308 5.8691 1.60329 5.95674 1.6343 6.01678C1.68653 6.11903 1.69469 6.12065 2.26594 6.14499L2.7866 6.16934L2.88943 6.27645C3.03469 6.43225 3.18158 6.59129 3.21749 6.63187C3.24687 6.66757 3.24687 6.66919 3.17342 6.79416C2.69194 7.61211 2.56463 8.53554 2.81108 9.44437C2.98409 10.0838 3.38397 10.6973 3.91279 11.1403C4.05152 11.2555 4.31267 11.4341 4.43834 11.5006L4.52485 11.546L3.89484 11.5542C3.29257 11.5623 3.26156 11.5639 3.22728 11.5947C3.13425 11.6775 3.13425 11.8073 3.22892 11.8852L3.27951 11.9274H6.08519C9.12916 11.9274 8.94962 11.9323 9.01164 11.843C9.04429 11.796 9.04429 11.6856 9.01164 11.6385C8.95452 11.5558 8.9382 11.5542 8.27554 11.5542H7.66022L7.81038 11.4681C8.63298 11.0007 9.24994 10.1503 9.43764 9.23015C9.51924 8.82767 9.53067 8.37812 9.47028 8.01783C9.45722 7.93344 9.44743 7.86203 9.45069 7.85879C9.45396 7.85554 9.47844 7.86041 9.50455 7.87015C9.59759 7.90585 9.71673 7.84418 9.74611 7.74681C9.75101 7.72896 9.74122 7.55044 9.72326 7.35244C9.70531 7.15444 9.69062 6.97106 9.69062 6.94509C9.69062 6.90289 9.72653 6.86719 9.97462 6.66108C10.2684 6.41602 10.3059 6.3722 10.2831 6.28132C10.2782 6.2586 10.2635 6.22289 10.2504 6.20342C10.2358 6.18232 10.0105 6.06709 9.6286 5.8902C9.2989 5.73602 9.0198 5.60456 9.00838 5.5997C8.99369 5.59158 9.15691 5.34652 9.55352 4.77688C10.4104 3.5532 10.3435 3.65382 10.3435 3.58566C10.3435 3.52075 10.301 3.45258 10.2407 3.42013C10.2211 3.41039 10.035 3.39416 9.80324 3.3828C9.58127 3.37144 9.39194 3.35683 9.38377 3.35196C9.37561 3.34709 9.28585 3.21077 9.18465 3.0501C9.08346 2.88943 8.98226 2.74337 8.95941 2.72552C8.91208 2.68657 8.82558 2.68332 8.76192 2.71578C8.73091 2.73201 8.64114 2.85697 8.48446 3.09717C8.35552 3.29516 8.24616 3.45583 8.24127 3.45583C8.23474 3.45583 8.21678 3.42175 8.19883 3.37793C8.06336 3.04036 7.75652 2.66223 7.42192 2.42528C7.34684 2.37172 7.20158 2.28733 7.09876 2.23702C6.99756 2.18509 6.91922 2.14127 6.92738 2.1364C6.93391 2.13316 6.96818 2.12017 7.00083 2.11044C7.16568 2.05688 7.19505 1.86051 7.05306 1.76638C6.9894 1.72581 6.96329 1.72743 6.79354 1.78423C6.64828 1.83292 6.60585 1.83616 6.60585 1.79721C6.60585 1.75015 6.36918 1.06853 6.31695 0.96466C6.1668 0.666044 5.8779 0.424231 5.53678 0.313872C5.42906 0.278169 5.36867 0.270054 5.19403 0.265185C5.05203 0.261939 4.94921 0.266808 4.88392 0.283037ZM5.37357 0.656307C5.54821 0.700126 5.67388 0.773156 5.80609 0.906235C5.87954 0.979266 5.94972 1.07015 5.98073 1.12695C6.0248 1.21134 6.27125 1.9449 6.25983 1.95464C6.25656 1.95626 5.85832 2.08285 5.37357 2.23865C4.88882 2.39282 4.48731 2.52103 4.48241 2.52428C4.47751 2.5259 4.41549 2.349 4.34368 2.12829C4.218 1.73717 4.21474 1.72418 4.21474 1.56514C4.21474 1.43693 4.2229 1.37688 4.25391 1.28275C4.30287 1.13669 4.42365 0.950054 4.52974 0.859171C4.61951 0.781271 4.79742 0.690388 4.92473 0.657929C5.04387 0.627094 5.25442 0.625471 5.37357 0.656307ZM6.58626 2.43989C6.80987 2.50156 6.96002 2.5681 7.14772 2.69306C7.71898 3.06795 8.03888 3.70089 8.0046 4.37764C7.99481 4.55129 7.94911 4.78986 7.89688 4.9197L7.88056 4.96351L6.12926 4.96838C5.16628 4.97163 4.36653 4.97812 4.35347 4.98624C4.33225 4.99597 4.3192 4.97163 4.28329 4.86452C4.05968 4.17316 4.24575 3.42337 4.76967 2.91378L4.90514 2.78232L5.51557 2.58433L6.12436 2.38471L6.27941 2.39282C6.37408 2.39607 6.49323 2.41554 6.58626 2.43989ZM8.98063 3.42986C9.11937 3.6522 9.15201 3.6944 9.21077 3.7155C9.23198 3.72361 9.37235 3.73659 9.51924 3.74146C9.66777 3.74795 9.79181 3.75769 9.79508 3.76256C9.80487 3.78041 8.6542 5.41144 8.62972 5.41631C8.6134 5.41955 8.57912 5.38223 8.53995 5.32055C8.48282 5.23292 8.36694 5.12094 8.27881 5.07063C8.25269 5.0544 8.25269 5.04791 8.2837 4.94566C8.35552 4.71521 8.37347 4.57888 8.37673 4.25755L8.37837 3.94757L8.61176 3.58891C8.74071 3.39091 8.84843 3.22862 8.85006 3.22862C8.85332 3.22862 8.91208 3.3195 8.98063 3.42986ZM8.00297 5.36275C8.1009 5.39196 8.21026 5.4796 8.25922 5.57211C8.31308 5.67597 8.30982 5.85612 8.25106 5.95674C8.20046 6.04275 8.13191 6.10604 8.04378 6.14662C7.98991 6.17258 7.85118 6.17421 6.20597 6.17421H4.42692L4.34368 6.13039C4.18536 6.04762 4.09559 5.88695 4.11354 5.71979C4.1266 5.58834 4.18209 5.5007 4.3094 5.40332C4.39101 5.34165 4.44161 5.34003 6.2076 5.34003C7.67491 5.33841 7.93442 5.34165 8.00297 5.36275ZM9.2532 6.12714C9.52088 6.25048 9.73958 6.35597 9.73958 6.36084C9.73958 6.36571 9.64818 6.44523 9.5372 6.53612C9.42458 6.63024 9.32665 6.72275 9.31522 6.74872C9.30053 6.78442 9.30217 6.85745 9.32175 7.07492C9.33644 7.2291 9.3446 7.35893 9.33971 7.3638C9.32502 7.37841 9.28911 7.33621 9.26789 7.27454C9.22546 7.15282 9.05245 6.82662 8.94962 6.67244C8.8925 6.58643 8.78151 6.44036 8.70317 6.34786L8.5628 6.1807L8.6036 6.09631C8.62482 6.04924 8.64767 5.9827 8.6542 5.947C8.67052 5.85774 8.67379 5.85449 8.72438 5.87884C8.74887 5.89182 8.98716 6.00218 9.2532 6.12714ZM4.09233 6.41764C4.13803 6.44848 4.22616 6.49067 4.28492 6.51015L4.39427 6.54748L6.14068 6.55234C7.19016 6.55559 7.92789 6.55072 7.98665 6.54098C8.04214 6.53287 8.13354 6.5069 8.18904 6.48581L8.2886 6.44523L8.35715 6.51826C8.87617 7.07654 9.1618 7.8669 9.13079 8.64915C9.09815 9.42003 8.79946 10.1081 8.25922 10.6502C8.06989 10.8401 7.96054 10.9277 7.73693 11.0738C6.87189 11.6369 5.74733 11.7083 4.80068 11.2637C3.97808 10.8758 3.37581 10.1455 3.15384 9.26585C3.04448 8.83578 3.03632 8.32619 3.13099 7.89449C3.17995 7.67215 3.27951 7.39139 3.37907 7.19502C3.51781 6.92399 3.49985 6.93373 3.62227 7.06356C3.72019 7.16743 3.72836 7.1723 3.8018 7.1723C3.93237 7.1723 4.01888 7.06194 3.98787 6.9386C3.98297 6.91588 3.92585 6.84285 3.86382 6.77631C3.80017 6.70814 3.74957 6.64485 3.74957 6.63511C3.74957 6.61402 3.97481 6.36084 3.9944 6.36084C4.00093 6.36084 4.04499 6.38681 4.09233 6.41764Z" fill="#FF5539"/>
<path d="M5.24463 3.43959C5.17608 3.50126 5.15976 3.56293 5.1924 3.64083C5.21851 3.70413 5.30175 3.76418 5.36214 3.76418C5.41274 3.76418 5.48782 3.7236 5.51883 3.67978C5.53352 3.66031 5.54494 3.61162 5.54494 3.57267C5.54494 3.51262 5.53515 3.49153 5.48945 3.44608C5.41437 3.37143 5.32624 3.36818 5.24463 3.43959Z" fill="#FF5539"/>
<path d="M6.6287 3.40718C6.5732 3.42828 6.52424 3.50293 6.52424 3.56461C6.52424 3.73826 6.71194 3.82427 6.83598 3.7058C6.898 3.64737 6.91106 3.57272 6.87515 3.49807C6.83108 3.40556 6.72662 3.36823 6.6287 3.40718Z" fill="#FF5539"/>
<path d="M5.44865 4.00765C5.21198 4.11476 5.00144 4.217 4.98022 4.23648C4.90677 4.30626 4.92146 4.46044 5.0096 4.51562C5.05856 4.54645 5.99215 4.77042 6.06887 4.77042C6.18475 4.77042 6.26636 4.65844 6.23371 4.54483C6.22229 4.51075 6.19944 4.47018 6.17985 4.45395C6.1619 4.4361 6.04928 4.39715 5.91708 4.36469L5.68694 4.30626L5.86974 4.22674C5.9693 4.18292 6.06397 4.13423 6.07866 4.11801C6.09335 4.10178 6.10804 4.05309 6.11293 4.00765C6.11946 3.93299 6.1162 3.92326 6.06234 3.8697C5.97094 3.77882 5.94156 3.78531 5.44865 4.00765Z" fill="#FF5539"/>
<path d="M5.9693 7.02785C5.76855 7.0668 5.58575 7.21449 5.49108 7.41248C5.44212 7.5131 5.43885 7.5342 5.43885 7.69162C5.43885 7.85229 5.44212 7.87014 5.49108 7.96914C5.55637 8.09897 5.68857 8.22881 5.81425 8.28561C6.16516 8.44628 6.54219 8.30671 6.70867 7.95616C6.756 7.85554 6.7609 7.83282 6.7609 7.68351C6.7609 7.53582 6.756 7.51148 6.7103 7.41573C6.61564 7.22098 6.45569 7.08628 6.25493 7.03434C6.14884 7.00838 6.08192 7.00675 5.9693 7.02785ZM6.2533 7.43845C6.43284 7.53582 6.43773 7.81334 6.26146 7.93019C6.20597 7.96589 6.17496 7.97563 6.10151 7.97401C5.93176 7.97401 5.82078 7.87339 5.80935 7.70947C5.79793 7.55205 5.88117 7.4352 6.02806 7.40112C6.10804 7.38327 6.17169 7.39301 6.2533 7.43845Z" fill="#FF5539"/>
<path d="M5.9791 9.11978C5.77345 9.15548 5.58738 9.30317 5.49108 9.50603C5.44212 9.60665 5.43885 9.62775 5.43885 9.78517C5.43885 9.94584 5.44212 9.9637 5.49271 10.0643C5.558 10.1974 5.66409 10.3061 5.78814 10.3678C6.14068 10.5447 6.52424 10.4165 6.69888 10.0643C6.75764 9.94584 6.7609 9.93448 6.7609 9.77868C6.7609 9.63424 6.756 9.60341 6.71683 9.52064C6.65971 9.39892 6.59116 9.31453 6.49486 9.24312C6.3447 9.13439 6.15374 9.08895 5.9791 9.11978ZM6.23861 9.52226C6.25656 9.53038 6.29084 9.55959 6.31532 9.58556C6.53077 9.81114 6.26799 10.1747 5.98236 10.0481C5.77181 9.9572 5.74243 9.65696 5.93013 9.54011C6.02969 9.48007 6.14884 9.47195 6.23861 9.52226Z" fill="#FF5539"/>
</svg>
