<svg width="33" height="48" viewBox="0 0 33 48" fill="none" xmlns="http://www.w3.org/2000/svg">
<path d="M15.3993 0.0905762C15.1176 0.235027 15.096 0.278362 13.9262 3.04457C12.5181 6.38858 12.4531 6.64859 12.4603 8.6781C12.4603 10.1732 12.5469 10.7437 12.9802 12.0943C13.103 12.4555 13.1752 12.7732 13.1463 12.7877C13.1246 12.8021 12.9585 12.8382 12.778 12.8671C12.2292 12.9538 11.1172 13.3366 10.4095 13.6761C9.64408 14.0516 9.10251 14.5066 8.88588 14.9472C8.70535 15.3228 8.68369 15.9656 8.84255 16.3484C8.93642 16.5723 8.95087 17.6484 8.95087 24.5098V32.4184L8.6548 32.8445C8.17099 33.5234 7.42001 33.7618 6.6979 33.4584C6.00468 33.1623 5.52087 33.4368 5.41256 34.1807C5.27536 35.1629 4.8782 35.5385 3.83115 35.6829C3.27513 35.7552 3.14515 35.8057 2.95741 35.9791C2.75522 36.1741 2.74078 36.2246 2.74078 36.7302C2.74078 37.4524 2.57469 38.1819 2.30029 38.7453C2.01145 39.3303 1.30379 40.0814 0.690002 40.457C0.0401089 40.8542 -0.140417 41.2443 0.105098 41.7209C0.242298 41.9809 0.552802 42.1543 0.899412 42.1543C1.36156 42.1543 2.25697 42.3782 2.74078 42.6093C3.38345 42.9199 4.20665 43.7504 4.54603 44.4221C4.94319 45.2094 5.27536 45.3394 6.03357 44.9999C6.81344 44.6533 7.50666 44.7833 7.96158 45.3538C8.46706 45.9894 8.55371 46.0544 8.90754 46.0544C9.21804 46.0544 9.28303 46.0183 9.69463 45.6283C10.3806 44.9927 10.9655 44.8988 11.6732 45.3033C11.8393 45.3972 12.0704 45.4766 12.1859 45.4766C12.3592 45.4766 12.4386 45.5344 12.5614 45.7294C12.648 45.8666 12.908 46.1555 13.1463 46.3722C14.4677 47.5711 16.3596 47.8384 17.9627 47.0583C18.4465 46.82 19.3131 46.0689 19.5658 45.6572C19.703 45.4333 19.7246 45.4261 20.064 45.4622C20.3457 45.4838 20.4684 45.4622 20.6273 45.3466C20.9089 45.1444 21.4144 45.0216 21.7249 45.0794C22.122 45.1516 22.3892 45.3177 22.7503 45.7005C23.0463 46.0183 23.1113 46.0544 23.3857 46.0544C23.7901 46.0544 23.9128 45.975 24.2667 45.5055C24.7794 44.8049 25.4726 44.6388 26.3319 44.9999C27.1479 45.3394 27.3789 45.2383 27.8772 44.3355C28.2888 43.5916 28.9098 42.9776 29.603 42.6382C30.1879 42.3493 30.9461 42.1543 31.5022 42.1543C31.8054 42.1543 31.8921 42.1182 32.1015 41.9087C32.3037 41.7065 32.347 41.6126 32.347 41.3454C32.347 40.9409 32.2243 40.7748 31.7116 40.4859C31.1194 40.1464 30.3973 39.3953 30.1157 38.8319C29.798 38.1675 29.6752 37.6691 29.6752 36.9541C29.6752 35.9718 29.5164 35.8129 28.426 35.6685C27.9711 35.6107 27.805 35.5529 27.5956 35.3868C27.2634 35.1196 27.0035 34.679 27.0035 34.3685C27.0035 34.0362 26.8374 33.6823 26.5991 33.4945C26.368 33.314 26.108 33.314 25.422 33.5162C24.736 33.7184 24.1439 33.4729 23.6818 32.8084L23.4651 32.4906L23.4507 24.0475L23.429 15.6117L23.1835 15.1133C22.8875 14.5066 22.2881 13.8927 21.696 13.5749C21.1039 13.2644 20.0785 12.9177 19.4214 12.8021C19.0242 12.7299 18.887 12.6794 18.9015 12.6071C18.9159 12.5494 19.0098 12.2099 19.1036 11.856C19.2986 11.1337 19.5297 9.81203 19.6019 9.03923C19.6885 8.04975 19.3853 6.35246 18.8726 4.98019C18.2877 3.40569 16.8796 0.776711 16.3524 0.263916C16.0708 -0.01054 15.717 -0.0755424 15.3993 0.0905762ZM16.4607 3.65848C17.3345 5.3991 17.7533 6.65581 17.9049 7.97752C18.006 8.81533 17.8905 9.84814 17.5439 11.206C17.3345 12.0366 16.9951 12.9033 16.8868 12.9033C16.8507 12.9033 16.8218 12.2604 16.8218 11.4732C16.8218 10.1876 16.8074 10.0287 16.6774 9.81925C16.3813 9.32812 15.6231 9.36423 15.3054 9.88425C15.1754 10.1009 15.161 10.2454 15.161 11.5165C15.161 12.3616 15.1321 12.896 15.096 12.8671C14.9804 12.8021 14.5761 11.6827 14.3522 10.8087C13.9623 9.29201 13.9984 7.54417 14.4461 6.18635C14.6049 5.688 15.8831 2.64734 15.9264 2.64734C15.9408 2.64734 16.1863 3.10235 16.4607 3.65848ZM14.2511 14.4561C14.3378 14.5211 14.5544 14.5644 14.7782 14.5644H15.161V14.8244C15.161 15.5539 15.7892 15.9945 16.3885 15.6839C16.699 15.525 16.8218 15.3011 16.8218 14.9111V14.5644H17.1467C17.3345 14.5644 17.58 14.5139 17.71 14.4489C18.3454 14.1166 20.7212 14.7161 21.3422 15.3661C21.4505 15.4817 21.5227 15.59 21.501 15.6117C21.4144 15.6983 19.9341 16.0884 19.1975 16.2256C16.9446 16.63 14.6338 16.5795 12.4964 16.0811C11.601 15.8717 10.6117 15.5611 10.6117 15.4961C10.6117 15.4095 11.5143 14.9617 12.0631 14.7739C12.5758 14.6005 13.6518 14.3622 13.9334 14.355C14.0345 14.355 14.1789 14.3983 14.2511 14.4561ZM11.8393 17.634C12.3736 17.764 12.9874 17.894 13.1968 17.9229L13.5723 17.9734L13.529 18.3057C13.4785 18.6957 13.6084 21.7652 13.724 22.798C13.7601 23.1736 13.8395 23.6503 13.8973 23.8525C14.15 24.7481 14.8505 25.3404 15.6592 25.3404C16.7279 25.3404 17.4428 24.517 17.6667 23.0292C17.8905 21.498 18.3238 21.5124 18.3382 23.0508C18.3454 24.6326 19.0098 25.8748 20.129 26.4237C20.5551 26.6332 20.6778 26.6621 21.205 26.6621H21.8043V29.9772V33.2851L21.1039 33.9712C20.4323 34.6357 20.4034 34.6574 20.1507 34.614C18.5332 34.3107 17.4139 34.5273 16.3669 35.3218L16.0347 35.5746L15.4715 35.199C14.5905 34.6068 13.594 34.3612 12.6553 34.4985C12.3809 34.5346 12.1065 34.5707 12.027 34.5707C11.9548 34.5707 11.6082 34.289 11.2544 33.9423L10.6117 33.314V25.3042C10.6117 17.7062 10.6189 17.2945 10.7417 17.3451C10.8067 17.3667 11.3049 17.4967 11.8393 17.634ZM21.7899 20.9346C21.7682 24.3437 21.761 24.582 21.631 24.7698C21.3855 25.1309 20.9594 25.1165 20.5695 24.7337C20.1724 24.3364 20.0568 23.9536 19.9918 22.8992C19.9557 22.3719 19.8835 21.8013 19.8113 21.6063C19.4141 20.4291 18.3671 19.8946 17.3634 20.3713C16.634 20.718 16.2441 21.3752 16.0636 22.538C15.9264 23.4914 15.717 23.8814 15.5292 23.5347C15.3704 23.2458 15.1249 19.2518 15.2115 18.4646L15.2476 18.1395L15.8325 18.1612C17.2117 18.219 19.7174 17.9012 21.0461 17.504C21.3638 17.4029 21.6671 17.3234 21.7177 17.3162C21.7899 17.309 21.8043 18.0168 21.7899 20.9346ZM9.90404 34.9607L10.359 35.4229L9.97625 35.8491C9.49966 36.3619 9.05918 37.2502 8.90754 37.9652C8.84977 38.2614 8.78478 38.5142 8.77034 38.5286C8.76312 38.543 8.3443 38.6586 7.83883 38.7886C7.34057 38.9186 6.87121 39.0775 6.78456 39.157C6.70512 39.2292 6.60403 39.4097 6.5607 39.5542C6.40906 40.0525 6.82066 40.5653 7.36224 40.5653C7.485 40.5653 7.91826 40.4859 8.31541 40.3848C8.71257 40.2837 9.05196 40.2042 9.0664 40.2187C9.07362 40.2331 9.14583 40.392 9.22526 40.5653C9.58632 41.4031 10.5251 42.3132 11.3916 42.6743C11.7743 42.8332 11.7743 42.8404 11.731 43.0932C11.6588 43.4616 11.6443 43.476 11.1966 43.4254C10.6406 43.3677 10.0124 43.4832 9.47078 43.7504L9.01585 43.9743L8.76312 43.7793C8.12045 43.2882 7.20338 43.0571 6.35851 43.1727C6.09856 43.2088 5.8747 43.2593 5.85304 43.2738C5.8386 43.2954 5.73751 43.1871 5.63641 43.0354C5.06595 42.1904 4.24275 41.4754 3.36901 41.0709C3.02962 40.912 2.89964 40.8109 2.94296 40.7531C3.79505 39.677 4.16332 38.8536 4.36551 37.5969C4.40161 37.3586 4.4305 37.3297 4.82043 37.2141C5.62197 36.9613 6.38018 36.3185 6.72679 35.5818L6.89287 35.2279L7.44889 35.2207C8.0699 35.2207 8.56815 35.069 9.09529 34.7224C9.27581 34.6068 9.42745 34.5057 9.43468 34.5057C9.4419 34.4985 9.65131 34.7079 9.90404 34.9607ZM23.3207 34.7512C23.7973 35.069 24.375 35.2424 25.0032 35.2424H25.4943L25.6026 35.4952C25.9059 36.2319 26.794 36.9974 27.5956 37.2213C27.9566 37.3224 28.0144 37.3658 28.0144 37.5102C28.0144 38.2325 28.621 39.7348 29.1914 40.4353L29.5236 40.8398L29.2203 40.9626C28.3971 41.2876 27.3501 42.1398 26.8229 42.9126C26.6713 43.1293 26.5196 43.2882 26.4835 43.2665C26.4474 43.2449 26.2308 43.2015 26.007 43.1654C25.1765 43.0571 24.18 43.3099 23.624 43.7793L23.3857 43.9816L22.938 43.7504C22.4181 43.4977 21.6888 43.3604 21.1328 43.4254L20.75 43.4688L20.6634 43.1799C20.5406 42.7682 20.5478 42.7537 20.8872 42.5804C21.6382 42.1976 22.3675 41.4393 22.7575 40.6376C22.8875 40.3776 22.9958 40.1609 22.9958 40.1464C23.003 40.1392 23.4146 40.2259 23.9056 40.3487C25.0466 40.6231 25.2704 40.6303 25.5737 40.3559C25.7831 40.1681 25.812 40.0959 25.812 39.7781C25.812 39.482 25.7759 39.3809 25.6026 39.2003C25.422 39.0125 25.2487 38.9547 24.2883 38.7236C23.198 38.4636 23.1763 38.4564 23.1763 38.2686C23.1763 37.6475 22.6853 36.5641 22.1654 36.0007L21.8115 35.6179L22.3675 35.0546C22.6708 34.7512 22.9236 34.4985 22.9308 34.4985C22.938 34.4985 23.1113 34.614 23.3207 34.7512ZM14.3522 36.4485C15.1321 36.8602 15.6448 37.6258 15.717 38.4708C15.7603 38.9547 15.8036 38.9114 15.1249 39.0414C14.1283 39.222 12.9513 40.0381 12.4531 40.8831C12.3448 41.0637 12.222 41.2154 12.1714 41.2154C12.0054 41.2154 11.4349 40.8037 11.1388 40.4642C10.72 39.9875 10.5178 39.4386 10.5106 38.7597C10.5106 37.9725 10.72 37.4741 11.2905 36.9108C11.9115 36.3041 12.3014 36.1524 13.2113 36.1813C13.8323 36.203 13.9406 36.2246 14.3522 36.4485ZM20.0785 36.398C20.5551 36.6291 21.1039 37.1852 21.3061 37.6475C21.7682 38.6875 21.5155 39.9442 20.7067 40.6737C20.3023 41.0348 19.8402 41.2804 19.7969 41.1504C19.7824 41.107 19.6236 40.8759 19.4503 40.6376C19.0531 40.1175 18.5332 39.6914 17.8977 39.3736L17.4211 39.1281L17.3778 38.4925C17.3561 38.1241 17.2695 37.6619 17.1828 37.4019C17.0023 36.8819 17.0168 36.8385 17.5295 36.5424C18.0855 36.2174 18.331 36.1596 19.0242 36.1813C19.5513 36.203 19.7535 36.2391 20.0785 36.398ZM16.5474 40.6448C17.089 40.7603 17.5295 41.0059 17.9122 41.4104C18.331 41.8437 18.526 42.2193 18.6343 42.826C18.8437 43.9455 18.2155 45.0938 17.1179 45.6138C16.7712 45.7727 16.6196 45.8016 16.0275 45.8016C15.4137 45.8016 15.2982 45.78 14.9154 45.5922C14.3666 45.3249 13.9406 44.8988 13.6734 44.3499C13.4929 43.9743 13.464 43.8443 13.464 43.2377C13.464 42.6454 13.4929 42.4937 13.659 42.1398C14.02 41.367 14.7277 40.8037 15.522 40.6448C15.9842 40.5581 16.1141 40.5581 16.5474 40.6448Z" fill="#FF5539"/>
<path d="M12.2146 36.7374C11.7669 37.0119 11.7091 37.5391 12.0846 37.9508C12.3013 38.1891 12.3735 38.218 12.6695 38.218C12.9656 38.218 13.0378 38.1891 13.2544 37.9508C13.9188 37.2213 13.0595 36.2246 12.2146 36.7374Z" fill="#FF5539"/>
<path d="M17.934 36.8385C17.7462 37.0263 17.6885 37.1419 17.6885 37.3513C17.6885 38.1241 18.5694 38.5214 19.0821 37.9797C19.6093 37.4236 19.2338 36.593 18.4611 36.593C18.2373 36.593 18.129 36.6435 17.934 36.8385Z" fill="#FF5539"/>
<path d="M14.4679 43.2304C13.9986 43.5193 13.9625 44.1405 14.4102 44.5305C14.8073 44.8844 15.3922 44.7833 15.6305 44.321C16.0204 43.5627 15.1972 42.7826 14.4679 43.2304Z" fill="#FF5539"/>
</svg>
