<svg width="61" height="60" viewBox="0 0 61 60" fill="none" xmlns="http://www.w3.org/2000/svg">
<rect x="1.81104" y="1" width="57.2835" height="57.2835" rx="2" fill="white" stroke="#FF5539" stroke-width="2" stroke-miterlimit="1.34563" stroke-linejoin="round"/>
<path d="M25.9994 8.06945C24.7828 8.34519 23.7459 9.02258 23.0627 9.9877C22.3435 10.9948 22.0198 12.2776 22.1876 13.4286C22.2296 13.6983 22.4633 14.5495 22.7091 15.3109C22.9488 16.0782 23.1526 16.7196 23.1526 16.7435C23.1526 16.7615 22.9788 16.8395 22.763 16.9114C22.2895 17.0673 22.0738 17.295 22.0738 17.6307C22.0738 17.8046 22.1217 17.9185 22.2536 18.0743C22.4873 18.3381 22.7091 18.386 23.0986 18.2602C23.2664 18.2062 23.4103 18.1702 23.4223 18.1822C23.4342 18.1942 23.3264 18.41 23.1765 18.6678C22.0018 20.6939 21.7501 23.3196 22.5173 25.5136L22.727 26.113L22.4633 26.4307C21.852 27.1681 21.6482 28.0373 21.864 28.9544L21.9539 29.3321L21.4025 29.9195L20.8451 30.513L20.5455 30.1893C20.3836 30.0155 20.042 29.6438 19.7903 29.368L19.3348 28.8705L19.4846 26.9343C19.6465 24.8062 19.6465 24.7942 19.3048 24.5844C18.9392 24.3626 18.5077 24.4765 18.3399 24.8362C18.28 24.9621 18.214 25.4536 18.1541 26.2269C18.1002 26.8803 18.0522 27.4318 18.0402 27.4378C18.0283 27.4498 17.7645 27.186 17.4589 26.8563C16.8356 26.179 16.6018 26.0411 16.2962 26.143C15.9066 26.2689 15.6908 26.6885 15.8287 27.0422C15.8647 27.1261 16.1224 27.4438 16.4101 27.7495C16.6977 28.0552 16.9195 28.319 16.9015 28.337C16.8835 28.355 16.3621 28.343 15.7448 28.313C14.5401 28.2531 14.3663 28.277 14.1446 28.5228C13.9887 28.7027 13.9528 29.0264 14.0667 29.2482C14.2584 29.6258 14.2884 29.6318 16.3861 29.7217L18.298 29.8116L18.6755 30.2073C19.2089 30.7828 19.7483 31.3702 19.8802 31.5201C19.9881 31.652 19.9881 31.658 19.7184 32.1195C17.9503 35.1408 17.4829 38.5517 18.3879 41.9086C19.0231 44.2705 20.4915 46.5364 22.4334 48.1729C22.9428 48.5985 23.9017 49.2579 24.3632 49.5037L24.6809 49.6716L22.3674 49.7015C20.1559 49.7315 20.042 49.7375 19.9162 49.8514C19.5745 50.1571 19.5745 50.6367 19.9222 50.9244L20.1079 51.0803H30.4105C41.5881 51.0803 40.9288 51.0983 41.1566 50.7686C41.2764 50.5947 41.2764 50.1871 41.1566 50.0132C40.9468 49.7075 40.8869 49.7015 38.4536 49.7015H36.1941L36.7455 49.3838C39.7661 47.6574 42.0316 44.5162 42.7208 41.1173C43.0205 39.6307 43.0624 37.9702 42.8407 36.6394C42.7927 36.3277 42.7568 36.0639 42.7688 36.052C42.7808 36.04 42.8707 36.058 42.9666 36.0939C43.3082 36.2258 43.7457 35.998 43.8536 35.6383C43.8715 35.5724 43.8356 34.913 43.7697 34.1817C43.7037 33.4503 43.6498 32.7729 43.6498 32.677C43.6498 32.5212 43.7816 32.3893 44.6926 31.628C45.7714 30.7228 45.9093 30.561 45.8254 30.2253C45.8074 30.1413 45.7535 30.0095 45.7055 29.9375C45.6516 29.8596 44.8245 29.434 43.422 28.7806C42.2114 28.2111 41.1865 27.7255 41.1446 27.7076C41.0906 27.6776 41.69 26.7724 43.1464 24.6683C46.2929 20.1484 46.0471 20.5201 46.0471 20.2683C46.0471 20.0286 45.8913 19.7768 45.6696 19.6569C45.5976 19.6209 44.9144 19.561 44.0633 19.519C43.2482 19.4771 42.553 19.4231 42.523 19.4051C42.4931 19.3871 42.1634 18.8836 41.7919 18.2901C41.4203 17.6967 41.0487 17.1572 40.9648 17.0912C40.791 16.9474 40.4733 16.9354 40.2396 17.0553C40.1257 17.1152 39.7961 17.5768 39.2207 18.464C38.7472 19.1953 38.3457 19.7888 38.3277 19.7888C38.3037 19.7888 38.2378 19.6629 38.1719 19.501C37.6744 18.2542 36.5477 16.8574 35.319 15.9822C35.0434 15.7844 34.5099 15.4727 34.1324 15.2869C33.7608 15.095 33.4731 14.9332 33.5031 14.9152C33.527 14.9032 33.6529 14.8553 33.7728 14.8193C34.3781 14.6215 34.486 13.8961 33.9646 13.5485C33.7308 13.3986 33.6349 13.4046 33.0116 13.6144C32.4782 13.7942 32.3224 13.8062 32.3224 13.6624C32.3224 13.4885 31.4533 10.9708 31.2616 10.5872C30.7102 9.48416 29.6493 8.59097 28.3967 8.18334C28.0012 8.05146 27.7794 8.02149 27.1381 8.00351C26.6167 7.99152 26.2391 8.0095 25.9994 8.06945ZM27.7974 9.44819C28.4387 9.61004 28.9002 9.8798 29.3856 10.3713C29.6553 10.6411 29.9131 10.9768 30.0269 11.1866C30.1887 11.4983 31.0937 14.2079 31.0518 14.2438C31.0398 14.2498 29.5774 14.7174 27.7974 15.2929C26.0174 15.8623 24.543 16.3359 24.525 16.3479C24.5071 16.3539 24.2793 15.7005 24.0156 14.8852C23.5541 13.4406 23.5421 13.3926 23.5421 12.8051C23.5421 12.3316 23.5721 12.1098 23.686 11.7621C23.8658 11.2226 24.3093 10.5332 24.6988 10.1975C25.0285 9.90977 25.6818 9.57408 26.1492 9.45418C26.5867 9.34029 27.3599 9.33429 27.7974 9.44819ZM32.2505 16.0362C33.0715 16.264 33.6229 16.5098 34.3122 16.9713C36.4098 18.3561 37.5845 20.6939 37.4587 23.1937C37.4227 23.8351 37.2549 24.7163 37.0631 25.1958L37.0032 25.3577L30.5723 25.3757C27.0362 25.3877 24.0995 25.4117 24.0516 25.4416C23.9737 25.4776 23.9257 25.3877 23.7939 24.992C22.9728 22.4384 23.656 19.6689 25.5799 17.7866L26.0773 17.301L28.3188 16.5697L30.5543 15.8324L31.1237 15.8623C31.4713 15.8743 31.9088 15.9463 32.2505 16.0362ZM41.0427 19.6929C41.5521 20.5141 41.672 20.67 41.8878 20.7479C41.9657 20.7779 42.4811 20.8258 43.0205 20.8438C43.5659 20.8678 44.0214 20.9038 44.0334 20.9217C44.0693 20.9877 39.844 27.0122 39.7541 27.0302C39.6942 27.0422 39.5683 26.9043 39.4245 26.6765C39.2147 26.3528 38.7892 25.9392 38.4656 25.7533C38.3697 25.6934 38.3697 25.6694 38.4835 25.2918C38.7472 24.4405 38.8132 23.937 38.8252 22.7501L38.8311 21.6051L39.6882 20.2803C40.1617 19.549 40.5572 18.9495 40.5632 18.9495C40.5752 18.9495 40.791 19.2852 41.0427 19.6929ZM37.4527 26.8324C37.8123 26.9403 38.2138 27.264 38.3936 27.6057C38.5914 27.9893 38.5794 28.6547 38.3637 29.0264C38.1779 29.3441 37.9262 29.5779 37.6025 29.7277C37.4047 29.8236 36.8953 29.8296 30.854 29.8296H24.3213L24.0156 29.6678C23.4342 29.3621 23.1046 28.7686 23.1705 28.1512C23.2185 27.6656 23.4223 27.3419 23.8897 26.9822C24.1894 26.7544 24.3752 26.7484 30.86 26.7484C36.248 26.7424 37.201 26.7544 37.4527 26.8324ZM42.0436 29.6558C43.0265 30.1114 43.8296 30.501 43.8296 30.519C43.8296 30.537 43.494 30.8307 43.0864 31.1664C42.6729 31.5141 42.3133 31.8558 42.2713 31.9517C42.2174 32.0836 42.2234 32.3533 42.2953 33.1566C42.3492 33.7261 42.3792 34.2056 42.3612 34.2236C42.3073 34.2776 42.1754 34.1217 42.0975 33.8939C41.9417 33.4443 41.3064 32.2394 40.9288 31.6699C40.7191 31.3522 40.3115 30.8127 40.0238 30.471L39.5084 29.8536L39.6582 29.5419C39.7361 29.368 39.82 29.1223 39.844 28.9904C39.904 28.6607 39.9159 28.6487 40.1017 28.7386C40.1916 28.7866 41.0667 29.1942 42.0436 29.6558ZM23.0926 30.7288C23.2604 30.8427 23.5841 30.9986 23.7998 31.0705L24.2014 31.2084L30.6143 31.2264C34.468 31.2383 37.177 31.2204 37.3927 31.1844C37.5965 31.1544 37.9321 31.0585 38.1359 30.9806L38.5015 30.8307L38.7532 31.1005C40.6591 33.1626 41.708 36.0819 41.5941 38.9713C41.4742 41.8187 40.3774 44.3604 38.3936 46.3626C37.6984 47.0639 37.2969 47.3876 36.4758 47.9271C33.2993 50.0072 29.1699 50.271 25.6937 48.6285C22.6731 47.1958 20.4616 44.4983 19.6465 41.2492C19.2449 39.6607 19.2149 37.7784 19.5625 36.1838C19.7423 35.3626 20.1079 34.3255 20.4735 33.6002C20.983 32.5991 20.917 32.6351 21.3665 33.1146C21.7261 33.4983 21.7561 33.5163 22.0258 33.5163C22.5053 33.5163 22.8229 33.1086 22.7091 32.6531C22.6911 32.5691 22.4813 32.2994 22.2536 32.0536C22.0198 31.8018 21.834 31.568 21.834 31.5321C21.834 31.4541 22.6611 30.519 22.733 30.519C22.757 30.519 22.9188 30.6149 23.0926 30.7288Z" fill="#FF5539"/>
<path d="M27.324 19.7288C27.0723 19.9566 27.0124 20.1844 27.1323 20.4721C27.2281 20.7059 27.5338 20.9277 27.7556 20.9277C27.9414 20.9277 28.217 20.7779 28.3309 20.616C28.3849 20.5441 28.4268 20.3642 28.4268 20.2204C28.4268 19.9986 28.3909 19.9207 28.223 19.7528C27.9473 19.4771 27.6237 19.4651 27.324 19.7288Z" fill="#FF5539"/>
<path d="M32.4065 19.6089C32.2027 19.6868 32.0229 19.9626 32.0229 20.1904C32.0229 20.8318 32.7122 21.1495 33.1677 20.7119C33.3954 20.4961 33.4434 20.2204 33.3115 19.9446C33.1497 19.6029 32.7661 19.465 32.4065 19.6089Z" fill="#FF5539"/>
<path d="M28.0729 21.8269C27.2039 22.2225 26.4308 22.6002 26.3529 22.6721C26.0832 22.9299 26.1371 23.4994 26.4607 23.7032C26.6405 23.8171 30.0687 24.6443 30.3504 24.6443C30.7759 24.6443 31.0756 24.2307 30.9557 23.8111C30.9138 23.6852 30.8299 23.5353 30.758 23.4754C30.692 23.4094 30.2785 23.2656 29.793 23.1457L28.948 22.9299L29.6192 22.6361C29.9848 22.4743 30.3324 22.2945 30.3864 22.2345C30.4403 22.1746 30.4943 21.9947 30.5122 21.8269C30.5362 21.5511 30.5242 21.5152 30.3264 21.3173C29.9908 20.9817 29.8829 21.0056 28.0729 21.8269Z" fill="#FF5539"/>
<path d="M29.9849 32.9828C29.2478 33.1266 28.5765 33.6721 28.2289 34.4035C28.0491 34.7751 28.0371 34.8531 28.0371 35.4345C28.0371 36.028 28.0491 36.0939 28.2289 36.4596C28.4686 36.9392 28.9541 37.4187 29.4156 37.6285C30.7041 38.222 32.0886 37.7065 32.6999 36.4116C32.8737 36.04 32.8917 35.9561 32.8917 35.4046C32.8917 34.8591 32.8737 34.7691 32.7059 34.4155C32.3583 33.6961 31.771 33.1986 31.0338 33.0067C30.6442 32.9108 30.3985 32.9048 29.9849 32.9828ZM31.0278 34.4994C31.6871 34.8591 31.705 35.8841 31.0578 36.3157C30.854 36.4476 30.7401 36.4836 30.4704 36.4776C29.8471 36.4776 29.4396 36.1059 29.3976 35.5005C29.3556 34.919 29.6613 34.4874 30.2007 34.3615C30.4944 34.2956 30.7281 34.3315 31.0278 34.4994Z" fill="#FF5539"/>
<path d="M30.0209 40.7097C29.2657 40.8416 28.5825 41.3871 28.2289 42.1364C28.0491 42.5081 28.0371 42.586 28.0371 43.1675C28.0371 43.7609 28.0491 43.8269 28.2349 44.1985C28.4746 44.6901 28.8642 45.0917 29.3197 45.3195C30.6142 45.9729 32.0227 45.4993 32.664 44.1985C32.8797 43.7609 32.8917 43.719 32.8917 43.1435C32.8917 42.61 32.8737 42.4961 32.7299 42.1904C32.5201 41.7408 32.2684 41.429 31.9148 41.1653C31.3634 40.7637 30.6622 40.5958 30.0209 40.7097ZM30.9738 42.1963C31.0398 42.2263 31.1656 42.3342 31.2555 42.4301C32.0467 43.2634 31.0817 44.6062 30.0329 44.1386C29.2598 43.8029 29.1519 42.6939 29.8411 42.2623C30.2067 42.0405 30.6442 42.0105 30.9738 42.1963Z" fill="#FF5539"/>
</svg>
