<svg width="60" height="60" viewBox="0 0 60 60" fill="none" xmlns="http://www.w3.org/2000/svg">
<rect x="1" y="1" width="57.2835" height="57.2835" rx="2" fill="white" stroke="#FF5539" stroke-width="2" stroke-miterlimit="1.34563" stroke-linejoin="round"/>
<path d="M29.0257 7.0895C26.5551 7.42765 24.3836 8.31854 22.3616 9.82719C22.082 10.0353 21.5229 10.5295 21.1133 10.9262C19.878 12.1292 19.0068 13.3257 18.2786 14.8279C17.4009 16.6357 16.9913 18.2809 16.9003 20.3683C16.8613 21.2982 16.8613 21.2982 16.7052 21.2982C16.4192 21.2982 15.8535 21.6168 15.548 21.9615C15.3334 22.2021 15.2164 22.4102 15.1189 22.7288C14.9953 23.132 14.9888 23.3011 15.0083 25.1414C15.0278 27.0077 15.0343 27.1377 15.1709 27.4239C15.4569 28.0481 16.1266 28.5879 16.7443 28.6854C16.8938 28.7114 17.0108 28.7569 17.0108 28.796C17.0108 28.8285 16.7573 30.7923 16.4517 33.1594C15.8405 37.8414 15.743 39.0639 15.9056 40.3385C16.1786 42.556 16.9913 44.6044 18.3176 46.3991C20.3526 49.1628 23.3563 50.9511 26.7696 51.4388C27.6668 51.5624 29.4482 51.5624 30.3325 51.4388C34.89 50.769 38.7454 47.6867 40.3708 43.4078C41.0015 41.7496 41.164 40.8262 41.1575 38.8884V37.3927L40.5919 33.1008C40.2798 30.7403 40.0262 28.7895 40.0262 28.77C40.0262 28.7439 40.1368 28.7049 40.2733 28.6789C40.9235 28.5619 41.5151 28.1197 41.8337 27.5084L42.0092 27.1833V25.0048C42.0092 22.8524 42.0092 22.8199 41.8532 22.4882C41.6061 21.9355 40.8194 21.3047 40.3838 21.2982C40.2538 21.2982 38.7975 20.9405 38.7584 20.895C38.7454 20.882 38.5634 20.0692 38.3554 19.0872L37.9718 17.299L38.1343 17.2794C38.2253 17.2729 38.6674 17.299 39.1095 17.3445L39.9222 17.429L40.0393 18.0143C40.2928 19.3083 41.0795 20.3748 42.1783 20.895C42.8999 21.2397 43.3095 21.3307 44.0897 21.3242C44.6163 21.3177 44.8374 21.2852 45.26 21.1421C46.4693 20.7259 47.36 19.8286 47.8151 18.554C48.0491 17.9037 48.0621 16.8698 47.8476 16.1935C47.2169 14.2101 45.1755 12.9746 43.2185 13.3907C42.6919 13.5013 42.0092 13.7939 41.6581 14.0605L41.4371 14.2361L41.0405 13.8134C40.8194 13.5793 39.8702 12.5584 38.9275 11.5439C37.9848 10.523 36.99 9.48905 36.717 9.24844C35.4687 8.12996 33.9018 7.38213 32.2309 7.096C31.4832 6.97245 29.9359 6.96595 29.0257 7.0895ZM32.647 8.70221C33.4597 8.9168 34.565 9.45654 35.2411 9.95725C35.5987 10.2239 36.4634 11.1018 38.1083 12.8705L40.4684 15.4001L40.3513 15.6472C40.2928 15.7903 40.2278 15.9138 40.2148 15.9334C40.1888 15.9529 37.8547 15.7383 37.5687 15.6862C37.5232 15.6797 37.3281 15.2636 37.1396 14.7628C36.7755 13.7939 36.2163 12.6234 35.9563 12.2788C35.6377 11.8561 35.0136 11.8561 34.7535 12.2853C34.552 12.6169 34.5975 12.825 35.0786 13.7679C35.7482 15.0945 36.4699 17.364 36.938 19.627C37.0355 20.0887 37.1006 20.4723 37.0811 20.4918C37.068 20.5114 36.6454 20.4528 36.1513 20.3618C33.3427 19.8481 31.7108 19.7115 28.5835 19.705C25.9634 19.705 25.1832 19.7505 23.2198 20.0041C21.7504 20.1927 19.1043 20.6869 18.4932 20.882C18.1486 20.9861 18.5452 18.2679 19.0913 16.7137C19.5659 15.3741 20.5021 13.7939 21.4904 12.6689C22.7972 11.1733 24.7541 9.85321 26.6006 9.20292C28.1284 8.66969 29.2597 8.48761 30.8591 8.51362C31.8408 8.53313 32.0879 8.55914 32.647 8.70221ZM44.9349 14.9904C45.2275 15.1075 45.429 15.2506 45.7541 15.5692C46.3197 16.1349 46.4953 16.5511 46.4888 17.3315C46.4758 18.1248 46.3067 18.541 45.7541 19.0937C45.195 19.653 44.7854 19.8221 43.9922 19.8221C43.199 19.8221 42.7894 19.653 42.2303 19.0937C41.7557 18.619 41.5476 18.1833 41.4826 17.5331C41.4436 17.2079 41.4696 17.0974 41.7231 16.4861C41.9182 16.0049 42.0742 15.7188 42.2628 15.5237C42.9064 14.8474 43.9792 14.6328 44.9349 14.9904ZM30.9566 21.2332C34.0188 21.4283 36.6259 21.8769 40.1043 22.8003C40.5269 22.9109 40.5464 23.0019 40.5464 25.0178C40.5464 27.4694 40.6504 27.3588 38.7715 26.8971C36.665 26.3704 34.4804 26.0062 32.0944 25.7721C30.7421 25.6421 25.9959 25.6616 24.6176 25.8047C22.2641 26.0518 20.2616 26.3964 18.1291 26.9296C16.9978 27.2093 16.9263 27.2223 16.7768 27.1182C16.6857 27.0597 16.5882 26.9427 16.5557 26.8516C16.5167 26.7606 16.4907 25.9087 16.4907 24.9593C16.4907 23.0084 16.5102 22.9109 16.9458 22.7938C20.2421 21.916 23.0767 21.4283 25.9504 21.2397C27.1207 21.1616 29.7798 21.1616 30.9566 21.2332ZM32.4195 27.3068C33.8368 27.4499 35.6897 27.736 35.7807 27.827C35.8198 27.8661 35.9368 28.1587 36.0343 28.4838C36.2033 29.0301 36.2163 29.1471 36.2163 30.3046C36.2228 31.4556 36.2098 31.5857 36.0473 32.1774C35.8263 32.9578 35.5207 33.6341 35.0786 34.3039L34.7405 34.8176L34.4349 34.5965C33.9863 34.2713 33.2451 33.9332 32.699 33.8096C32.2374 33.7056 32.1984 33.6861 31.7173 33.2049C31.0931 32.5871 30.495 32.275 29.5783 32.0799C28.8501 31.9303 27.9204 31.9433 27.2507 32.1189C26.3795 32.353 25.2743 33.0553 25.0142 33.543C24.9492 33.6666 24.8582 33.7186 24.6436 33.7511C24.013 33.8422 23.2068 34.1803 22.6411 34.59L22.3226 34.8176L22.2055 34.668C21.965 34.3624 21.4774 33.478 21.2888 33.0163C20.8857 32.0019 20.8207 31.6507 20.8207 30.3371C20.8207 29.3032 20.8402 29.0626 20.9637 28.6269C21.2043 27.7555 21.1718 27.788 21.952 27.658C22.7712 27.5214 24.6761 27.3003 25.7554 27.2223C26.9582 27.1312 31.2362 27.1833 32.4195 27.3068ZM19.5139 28.3017C19.2733 29.2382 19.2148 30.7208 19.3839 31.7678C19.5919 33.0163 20.1771 34.4144 20.9247 35.4223C21.1328 35.702 21.3018 35.9491 21.3018 35.9686C21.3018 36.1051 20.2486 37.7374 20.034 37.9389C19.8065 38.1535 19.709 38.1926 19.3579 38.2251C18.5712 38.3096 18.2721 38.5892 18.3241 39.194C18.3696 39.6167 18.6817 39.9418 19.3709 40.2865C20.5476 40.8782 22.0885 41.2489 23.5774 41.3074C25.6123 41.3789 26.7436 40.9953 27.9529 39.8248L28.5315 39.2655L29.0907 39.8248C29.7018 40.4295 30.1634 40.7352 30.8331 40.9758C32.3934 41.548 34.7535 41.4115 36.8405 40.6311C38.0108 40.1954 38.4464 39.9158 38.6609 39.4671C38.973 38.8363 38.5634 38.3226 37.6792 38.2251C37.1266 38.1665 36.9055 37.9585 36.2554 36.866C35.9693 36.3913 35.7352 35.9881 35.7352 35.9686C35.7352 35.9491 35.8978 35.7215 36.0928 35.4614C36.6389 34.7461 37.2566 33.452 37.5037 32.5156C37.6987 31.7678 37.7117 31.6832 37.7117 30.4022C37.7182 29.3877 37.6922 28.9585 37.6077 28.6139C37.5492 28.3603 37.5102 28.1522 37.5167 28.1457C37.5232 28.1392 38.4139 28.3343 38.4529 28.3603C38.4594 28.3603 38.7389 30.4152 39.064 32.9123C39.6622 37.4382 39.6622 37.4642 39.6687 38.8884C39.6687 40.1499 39.6492 40.4035 39.5126 41.0343C39.181 42.582 38.6544 43.85 37.8027 45.1441C37.1461 46.1325 35.7742 47.4981 34.7925 48.1484C33.5247 48.9808 32.2309 49.5335 30.7616 49.8456C29.8383 50.0472 27.9204 50.0992 26.9061 49.9497C23.2068 49.4034 20.021 47.0494 18.4216 43.6679C17.8755 42.5234 17.609 41.6521 17.4269 40.3905C17.2384 39.0965 17.3099 38.1145 17.9795 32.9383C18.3111 30.4217 18.5842 28.3538 18.5907 28.3473C18.6037 28.3343 19.4164 28.1457 19.5074 28.1327C19.5334 28.1327 19.5399 28.2042 19.5139 28.3017ZM29.1362 33.5235C29.7083 33.6081 30.313 33.8877 30.651 34.2258C31.3987 34.9737 30.8201 35.9166 29.3962 36.2872C27.9854 36.6514 26.191 35.9751 26.0675 35.0322C25.9829 34.4144 26.6916 33.7771 27.6993 33.556C28.187 33.452 28.5445 33.439 29.1362 33.5235ZM24.6176 35.4679C24.6176 35.5329 24.7086 35.7605 24.8127 35.9816C25.2027 36.7619 26.1845 37.4642 27.2377 37.7244L27.6668 37.8349L27.4848 38.1015C27.1727 38.5502 26.3665 39.2785 25.9829 39.4541C25.3393 39.7532 24.7086 39.8508 23.6814 39.8118C22.7647 39.7792 22.2185 39.6882 21.3278 39.4281L20.8532 39.2915L21.2043 38.9079C21.4059 38.6933 21.8154 38.095 22.1275 37.5683C22.8947 36.2677 23.4408 35.702 24.2275 35.4028C24.5461 35.2793 24.6176 35.2923 24.6176 35.4679ZM33.1476 35.5459C33.7848 35.871 34.2334 36.3913 34.9876 37.6723C35.2671 38.1405 35.6507 38.6998 35.8393 38.9014C36.0343 39.103 36.1773 39.2785 36.1708 39.285C36.1643 39.2915 36.0148 39.3436 35.8328 39.4021C35.0851 39.6427 34.3114 39.7727 33.3947 39.8053C32.3089 39.8508 31.7563 39.7662 31.0736 39.4411C30.625 39.233 29.9359 38.6217 29.5718 38.1145L29.3637 37.8284L29.8058 37.7244C30.8656 37.4577 31.8343 36.7619 32.2244 35.9816C32.3284 35.7605 32.4195 35.5329 32.4195 35.4744C32.4195 35.4158 32.439 35.3508 32.4585 35.3248C32.4975 35.2858 32.8876 35.4093 33.1476 35.5459Z" fill="#FF5539"/>
<path d="M23.7921 28.2562C23.0639 28.3863 22.1797 28.8935 21.7896 29.3942C21.4256 29.8754 21.5166 30.4346 21.9847 30.6362C22.3748 30.7988 22.5178 30.7533 22.9209 30.3696C23.3825 29.9339 23.7791 29.7453 24.2797 29.7388C24.8649 29.7323 25.294 29.9079 25.7036 30.3111C26.1002 30.7143 26.2952 30.7858 26.6593 30.6557C26.9909 30.5387 27.1859 30.1875 27.1209 29.8299C27.0689 29.5307 26.4187 28.8675 25.9376 28.6269C25.281 28.2952 24.4293 28.1456 23.7921 28.2562Z" fill="#FF5539"/>
<path d="M31.9513 28.2562C31.1581 28.3928 30.4494 28.7765 29.9683 29.3162C29.5262 29.8234 29.5392 30.2656 30.0138 30.5843C30.3649 30.8249 30.664 30.7533 31.0606 30.3502C31.5547 29.8494 32.1464 29.6413 32.7575 29.7519C33.1931 29.8364 33.4402 29.973 33.8367 30.3632C34.1553 30.6753 34.2008 30.6948 34.5064 30.6948C34.799 30.6948 34.8575 30.6688 35.0265 30.4802C35.8782 29.5243 33.6937 27.9441 31.9513 28.2562Z" fill="#FF5539"/>
</svg>
