<svg width="12" height="12" viewBox="0 0 12 12" fill="none" xmlns="http://www.w3.org/2000/svg">
<path d="M6.9933 0.356272C6.40899 0.419565 5.86058 0.672739 5.45907 1.06873C5.26485 1.26186 4.94168 1.67083 4.8715 1.81527C4.70502 2.1642 4.7703 2.5326 5.0494 2.80525C5.27954 3.03083 5.60433 3.11847 5.89975 3.03408C6.10214 2.97565 6.19354 2.90262 6.42204 2.62023C6.59832 2.40276 6.64891 2.35732 6.78438 2.28754C7.12714 2.11551 7.57598 2.26968 7.74899 2.61861C7.84365 2.80849 7.84528 3.05193 7.75388 3.24343C7.72124 3.31322 6.97045 4.261 5.1408 6.53794C3.72736 8.29556 2.54894 9.76916 2.51793 9.80973C2.43142 9.92983 2.37919 10.0856 2.37103 10.2544C2.35961 10.4378 2.38409 10.553 2.46407 10.7137C2.72848 11.2379 3.42541 11.3677 3.85956 10.9734C3.91179 10.9263 4.2725 10.493 4.65932 10.011C5.04614 9.52897 6.22455 8.06023 7.27893 6.74892C8.3333 5.43599 9.24404 4.29346 9.30117 4.20906C9.67167 3.66539 9.80387 2.98377 9.6684 2.32811C9.46765 1.36248 8.68584 0.593217 7.70329 0.395221C7.53517 0.36114 7.14835 0.340042 6.9933 0.356272ZM7.74246 0.786343C8.06726 0.869112 8.39695 1.04439 8.64667 1.26673L8.73318 1.34462L8.2827 1.72926L7.83223 2.11389L7.75552 2.06033C7.60046 1.94997 7.36217 1.85584 7.23975 1.85584C7.2169 1.85584 7.19732 1.84935 7.19732 1.84124C7.19732 1.82501 7.35727 0.826916 7.37033 0.766868L7.37849 0.726296L7.496 0.739279C7.56129 0.747393 7.67064 0.768491 7.74246 0.786343ZM6.90353 1.30405C6.85293 1.61565 6.80887 1.87369 6.80397 1.87694C6.8007 1.88019 6.76153 1.89641 6.71583 1.91102C6.50692 1.98568 6.31106 2.14959 6.10377 2.41899C6.05481 2.48391 6.01237 2.5326 6.00911 2.52935C6.00258 2.52286 5.94219 1.37384 5.94056 1.22778V1.14338L6.03522 1.08009C6.17396 0.985961 6.40409 0.875603 6.56078 0.826916C6.71583 0.778229 6.89047 0.739279 6.95413 0.737656L6.99493 0.736033L6.90353 1.30405ZM5.60597 2.10252C5.61902 2.38653 5.63045 2.63322 5.63045 2.65107C5.63045 2.69326 5.59128 2.69326 5.47213 2.64945C5.21915 2.55369 5.09021 2.25508 5.19466 2.0019C5.21751 1.94835 5.30239 1.82663 5.40358 1.70329C5.56027 1.51016 5.57332 1.49718 5.57659 1.541C5.57985 1.56696 5.59128 1.82014 5.60597 2.10252ZM9.05961 1.78119C9.18855 1.99541 9.29954 2.32162 9.32728 2.56505L9.33871 2.66081L8.78704 2.84582C8.48346 2.94806 8.22558 3.03408 8.21415 3.03732C8.19783 3.04219 8.19293 3.00973 8.19293 2.9156C8.19293 2.76954 8.16355 2.62997 8.1048 2.49852L8.06399 2.40763L8.50794 2.02787C8.75276 1.81852 8.96005 1.64811 8.96821 1.65136C8.978 1.65298 9.0188 1.7114 9.05961 1.78119ZM9.32565 3.13307C9.27505 3.48525 9.13469 3.81632 8.90455 4.12467C8.81479 4.24477 8.79683 4.261 8.72338 4.2821C8.237 4.42329 7.07817 4.74462 7.07327 4.73976C7.07001 4.73651 7.24792 4.5093 7.46989 4.23503C7.69349 3.95914 7.9171 3.67837 7.9677 3.61021L8.06073 3.48687L8.68584 3.27264C9.03023 3.15579 9.31749 3.06004 9.32402 3.05842C9.33218 3.0568 9.33218 3.09088 9.32565 3.13307ZM8.38879 4.76735C8.38879 4.77059 8.19946 5.00916 7.9677 5.29641L7.5466 5.82062L6.68972 6.06081C6.21966 6.19389 5.82957 6.29937 5.82304 6.29775C5.81815 6.29613 6.00095 6.06081 6.23108 5.77517L6.65055 5.25584L7.51559 5.01078C7.99218 4.87446 8.38226 4.7641 8.38553 4.76248C8.38716 4.76085 8.38879 4.7641 8.38879 4.76735ZM6.75664 6.8041C6.45795 7.17737 6.36982 7.27799 6.32738 7.29097C6.26699 7.31045 4.74256 7.74052 4.67564 7.75675C4.63973 7.76486 4.70338 7.67885 5.01349 7.2926C5.22241 7.03131 5.40358 6.81384 5.41664 6.80897C5.4705 6.78787 7.07817 6.33832 7.10265 6.3367C7.12061 6.33508 6.99493 6.50711 6.75664 6.8041ZM5.88507 7.88821C5.84426 7.94014 5.65493 8.17546 5.46397 8.41078L5.11632 8.84085L4.25944 9.08105C3.78938 9.2125 3.40092 9.31799 3.39766 9.31475C3.39603 9.3115 3.57883 9.07618 3.80733 8.79217L4.2219 8.27446L5.06083 8.03751C5.52273 7.90606 5.91281 7.79732 5.92913 7.79732C5.95198 7.7957 5.94219 7.8168 5.88507 7.88821ZM4.70502 9.35694C4.37695 9.77565 3.62616 10.6926 3.58699 10.7218C3.48743 10.7965 3.42214 10.8192 3.29647 10.8273C3.1969 10.8322 3.1561 10.8273 3.07613 10.7965C2.94555 10.7478 2.82477 10.6277 2.77744 10.5011C2.70399 10.3096 2.74153 10.1278 2.88843 9.93794L2.97167 9.83245L3.83997 9.58577C4.3182 9.45107 4.71155 9.33909 4.71481 9.33909C4.71807 9.33747 4.71318 9.3472 4.70502 9.35694Z" fill="#FF5539"/>
<path d="M6.35186 1.10931C6.18375 1.21155 6.2572 1.45012 6.45632 1.45012C6.53956 1.45012 6.62606 1.3641 6.62606 1.28134C6.62606 1.19694 6.58526 1.12716 6.51997 1.09957C6.44489 1.06873 6.41551 1.07036 6.35186 1.10931Z" fill="#FF5539"/>
<path d="M8.76419 2.06196C8.64341 2.12363 8.61893 2.26645 8.71523 2.3622C8.75276 2.39952 8.77562 2.40764 8.83764 2.40764C8.90292 2.40764 8.92251 2.39952 8.96984 2.35246C9.04655 2.27618 9.04819 2.18692 8.97311 2.10902C8.90619 2.03924 8.8409 2.02463 8.76419 2.06196Z" fill="#FF5539"/>
<path d="M7.4503 5.24773C7.40786 5.26396 7.35074 5.32726 7.33605 5.37432C7.3083 5.4652 7.41276 5.60477 7.50906 5.60477C7.62004 5.60477 7.70328 5.52525 7.70328 5.41814C7.70328 5.34186 7.67227 5.28993 7.60536 5.25585C7.55313 5.22988 7.5009 5.22664 7.4503 5.24773Z" fill="#FF5539"/>
<path d="M5.11469 8.13489C5.04124 8.18033 5.01513 8.25336 5.04451 8.33613C5.06899 8.40754 5.15223 8.47733 5.20935 8.47733C5.26648 8.47733 5.35298 8.42539 5.37747 8.37833C5.4199 8.29881 5.40848 8.22091 5.34645 8.15923C5.28117 8.09432 5.1963 8.08458 5.11469 8.13489Z" fill="#FF5539"/>
</svg>
