<svg width="186" height="187" viewBox="0 0 186 187" fill="none" xmlns="http://www.w3.org/2000/svg">
<path d="M96.8494 14.82C96.676 14.82 96.5227 14.7467 96.3894 14.6C96.256 14.4533 96.1894 14.2867 96.1894 14.1C96.1894 13.9 96.2627 13.7267 96.4094 13.58C96.556 13.42 96.7294 13.34 96.9294 13.34C97.116 13.34 97.2827 13.42 97.4294 13.58C97.576 13.7267 97.6494 13.8933 97.6494 14.08C97.6494 14.2933 97.5694 14.4733 97.4094 14.62C97.2627 14.7533 97.076 14.82 96.8494 14.82Z" fill="black"/>
<path d="M96.3894 14.6L97.1293 13.9273H97.1293L96.3894 14.6ZM96.4094 13.58L97.1165 14.2871L97.1318 14.2717L97.1465 14.2557L96.4094 13.58ZM97.4294 13.58L96.6922 14.2557L96.7069 14.2717L96.7223 14.2871L97.4294 13.58ZM97.4094 14.62L98.0821 15.3599L98.0851 15.3571L97.4094 14.62ZM96.8494 13.82C96.909 13.82 96.9751 13.8338 97.0358 13.8629C97.0936 13.8905 97.1232 13.9206 97.1293 13.9273L95.6494 15.2727C95.9423 15.5948 96.3526 15.82 96.8494 15.82V13.82ZM97.1293 13.9273C97.1346 13.9332 97.1524 13.9551 97.1679 13.9936C97.1836 14.0331 97.1894 14.0713 97.1894 14.1H95.1894C95.1894 14.5517 95.3601 14.9544 95.6494 15.2727L97.1293 13.9273ZM97.1894 14.1C97.1894 14.1253 97.184 14.1654 97.1653 14.2096C97.1469 14.2531 97.1249 14.2787 97.1165 14.2871L95.7023 12.8729C95.3758 13.1993 95.1894 13.624 95.1894 14.1H97.1894ZM97.1465 14.2557C97.1425 14.2601 97.1175 14.2853 97.0684 14.3079C97.0175 14.3315 96.967 14.34 96.9294 14.34V12.34C96.4234 12.34 95.9902 12.5573 95.6722 12.9043L97.1465 14.2557ZM96.9294 14.34C96.8744 14.34 96.8147 14.327 96.7616 14.3015C96.7119 14.2776 96.6903 14.2536 96.6922 14.2557L98.1665 12.9043C97.8642 12.5745 97.4427 12.34 96.9294 12.34V14.34ZM96.7223 14.2871C96.72 14.2848 96.6988 14.2625 96.6791 14.2177C96.6585 14.1709 96.6494 14.1217 96.6494 14.08L98.6494 14.08C98.6494 13.5975 98.4478 13.1842 98.1365 12.8729L96.7223 14.2871ZM96.6494 14.08C96.6494 14.0585 96.6541 14.017 96.6756 13.9688C96.6968 13.9211 96.7228 13.8928 96.7336 13.8828L98.0851 15.3571C98.4476 15.0248 98.6494 14.5791 98.6494 14.08L96.6494 14.08ZM96.7367 13.88C96.7611 13.8579 96.792 13.8393 96.823 13.8282C96.8519 13.8179 96.8643 13.82 96.8494 13.82V15.82C97.2866 15.82 97.7249 15.6846 98.082 15.3599L96.7367 13.88Z" fill="black"/>
<path d="M109.171 22.1765C108.884 22.1145 108.588 22.0026 108.281 21.841C107.986 21.6951 107.764 21.5518 107.617 21.4109C106.865 20.6616 106.76 19.036 107.301 16.5338L107.415 16.006L107.546 15.4L107.648 14.9309C107.761 14.4096 107.867 13.9484 107.968 13.5472C108.071 13.133 108.194 12.689 108.337 12.2153C108.486 11.7155 108.634 11.3177 108.78 11.0218C108.928 10.7129 109.138 10.3762 109.407 10.0117C109.646 9.66755 109.898 9.4152 110.165 9.2546C110.444 9.09682 110.782 8.98571 111.178 8.92127C111.535 8.84838 111.954 8.86408 112.436 8.96836C112.632 9.01063 112.772 9.08866 112.856 9.20243C112.941 9.3162 112.968 9.44476 112.937 9.58812C112.909 9.71844 112.838 9.82586 112.724 9.91039C112.623 9.99773 112.513 10.0352 112.393 10.0229L111.474 9.82421C111.213 9.76784 110.95 9.88142 110.684 10.1649C110.418 10.4485 110.19 10.8424 109.999 11.3468C109.621 12.2745 109.367 13.0381 109.237 13.6376L109.216 13.7353L108.771 15.6035C108.624 16.1582 108.474 16.7875 108.322 17.4912C108.215 17.9864 108.147 18.3946 108.118 18.7159C108.082 19.1991 108.108 19.614 108.197 19.9606C108.277 20.3463 108.49 20.6582 108.834 20.8963C109.012 21.0168 109.219 21.1024 109.453 21.1531C109.597 21.1841 109.751 21.163 109.917 21.0898C110.087 21.1264 110.215 21.1951 110.302 21.2958C110.406 21.3863 110.442 21.5033 110.411 21.6466C110.301 22.1549 109.887 22.3315 109.171 22.1765Z" fill="black"/>
<path d="M115.543 23.3155L115.769 22.5687C115.828 22.3493 115.901 22.1067 115.989 21.8408L116.221 21.2015C116.229 21.0497 116.593 19.6322 117.312 16.9489C118.031 14.2657 118.502 12.5465 118.723 11.7912C117.998 11.523 117.554 11.2921 117.394 11.0985C117.288 10.9512 117.256 10.8142 117.298 10.6876C117.331 10.5864 117.424 10.5187 117.576 10.4846C117.744 10.4421 117.898 10.4438 118.037 10.4899C118.392 10.6072 118.814 10.7749 119.304 10.993C119.764 11.2154 120.184 11.3895 120.563 11.5151L120.715 11.5653L120.867 11.6156C121.26 11.7454 121.405 11.9622 121.305 12.266C121.255 12.4179 121.15 12.5236 120.989 12.583C120.834 12.6297 120.673 12.6259 120.509 12.5714C120.395 12.5337 120.237 12.4603 120.034 12.3511L119.679 12.1496L119.629 12.2382L119.579 12.3269C119.206 13.4535 118.719 15.2866 118.117 17.8262C117.554 20.2098 117.06 22.0408 116.637 23.3193C116.587 23.4712 116.473 23.5811 116.296 23.649C116.132 23.721 115.968 23.7298 115.803 23.6754L115.543 23.3155Z" fill="black"/>
<path d="M124.798 27.5543C124.519 27.4276 124.332 27.2914 124.237 27.1458C124.142 27.0003 124.147 26.8121 124.252 26.5814C124.417 26.2172 124.637 25.5704 124.912 24.6411L125.013 24.2256L123.334 23.1342C123.134 23.3804 122.775 23.8982 122.256 24.6875C121.913 25.2494 121.619 25.5916 121.373 25.7143C121.238 25.785 121.092 25.7845 120.934 25.7129C120.788 25.6468 120.674 25.5437 120.591 25.4036C120.514 25.2514 120.505 25.1085 120.566 24.9749L120.644 24.9004L120.695 24.8358C122.912 22.079 124.916 19.2765 126.706 16.4284C126.728 16.3798 126.77 16.3037 126.832 16.1999C126.899 16.084 126.988 15.9195 127.1 15.7065C127.34 15.2738 127.539 14.9321 127.697 14.6815C127.866 14.4364 128.03 14.2691 128.188 14.1797L128.807 14.4606C128.977 14.5378 129.104 14.6464 129.186 14.7865C129.275 14.9144 129.286 15.0512 129.22 15.1969C128.801 16.1197 128.306 17.5496 127.735 19.4866C127.129 21.4666 126.655 22.833 126.314 23.5858C126.281 23.6586 126.226 23.8606 126.149 24.1917C126.083 24.4985 126.03 24.6944 125.992 24.7794C125.953 24.8644 125.849 25.2562 125.678 25.9548C125.523 26.5872 125.407 26.9884 125.33 27.1584L125.321 27.1766C125.2 27.4437 125.026 27.5696 124.798 27.5543ZM125.183 23.512C125.229 23.3134 125.313 23.0805 125.434 22.8134C125.93 21.7206 126.467 20.2802 127.044 18.4922L127.721 16.5155C125.904 19.1319 124.568 21.1245 123.713 22.4934C123.84 22.6974 124.33 23.037 125.183 23.512Z" fill="black"/>
<path d="M129.775 29.6657L130.154 28.9835C130.258 28.7814 130.38 28.5598 130.523 28.3186L130.885 27.7429C130.925 27.5962 131.58 26.2876 132.85 23.817C134.12 21.3463 134.943 19.7654 135.32 19.0741C134.667 18.6585 134.283 18.3392 134.167 18.116C134.094 17.9496 134.092 17.809 134.16 17.6941C134.214 17.6022 134.319 17.5557 134.474 17.5544C134.648 17.5485 134.798 17.5827 134.924 17.6572C135.246 17.8467 135.623 18.0998 136.056 18.4165C136.458 18.7312 136.832 18.9901 137.176 19.1931L137.314 19.2744L137.452 19.3556C137.808 19.5654 137.905 19.8082 137.743 20.0839C137.661 20.2217 137.536 20.3028 137.367 20.327C137.205 20.3397 137.049 20.3021 136.9 20.2141C136.797 20.1531 136.657 20.0479 136.482 19.8984L136.178 19.6264L136.11 19.7024L136.042 19.7784C135.44 20.8008 134.576 22.4895 133.452 24.8446C132.397 27.0551 131.528 28.7405 130.844 29.9007C130.763 30.0386 130.628 30.1219 130.441 30.1509C130.265 30.1866 130.103 30.1604 129.953 30.0724L129.775 29.6657Z" fill="black"/>
<path d="M135.31 33.498C135.104 33.3283 135.064 33.1245 135.191 32.8866L138.221 28.9088L139.14 27.6726L140.905 25.2966C141.684 24.2477 142.274 23.465 142.674 22.9486C142.722 22.8843 142.798 22.8493 142.902 22.8435C143.016 22.8457 143.127 22.8865 143.234 22.966C143.32 23.0296 143.386 23.12 143.431 23.2371C143.477 23.3542 143.49 23.4715 143.469 23.589C143.438 23.8318 143.299 24.1191 143.053 24.4508C142.878 24.6863 142.566 25.0277 142.118 25.4751C141.919 25.676 141.714 25.9063 141.505 26.1659C141.295 26.4255 141.159 26.5981 141.095 26.6837C140.962 26.8177 140.757 27.0386 140.478 27.3466C140.21 27.6624 140.091 27.823 140.12 27.8282C140.297 27.926 140.467 28.1106 140.631 28.3819C140.765 28.5813 140.848 28.6929 140.88 28.7167C141.288 29.1522 141.435 29.7022 141.324 30.3667C141.231 31.0285 141.019 31.6268 140.688 32.1616C140.611 32.2873 140.489 32.4626 140.322 32.6873C139.925 33.2225 139.535 33.6469 139.152 33.9606C138.488 34.6303 137.657 34.8101 136.658 34.4999C136.498 34.4473 136.316 34.3455 136.113 34.1944C135.963 34.0831 135.801 33.9545 135.627 33.8086C135.472 33.66 135.366 33.5565 135.31 33.498ZM136.317 33.2495C136.411 33.3691 136.506 33.4646 136.602 33.5362C136.816 33.6952 137.042 33.7715 137.279 33.7651C137.524 33.748 137.744 33.6537 137.938 33.4821C138.174 33.2757 138.507 32.9502 138.937 32.5056C139.134 32.286 139.294 32.1146 139.419 31.9914C139.478 31.9351 139.554 31.8428 139.65 31.7144C139.984 31.2648 140.204 30.7892 140.311 30.2873C140.426 29.7748 140.339 29.3779 140.05 29.0965C139.857 28.8867 139.711 28.7367 139.612 28.6465L136.317 33.2495Z" fill="black"/>
<path d="M148.244 45.8299C148.051 45.6092 147.88 45.3427 147.73 45.0303C147.58 44.7368 147.488 44.4897 147.454 44.2891C147.297 43.2392 148.182 41.8714 150.108 40.1856L150.515 39.83L150.981 39.4217L151.343 39.1056C151.744 38.7544 152.105 38.4478 152.424 38.1856C152.754 37.9147 153.118 37.6318 153.516 37.3371C153.933 37.0248 154.289 36.7933 154.582 36.6428C154.886 36.4835 155.255 36.338 155.689 36.2063C156.085 36.0721 156.438 36.02 156.748 36.0501C157.067 36.0903 157.404 36.2025 157.76 36.3869C158.09 36.5412 158.417 36.804 158.742 37.1752C158.874 37.3257 158.94 37.4719 158.94 37.6136C158.94 37.7553 158.885 37.8745 158.774 37.9711C158.674 38.0589 158.553 38.1028 158.411 38.1028C158.278 38.1128 158.167 38.0771 158.078 37.9955L157.459 37.2881C157.284 37.0874 157.005 37.0216 156.622 37.0906C156.239 37.1596 155.821 37.3396 155.367 37.6306C154.51 38.1498 153.851 38.6114 153.39 39.0153L153.314 39.0812L151.843 40.3154C151.394 40.6729 150.899 41.0887 150.357 41.5628C149.975 41.8965 149.678 42.1837 149.463 42.4245C149.146 42.7908 148.919 43.1395 148.784 43.4706C148.618 43.8281 148.603 44.205 148.737 44.6014C148.808 44.8046 148.923 44.9965 149.081 45.1771C149.178 45.2875 149.315 45.3627 149.491 45.4029C149.606 45.5333 149.668 45.665 149.678 45.798C149.706 45.9322 149.666 46.0476 149.555 46.1441C149.164 46.4866 148.727 46.3818 148.244 45.8299Z" fill="black"/>
<path d="M153.645 52.7879C153.468 52.5369 153.376 52.3246 153.368 52.151C153.36 51.9773 153.46 51.8177 153.667 51.6721C153.995 51.4421 154.513 50.9967 155.222 50.3358L155.52 50.029L154.627 48.2363C154.33 48.3471 153.758 48.6107 152.91 49.0272C152.329 49.3372 151.901 49.4826 151.627 49.4634C151.475 49.456 151.35 49.3814 151.25 49.2396C151.158 49.1086 151.112 48.9618 151.112 48.799C151.122 48.6286 151.188 48.5013 151.308 48.417L151.413 48.3922L151.49 48.3626C154.799 47.1131 157.948 45.7159 160.937 44.1709C160.98 44.1402 161.055 44.0958 161.161 44.0378C161.278 43.9721 161.438 43.8757 161.642 43.7486C162.069 43.4978 162.414 43.3045 162.677 43.1686C162.947 43.0436 163.173 42.9826 163.355 42.9856L163.746 43.5421C163.853 43.6948 163.907 43.8526 163.907 44.0153C163.918 44.1704 163.858 44.2939 163.727 44.3859C162.898 44.9683 161.746 45.9489 160.27 47.3276C158.743 48.7261 157.641 49.6629 156.965 50.138C156.899 50.184 156.749 50.3301 156.515 50.5762C156.302 50.807 156.158 50.9493 156.082 51.0029C156.005 51.0566 155.716 51.341 155.214 51.8563C154.76 52.3224 154.456 52.6091 154.303 52.7164L154.287 52.7279C154.047 52.8965 153.833 52.9165 153.645 52.7879ZM156.028 49.5005C156.169 49.3529 156.359 49.1947 156.599 49.0261C157.581 48.3364 158.775 47.3677 160.18 46.1202L161.767 44.761C158.873 46.0928 156.71 47.1313 155.279 47.8764C155.284 48.1167 155.534 48.6581 156.028 49.5005Z" fill="black"/>
<path d="M157.622 59.1676C157.402 58.771 158.254 58.0397 160.179 56.9737L161.186 56.4388L162 56.0105L162.053 55.9815L162.228 55.8845C162.327 55.8445 162.441 55.789 162.57 55.7179C162.593 55.705 162.612 55.6713 162.628 55.617C162.644 55.5626 162.663 55.5289 162.686 55.516L162.704 55.5063C162.648 55.4609 162.579 55.3624 162.495 55.2108C162.411 55.0592 162.331 54.8596 162.254 54.6122C162.227 54.5357 162.153 54.333 162.032 54.0039L160.02 55.1184C159.717 55.2863 159.248 55.5687 158.614 55.9655C157.992 56.3558 157.524 56.6382 157.209 56.8127C157.034 56.9096 156.856 56.9469 156.676 56.9247C156.496 56.9024 156.364 56.8155 156.28 56.6639C156.158 56.4422 156.286 56.1653 156.666 55.8329C157.058 55.4941 157.609 55.1276 158.321 54.7335L159.757 53.9836C160.16 53.7756 160.583 53.5488 161.026 53.3033L161.324 53.1386L161.569 53.0029C161.755 52.8995 161.875 52.8258 161.926 52.7819L162.014 52.7334L163.058 52.2238C163.501 51.9783 164.15 51.5958 165.006 51.0763C165.861 50.5567 166.51 50.1742 166.954 49.9287C167.093 49.8512 167.242 49.83 167.398 49.8651C167.555 49.9003 167.672 49.9879 167.75 50.1278C167.956 50.5011 167.71 50.8815 167.01 51.2691L164.821 52.4358C164.155 52.7743 163.42 53.1664 162.615 53.6122C162.654 53.8195 162.799 54.1505 163.051 54.6054L163.409 55.2527C163.492 55.2373 163.569 55.2102 163.639 55.1714C164.199 54.8613 165.007 54.3676 166.065 53.6903C167.046 53.0402 167.857 52.5374 168.499 52.1821C168.627 52.111 168.758 52.0995 168.891 52.1476C169.043 52.2009 169.157 52.2975 169.235 52.4375C169.28 52.5191 169.316 52.6519 169.341 52.8358L169.358 53.032C167.702 53.9495 165.524 55.2321 162.825 56.8799L158.486 59.4892C158.322 59.5796 158.158 59.5865 157.994 59.5099C157.836 59.445 157.712 59.3309 157.622 59.1676Z" fill="black"/>
<path d="M160.317 64.1295L161.028 63.8078C161.232 63.7074 161.463 63.6027 161.721 63.4939L162.355 63.2479C162.474 63.154 163.781 62.4942 166.273 61.2685C168.766 60.0427 170.37 59.2646 171.084 58.9342C170.808 58.2113 170.69 57.7257 170.73 57.4773C170.771 57.3007 170.853 57.1865 170.976 57.1346C171.074 57.0932 171.186 57.1183 171.312 57.21C171.455 57.3089 171.555 57.4259 171.612 57.561C171.757 57.9049 171.909 58.333 172.067 58.8451C172.203 59.3378 172.348 59.7684 172.504 60.1369L172.566 60.2843L172.628 60.4318C172.789 60.8126 172.722 61.0652 172.427 61.1896C172.28 61.2518 172.131 61.2422 171.981 61.1609C171.843 61.0743 171.74 60.9512 171.673 60.7915C171.626 60.6809 171.577 60.5135 171.526 60.2891L171.444 59.8895L171.344 59.9099L171.244 59.9304C170.151 60.3918 168.451 61.2324 166.143 62.4521C163.978 63.5974 162.276 64.4319 161.035 64.9555C160.887 65.0177 160.73 65.0046 160.562 64.9161C160.4 64.8399 160.285 64.722 160.218 64.5623L160.317 64.1295Z" fill="black"/>
<path d="M162.391 71.823C162.291 71.4911 162.307 71.152 162.439 70.8058C162.559 70.4633 162.77 70.1489 163.074 69.8624C163.741 69.2574 164.521 68.7716 165.413 68.4051C166.246 68.0285 167.065 67.7189 167.869 67.4764C168.023 67.4302 168.152 67.3981 168.258 67.3801L168.603 67.2761C168.667 67.2569 168.697 67.2409 168.693 67.2281L169.037 67.1242L170.384 66.7392C170.796 66.6288 171.462 66.4835 172.383 66.3034C173.015 66.1825 173.653 66.1503 174.297 66.2069C174.579 66.2193 174.805 66.2764 174.975 66.3783C175.158 66.4764 175.276 66.6148 175.33 66.7935C175.484 67.3042 175.527 67.7926 175.458 68.2588C175.403 68.7212 175.251 69.1429 175.004 69.5238C174.762 69.8753 174.432 70.2117 174.013 70.5328C173.608 70.8501 173.155 71.126 172.654 71.3604C172.141 71.5986 171.585 71.8082 170.985 71.9891L170.832 72.0353C170.436 72.1547 170.08 72.2688 169.765 72.3778L168.679 72.7261C165.003 73.8347 162.907 73.5336 162.391 71.823ZM163.172 71.504C163.241 71.7337 163.394 71.9174 163.631 72.055C163.88 72.1888 164.18 72.2586 164.529 72.2645C165.254 72.3107 166 72.2458 166.769 72.0698C167.439 71.9373 168.01 71.7998 168.483 71.6574C169.057 71.4842 169.797 71.2124 170.702 70.8421C171.661 70.4691 172.384 70.2095 172.869 70.0632L173.214 69.9593C173.691 69.7875 174.062 69.4945 174.327 69.0803C174.596 68.6789 174.665 68.2612 174.534 67.8272C174.404 67.3932 174.068 67.181 173.528 67.1907C173.094 67.1824 172.564 67.2725 171.938 67.4611C171.696 67.5342 171.493 67.6022 171.331 67.665L170.814 67.8209L169.922 68.0482C169.646 68.1035 169.349 68.1793 169.03 68.2755C168.34 68.4834 167.663 68.7085 166.998 68.9508C166.056 69.2905 165.163 69.6992 164.318 70.1767C163.435 70.6658 163.053 71.1082 163.172 71.504Z" fill="black"/>
<path d="M164.299 77.2894C164.319 77.1091 164.413 76.9964 164.581 76.9512L164.876 76.8956C165.421 76.7656 166.242 76.5838 167.337 76.3501C168.284 76.1173 169.011 75.9462 169.52 75.8368C170.312 75.6467 171.502 75.3748 173.091 75.021C173.363 74.956 173.741 74.8713 174.223 74.7668C174.705 74.6623 175.071 74.5865 175.32 74.5396C175.462 74.4993 175.664 74.4545 175.926 74.4051C176.227 74.3483 176.452 74.3194 176.601 74.3184C177.017 74.2942 177.249 74.4811 177.297 74.8791C177.366 75.246 177.194 75.4821 176.779 75.5873L176.544 75.6318L171.587 76.546L169.248 76.987L168.069 77.2093C167.886 77.2439 167.672 77.2978 167.428 77.3709C167.197 77.4416 167.03 77.4934 166.928 77.5263C167.32 77.5201 167.727 77.5521 168.147 77.6221C168.583 77.7027 168.85 77.754 168.949 77.7761C169.458 77.8837 169.872 77.9549 170.19 77.9898C171.259 78.114 172.573 78.2867 174.135 78.5079C174.456 78.5559 174.845 78.6047 175.302 78.6542C176.483 78.7979 177.249 78.9045 177.601 78.9737C177.938 79.0324 178.168 79.1722 178.291 79.3932C178.352 79.5037 178.394 79.6179 178.416 79.7359C178.451 79.9193 178.428 80.1204 178.347 80.3392L177.404 80.517C176.421 80.7023 175.409 80.9134 174.368 81.1504C174.148 81.2055 173.815 81.275 173.37 81.359L172.8 81.4665C172.682 81.4887 172.523 81.5118 172.324 81.5358C172.128 81.5729 171.9 81.6226 171.64 81.6851L166.345 82.7447C166.148 82.7817 165.924 82.7766 165.67 82.7294C165.558 82.7098 165.461 82.6604 165.378 82.581C165.308 82.4992 165.263 82.4059 165.244 82.301C165.174 81.9342 165.31 81.7186 165.651 81.6544C166.044 81.5803 166.428 81.5283 166.802 81.4984C167.305 81.4307 167.687 81.3722 167.949 81.3228C170.539 80.8074 172.472 80.409 173.748 80.1276C173.945 80.0906 174.261 80.0038 174.696 79.8674L175.393 79.675C175.24 79.5818 175.142 79.5324 175.1 79.5267L174.078 79.3938C173.357 79.3126 172.822 79.244 172.472 79.1878L167.393 78.3747L164.809 77.9461C164.514 77.8932 164.347 77.7619 164.308 77.5523C164.3 77.513 164.297 77.4253 164.299 77.2894ZM178.843 76.6025C178.784 76.2881 178.852 75.9632 179.046 75.628C179.243 75.3059 179.493 75.1165 179.794 75.0597C179.925 75.035 180.037 75.0545 180.131 75.1183C180.224 75.1821 180.291 75.2848 180.331 75.4265C180.376 75.5943 180.39 75.7409 180.373 75.8663C180.372 76.0022 180.315 76.135 180.204 76.2645C180.082 76.4096 180.034 76.5476 180.058 76.6787C180.086 76.8228 180.21 76.9418 180.431 77.0358C180.533 77.0709 180.62 77.102 180.693 77.1289C180.779 77.1534 180.851 77.1738 180.908 77.1901C181.184 77.2873 181.341 77.4342 181.378 77.6307C181.383 77.6569 181.379 77.7118 181.368 77.7954C181.335 77.9101 181.273 78.0101 181.18 78.0953C181.101 78.1781 181.002 78.2307 180.884 78.2529C180.806 78.2677 180.723 78.2629 180.637 78.2384C180.596 78.2327 180.554 78.227 180.512 78.2213C180.483 78.2132 180.455 78.205 180.426 78.1968C179.94 78.1392 179.576 77.9704 179.333 77.6905C179.093 77.4238 178.93 77.0611 178.843 76.6025Z" fill="black"/>
<path d="M172.105 94.8943C172.109 94.7211 172.187 94.5697 172.337 94.4404C172.487 94.311 172.655 94.2488 172.842 94.2537C173.042 94.2591 173.213 94.337 173.356 94.4875C173.512 94.6384 173.587 94.8138 173.582 95.0137C173.577 95.2003 173.492 95.3648 173.329 95.5071C173.178 95.6499 173.01 95.7187 172.823 95.7138C172.61 95.7081 172.432 95.6233 172.29 95.4595C172.16 95.3093 172.098 95.1209 172.105 94.8943Z" fill="black"/>
<path d="M172.337 94.4404L172.989 95.1979L172.989 95.1979L172.337 94.4404ZM173.356 94.4875L172.63 95.1755L172.645 95.1913L172.661 95.2064L173.356 94.4875ZM173.329 95.5071L172.673 94.7523L172.656 94.7665L172.641 94.7815L173.329 95.5071ZM172.29 95.4595L171.532 96.1122L171.535 96.1153L172.29 95.4595ZM173.104 94.921C173.103 94.9805 173.087 95.0462 173.056 95.1062C173.027 95.1632 172.996 95.192 172.989 95.1979L171.684 93.6828C171.354 93.9669 171.118 94.3711 171.105 94.8677L173.104 94.921ZM172.989 95.1979C172.983 95.2031 172.961 95.2203 172.922 95.2347C172.882 95.2494 172.844 95.2542 172.815 95.2534L172.868 93.2541C172.417 93.2421 172.01 93.402 171.684 93.6828L172.989 95.1979ZM172.815 95.2534C172.79 95.2527 172.75 95.2463 172.706 95.2264C172.663 95.2069 172.638 95.1842 172.63 95.1755L174.081 93.7995C173.764 93.4645 173.344 93.2668 172.868 93.2541L172.815 95.2534ZM172.661 95.2064C172.656 95.2022 172.632 95.1766 172.611 95.127C172.588 95.0754 172.581 95.0247 172.582 94.9871L174.582 95.0403C174.595 94.5345 174.389 94.0957 174.051 93.7686L172.661 95.2064ZM172.582 94.9871C172.584 94.9322 172.598 94.8728 172.625 94.8204C172.65 94.7713 172.675 94.7504 172.673 94.7523L173.985 96.262C174.322 95.9686 174.568 95.5535 174.582 95.0403L172.582 94.9871ZM172.641 94.7815C172.643 94.7793 172.666 94.7586 172.711 94.7401C172.758 94.7208 172.808 94.713 172.85 94.7141L172.796 96.7134C173.279 96.7262 173.697 96.5358 174.017 96.2328L172.641 94.7815ZM172.85 94.7141C172.871 94.7147 172.912 94.7206 172.96 94.7432C173.007 94.7657 173.035 94.7925 173.044 94.8036L171.535 96.1153C171.857 96.4866 172.297 96.7001 172.796 96.7134L172.85 94.7141ZM173.047 94.8067C173.069 94.8317 173.086 94.8631 173.097 94.8944C173.106 94.9236 173.104 94.9359 173.104 94.921L171.105 94.8677C171.093 95.3048 171.217 95.7465 171.532 96.1122L173.047 94.8067Z" fill="black"/>
<path d="M163.383 111.154C163.453 110.869 163.572 110.575 163.742 110.274C163.896 109.982 164.045 109.764 164.19 109.621C164.959 108.89 166.587 108.827 169.073 109.435L169.598 109.563L170.2 109.71L170.667 109.824C171.185 109.951 171.643 110.07 172.041 110.181C172.453 110.295 172.893 110.43 173.363 110.586C173.859 110.748 174.252 110.906 174.544 111.06C174.849 111.217 175.18 111.435 175.537 111.714C175.875 111.961 176.12 112.22 176.274 112.491C176.424 112.775 176.526 113.116 176.58 113.513C176.643 113.872 176.617 114.291 176.5 114.77C176.452 114.964 176.37 115.102 176.254 115.183C176.138 115.265 176.009 115.288 175.867 115.253C175.737 115.222 175.632 115.148 175.55 115.032C175.466 114.929 175.431 114.818 175.447 114.698L175.67 113.785C175.733 113.526 175.626 113.259 175.35 112.986C175.074 112.713 174.686 112.474 174.187 112.27C173.27 111.867 172.513 111.593 171.917 111.447L171.82 111.424L169.964 110.929C169.414 110.767 168.789 110.601 168.089 110.43C167.597 110.31 167.191 110.231 166.87 110.194C166.388 110.145 165.973 110.16 165.624 110.239C165.236 110.309 164.919 110.513 164.672 110.851C164.547 111.026 164.455 111.23 164.399 111.463C164.364 111.606 164.381 111.761 164.45 111.929C164.408 112.097 164.336 112.224 164.233 112.308C164.14 112.409 164.022 112.442 163.88 112.407C163.375 112.284 163.209 111.866 163.383 111.154Z" fill="black"/>
<path d="M162.075 117.493L162.815 117.739C163.033 117.804 163.274 117.883 163.537 117.978L164.17 118.228C164.322 118.24 165.729 118.641 168.392 119.431C171.055 120.222 172.761 120.738 173.51 120.98C173.798 120.261 174.04 119.824 174.238 119.669C174.388 119.567 174.526 119.539 174.651 119.584C174.752 119.62 174.817 119.714 174.847 119.867C174.885 120.037 174.879 120.19 174.829 120.328C174.703 120.68 174.524 121.097 174.293 121.581C174.058 122.035 173.873 122.45 173.737 122.826L173.683 122.977L173.629 123.127C173.489 123.516 173.268 123.656 172.967 123.547C172.816 123.493 172.714 123.385 172.659 123.224C172.616 123.067 172.624 122.906 172.683 122.743C172.724 122.631 172.801 122.474 172.916 122.275L173.127 121.925L173.039 121.873L172.952 121.82C171.836 121.417 170.016 120.882 167.494 120.213C165.126 119.586 163.309 119.044 162.042 118.587C161.891 118.533 161.785 118.416 161.721 118.238C161.654 118.072 161.649 117.907 161.708 117.744L162.075 117.493Z" fill="black"/>
<path d="M157.591 126.633C157.725 126.357 157.866 126.173 158.014 126.082C158.162 125.991 158.35 126.001 158.578 126.112C158.938 126.287 159.579 126.524 160.5 126.824L160.913 126.936L162.049 125.286C161.808 125.08 161.3 124.707 160.525 124.167C159.972 123.81 159.638 123.506 159.522 123.257C159.455 123.121 159.459 122.975 159.535 122.819C159.605 122.675 159.711 122.563 159.853 122.484C160.007 122.411 160.15 122.406 160.282 122.47L160.355 122.55L160.418 122.603C163.115 124.893 165.863 126.971 168.662 128.836C168.71 128.859 168.785 128.903 168.887 128.968C169.001 129.038 169.163 129.132 169.373 129.249C169.8 129.5 170.136 129.708 170.382 129.873C170.623 130.049 170.786 130.217 170.871 130.377L170.573 130.989C170.492 131.156 170.38 131.28 170.238 131.359C170.107 131.444 169.97 131.451 169.826 131.381C168.915 130.938 167.499 130.405 165.578 129.783C163.615 129.124 162.261 128.615 161.518 128.253C161.446 128.218 161.246 128.158 160.917 128.072C160.612 127.998 160.417 127.94 160.333 127.899C160.249 127.859 159.86 127.744 159.167 127.555C158.539 127.383 158.141 127.256 157.973 127.174L157.955 127.165C157.691 127.037 157.57 126.86 157.591 126.633ZM161.622 127.125C161.819 127.176 162.05 127.266 162.313 127.395C163.393 127.919 164.818 128.494 166.59 129.118L168.548 129.848C165.981 127.962 164.025 126.574 162.679 125.682C162.472 125.804 162.119 126.285 161.622 127.125Z" fill="black"/>
<path d="M155.348 131.552L156.02 131.948C156.219 132.057 156.437 132.186 156.675 132.334L157.241 132.712C157.386 132.756 158.677 133.446 161.113 134.781C163.549 136.116 165.107 136.981 165.788 137.376C166.221 136.735 166.551 136.359 166.777 136.249C166.945 136.181 167.086 136.183 167.199 136.253C167.289 136.31 167.333 136.416 167.33 136.571C167.331 136.745 167.293 136.894 167.215 137.019C167.017 137.335 166.754 137.705 166.426 138.129C166.101 138.523 165.832 138.89 165.62 139.229L165.535 139.365L165.45 139.5C165.231 139.851 164.986 139.941 164.714 139.771C164.579 139.686 164.501 139.559 164.481 139.389C164.473 139.227 164.515 139.072 164.607 138.925C164.67 138.824 164.779 138.687 164.933 138.516L165.213 138.22L165.139 138.15L165.065 138.08C164.059 137.45 162.394 136.542 160.069 135.355C157.888 134.242 156.226 133.328 155.085 132.614C154.949 132.529 154.869 132.392 154.845 132.204C154.814 132.028 154.845 131.866 154.937 131.719L155.348 131.552Z" fill="black"/>
<path d="M151.37 136.982C151.545 136.781 151.75 136.747 151.984 136.88L155.88 140.015L157.091 140.966L159.419 142.793C160.447 143.6 161.214 144.211 161.719 144.625C161.782 144.674 161.815 144.751 161.818 144.855C161.813 144.97 161.769 145.079 161.687 145.184C161.621 145.268 161.529 145.331 161.411 145.374C161.292 145.417 161.175 145.426 161.058 145.402C160.816 145.365 160.533 145.219 160.208 144.963C159.977 144.782 159.644 144.461 159.209 144.001C159.013 143.797 158.788 143.586 158.534 143.37C158.28 143.154 158.111 143.013 158.028 142.947C157.897 142.811 157.682 142.599 157.381 142.312C157.073 142.036 156.915 141.913 156.909 141.942C156.807 142.116 156.618 142.281 156.342 142.437C156.139 142.566 156.026 142.646 156.001 142.678C155.555 143.073 155.001 143.207 154.34 143.077C153.681 142.967 153.088 142.739 152.562 142.394C152.439 142.314 152.267 142.187 152.047 142.014C151.522 141.603 151.108 141.201 150.805 140.811C150.153 140.129 149.996 139.294 150.332 138.304C150.389 138.145 150.496 137.966 150.652 137.767C150.767 137.62 150.9 137.461 151.051 137.291C151.203 137.14 151.31 137.037 151.37 136.982ZM151.591 137.995C151.469 138.086 151.371 138.179 151.297 138.273C151.132 138.483 151.05 138.706 151.05 138.944C151.061 139.189 151.149 139.411 151.316 139.61C151.516 139.851 151.832 140.193 152.265 140.635C152.479 140.837 152.647 141.002 152.766 141.13C152.821 141.19 152.911 141.269 153.037 141.368C153.478 141.714 153.947 141.947 154.446 142.067C154.955 142.196 155.355 142.12 155.643 141.838C155.858 141.651 156.012 141.509 156.105 141.412L151.591 137.995Z" fill="black"/>
<path d="M138.698 149.583C138.924 149.396 139.195 149.232 139.511 149.091C139.808 148.949 140.058 148.863 140.259 148.834C141.313 148.706 142.657 149.627 144.291 151.597L144.635 152.013L145.031 152.49L145.337 152.86C145.678 153.271 145.975 153.639 146.228 153.966C146.49 154.303 146.763 154.674 147.047 155.079C147.348 155.505 147.57 155.867 147.713 156.164C147.864 156.472 148 156.844 148.12 157.282C148.243 157.682 148.286 158.036 148.248 158.345C148.199 158.662 148.078 158.996 147.884 159.348C147.721 159.673 147.45 159.994 147.07 160.308C146.916 160.436 146.768 160.498 146.627 160.494C146.485 160.49 146.367 160.432 146.274 160.319C146.189 160.217 146.148 160.094 146.152 159.953C146.145 159.82 146.184 159.71 146.268 159.623L146.991 159.023C147.197 158.853 147.27 158.575 147.211 158.191C147.152 157.807 146.984 157.384 146.705 156.922C146.208 156.052 145.765 155.381 145.373 154.909L145.309 154.832L144.115 153.328C143.769 152.87 143.367 152.363 142.907 151.809C142.584 151.419 142.305 151.114 142.07 150.893C141.712 150.566 141.369 150.33 141.042 150.186C140.689 150.011 140.313 149.985 139.913 150.109C139.708 150.175 139.513 150.285 139.328 150.438C139.215 150.531 139.136 150.666 139.092 150.842C138.958 150.952 138.825 151.011 138.692 151.017C138.557 151.043 138.442 150.999 138.349 150.886C138.017 150.486 138.133 150.051 138.698 149.583Z" fill="black"/>
<path d="M131.599 154.797C131.854 154.627 132.069 154.541 132.243 154.538C132.416 154.534 132.573 154.638 132.713 154.849C132.935 155.183 133.366 155.713 134.008 156.439L134.307 156.745L136.122 155.9C136.02 155.6 135.771 155.021 135.378 154.162C135.083 153.573 134.949 153.142 134.976 152.869C134.987 152.717 135.065 152.593 135.209 152.498C135.343 152.409 135.491 152.367 135.653 152.371C135.824 152.386 135.949 152.455 136.03 152.577L136.052 152.683L136.08 152.76C137.241 156.102 138.554 159.287 140.018 162.316C140.048 162.36 140.09 162.436 140.145 162.543C140.208 162.662 140.3 162.825 140.422 163.032C140.661 163.465 140.845 163.815 140.974 164.082C141.092 164.356 141.147 164.583 141.139 164.765L140.572 165.14C140.417 165.244 140.258 165.293 140.095 165.289C139.94 165.296 139.818 165.233 139.729 165.1C139.169 164.255 138.219 163.077 136.881 161.565C135.523 160.002 134.616 158.875 134.159 158.187C134.115 158.12 133.973 157.966 133.733 157.725C133.508 157.506 133.37 157.358 133.318 157.28C133.266 157.203 132.99 156.906 132.488 156.391C132.034 155.924 131.756 155.613 131.653 155.457L131.641 155.441C131.479 155.196 131.465 154.982 131.599 154.797ZM134.821 157.267C134.965 157.412 135.118 157.606 135.28 157.851C135.944 158.851 136.88 160.069 138.09 161.507L139.406 163.13C138.152 160.202 137.172 158.012 136.465 156.561C136.224 156.56 135.677 156.796 134.821 157.267Z" fill="black"/>
<path d="M125.115 158.603C125.518 158.394 126.226 159.265 127.24 161.217L127.748 162.238L128.155 163.064L128.182 163.117L128.275 163.294C128.312 163.395 128.364 163.511 128.432 163.641C128.444 163.664 128.477 163.685 128.531 163.702C128.585 163.719 128.618 163.739 128.631 163.763L128.64 163.781C128.687 163.726 128.787 163.659 128.941 163.579C129.095 163.499 129.296 163.425 129.546 163.355C129.623 163.33 129.828 163.261 130.16 163.149L129.099 161.108C128.939 160.8 128.67 160.324 128.29 159.68C127.916 159.048 127.646 158.572 127.48 158.253C127.388 158.075 127.356 157.897 127.383 157.717C127.41 157.538 127.5 157.408 127.654 157.329C127.879 157.212 128.152 157.348 128.474 157.736C128.802 158.137 129.154 158.698 129.529 159.419L130.241 160.875C130.438 161.284 130.653 161.713 130.887 162.162L131.044 162.464L131.173 162.713C131.271 162.902 131.342 163.023 131.384 163.076L131.43 163.165L131.912 164.222C132.145 164.671 132.511 165.331 133.007 166.199C133.504 167.068 133.869 167.728 134.102 168.177C134.176 168.319 134.193 168.468 134.154 168.624C134.115 168.779 134.024 168.894 133.882 168.968C133.504 169.165 133.13 168.908 132.761 168.198L131.653 165.979C131.332 165.304 130.96 164.559 130.536 163.742C130.328 163.775 129.993 163.912 129.531 164.151L128.875 164.493C128.888 164.576 128.913 164.653 128.95 164.724C129.245 165.292 129.717 166.114 130.366 167.189C130.99 168.187 131.471 169.011 131.809 169.662C131.876 169.792 131.884 169.923 131.833 170.055C131.775 170.205 131.676 170.317 131.534 170.391C131.451 170.434 131.317 170.466 131.133 170.487L130.936 170.499C130.063 168.819 128.839 166.607 127.264 163.865L124.771 159.458C124.685 159.292 124.682 159.128 124.763 158.966C124.832 158.81 124.95 158.689 125.115 158.603Z" fill="black"/>
<path d="M120.083 161.165L120.386 161.884C120.481 162.091 120.579 162.324 120.681 162.585L120.91 163.226C121.001 163.348 121.626 164.671 122.785 167.196C123.944 169.72 124.679 171.344 124.99 172.067C125.72 171.81 126.209 171.705 126.456 171.751C126.631 171.797 126.743 171.882 126.792 172.007C126.831 172.106 126.803 172.217 126.708 172.34C126.605 172.481 126.485 172.577 126.349 172.631C126.001 172.767 125.569 172.907 125.053 173.052C124.557 173.174 124.123 173.308 123.75 173.454L123.601 173.512L123.452 173.57C123.067 173.721 122.816 173.647 122.7 173.349C122.642 173.2 122.655 173.052 122.74 172.904C122.831 172.768 122.956 172.669 123.118 172.606C123.23 172.562 123.398 172.518 123.624 172.472L124.026 172.401L124.008 172.301L123.99 172.2C123.558 171.095 122.763 169.373 121.605 167.034C120.518 164.839 119.729 163.115 119.239 161.861C119.18 161.712 119.198 161.555 119.291 161.389C119.371 161.229 119.492 161.117 119.653 161.054L120.083 161.165Z" fill="black"/>
<path d="M112.337 163.033C112.672 162.942 113.01 162.967 113.353 163.109C113.692 163.238 114.001 163.457 114.279 163.768C114.866 164.451 115.331 165.244 115.674 166.145C116.028 166.988 116.316 167.815 116.537 168.626C116.579 168.78 116.607 168.91 116.623 169.017L116.717 169.364C116.735 169.428 116.75 169.459 116.763 169.455L116.858 169.803L117.207 171.159C117.306 171.574 117.433 172.244 117.589 173.169C117.693 173.804 117.708 174.442 117.635 175.084C117.615 175.366 117.552 175.591 117.445 175.758C117.342 175.938 117.201 176.053 117.021 176.102C116.506 176.242 116.017 176.272 115.552 176.191C115.092 176.123 114.674 175.961 114.3 175.703C113.955 175.452 113.628 175.113 113.318 174.686C113.011 174.272 112.748 173.812 112.527 173.306C112.302 172.786 112.107 172.224 111.943 171.62L111.9 171.466C111.792 171.067 111.687 170.708 111.586 170.39L111.267 169.296C110.257 165.591 110.614 163.504 112.337 163.033ZM112.636 163.823C112.404 163.886 112.216 164.034 112.072 164.267C111.932 164.512 111.854 164.81 111.839 165.159C111.774 165.882 111.819 166.63 111.974 167.403C112.089 168.077 112.211 168.651 112.341 169.127C112.499 169.706 112.751 170.453 113.097 171.367C113.444 172.337 113.684 173.066 113.818 173.555L113.912 173.902C114.071 174.384 114.354 174.763 114.761 175.039C115.155 175.318 115.571 175.398 116.009 175.279C116.446 175.16 116.667 174.83 116.672 174.29C116.691 173.856 116.615 173.324 116.444 172.693C116.377 172.449 116.314 172.245 116.256 172.081L116.114 171.56L115.91 170.662C115.862 170.385 115.795 170.086 115.707 169.764C115.517 169.069 115.31 168.386 115.086 167.715C114.771 166.765 114.387 165.861 113.932 165.003C113.466 164.108 113.034 163.714 112.636 163.823Z" fill="black"/>
<path d="M106.822 164.795C107.002 164.82 107.112 164.917 107.153 165.086L107.2 165.382C107.316 165.931 107.476 166.756 107.68 167.857C107.888 168.81 108.039 169.542 108.135 170.053C108.304 170.85 108.544 172.047 108.856 173.644C108.913 173.919 108.988 174.298 109.08 174.783C109.171 175.268 109.237 175.636 109.278 175.886C109.314 176.028 109.354 176.231 109.396 176.495C109.445 176.797 109.468 177.023 109.465 177.172C109.478 177.589 109.285 177.816 108.886 177.853C108.517 177.912 108.286 177.734 108.191 177.317L108.153 177.08L107.371 172.101L106.993 169.751L106.802 168.566C106.772 168.382 106.724 168.167 106.657 167.921C106.593 167.688 106.545 167.52 106.515 167.417C106.511 167.81 106.468 168.215 106.387 168.633C106.295 169.067 106.236 169.333 106.212 169.431C106.091 169.937 106.009 170.348 105.965 170.666C105.813 171.731 105.605 173.04 105.342 174.595C105.286 174.915 105.227 175.303 105.165 175.758C104.99 176.934 104.863 177.698 104.784 178.048C104.717 178.383 104.571 178.609 104.347 178.726C104.234 178.785 104.119 178.824 104.001 178.843C103.816 178.872 103.616 178.844 103.399 178.757L103.247 177.809C103.088 176.822 102.904 175.805 102.694 174.758C102.645 174.537 102.585 174.202 102.512 173.755L102.42 173.182C102.401 173.063 102.382 172.904 102.364 172.705C102.332 172.507 102.288 172.278 102.233 172.017L101.314 166.695C101.283 166.498 101.294 166.273 101.348 166.021C101.37 165.91 101.422 165.814 101.504 165.733C101.587 165.665 101.682 165.623 101.787 165.606C102.156 165.547 102.368 165.688 102.423 166.031C102.486 166.425 102.528 166.81 102.548 167.185C102.602 167.69 102.651 168.074 102.693 168.337C103.139 170.939 103.486 172.882 103.733 174.166C103.765 174.363 103.843 174.681 103.968 175.12L104.142 175.822C104.239 175.671 104.291 175.575 104.298 175.533L104.458 174.515C104.558 173.796 104.641 173.263 104.707 172.915L105.655 167.86L106.152 165.288C106.213 164.994 106.349 164.831 106.559 164.797C106.599 164.79 106.686 164.79 106.822 164.795ZM107.122 179.353C107.438 179.302 107.76 179.378 108.09 179.582C108.407 179.787 108.59 180.041 108.639 180.344C108.66 180.476 108.637 180.587 108.571 180.679C108.505 180.771 108.4 180.835 108.258 180.871C108.089 180.912 107.942 180.922 107.817 180.902C107.681 180.897 107.55 180.837 107.423 180.722C107.281 180.596 107.145 180.544 107.013 180.565C106.868 180.589 106.746 180.71 106.646 180.928C106.608 181.029 106.575 181.115 106.546 181.188C106.519 181.273 106.497 181.344 106.479 181.401C106.375 181.674 106.224 181.827 106.026 181.859C106 181.863 105.945 181.858 105.862 181.845C105.748 181.809 105.65 181.744 105.567 181.649C105.486 181.568 105.437 181.468 105.417 181.349C105.405 181.27 105.412 181.188 105.439 181.103C105.445 181.061 105.452 181.019 105.459 180.978C105.468 180.949 105.477 180.921 105.486 180.893C105.556 180.408 105.735 180.049 106.021 179.814C106.294 179.581 106.661 179.427 107.122 179.353Z" fill="black"/>
<path d="M89.0156 172.129C89.1887 172.139 89.3379 172.22 89.4633 172.374C89.5886 172.527 89.6463 172.697 89.6364 172.883C89.6257 173.083 89.5433 173.252 89.389 173.391C89.234 173.543 89.0567 173.614 88.857 173.603C88.6706 173.593 88.5084 173.504 88.3704 173.337C88.2318 173.182 88.1674 173.012 88.1774 172.826C88.1887 172.613 88.2782 172.437 88.4458 172.299C88.5993 172.174 88.7893 172.117 89.0156 172.129Z" fill="black"/>
<path d="M89.4633 172.374L88.6886 173.006L88.6886 173.006L89.4633 172.374ZM89.389 173.391L88.7205 172.647L88.7044 172.662L88.6889 172.677L89.389 173.391ZM88.3704 173.337L89.1425 172.701L89.1287 172.684L89.1142 172.668L88.3704 173.337ZM88.4458 172.299L87.8134 171.525L87.8102 171.527L88.4458 172.299ZM88.9624 173.128C88.9029 173.125 88.8376 173.107 88.7785 173.075C88.7223 173.045 88.6943 173.013 88.6886 173.006L90.238 171.741C89.9627 171.404 89.5649 171.157 89.0688 171.131L88.9624 173.128ZM88.6886 173.006C88.6836 173 88.6669 172.977 88.6536 172.938C88.6399 172.897 88.6363 172.859 88.6378 172.83L90.6349 172.937C90.659 172.486 90.51 172.074 90.238 171.741L88.6886 173.006ZM88.6378 172.83C88.6391 172.805 88.6466 172.765 88.6676 172.722C88.6883 172.68 88.7117 172.655 88.7205 172.647L90.0575 174.135C90.4008 173.826 90.6096 173.412 90.6349 172.937L88.6378 172.83ZM88.6889 172.677C88.6931 172.673 88.7194 172.649 88.7696 172.629C88.8218 172.608 88.8726 172.602 88.9102 172.604L88.8037 174.602C89.309 174.629 89.7531 174.435 90.0891 174.105L88.6889 172.677ZM88.9102 172.604C88.9651 172.607 89.024 172.624 89.0756 172.652C89.1241 172.678 89.1443 172.703 89.1425 172.701L87.5984 173.972C87.8827 174.318 88.2911 174.574 88.8037 174.602L88.9102 172.604ZM89.1142 172.668C89.1163 172.671 89.1363 172.694 89.1536 172.74C89.1717 172.788 89.1782 172.837 89.176 172.879L87.1788 172.773C87.1531 173.254 87.3324 173.678 87.6267 174.005L89.1142 172.668ZM89.176 172.879C89.1748 172.9 89.1678 172.942 89.1439 172.989C89.1201 173.035 89.0927 173.062 89.0813 173.071L87.8102 171.527C87.4305 171.84 87.2054 172.274 87.1788 172.773L89.176 172.879ZM89.0781 173.074C89.0526 173.095 89.0207 173.112 88.9891 173.121C88.9597 173.13 88.9475 173.127 88.9624 173.128L89.0688 171.131C88.6323 171.108 88.1874 171.219 87.8134 171.525L89.0781 173.074Z" fill="black"/>
<path d="M72.9943 162.978C73.2773 163.055 73.5673 163.183 73.8643 163.361C74.152 163.522 74.3654 163.677 74.5046 163.825C75.2156 164.614 75.2343 166.243 74.5608 168.712L74.4187 169.233L74.2556 169.831L74.1293 170.295C73.989 170.809 73.858 171.264 73.7364 171.659C73.6113 172.067 73.4645 172.504 73.2961 172.97C73.1207 173.461 72.9523 173.85 72.791 174.138C72.6261 174.438 72.3992 174.763 72.1104 175.113C71.8543 175.444 71.5888 175.683 71.314 175.829C71.0263 175.972 70.6831 176.064 70.2844 176.108C69.9242 176.162 69.5061 176.124 69.0302 175.994C68.8372 175.941 68.7016 175.856 68.6232 175.738C68.5449 175.62 68.525 175.49 68.5636 175.348C68.5986 175.22 68.6752 175.116 68.7933 175.038C68.8986 174.956 69.0109 174.924 69.1301 174.943L70.037 175.19C70.2943 175.261 70.5633 175.161 70.8439 174.892C71.1246 174.623 71.3736 174.242 71.5911 173.748C72.018 172.842 72.3121 172.093 72.4734 171.501L72.4997 171.405L73.0435 169.563C73.2201 169.017 73.4031 168.397 73.5925 167.702C73.7258 167.213 73.8153 166.809 73.8609 166.49C73.9228 166.009 73.9187 165.594 73.8486 165.243C73.7889 164.853 73.5936 164.531 73.2627 164.274C73.0908 164.145 72.889 164.048 72.6575 163.985C72.516 163.946 72.3605 163.959 72.1909 164.024C72.0237 163.978 71.8991 163.903 71.8173 163.797C71.719 163.701 71.6892 163.583 71.7278 163.441C71.8646 162.94 72.2868 162.785 72.9943 162.978Z" fill="black"/>
<path d="M66.6916 161.502L66.4261 162.235C66.356 162.451 66.27 162.69 66.168 162.95L65.9017 163.577C65.8856 163.728 65.447 165.124 64.5861 167.765C63.7252 170.406 63.1639 172.098 62.9023 172.84C63.6128 173.147 64.0431 173.401 64.1933 173.603C64.291 173.756 64.3156 173.894 64.2671 174.018C64.2282 174.118 64.1321 174.18 63.9788 174.206C63.8082 174.24 63.6546 174.23 63.518 174.176C63.1703 174.04 62.7579 173.85 62.2806 173.607C61.833 173.36 61.4229 173.164 61.0504 173.018L60.9013 172.96L60.7523 172.902C60.3674 172.751 60.2332 172.527 60.3497 172.229C60.408 172.08 60.5186 171.98 60.6816 171.929C60.8398 171.891 60.9996 171.903 61.161 171.966C61.2728 172.01 61.4269 172.092 61.6235 172.211L61.9669 172.432L62.0219 172.346L62.077 172.26C62.5091 171.155 63.093 169.35 63.8287 166.846C64.5186 164.496 65.1087 162.694 65.5991 161.44C65.6574 161.291 65.7767 161.187 65.957 161.129C66.1249 161.065 66.2895 161.065 66.451 161.128L66.6916 161.502Z" fill="black"/>
<path d="M57.6748 156.776C57.9469 156.918 58.1266 157.064 58.2137 157.214C58.3008 157.364 58.2859 157.552 58.1691 157.777C57.9847 158.132 57.7303 158.766 57.406 159.679L57.2833 160.089L58.9019 161.268C59.1143 161.033 59.5007 160.535 60.0612 159.774C60.4335 159.231 60.7457 158.905 60.9979 158.796C61.136 158.733 61.282 158.741 61.4358 158.821C61.5778 158.894 61.6864 159.004 61.7617 159.148C61.8308 159.304 61.8316 159.447 61.7639 159.577L61.6823 159.648L61.6277 159.709C59.2668 162.344 57.1168 165.036 55.1775 167.785C55.1529 167.832 55.107 167.906 55.0399 168.006C54.9666 168.119 54.8687 168.278 54.7462 168.485C54.4832 168.904 54.2664 169.235 54.0956 169.477C53.913 169.712 53.7406 169.871 53.5783 169.952L52.9749 169.638C52.8093 169.552 52.6888 169.437 52.6135 169.292C52.5321 169.16 52.5283 169.023 52.6021 168.881C53.0693 167.982 53.6398 166.58 54.3135 164.676C55.0237 162.731 55.5693 161.392 55.9505 160.658C55.9874 160.588 56.0531 160.389 56.1476 160.062C56.2299 159.759 56.2925 159.567 56.3356 159.484C56.3786 159.401 56.5039 159.015 56.7114 158.327C56.9 157.703 57.0374 157.309 57.1234 157.143L57.1327 157.126C57.2679 156.865 57.4486 156.749 57.6748 156.776ZM57.0755 160.792C57.0188 160.988 56.9228 161.216 56.7876 161.477C56.2342 162.541 55.6219 163.951 54.9505 165.706L54.1689 167.644C56.1224 165.128 57.5627 163.209 58.4897 161.888C58.3737 161.677 57.9023 161.312 57.0755 160.792Z" fill="black"/>
<path d="M52.8175 154.403L52.403 155.064C52.2888 155.26 52.1543 155.475 51.9995 155.708L51.6069 156.264C51.5592 156.408 50.8354 157.68 49.4357 160.08C48.0359 162.479 47.1297 164.014 46.717 164.684C47.3467 165.134 47.7136 165.474 47.8177 165.703C47.8809 165.873 47.8757 166.013 47.802 166.124C47.743 166.213 47.6359 166.254 47.4805 166.247C47.3067 166.244 47.1587 166.201 47.0365 166.12C46.7254 165.914 46.3624 165.641 45.9474 165.302C45.5621 164.966 45.2027 164.688 44.8694 164.467L44.7361 164.378L44.6027 164.29C44.2583 164.061 44.1745 163.814 44.3514 163.547C44.4399 163.414 44.5691 163.34 44.7392 163.324C44.9019 163.32 45.0555 163.366 45.1999 163.462C45.2999 163.528 45.4333 163.641 45.6001 163.799L45.8892 164.087L45.9611 164.015L46.0331 163.943C46.6891 162.954 47.6412 161.313 48.8896 159.022C50.0607 156.87 51.0184 155.234 51.7629 154.111C51.8513 153.978 51.9898 153.902 52.1784 153.883C52.3558 153.857 52.5168 153.891 52.6612 153.987L52.8175 154.403Z" fill="black"/>
<path d="M47.4946 150.281C47.6914 150.462 47.7201 150.668 47.5807 150.898L44.3433 154.709L43.3604 155.895L41.4712 158.174C40.6372 159.179 40.0066 159.93 39.5793 160.424C39.5283 160.486 39.4507 160.517 39.3466 160.517C39.2322 160.509 39.1236 160.462 39.021 160.377C38.9389 160.309 38.878 160.215 38.8385 160.096C38.7989 159.976 38.7926 159.858 38.8196 159.742C38.8634 159.501 39.0172 159.222 39.281 158.904C39.4682 158.678 39.7978 158.354 40.2696 157.931C40.4791 157.741 40.6953 157.522 40.9184 157.274C41.1414 157.025 41.2869 156.86 41.355 156.778C41.4947 156.652 41.7118 156.442 42.0064 156.149C42.2907 155.848 42.4184 155.694 42.3893 155.687C42.2184 155.58 42.0582 155.387 41.909 155.107C41.7856 154.901 41.7085 154.785 41.6777 154.76C41.2941 154.303 41.1758 153.746 41.3226 153.088C41.4507 152.432 41.6942 151.846 42.0531 151.33C42.1365 151.208 42.2675 151.04 42.4462 150.824C42.8717 150.311 43.2838 149.908 43.6826 149.615C44.3809 148.982 45.2205 148.846 46.2013 149.209C46.3585 149.27 46.5346 149.382 46.7297 149.543C46.8734 149.662 47.0282 149.8 47.1942 149.954C47.3414 150.111 47.4416 150.22 47.4946 150.281ZM46.4759 150.476C46.3886 150.352 46.2987 150.251 46.2063 150.175C46.001 150.004 45.7797 149.916 45.5424 149.91C45.2966 149.914 45.0723 149.997 44.8696 150.158C44.6225 150.351 44.2725 150.658 43.8194 151.079C43.6117 151.288 43.4422 151.451 43.3111 151.567C43.2497 151.62 43.168 151.708 43.0659 151.832C42.7085 152.263 42.463 152.726 42.3293 153.221C42.1872 153.727 42.2531 154.128 42.527 154.424C42.7085 154.644 42.8463 154.802 42.9405 154.897L46.4759 150.476Z" fill="black"/>
<path d="M35.2352 137.279C35.4163 137.509 35.5731 137.785 35.7056 138.104C35.8402 138.406 35.9192 138.657 35.9423 138.859C36.043 139.916 35.0866 141.235 33.073 142.816L32.6482 143.149L32.1606 143.532L31.783 143.829C31.3635 144.158 30.9871 144.445 30.6538 144.69C30.31 144.943 29.9317 145.206 29.5189 145.479C29.0852 145.769 28.7178 145.981 28.4167 146.115C28.1051 146.258 27.7292 146.384 27.2888 146.492C26.8858 146.605 26.5305 146.639 26.2227 146.592C25.9067 146.535 25.5758 146.405 25.2299 146.202C24.9087 146.03 24.5957 145.75 24.2911 145.362C24.1676 145.205 24.1096 145.056 24.1171 144.914C24.1247 144.773 24.1861 144.657 24.3015 144.566C24.4064 144.484 24.5296 144.446 24.6711 144.454C24.8044 144.451 24.9134 144.492 24.9979 144.579L25.5784 145.318C25.7431 145.528 26.0183 145.608 26.404 145.56C26.7897 145.511 27.2169 145.354 27.6858 145.087C28.5689 144.614 29.2517 144.189 29.7341 143.81L29.8128 143.748L31.3477 142.594C31.8151 142.261 32.332 141.872 32.8983 141.427C33.2968 141.114 33.6095 140.843 33.8365 140.614C34.1729 140.266 34.4176 139.929 34.5704 139.606C34.7548 139.258 34.7905 138.882 34.6776 138.479C34.617 138.273 34.5126 138.075 34.3644 137.886C34.2738 137.771 34.1413 137.688 33.9668 137.639C33.8598 137.502 33.8048 137.368 33.8019 137.234C33.7802 137.099 33.8271 136.986 33.9424 136.895C34.3514 136.574 34.7824 136.702 35.2352 137.279Z" fill="black"/>
<path d="M30.2125 130.043C30.3751 130.303 30.4558 130.52 30.4545 130.694C30.4532 130.868 30.3451 131.022 30.1304 131.156C29.7913 131.368 29.2502 131.786 28.5071 132.408L28.1934 132.698L28.9894 134.536C29.2918 134.441 29.8775 134.208 30.7465 133.838C31.3428 133.559 31.7773 133.436 32.0501 133.47C32.2013 133.486 32.3229 133.567 32.4149 133.714C32.4997 133.85 32.538 133.999 32.5296 134.161C32.5099 134.331 32.4378 134.454 32.3135 134.532L32.2075 134.551L32.1291 134.577C28.7574 135.648 25.5385 136.876 22.4722 138.26C22.427 138.288 22.35 138.328 22.2412 138.381C22.1211 138.44 21.9558 138.528 21.7453 138.644C21.3058 138.872 20.9512 139.046 20.6813 139.168C20.4043 139.279 20.1754 139.327 19.9945 139.315L19.6338 138.738C19.5348 138.58 19.4895 138.42 19.4979 138.257C19.495 138.102 19.5613 137.981 19.697 137.897C20.556 137.359 21.759 136.441 23.306 135.143C24.9052 133.828 26.0552 132.951 26.756 132.513C26.8238 132.47 26.9813 132.332 27.2286 132.099C27.4532 131.88 27.605 131.745 27.6841 131.696C27.7633 131.646 28.067 131.378 28.5953 130.89C29.0742 130.449 29.3928 130.179 29.5511 130.08L29.568 130.069C29.8167 129.913 30.0315 129.905 30.2125 130.043ZM27.6573 133.199C27.509 133.339 27.3105 133.487 27.0618 133.642C26.0446 134.279 24.8013 135.183 23.332 136.354L21.6748 137.626C24.6351 136.45 26.8501 135.529 28.3196 134.861C28.3266 134.62 28.1058 134.067 27.6573 133.199Z" fill="black"/>
<path d="M26.5809 123.461C26.7791 123.869 25.889 124.553 23.9105 125.516L22.8765 125.996L22.0404 126.38L21.9865 126.407L21.8066 126.494C21.7048 126.529 21.588 126.578 21.4561 126.642C21.4321 126.654 21.4109 126.686 21.3924 126.74C21.3739 126.793 21.3527 126.826 21.3287 126.838L21.3107 126.846C21.3639 126.895 21.4284 126.997 21.5042 127.153C21.58 127.309 21.6493 127.512 21.7121 127.763C21.7351 127.841 21.7984 128.047 21.902 128.382L23.9704 127.377C24.2822 127.225 24.7651 126.968 25.4191 126.606C26.0611 126.249 26.544 125.992 26.8677 125.834C27.0476 125.747 27.2268 125.719 27.4053 125.751C27.5839 125.783 27.711 125.877 27.7868 126.032C27.8976 126.26 27.7545 126.53 27.3575 126.842C26.9485 127.159 26.3783 127.496 25.6468 127.851L24.1725 128.524C23.7589 128.71 23.3243 128.914 22.8687 129.136L22.5629 129.284L22.3111 129.407C22.1193 129.5 21.9963 129.567 21.9422 129.608L21.8522 129.652L20.7828 130.105C20.3271 130.327 19.6584 130.674 18.7766 131.148C17.8948 131.621 17.226 131.968 16.7704 132.19C16.6265 132.26 16.4773 132.273 16.3227 132.23C16.1681 132.186 16.0559 132.093 15.9859 131.949C15.7993 131.565 16.0657 131.198 16.7852 130.848L19.033 129.8C19.7161 129.497 20.4714 129.145 21.2987 128.743C21.2712 128.534 21.1438 128.195 20.9164 127.728L20.5928 127.062C20.5092 127.073 20.4314 127.096 20.3595 127.131C19.7839 127.411 18.95 127.861 17.8579 128.481C16.8435 129.078 16.0066 129.537 15.3471 129.858C15.2152 129.922 15.0839 129.926 14.9534 129.871C14.8049 129.81 14.6958 129.707 14.6258 129.563C14.585 129.479 14.5566 129.345 14.5408 129.16L14.534 128.963C16.2367 128.135 18.4798 126.97 21.2634 125.468L25.7352 123.094C25.903 123.012 26.067 123.014 26.2271 123.099C26.3813 123.172 26.4992 123.293 26.5809 123.461Z" fill="black"/>
<path d="M24.153 118.362L23.4261 118.646C23.2174 118.735 22.9813 118.828 22.7179 118.923L22.0715 119.134C21.9471 119.222 20.6076 119.811 18.053 120.902C15.4984 121.994 13.8556 122.685 13.1246 122.977C13.3619 123.714 13.454 124.205 13.4009 124.451C13.3503 124.625 13.2623 124.735 13.1369 124.78C13.0366 124.816 12.9262 124.785 12.8057 124.687C12.6681 124.581 12.5745 124.459 12.5247 124.321C12.398 123.969 12.2693 123.534 12.1386 123.014C12.0294 122.515 11.907 122.077 11.7713 121.701L11.717 121.55L11.6627 121.4C11.5225 121.011 11.6029 120.762 11.9039 120.654C12.0545 120.599 12.2025 120.617 12.3481 120.706C12.4811 120.8 12.577 120.928 12.6358 121.091C12.6765 121.204 12.7165 121.374 12.7558 121.601L12.8162 122.004L12.9171 121.989L13.0179 121.974C14.1342 121.572 15.8768 120.823 18.2458 119.727C20.4687 118.699 22.2136 117.956 23.4804 117.499C23.6309 117.445 23.7875 117.467 23.9501 117.564C24.1082 117.649 24.2167 117.773 24.2755 117.936L24.153 118.362Z" fill="black"/>
<path d="M22.4917 110.569C22.574 110.906 22.5398 111.244 22.3892 111.583C22.2516 111.918 22.0236 112.221 21.7053 112.491C21.0069 113.06 20.2026 113.503 19.2921 113.822C18.4398 114.153 17.6057 114.419 16.7897 114.618C16.6343 114.656 16.5032 114.682 16.3964 114.694L16.0467 114.779C15.9819 114.795 15.9511 114.81 15.9543 114.823L15.6046 114.908L14.2398 115.221C13.8222 115.309 13.1489 115.419 12.2201 115.549C11.5826 115.637 10.9439 115.635 10.3041 115.544C10.0229 115.517 9.80013 115.448 9.6358 115.337C9.45851 115.229 9.34772 115.085 9.30342 114.903C9.17684 114.385 9.16007 113.895 9.2531 113.433C9.33317 112.974 9.50678 112.561 9.77393 112.194C10.0345 111.856 10.3822 111.538 10.8171 111.239C11.2391 110.944 11.7061 110.693 12.2182 110.485C12.7432 110.275 13.3101 110.095 13.9189 109.946L14.0743 109.908C14.4758 109.81 14.8369 109.715 15.1575 109.623L16.2602 109.333C19.9905 108.422 22.0677 108.834 22.4917 110.569ZM21.6947 110.847C21.6377 110.613 21.4948 110.422 21.266 110.272C21.0243 110.125 20.7289 110.039 20.3797 110.015C19.659 109.93 18.9103 109.955 18.1334 110.09C17.457 110.187 16.8792 110.294 16.4 110.411C15.8171 110.553 15.064 110.785 14.1406 111.107C13.1623 111.428 12.427 111.649 11.9348 111.769L11.5851 111.855C11.0992 112.001 10.7129 112.274 10.4262 112.673C10.1363 113.06 10.0452 113.473 10.1528 113.913C10.2604 114.354 10.5841 114.583 11.1241 114.603C11.5572 114.634 12.0912 114.572 12.7258 114.417C12.9719 114.357 13.1776 114.3 13.3428 114.246L13.8674 114.118L14.7706 113.938C15.0489 113.898 15.35 113.838 15.6738 113.759C16.3732 113.588 17.0614 113.399 17.7384 113.193C18.6972 112.903 19.6111 112.543 20.4801 112.111C21.3879 111.67 21.7928 111.248 21.6947 110.847Z" fill="black"/>
<path d="M20.8776 105.009C20.8477 105.188 20.7478 105.296 20.5778 105.332L20.2804 105.372C19.7289 105.473 18.8999 105.611 17.7933 105.786C16.8357 105.968 16.1 106.1 15.5864 106.182C14.7856 106.33 13.5826 106.538 11.9774 106.807C11.7016 106.857 11.3201 106.922 10.8329 107C10.3457 107.079 9.9766 107.135 9.72551 107.169C9.58191 107.201 9.37796 107.235 9.11365 107.271C8.8097 107.312 8.58326 107.328 8.43436 107.321C8.0176 107.323 7.79589 107.124 7.76923 106.724C7.71968 106.354 7.90458 106.128 8.32394 106.045L8.56181 106.013L13.5599 105.364L15.9188 105.048L17.1082 104.889C17.2932 104.864 17.5095 104.821 17.7571 104.761C17.9914 104.703 18.1605 104.66 18.2645 104.633C17.8724 104.618 17.4684 104.565 17.0525 104.472C16.6215 104.369 16.3572 104.303 16.2594 104.276C15.7571 104.141 15.3477 104.048 15.0314 103.996C13.9714 103.815 12.6676 103.573 11.1203 103.269C10.8022 103.204 10.4162 103.135 9.9624 103.061C8.79131 102.855 8.03173 102.707 7.68364 102.619C7.35055 102.543 7.12843 102.391 7.01728 102.164C6.96171 102.05 6.92596 101.934 6.91003 101.815C6.88525 101.63 6.91906 101.43 7.01146 101.216L7.96296 101.089C8.95412 100.956 9.97565 100.799 11.0276 100.618C11.2505 100.575 11.5866 100.523 12.0359 100.463L12.6108 100.386C12.7297 100.37 12.8892 100.355 13.0892 100.342C13.2874 100.315 13.5178 100.278 13.7803 100.229L19.1246 99.4529C19.3228 99.4264 19.5471 99.4434 19.7973 99.5041C19.9084 99.5296 20.0031 99.5842 20.0816 99.6678C20.1468 99.7532 20.1865 99.8488 20.2007 99.9545C20.2502 100.325 20.1032 100.533 19.7596 100.579C19.3631 100.632 18.9772 100.663 18.6019 100.673C18.0962 100.714 17.7112 100.752 17.4469 100.787C14.8338 101.164 12.8823 101.459 11.5925 101.672C11.3943 101.699 11.074 101.769 10.6318 101.882L9.92613 102.037C10.0742 102.138 10.169 102.192 10.2104 102.2L11.2242 102.387C11.9397 102.507 12.4706 102.604 12.8169 102.679L17.845 103.761L20.4027 104.326C20.6944 104.395 20.8544 104.535 20.8827 104.746C20.888 104.786 20.8863 104.874 20.8776 105.009ZM6.31705 104.921C6.35953 105.238 6.27468 105.559 6.06252 105.883C5.84859 106.195 5.58965 106.371 5.2857 106.411C5.15355 106.429 5.04251 106.403 4.9526 106.335C4.86269 106.266 4.8014 106.16 4.76872 106.016C4.73249 105.846 4.72624 105.699 4.74996 105.575C4.7587 105.439 4.82206 105.31 4.94006 105.186C5.0695 105.048 5.12537 104.913 5.10768 104.78C5.08821 104.635 4.97051 104.51 4.75459 104.404C4.655 104.364 4.56951 104.328 4.49813 104.297C4.41353 104.268 4.34302 104.244 4.28662 104.225C4.01607 104.113 3.86751 103.958 3.84097 103.76C3.83743 103.733 3.84357 103.678 3.85938 103.596C3.89808 103.483 3.96587 103.386 4.06275 103.306C4.14641 103.228 4.2477 103.18 4.36664 103.165C4.44594 103.154 4.52788 103.163 4.61248 103.192C4.6539 103.2 4.69531 103.208 4.73673 103.216C4.76493 103.226 4.79313 103.235 4.82133 103.245C5.30334 103.328 5.65808 103.516 5.88557 103.809C6.11129 104.088 6.25512 104.459 6.31705 104.921Z" fill="black"/>
<path d="M14.0198 87.0139C14.006 87.1867 13.9207 87.3337 13.7638 87.4549C13.607 87.5761 13.4355 87.6293 13.2495 87.6144C13.0501 87.5984 12.8832 87.5115 12.7487 87.3536C12.6009 87.1946 12.535 87.0155 12.5509 86.8161C12.5658 86.63 12.6589 86.4703 12.8301 86.3368C12.988 86.2023 13.1599 86.1425 13.346 86.1574C13.5587 86.1745 13.7317 86.2686 13.8651 86.4398C13.9863 86.5966 14.0379 86.788 14.0198 87.0139Z" fill="black"/>
<path d="M13.7638 87.4549L13.1523 86.6637L13.1523 86.6637L13.7638 87.4549ZM12.7487 87.3536L13.5099 86.7052L13.4958 86.6886L13.4811 86.6727L12.7487 87.3536ZM12.8301 86.3368L13.4448 87.1256L13.4619 87.1122L13.4785 87.0981L12.8301 86.3368ZM13.8651 86.4398L14.6564 85.8283L14.6539 85.825L13.8651 86.4398ZM13.023 86.9341C13.0278 86.8747 13.0468 86.81 13.0806 86.7517C13.1128 86.6963 13.1452 86.6692 13.1523 86.6637L14.3753 88.2462C14.7198 87.9799 14.977 87.5889 15.0166 87.0937L13.023 86.9341ZM13.1523 86.6637C13.1586 86.6588 13.1819 86.6428 13.2215 86.6305C13.2621 86.6179 13.3006 86.6153 13.3292 86.6176L13.1697 88.6112C13.62 88.6472 14.035 88.5092 14.3753 88.2462L13.1523 86.6637ZM13.3292 86.6176C13.3545 86.6196 13.394 86.6281 13.4366 86.6503C13.4785 86.6721 13.5022 86.6961 13.5099 86.7052L11.9874 88.002C12.2868 88.3535 12.6952 88.5732 13.1697 88.6112L13.3292 86.6176ZM13.4811 86.6727C13.4851 86.6771 13.5082 86.704 13.5269 86.7547C13.5463 86.8074 13.5507 86.8584 13.5477 86.8959L11.5541 86.7363C11.5137 87.2407 11.6958 87.6898 12.0163 88.0345L13.4811 86.6727ZM13.5477 86.8959C13.5434 86.9507 13.5256 87.0091 13.496 87.06C13.4682 87.1077 13.4426 87.1273 13.4448 87.1256L12.2153 85.5481C11.8625 85.8231 11.5951 86.2246 11.5541 86.7363L13.5477 86.8959ZM13.4785 87.0981C13.4761 87.1002 13.4521 87.1196 13.4059 87.1356C13.3576 87.1524 13.3078 87.1576 13.2662 87.1542L13.4258 85.1606C12.9448 85.1221 12.5168 85.29 12.1816 85.5756L13.4785 87.0981ZM13.2662 87.1542C13.2448 87.1525 13.2039 87.1445 13.1575 87.1193C13.1116 87.0943 13.0855 87.0661 13.0764 87.0545L14.6539 85.825C14.3515 85.4371 13.9234 85.2004 13.4258 85.1606L13.2662 87.1542ZM13.0739 87.0512C13.0538 87.0252 13.0377 86.9928 13.0291 86.961C13.0212 86.9314 13.0242 86.9193 13.023 86.9341L15.0166 87.0937C15.0515 86.6579 14.9516 86.2102 14.6564 85.8283L13.0739 87.0512Z" fill="black"/>
<path d="M23.5943 71.2419C23.5096 71.5227 23.3745 71.8092 23.1889 72.1014C23.0199 72.3847 22.8594 72.5939 22.7072 72.7291C21.9004 73.4189 20.2715 73.3942 17.8205 72.6552L17.3035 72.4993L16.7099 72.3203L16.2503 72.1817C15.7397 72.0277 15.2884 71.8847 14.8965 71.7526C14.4919 71.6167 14.0592 71.4584 13.5984 71.2776C13.1121 71.0892 12.7273 70.9105 12.444 70.7416C12.1479 70.5687 11.829 70.3333 11.4872 70.0352C11.1631 69.7704 10.9317 69.4987 10.7929 69.2201C10.658 68.9288 10.5741 68.5832 10.5415 68.1834C10.4973 67.8219 10.5464 67.405 10.6888 66.9327C10.7466 66.7412 10.8355 66.6079 10.9557 66.5327C11.0758 66.4575 11.2061 66.4411 11.3465 66.4834C11.4742 66.5219 11.5756 66.6012 11.6508 66.7214C11.7298 66.8288 11.7584 66.9418 11.7365 67.0606L11.4652 67.9606C11.3882 68.2159 11.4804 68.4874 11.7418 68.7751C12.0032 69.0628 12.3777 69.322 12.8652 69.5525C13.7598 70.0033 14.5007 70.3172 15.0879 70.4943L15.1837 70.5232L17.0104 71.1158C17.5516 71.3068 18.1669 71.5063 18.8562 71.7141C19.3413 71.8604 19.7428 71.9606 20.0608 72.0147C20.5396 72.0894 20.9553 72.0964 21.3078 72.0356C21.6987 71.9863 22.0265 71.7997 22.2913 71.4757C22.4257 71.3073 22.5275 71.1082 22.5968 70.8784C22.6391 70.738 22.6304 70.5822 22.5706 70.4109C22.6206 70.245 22.6994 70.1225 22.8067 70.0435C22.9052 69.9478 23.0247 69.9212 23.1651 69.9635C23.6629 70.1136 23.806 70.5398 23.5943 71.2419Z" fill="black"/>
<path d="M25.238 64.9806L24.5116 64.6958C24.2976 64.6199 24.0616 64.5276 23.8037 64.4187L23.185 64.1359C23.0343 64.1157 21.6503 63.6402 19.033 62.7092C16.4156 61.7783 14.7394 61.1722 14.0043 60.8909C13.679 61.593 13.4135 62.0164 13.2077 62.1611C13.0524 62.2547 12.9133 62.2756 12.7905 62.2238C12.6922 62.1823 12.6322 62.0846 12.6103 61.9307C12.5813 61.7593 12.5954 61.606 12.6524 61.4709C12.7976 61.1269 12.9984 60.7196 13.2549 60.249C13.5133 59.8081 13.7203 59.4034 13.8758 59.0349L13.938 58.8875L14.0003 58.7401C14.161 58.3592 14.3887 58.2311 14.6836 58.3555C14.831 58.4177 14.9279 58.531 14.9743 58.6953C15.0085 58.8544 14.9918 59.0138 14.9244 59.1735C14.8778 59.2841 14.792 59.436 14.667 59.6293L14.4377 59.9667L14.5221 60.024L14.6064 60.0813C15.6997 60.5427 17.4882 61.1745 19.9717 61.9766C22.3026 62.7288 24.0885 63.3667 25.3292 63.8903C25.4766 63.9525 25.5771 64.0745 25.6306 64.2563C25.6893 64.4258 25.685 64.5904 25.6176 64.7501L25.238 64.9806Z" fill="black"/>
<path d="M30.2018 56.0929C30.0532 56.3612 29.9026 56.5369 29.7499 56.6199C29.5972 56.703 29.41 56.6832 29.1884 56.5604C28.8385 56.3666 28.2113 56.0954 27.307 55.7469L26.9008 55.6133L25.679 57.2C25.9085 57.4186 26.3959 57.8181 27.1413 58.3987C27.674 58.7852 27.9917 59.106 28.0943 59.361C28.1541 59.5008 28.142 59.6465 28.058 59.7981C27.9804 59.9381 27.8686 60.0438 27.7223 60.1152C27.5644 60.1802 27.4213 60.1771 27.293 60.106L27.2249 60.0226L27.1646 59.9663C24.5935 57.5361 21.9598 55.3152 19.2636 53.3034C19.2169 53.2776 19.1444 53.2298 19.0459 53.16C18.9357 53.0837 18.7789 52.9816 18.5754 52.8536C18.1632 52.5796 17.8385 52.354 17.6013 52.1769C17.3705 51.9881 17.2169 51.8115 17.1402 51.6471L17.4697 51.0523C17.5602 50.889 17.6785 50.7717 17.8248 50.7003C17.9594 50.6224 18.0967 50.6222 18.2366 50.6997C19.123 51.1908 20.5089 51.7983 22.3941 52.5225C24.3194 53.2842 25.6437 53.8653 26.3669 54.2659C26.4368 54.3046 26.6338 54.3756 26.9577 54.4788C27.2582 54.5691 27.4493 54.6368 27.531 54.6821C27.6126 54.7273 27.9948 54.8628 28.6776 55.0886C29.2956 55.2937 29.6862 55.4415 29.8495 55.532L29.867 55.5416C30.1236 55.6838 30.2352 55.8675 30.2018 56.0929ZM26.2031 55.3869C26.0088 55.325 25.7833 55.223 25.5267 55.0809C24.477 54.4994 23.084 53.8497 21.3478 53.1318L19.4314 52.2989C21.8945 54.3187 23.7742 55.8096 25.0704 56.7715C25.2839 56.6611 25.6615 56.1996 26.2031 55.3869Z" fill="black"/>
<path d="M32.7036 51.3005L32.0538 50.8685C31.8607 50.7491 31.6495 50.609 31.4204 50.448L30.8755 50.0408C30.7324 49.9892 29.4802 49.2319 27.1189 47.7687C24.7575 46.3056 23.2472 45.3588 22.5882 44.9285C22.1219 45.546 21.7728 45.9037 21.5411 46.0016C21.3695 46.0603 21.2292 46.0514 21.1201 45.9747C21.0328 45.9134 20.9947 45.8052 21.0059 45.6501C21.0138 45.4765 21.0599 45.3296 21.1442 45.2096C21.3588 44.9041 21.6412 44.5485 21.9914 44.1427C22.3372 43.7664 22.625 43.4146 22.855 43.0873L22.9469 42.9564L23.0389 42.8254C23.2765 42.4872 23.5262 42.41 23.788 42.594C23.919 42.6859 23.9898 42.8171 24.0004 42.9875C24.0001 43.1503 23.9502 43.3026 23.8506 43.4444C23.7816 43.5426 23.6656 43.673 23.5026 43.8355L23.2072 44.1168L23.2775 44.1907L23.3479 44.2645C24.3189 44.9466 25.9334 45.9421 28.1913 47.2511C30.3105 48.479 31.9212 49.48 33.0231 50.254C33.1541 50.346 33.2265 50.4864 33.2404 50.6754C33.2619 50.8535 33.2229 51.0135 33.1233 51.1553L32.7036 51.3005Z" fill="black"/>
<path d="M36.9653 46.0892C36.7796 46.2811 36.5733 46.3043 36.3463 46.1588L32.6229 42.8211L31.464 41.807L29.2364 39.8578C28.253 38.9974 27.5199 38.347 27.037 37.9067C26.9768 37.8541 26.9479 37.7757 26.9504 37.6716C26.9617 37.5574 27.0113 37.4502 27.0991 37.3498C27.1693 37.2696 27.2646 37.2112 27.385 37.1749C27.5055 37.1385 27.6234 37.1354 27.7388 37.1655C27.9783 37.2156 28.2536 37.3768 28.5647 37.649C28.7855 37.8422 29.1009 38.1802 29.5111 38.6631C29.6954 38.8776 29.9087 39.0996 30.1507 39.3291C30.3928 39.5587 30.554 39.7086 30.6343 39.7788C30.7572 39.9218 30.961 40.1444 31.2457 40.4467C31.5392 40.739 31.6898 40.8707 31.6973 40.8418C31.8089 40.6738 32.0065 40.5189 32.2899 40.3771C32.4994 40.2592 32.6173 40.1852 32.6437 40.1551C33.1103 39.7839 33.6703 39.6804 34.3238 39.8447C34.976 39.9902 35.5555 40.2492 36.0622 40.6217C36.1814 40.7083 36.3463 40.8438 36.557 41.0281C37.0588 41.4672 37.4507 41.8899 37.7329 42.2962C38.3475 43.0112 38.4604 43.8541 38.0716 44.8249C38.0063 44.9804 37.8903 45.1535 37.7235 45.3442C37.6006 45.4847 37.4595 45.6358 37.3002 45.7976C37.1396 45.9406 37.028 46.0378 36.9653 46.0892ZM36.7978 45.0657C36.9245 44.9817 37.0274 44.8945 37.1064 44.8042C37.282 44.6035 37.3761 44.3846 37.3886 44.1476C37.3911 43.9017 37.3146 43.6753 37.1591 43.4684C36.9722 43.2163 36.6743 42.8582 36.2654 42.3941C36.0622 42.1808 35.9042 42.0071 35.7913 41.8729C35.7399 41.8102 35.6539 41.7262 35.5335 41.6208C35.1121 41.252 34.6555 40.9943 34.1639 40.8475C33.6621 40.692 33.2595 40.7472 32.956 41.0131C32.7314 41.1887 32.5703 41.3222 32.4724 41.4138L36.7978 45.0657Z" fill="black"/>
<path d="M50.2898 34.1803C50.0544 34.3553 49.775 34.5047 49.4518 34.6285C49.1472 34.7552 48.8936 34.8273 48.6908 34.8451C47.6318 34.9176 46.3389 33.9264 44.8122 31.8715L44.4902 31.438L44.1205 30.9403L43.8342 30.555C43.5161 30.1269 43.2392 29.743 43.0034 29.4032C42.7597 29.0528 42.5067 28.6677 42.2446 28.2478C41.9666 27.8065 41.7643 27.4336 41.6377 27.129C41.5031 26.8138 41.3875 26.4346 41.2909 25.9914C41.1887 25.5856 41.165 25.2295 41.2197 24.9231C41.2851 24.6087 41.4239 24.2814 41.6362 23.941C41.8163 23.6245 42.1043 23.3191 42.5003 23.0249C42.6609 22.9056 42.8118 22.8516 42.9531 22.8629C43.0943 22.8743 43.2087 22.9388 43.2962 23.0565C43.3757 23.1635 43.4098 23.2877 43.3985 23.429C43.3979 23.5623 43.3534 23.6701 43.265 23.7524L42.5105 24.313C42.2964 24.472 42.2085 24.7449 42.2468 25.1318C42.285 25.5186 42.4311 25.9499 42.6849 26.4258C43.1342 27.3211 43.5417 28.015 43.9075 28.5073L43.9671 28.5876L45.08 30.1527C45.4006 30.6288 45.7755 31.1558 46.2049 31.7338C46.507 32.1405 46.7696 32.4603 46.9925 32.6934C47.3323 33.0389 47.6618 33.2924 47.9811 33.4539C48.3242 33.6474 48.6987 33.6931 49.1045 33.5909C49.3127 33.5359 49.5132 33.4368 49.7058 33.2937C49.8236 33.2062 49.9095 33.0759 49.9636 32.9028C50.1028 32.7995 50.239 32.7481 50.3723 32.7487C50.5084 32.7306 50.6202 32.7805 50.7077 32.8982C51.0178 33.3156 50.8785 33.743 50.2898 34.1803Z" fill="black"/>
<path d="M57.6565 29.352C57.3923 29.5076 57.1733 29.5825 56.9996 29.5766C56.8259 29.5706 56.6747 29.4585 56.5461 29.2402C56.343 28.8956 55.9404 28.3436 55.3381 27.5842L55.056 27.263L53.1978 28.0097C53.2846 28.3145 53.5017 28.9062 53.8491 29.7848C54.1119 30.3883 54.2227 30.8259 54.1817 31.0977C54.1622 31.2485 54.0778 31.3678 53.9285 31.4558C53.7906 31.5371 53.6406 31.5713 53.4783 31.5586C53.3093 31.5344 53.1875 31.4591 53.1131 31.3327L53.0968 31.2263L53.0734 31.1472C52.092 27.7482 50.9504 24.4977 49.6488 21.3957C49.6217 21.3498 49.5834 21.2717 49.534 21.1616C49.4778 21.0399 49.3945 20.8723 49.2842 20.6588C49.0682 20.2134 48.903 19.8543 48.7885 19.5812C48.6856 19.3014 48.6428 19.0713 48.6602 18.8908L49.2461 18.5455C49.4069 18.4508 49.5685 18.4098 49.7307 18.4225C49.8862 18.4237 50.0046 18.4933 50.0858 18.6311C50.6002 19.5042 51.4857 20.7312 52.7423 22.3121C54.0144 23.9458 54.8603 25.1187 55.28 25.831C55.3206 25.8999 55.4543 26.061 55.6809 26.3144C55.894 26.5447 56.0243 26.7001 56.0717 26.7805C56.1191 26.8609 56.3796 27.1717 56.8532 27.7129C57.2815 28.2033 57.543 28.529 57.6378 28.6898L57.6479 28.707C57.7968 28.9598 57.7997 29.1747 57.6565 29.352ZM54.5698 26.7137C54.4338 26.5617 54.2914 26.3593 54.1425 26.1066C53.5333 25.0728 52.663 23.8059 51.5315 22.3059L50.3033 20.6154C51.4 23.606 52.2626 25.8447 52.8911 27.3315C53.1311 27.3448 53.6906 27.1389 54.5698 26.7137Z" fill="black"/>
<path d="M64.3331 25.8968C63.9203 26.0842 63.2594 25.1761 62.3503 23.1727L61.8975 22.1263L61.5355 21.2803L61.5107 21.2256L61.4281 21.0435C61.3961 20.9409 61.3499 20.8228 61.2893 20.6892C61.2782 20.6649 61.2463 20.6428 61.1933 20.6229C61.1404 20.603 61.1084 20.581 61.0973 20.5567L61.0891 20.5385C61.0394 20.5903 60.9356 20.652 60.7778 20.7236C60.6199 20.7953 60.4147 20.8591 60.1619 20.9152C60.0836 20.9362 59.8755 20.994 59.5378 21.0886L60.4882 23.1831C60.6314 23.4988 60.8755 23.9883 61.2205 24.6517C61.5599 25.303 61.804 25.7926 61.9528 26.1204C62.0354 26.3025 62.0585 26.4824 62.022 26.66C61.9854 26.8377 61.8882 26.9623 61.7304 27.0339C61.4997 27.1386 61.2339 26.9884 60.9329 26.5832C60.6264 26.1659 60.3051 25.5869 59.969 24.8463L59.336 23.3545C59.1609 22.9362 58.9686 22.4963 58.7592 22.0349L58.6187 21.7253L58.503 21.4703C58.4149 21.2761 58.351 21.1513 58.3113 21.0961L58.27 21.0051L57.8453 19.9239C57.6359 19.4625 57.3064 18.7848 56.8568 17.8907C56.4071 16.9966 56.0776 16.3188 55.8683 15.8574C55.8022 15.7117 55.7929 15.5622 55.8404 15.4089C55.888 15.2555 55.9846 15.1458 56.1303 15.0797C56.5188 14.9034 56.8784 15.1795 57.209 15.908L58.1973 18.1829C58.4815 18.8738 58.8137 19.6382 59.1939 20.476C59.4036 20.4541 59.7452 20.3357 60.2187 20.1208L60.8926 19.815C60.8838 19.7311 60.8629 19.6528 60.8298 19.5799C60.5654 18.9971 60.1378 18.1516 59.547 17.0433C58.9772 16.0134 58.5408 15.1645 58.2378 14.4967C58.1772 14.3632 58.1761 14.2319 58.2347 14.1028C58.2999 13.9561 58.4054 13.8497 58.5511 13.7835C58.6361 13.745 58.7712 13.7202 58.9566 13.7093L59.1536 13.7078C59.936 15.4319 61.0407 17.7053 62.4679 20.5278L64.7226 25.0612C64.7998 25.2312 64.7936 25.3951 64.7041 25.5528C64.6268 25.705 64.5031 25.8197 64.3331 25.8968Z" fill="black"/>
<path d="M69.4944 23.6056L69.2304 22.8714C69.1465 22.6603 69.0606 22.4219 68.9727 22.1561L68.7781 21.5042C68.6941 21.3775 68.1406 20.0228 67.1176 17.4401C66.0947 14.8573 65.447 13.1967 65.1746 12.4582C64.4321 12.6758 63.9386 12.7548 63.6942 12.6952C63.5214 12.64 63.4141 12.5491 63.3722 12.4225C63.3387 12.3213 63.3727 12.2117 63.4742 12.0939C63.5841 11.9592 63.7087 11.8688 63.8479 11.8228C64.2024 11.7055 64.6411 11.5885 65.1642 11.4716C65.6662 11.3757 66.1071 11.265 66.4868 11.1394L66.6387 11.0891L66.7906 11.0389C67.183 10.9091 67.4295 10.996 67.53 11.2999C67.5803 11.4518 67.5588 11.5993 67.4658 11.7424C67.3685 11.8729 67.2376 11.9654 67.073 12.0198C66.9591 12.0575 66.7882 12.093 66.5605 12.1262L66.1556 12.1759L66.168 12.2771L66.1804 12.3783C66.5531 13.5049 67.2554 15.2668 68.2872 17.6641C69.2561 19.9136 69.952 21.6776 70.3749 22.9562C70.4252 23.1081 70.3995 23.264 70.298 23.424C70.2091 23.5798 70.0824 23.6849 69.9178 23.7394L69.4944 23.6056Z" fill="black"/>
<path d="M77.3288 22.1523C76.99 22.2256 76.6532 22.1825 76.3186 22.0229C75.9868 21.8764 75.6902 21.6404 75.4289 21.315C74.879 20.6018 74.457 19.7859 74.1629 18.8673C73.8539 18.0065 73.6107 17.1656 73.4331 16.3445C73.3993 16.1882 73.3776 16.0564 73.3681 15.9494L73.292 15.5975C73.2779 15.5323 73.2644 15.5012 73.2513 15.504L73.1752 15.1521L72.8988 13.7795C72.8217 13.3597 72.7301 12.6838 72.624 11.7518C72.5539 11.1122 72.5727 10.4738 72.6804 9.83659C72.7153 9.55622 72.7903 9.33538 72.9055 9.17405C73.0178 8.9997 73.1652 8.89279 73.3477 8.85333C73.869 8.74059 74.3592 8.73687 74.8186 8.84216C75.275 8.93442 75.6833 9.11896 76.0433 9.39579C76.3744 9.66522 76.6833 10.0213 76.97 10.464C77.2539 10.8937 77.4927 11.3673 77.6865 11.8847C77.8831 12.4151 78.0476 12.9866 78.18 13.5991L78.2139 13.7555C78.3012 14.1595 78.3867 14.523 78.4702 14.8459L78.7307 15.956C79.5424 19.7092 79.0751 21.7746 77.3288 22.1523ZM77.0731 21.3482C77.3076 21.2975 77.5029 21.1597 77.659 20.935C77.8122 20.6973 77.9057 20.4042 77.9395 20.0558C78.0433 19.3377 78.0382 18.5885 77.924 17.8083C77.8454 17.1296 77.754 16.5491 77.6497 16.067C77.5229 15.4805 77.311 14.7215 77.014 13.7899C76.7188 12.8033 76.5177 12.0624 76.4106 11.5672L76.3345 11.2154C76.2013 10.7258 75.9389 10.3324 75.5472 10.0351C75.1685 9.73503 74.7577 9.6329 74.3146 9.72873C73.8715 9.82456 73.6332 10.1421 73.5998 10.6813C73.5568 11.1135 73.6044 11.6489 73.7425 12.2875C73.7961 12.5351 73.8477 12.7422 73.8973 12.9088L74.0115 13.4366L74.1669 14.3442C74.2 14.6236 74.2518 14.9261 74.3222 15.2519C74.4744 15.9556 74.6448 16.6486 74.8332 17.3309C75.0968 18.297 75.4328 19.2202 75.8414 20.1003C76.2585 21.0196 76.6691 21.4356 77.0731 21.3482Z" fill="black"/>
<path d="M82.9299 20.6868C82.7519 20.6522 82.647 20.5494 82.6153 20.3785L82.5835 20.0802C82.4974 19.5262 82.3816 18.6938 82.236 17.583C82.0796 16.6208 81.967 15.8819 81.8985 15.3663C81.7723 14.5618 81.5962 13.3537 81.3703 11.7419C81.3273 11.4649 81.2729 11.0819 81.2072 10.5927C81.1415 10.1036 81.0952 9.73311 81.0683 9.48121C81.0394 9.33679 81.0108 9.132 80.9825 8.86685C80.9499 8.56192 80.939 8.33512 80.95 8.18645C80.9591 7.76979 81.1639 7.55345 81.5645 7.53745C81.9357 7.49777 82.1572 7.68864 82.2291 8.11005L82.2546 8.34869L82.7704 13.3623L83.0234 15.7288L83.151 16.922C83.1708 17.1076 83.2075 17.3249 83.2609 17.574C83.3129 17.8098 83.3512 17.98 83.3758 18.0847C83.401 17.6931 83.4653 17.2907 83.5686 16.8773C83.6838 16.4493 83.7563 16.1868 83.7861 16.0898C83.934 15.5912 84.038 15.1845 84.0982 14.8697C84.3072 13.8148 84.5843 12.518 84.9294 10.9793C85.0028 10.663 85.0825 10.279 85.1683 9.82736C85.4058 8.66219 85.5731 7.90679 85.6702 7.56117C85.7556 7.23023 85.9133 7.01223 86.1434 6.90717C86.2585 6.85464 86.3757 6.822 86.495 6.80924C86.6806 6.7894 86.8792 6.82851 87.0908 6.92657L87.1929 7.88114C87.2992 8.87547 87.4289 9.90082 87.5821 10.9572C87.6194 11.1812 87.6622 11.5185 87.7104 11.9693L87.772 12.546C87.7848 12.6653 87.7951 12.8251 87.8031 13.0254C87.8244 13.2243 87.8558 13.4556 87.8974 13.7193L88.5311 19.0824C88.5523 19.2812 88.5293 19.5049 88.462 19.7535C88.4336 19.8638 88.3765 19.9571 88.2908 20.0333C88.2037 20.0962 88.1071 20.1334 88.001 20.1447C87.6298 20.1844 87.4258 20.0319 87.3889 19.6872C87.3464 19.2895 87.3252 18.9028 87.3253 18.5274C87.2979 18.0207 87.2701 17.6349 87.2417 17.3697C86.9346 14.7475 86.6917 12.7889 86.513 11.4939C86.4918 11.295 86.4305 10.973 86.3293 10.5279L86.1931 9.81838C86.088 9.96371 86.0309 10.057 86.0219 10.0982L85.8079 11.1066C85.6695 11.8187 85.5583 12.3468 85.4744 12.691L84.2587 17.6886L83.6253 20.2303C83.549 20.5201 83.4048 20.6763 83.1927 20.6989C83.1529 20.7032 83.0653 20.6992 82.9299 20.6868ZM83.4057 6.13379C83.0875 6.1678 82.7691 6.07445 82.4505 5.85373C82.1452 5.6316 81.9762 5.36806 81.9436 5.06313C81.9294 4.93056 81.9579 4.82024 82.0289 4.73219C82.1 4.64414 82.2077 4.58569 82.3521 4.55685C82.523 4.52516 82.6703 4.52283 82.7939 4.54985C82.9293 4.56219 83.0571 4.62898 83.1773 4.75022C83.3123 4.8833 83.446 4.94276 83.5786 4.92859C83.7244 4.913 83.853 4.79868 83.9643 4.58564C84.0074 4.48717 84.0453 4.40266 84.078 4.33212C84.1093 4.24832 84.1353 4.17849 84.1562 4.12262C84.2751 3.85514 84.434 3.71076 84.6328 3.68951C84.6594 3.68667 84.7138 3.69426 84.7962 3.71227C84.9079 3.75397 85.0026 3.8243 85.0802 3.92328C85.1564 4.00899 85.2009 4.11151 85.2137 4.23083C85.2222 4.31038 85.2108 4.39205 85.1795 4.47585C85.1705 4.51704 85.1615 4.55823 85.1525 4.59942C85.1421 4.62736 85.1317 4.65529 85.1212 4.68322C85.025 5.16283 84.8277 5.51245 84.5294 5.73208C84.2443 5.95028 83.8697 6.08419 83.4057 6.13379Z" fill="black"/>
</svg>
