<svg width="76" height="100" viewBox="0 0 76 100" fill="none" xmlns="http://www.w3.org/2000/svg">
<path d="M36.1482 0.770271C35.0815 1.43694 34.0148 4.50361 33.6148 7.43694C32.9482 12.2369 32.5481 12.7703 30.4148 11.5703C27.4815 10.1036 19.2148 13.0369 16.4148 16.7703C12.4148 21.9703 15.0815 26.6369 26.2815 34.3703C29.3482 36.3703 30.2815 37.7036 29.2148 38.3703C28.0148 39.0369 28.0148 39.5703 29.0815 40.2369C29.8815 40.7703 30.5482 42.6369 30.5482 44.5036C30.5482 47.7036 30.2815 47.7036 19.3482 47.7036C13.2148 47.7036 7.21482 48.1036 6.01481 48.5036C3.08148 49.7036 -0.118519 42.6369 2.68148 40.9036C4.14815 39.9703 4.01481 39.7036 2.01481 39.7036C-0.118519 39.7036 -0.385185 40.3703 0.414815 43.9703C0.814815 46.3703 2.14815 49.0369 3.21481 49.8369C5.88148 51.8369 8.41481 78.2369 7.21482 90.6369L6.41481 99.7036H36.8148C53.4815 99.5703 68.5481 99.3036 70.4148 98.7703L73.6148 97.9703L72.6815 74.2369C71.8815 53.1703 72.0148 50.3703 73.8815 50.3703C76.1481 50.3703 76.4148 47.9703 74.5481 43.1703C73.4815 40.3703 72.4148 39.7036 68.9482 39.8369L64.5481 39.9703L68.5481 40.9036C71.6148 41.5703 72.6815 42.5036 72.9482 45.4369L73.3482 49.0369H61.4815C48.9482 49.0369 45.8815 47.7036 46.8148 42.7703C47.0815 40.9036 48.9482 40.2369 55.8815 39.5703C60.6815 39.1703 63.3482 38.6369 61.8815 38.5036C59.8815 38.2369 59.7481 37.9703 61.2148 37.4369C65.4815 35.8369 67.8815 32.5036 67.8815 28.1036C67.8815 22.2369 64.4148 17.1703 58.9482 14.9036C55.2148 13.3036 54.5482 12.3703 54.5482 8.50361C54.5482 6.10361 53.6148 3.30361 52.5482 2.37028C50.0148 0.236938 38.5481 -0.829727 36.1482 0.770271ZM50.2815 3.17027C54.4148 5.97028 54.0148 11.9703 49.3482 19.5703C47.3482 23.0369 45.0815 27.1703 44.5481 28.9036C44.1482 30.5036 42.9482 31.5703 42.1482 31.3036C40.1482 30.7703 39.2148 17.0369 41.0815 17.0369C41.8815 17.0369 42.1482 19.8369 41.8815 23.9703L41.3482 31.0369L42.6815 24.5036C43.4815 20.3703 43.6148 17.5703 42.6815 16.6369C39.8815 13.8369 38.5481 17.5703 38.5481 27.8369C38.5481 33.5703 38.0148 38.3703 37.4815 38.3703C35.7481 38.3703 34.4148 6.50361 36.0148 3.57027C37.6148 0.370277 46.0148 0.103607 50.2815 3.17027ZM32.0148 16.2369C34.1482 20.7703 32.4148 32.5036 29.8815 30.3703C27.7481 28.5036 26.4148 23.9703 27.8815 23.0369C28.5482 22.6369 29.6148 23.4369 30.4148 24.6369C31.2148 25.9703 31.8815 26.3703 31.8815 25.5703C31.8815 22.9036 28.0148 20.3703 26.2815 22.1036C25.2148 23.1703 25.6148 25.0369 27.4815 28.9036C28.9482 31.9703 30.0148 34.3703 29.7481 34.3703C27.6148 34.3703 18.1481 27.0369 17.0815 24.5036C14.4148 18.9036 19.6148 13.3036 27.6148 13.1703C29.4815 13.0369 31.0815 14.2369 32.0148 16.2369ZM63.0815 19.8369C69.2148 27.0369 66.4148 35.0369 57.4815 36.3703C54.8148 36.7703 50.9482 37.4369 48.9482 37.7036C44.2815 38.5036 44.0148 36.2369 48.6815 35.1703C54.0148 33.8369 58.5482 30.3703 58.5482 27.5703C58.5482 23.8369 54.1482 24.3703 49.0815 28.6369L44.6815 32.3703L49.0815 23.9703C54.4148 14.2369 57.6148 13.3036 63.0815 19.8369ZM56.9482 27.9703C56.1482 30.1036 48.0148 34.9036 46.9482 33.9703C45.8815 32.9036 53.2148 26.3703 55.4815 26.3703C56.5482 26.3703 57.2148 27.1703 56.9482 27.9703ZM45.2148 43.7036C45.2148 47.5703 44.9482 47.7036 39.2148 47.7036C35.0815 47.7036 32.9482 47.0369 32.4148 45.7036C30.8148 41.5703 32.9482 39.7036 39.2148 39.7036C44.9482 39.7036 45.2148 39.8369 45.2148 43.7036ZM35.0815 58.6369C35.4815 63.9703 36.0148 74.9036 36.1482 83.0369L36.5481 97.7036H22.5481H8.54815L8.94815 87.7036C9.21482 82.2369 8.68148 71.8369 7.88148 64.6369C7.21482 57.3036 6.81482 50.9036 7.34815 50.2369C7.74815 49.5703 14.0148 49.0369 21.2148 49.0369H34.2815L35.0815 58.6369ZM43.0815 54.6369C43.4815 57.8369 44.0148 68.6369 44.1482 78.6369C44.5481 95.0369 44.2815 96.9036 42.2815 97.5703C40.9482 97.8369 39.6148 97.7036 39.3482 97.3036C39.0815 96.7703 38.4148 89.1703 38.0148 80.3703C37.4815 71.5703 36.8148 60.9036 36.4148 56.6369C35.6148 49.1703 35.7481 49.0369 38.9482 49.0369C42.0148 49.0369 42.4148 49.7036 43.0815 54.6369ZM70.9482 65.4369C71.4815 73.7036 71.8815 83.8369 71.8815 88.1036C71.8815 95.1703 71.6148 95.8369 68.4148 97.0369C63.4815 99.0369 48.2815 98.7703 46.9482 96.6369C46.1482 95.3036 44.0148 52.2369 44.6815 50.3703C44.8148 49.9703 50.6815 49.8369 57.6148 50.1036L70.1481 50.5036L70.9482 65.4369Z" fill="black"/>
<path d="M24.5483 54.3703C25.0817 55.1703 26.015 55.4369 26.6817 55.0369C28.5483 53.8369 28.1483 53.0369 25.7483 53.0369C24.6817 53.0369 24.1483 53.7036 24.5483 54.3703Z" fill="black"/>
<path d="M11.215 55.7035C10.815 56.3702 11.0817 57.0369 11.7484 57.0369C12.5484 57.0369 13.215 56.3702 13.215 55.7035C13.215 54.9035 12.9484 54.3702 12.6817 54.3702C12.2817 54.3702 11.615 54.9035 11.215 55.7035Z" fill="black"/>
<path d="M17.2148 63.7035C17.2148 64.3702 17.8815 65.0369 18.5482 65.0369C19.3482 65.0369 19.8815 64.3702 19.8815 63.7035C19.8815 62.9035 19.3482 62.3702 18.5482 62.3702C17.8815 62.3702 17.2148 62.9035 17.2148 63.7035Z" fill="black"/>
<path d="M29.2148 67.7035C29.2148 68.3702 29.8815 69.0369 30.5482 69.0369C31.3482 69.0369 31.8815 68.3702 31.8815 67.7035C31.8815 66.9035 31.3482 66.3702 30.5482 66.3702C29.8815 66.3702 29.2148 66.9035 29.2148 67.7035Z" fill="black"/>
<path d="M13.2148 77.0369C13.2148 77.7036 13.7482 78.3702 14.4148 78.3702C15.2148 78.3702 16.1482 77.7036 16.5482 77.0369C16.9482 76.2369 16.4148 75.7036 15.3482 75.7036C14.1482 75.7036 13.2148 76.2369 13.2148 77.0369Z" fill="black"/>
<path d="M24.5483 79.7035C25.0817 80.5035 26.015 80.7702 26.6817 80.3702C28.5483 79.1702 28.1483 78.3702 25.7483 78.3702C24.6817 78.3702 24.1483 79.0368 24.5483 79.7035Z" fill="black"/>
<path d="M15.2148 93.0369C15.6148 93.7036 16.5482 94.3702 17.3482 94.3702C18.0148 94.3702 18.5482 93.7036 18.5482 93.0369C18.5482 92.2369 17.6148 91.7036 16.4148 91.7036C15.3482 91.7036 14.8148 92.2369 15.2148 93.0369Z" fill="black"/>
<path d="M29.2148 93.0369C29.2148 93.7036 29.8815 94.3702 30.5482 94.3702C31.3482 94.3702 31.8815 93.7036 31.8815 93.0369C31.8815 92.2369 31.3482 91.7036 30.5482 91.7036C29.8815 91.7036 29.2148 92.2369 29.2148 93.0369Z" fill="black"/>
<path d="M61.2148 55.7035C61.2148 56.3702 61.8815 57.0369 62.5482 57.0369C63.3482 57.0369 63.8815 56.3702 63.8815 55.7035C63.8815 54.9035 63.3482 54.3702 62.5482 54.3702C61.8815 54.3702 61.2148 54.9035 61.2148 55.7035Z" fill="black"/>
<path d="M49.2148 57.0369C49.2148 57.7036 49.8815 58.3702 50.5482 58.3702C51.3482 58.3702 51.8815 57.7036 51.8815 57.0369C51.8815 56.2369 51.3482 55.7036 50.5482 55.7036C49.8815 55.7036 49.2148 56.2369 49.2148 57.0369Z" fill="black"/>
<path d="M65.2148 67.7035C65.2148 68.3702 65.8815 69.0369 66.5482 69.0369C67.3482 69.0369 67.8815 68.3702 67.8815 67.7035C67.8815 66.9035 67.3482 66.3702 66.5482 66.3702C65.8815 66.3702 65.2148 66.9035 65.2148 67.7035Z" fill="black"/>
<path d="M55.2148 69.0369C54.8148 69.7036 55.3482 70.3702 56.4148 70.3702C57.6148 70.3702 58.5482 69.7036 58.5482 69.0369C58.5482 68.2369 58.0148 67.7036 57.3482 67.7036C56.5482 67.7036 55.6148 68.2369 55.2148 69.0369Z" fill="black"/>
<path d="M47.8816 79.7035C47.8816 80.3702 48.5483 81.0369 49.2149 81.0369C50.0149 81.0369 50.5483 80.3702 50.5483 79.7035C50.5483 78.9035 50.0149 78.3702 49.2149 78.3702C48.5483 78.3702 47.8816 78.9035 47.8816 79.7035Z" fill="black"/>
<path d="M61.8817 80.9036C61.0817 82.3702 63.0817 83.9702 64.415 82.7702C65.615 81.5702 65.3483 79.7036 64.015 79.7036C63.215 79.7036 62.415 80.2369 61.8817 80.9036Z" fill="black"/>
<path d="M53.2148 93.0369C53.2148 93.7036 53.8815 94.3702 54.6815 94.3702C55.3482 94.3702 55.6148 93.7036 55.2148 93.0369C54.8148 92.2369 54.1482 91.7036 53.7482 91.7036C53.4815 91.7036 53.2148 92.2369 53.2148 93.0369Z" fill="black"/>
<path d="M63.8816 94.3703C63.8816 95.0369 64.5483 95.7036 65.2149 95.7036C66.0149 95.7036 66.5483 95.0369 66.5483 94.3703C66.5483 93.5703 66.0149 93.0369 65.2149 93.0369C64.5483 93.0369 63.8816 93.5703 63.8816 94.3703Z" fill="black"/>
<path d="M10.2816 39.3036C14.0149 39.7036 15.8816 40.5036 15.8816 41.8369C15.8816 42.9036 16.5483 43.7036 17.3483 43.7036C18.1483 43.7036 18.5483 42.9036 18.1483 41.8369C17.6149 40.5036 18.4149 39.7036 20.2816 39.3036C21.8816 39.0369 19.0816 38.7702 13.8816 38.7702C8.41492 38.7702 6.81492 39.0369 10.2816 39.3036Z" fill="black"/>
<path d="M55.8816 42.5036C55.8816 43.1702 56.5483 43.4369 57.2149 43.0369C58.0149 42.6369 58.5483 41.9702 58.5483 41.5702C58.5483 41.3036 58.0149 41.0369 57.2149 41.0369C56.5483 41.0369 55.8816 41.7036 55.8816 42.5036Z" fill="black"/>
<path d="M5.21484 43.7035C5.21484 44.3702 5.88151 45.0369 6.54818 45.0369C7.34818 45.0369 7.88151 44.3702 7.88151 43.7035C7.88151 42.9035 7.34818 42.3702 6.54818 42.3702C5.88151 42.3702 5.21484 42.9035 5.21484 43.7035Z" fill="black"/>
<path d="M65.2148 46.3702C65.2148 47.0369 65.8815 47.7036 66.5482 47.7036C67.3482 47.7036 67.8815 47.0369 67.8815 46.3702C67.8815 45.5702 67.3482 45.0369 66.5482 45.0369C65.8815 45.0369 65.2148 45.5702 65.2148 46.3702Z" fill="black"/>
</svg>
