<svg width="131" height="131" viewBox="0 0 131 131" fill="none" xmlns="http://www.w3.org/2000/svg">
<g filter="url(#filter0_b_902_6105)">
<circle cx="65.5" cy="65.5" r="65.5" fill="url(#paint0_linear_902_6105)" fill-opacity="0.46"/>
</g>
<path d="M64.2447 59.3839C63.8807 59.4264 63.4681 59.4978 63.2713 59.807C63.1257 60.0358 63.145 60.3284 63.1694 60.5985C64.4563 74.8318 65.7433 89.0649 67.0302 103.298C68.3955 103.215 69.744 102.864 70.9767 102.271C71.6547 101.945 70.5472 90.9199 70.5138 89.6732C70.3957 85.2625 70.3235 80.8505 70.2977 76.4382C70.2724 72.1311 70.2906 67.8236 70.3534 63.5168C70.4314 58.1849 69.1101 58.8171 64.2447 59.3839Z" fill="#FF5539"/>
<path d="M46.8267 40.4423C46.1195 39.2671 45.6103 37.9003 45.7937 36.5411C45.9772 35.1818 47.013 33.876 48.3769 33.7317C49.4317 33.6201 50.4636 34.2056 51.1582 35.0072C51.8527 35.8087 52.2706 36.807 52.6771 37.7867C54.1762 41.3997 55.9811 45.0368 57.3933 48.6046C53.9744 48.8373 48.4385 43.1202 46.8267 40.4423Z" fill="#FF5539"/>
<path d="M60.5556 27.3157C60.1913 26.6717 59.792 26.0171 59.1836 25.5961C57.823 24.6546 55.9756 25.1825 54.4185 25.7418C53.8129 25.9593 53.2074 26.1768 52.6018 26.3943C50.926 26.9961 49.2083 27.6221 47.8633 28.7888C49.5115 30.5391 52.0575 31.0667 54.0852 32.3584C55.5794 33.3103 56.7673 34.6628 57.9338 35.9963C58.837 37.0291 59.7412 38.0629 60.5647 39.1603C62.7397 41.9698 64.3592 45.3731 65.1887 48.8247C66.869 41.6282 64.1801 33.7225 60.5556 27.3157Z" fill="#FF5539"/>
<path d="M71.7627 38.8797C72.6574 36.5719 73.7891 34.3577 75.11 32.2645C76.8462 29.5132 78.9108 26.9693 81.2459 24.7041C81.7278 26.0623 82.0241 27.4862 82.1238 28.9239C83.0018 28.6954 83.9995 29.0247 84.5692 29.7309C85.1388 30.437 85.2494 31.4819 84.8403 32.2917C85.5475 32.7287 86.2547 33.1659 86.9619 33.603C86.0828 34.1529 84.9735 34.0947 83.9434 34.2129C81.1672 34.5315 78.7136 36.246 76.8633 38.34C75.5072 39.8746 73.3586 45.3751 71.5251 45.9225C68.1218 46.9386 71.2618 40.1715 71.7627 38.8797Z" fill="#FF5539"/>
<path d="M75.7569 51.7907C76.3715 51.9006 76.9585 51.5295 77.4727 51.1755C79.6183 49.6985 81.764 48.2216 83.9098 46.7445C85.5774 45.5965 88.0834 43.8424 88.0607 41.5297C88.0386 39.2678 86.337 38.201 84.5229 39.3023C82.9389 40.2638 81.622 43.8782 80.6008 45.368C80.0073 46.2337 76.5457 51.9318 75.7569 51.7907Z" fill="#FF5539"/>
<path d="M47.8132 61.2288C49.6323 60.7446 51.4761 60.3534 53.3351 60.057C52.8079 61.6268 52.6471 63.3184 52.8691 64.9594C52.5227 62.3987 60.6374 59.2837 57.3523 57.0606C54.8645 55.3771 49.4597 59.6243 47.8132 61.2288Z" fill="#FF5539"/>
<path d="M91.1279 53.4046C88.9386 53.507 86.7731 54.094 84.8318 55.1113C85.085 56.2914 85.2468 57.4911 85.3151 58.6962C85.2207 57.03 74.3779 57.4995 78.1093 53.5761C80.6652 50.8887 88.1315 52.4636 91.1279 53.4046Z" fill="#FF5539"/>
<path d="M84.1259 104.964C82.5267 105.138 80.9302 105.344 79.3276 105.476C77.3139 105.642 75.2924 105.717 73.2805 105.9C72.7841 105.945 72.316 106.268 71.8259 106.437C71.6196 106.508 71.3653 106.591 71.1744 106.532C69.4776 106.014 67.8507 106.42 66.2226 106.859C66.0943 106.894 65.9575 106.981 65.84 106.96C63.164 106.472 60.6202 107.389 58.0223 107.702C55.0646 108.058 52.1168 108.497 49.1634 108.891C48.1247 109.029 46.5243 107.921 46.2469 106.892C45.6864 104.813 45.0358 102.754 44.5879 100.652C43.9121 97.48 43.356 94.2819 42.7903 91.0878C42.2781 88.1949 41.9146 85.2725 41.3083 82.4004C40.8785 80.3642 40.1406 78.3939 39.5677 76.3864C39.3711 75.6974 39.2833 74.9772 39.0841 74.2891C39.0454 74.1554 38.6214 73.975 38.5438 74.0349C37.5508 74.8 36.6413 74.0949 35.7077 73.9085C35.6243 73.8919 35.5254 73.7897 35.493 73.7047C34.8453 71.9991 34.0683 70.3265 33.6061 68.5712C33.1753 66.9353 33.1041 65.2069 32.8327 63.5259C32.588 62.0109 32.2041 60.5141 32.0394 58.992C31.931 57.9907 32.0692 56.9554 32.1764 55.9437C32.1985 55.7353 32.5474 55.4503 32.7892 55.3967C33.5564 55.2264 34.3437 55.0557 35.1242 55.051C39.1172 55.0271 43.1107 55.0844 47.1035 55.0491C48.5012 55.0368 49.8975 54.7438 51.2939 54.7484C54.6567 54.7594 57.9018 53.2118 61.3186 54.0161C61.4262 54.0415 61.5568 53.969 61.6767 53.9421C61.583 53.8572 61.5028 53.7443 61.3935 53.6915C58.7766 52.4266 56.1199 51.237 53.5532 49.8776C52.3745 49.2533 51.2845 48.3907 50.3054 47.4746C47.8368 45.1648 45.3762 42.8356 43.0732 40.3643C42.0907 39.31 41.5493 37.8554 40.7339 36.6317C39.9846 35.5071 40.1691 34.4009 40.703 33.3277C42.0633 30.5934 43.5198 27.963 46.1349 26.113C47.6873 25.0148 48.8565 23.3721 50.4156 22.287C51.7604 21.351 53.3856 20.7857 54.9383 20.1908C56.2009 19.707 57.3918 20.1796 58.1593 21.1969C59.7004 23.2398 61.1465 25.3583 62.5548 27.4963C64.8511 30.9821 66.0141 34.945 67.1269 38.9072C67.494 40.2137 67.554 41.606 67.7635 42.9577C67.7868 43.1086 67.8699 43.2503 67.9252 43.3963C67.9958 43.2587 68.0836 43.1273 68.1342 42.9828C68.8336 40.9853 69.3183 38.8774 70.2819 37.0175C71.2579 35.1337 71.5598 33.0092 72.8191 31.2201C74.6231 28.657 76.1203 25.8798 77.8182 23.2387C78.3077 22.4773 79.0215 21.8551 79.6596 21.1954C80.4164 20.413 81.2588 20.746 82.0309 21.1379C83.6792 21.974 84.9779 23.1572 85.9431 24.7906C86.9845 26.5528 88.3197 28.1394 89.3992 29.8817C91.4274 33.1556 93.1552 36.5895 93.9741 40.3833C94.296 41.8748 93.7983 43.2227 92.5112 44.1956C90.8724 45.4342 89.304 46.7749 87.6026 47.9191C86.0742 48.947 84.4057 49.7663 82.804 50.6864C82.6775 50.7591 82.5904 50.9005 82.4851 51.01C82.6163 51.0236 82.7495 51.0595 82.8782 51.0475C85.5811 50.7968 88.1879 51.3874 90.8112 51.8983C91.6724 52.066 92.5798 51.9845 93.4624 52.0598C93.8224 52.0905 94.1996 52.1827 94.5177 52.3465C94.7286 52.455 95.0114 52.7822 94.9717 52.9367C94.9098 53.1773 94.6362 53.46 94.3913 53.5417C92.514 54.1675 90.6124 54.7214 88.7397 55.36C88.1161 55.5726 87.5548 55.9672 86.9649 56.2786C87.6454 56.3852 88.3228 56.5555 89.0067 56.5874C91.8702 56.721 94.7381 56.7717 97.5991 56.9421C98.6445 57.0044 99.0138 57.7696 98.9507 58.8517C98.8632 60.3514 98.7511 61.8766 98.9247 63.3586C99.2403 66.0524 98.4894 68.5964 98.0536 71.183C98.0014 71.4926 97.3298 71.8697 96.9135 71.9134C95.7583 72.0349 94.586 72.0244 93.421 72.0118C92.7002 72.0039 92.4841 72.3533 92.4273 73.0077C92.0842 76.9648 91.7623 80.9247 91.338 84.8735C91.0856 87.2234 90.6322 89.551 90.3201 91.8953C90.126 93.3537 90.0642 94.8297 89.876 96.2891C89.6407 98.1145 89.3193 99.9288 89.0746 101.753C89.0167 102.185 89.1137 102.638 89.1445 103.08C89.2313 104.326 88.8922 104.761 87.6268 104.885C86.4684 104.999 85.3038 105.051 84.1419 105.131C84.1367 105.075 84.1313 105.02 84.1259 104.964ZM89.9478 43.9211C91.3378 43.1561 92.6298 42.2883 92.5103 40.4478C92.4692 39.8156 92.2203 39.1892 92.017 38.5765C90.9019 35.2161 89.4479 32.0245 87.3516 29.1444C86.3673 27.7921 85.398 26.4232 84.518 25.0022C83.8164 23.8692 83.0362 22.8496 81.8133 22.2778C81.5467 22.1531 81.0127 22.1558 80.8477 22.3311C79.8424 23.399 78.7732 24.4464 77.9823 25.667C76.85 27.4145 76.1019 29.422 74.8969 31.1091C72.6631 34.2365 71.4352 37.8361 70.2203 41.3555C69.212 44.2765 69.1866 47.5373 68.7359 50.6491C68.7095 50.8317 68.7737 51.0273 68.7956 51.2169C68.8971 51.0529 69.0263 50.8998 69.0956 50.7231C69.8532 48.791 70.8524 47.0433 72.423 45.6153C73.6512 44.4988 74.8986 43.3322 75.8291 41.9763C77.14 40.066 78.6912 38.6333 80.7623 37.5296C82.6859 36.5047 84.5592 35.6237 86.7491 35.7836C87.5458 35.8417 88.7108 36.0225 89.0191 36.5499C89.7032 37.7202 90.1412 39.1203 90.319 40.474C90.4653 41.5885 90.0927 42.771 89.95 43.9234C89.7363 43.7341 89.3588 43.562 89.3368 43.3526C89.2381 42.4106 89.1604 41.4528 89.2215 40.5102C89.38 38.0649 87.9872 36.6988 85.6231 37.0657C85.5215 37.0815 85.3939 37.063 85.3227 37.118C84.9763 37.3852 84.5434 37.6097 84.327 37.9633C83.597 39.156 83.04 40.4622 82.2458 41.6065C80.3375 44.356 77.7247 46.5599 76.1012 49.5477C75.6023 50.4658 74.8456 51.2438 74.2083 52.0869C74.1305 52.1899 74.0609 52.2992 73.9875 52.4057C74.1398 52.4307 74.3109 52.514 74.4417 52.4719C76.1603 51.9182 77.9183 51.4529 79.5737 50.7478C81.0121 50.1352 82.3205 49.2228 83.7129 48.4936C84.133 48.2736 84.736 48.346 85.0926 48.0724C86.2724 47.1671 87.3807 46.1682 88.5107 45.1986C88.9968 44.7814 89.4691 44.3475 89.9478 43.9211ZM62.8918 75.5161C62.9048 75.5135 62.9178 75.511 62.9307 75.5085C62.9307 74.3796 62.9273 73.2508 62.9322 72.1219C62.9349 71.5067 62.6552 71.3038 62.0342 71.3315C59.1364 71.4604 56.23 71.4578 53.3394 71.6735C49.4499 71.9637 45.5683 72.376 41.6917 72.8099C40.3181 72.9637 40.322 73.0647 40.6761 74.4483C41.6358 78.1991 42.7226 81.9225 43.5353 85.7049C44.5237 90.3056 45.2278 94.9667 46.1651 99.5793C46.6481 101.957 47.3493 104.291 48.0163 106.627C48.0819 106.857 48.6192 107.125 48.9043 107.091C50.7527 106.874 52.5891 106.558 54.4346 106.314C57.487 105.91 60.5431 105.535 63.5982 105.152C64.9223 104.986 65.1947 104.628 64.9842 103.329C64.8039 102.216 64.5615 101.106 64.4798 99.9848C64.1614 95.6187 63.8931 91.249 63.6117 86.8803C63.3677 83.0924 63.1314 79.3041 62.8918 75.5161ZM72.2783 100.398C72.2809 100.398 72.2835 100.398 72.2861 100.398C72.2861 101.358 72.2223 102.325 72.3225 103.274C72.3552 103.584 72.8004 104.075 73.0824 104.094C74.203 104.167 75.3371 104.134 76.4599 104.053C79.0478 103.866 81.6309 103.613 84.2183 103.418C85.1035 103.351 85.9981 103.415 86.8838 103.353C87.6295 103.3 88.0116 102.98 87.6731 102.125C87.5219 101.743 87.5604 101.252 87.6222 100.826C87.8762 99.0789 88.2023 97.3417 88.4462 95.5929C88.8668 92.5767 89.2707 89.5576 89.6323 86.5338C89.8189 84.9738 89.8772 83.399 90.0329 81.8348C90.3269 78.8802 90.6297 75.9261 90.9743 72.9772C91.0578 72.2627 90.7629 72.0454 90.1455 72.0266C88.9465 71.9903 87.7477 71.9486 86.5485 71.9203C83.8469 71.8563 81.1447 71.8108 78.4434 71.735C76.802 71.689 75.1616 71.6016 73.5208 71.5306C72.794 71.4991 72.4862 71.8108 72.4758 72.569C72.4366 75.4442 72.302 78.3186 72.2882 81.1936C72.2577 87.595 72.2785 93.9967 72.2783 100.398ZM66.3839 43.7236C66.4043 43.722 66.4249 43.7205 66.4454 43.7189C66.4454 43.342 66.5062 42.9535 66.4361 42.5902C65.6569 38.5506 64.52 34.6177 62.7356 30.9C62.1439 29.6674 61.4603 28.4682 60.7104 27.3248C59.4598 25.4176 58.1387 23.5558 56.8116 21.7005C56.3621 21.0722 55.6644 20.9052 54.9685 21.2188C53.9112 21.6951 52.7874 22.1204 51.8825 22.8155C50.6134 23.7901 49.6086 25.1115 48.3309 26.0719C45.9506 27.8612 44.1522 30.0334 42.8227 32.7115C41.9875 34.3936 41.7788 35.8351 42.9011 37.4034C43.4775 38.2088 43.8992 39.1249 44.4746 39.9312C46.2459 42.4136 48.6524 44.2659 50.8911 46.2819C53.0709 48.2447 55.4624 49.8631 58.1932 50.999C60.1746 51.8231 62.0796 52.8304 64.0221 53.7491C64.1317 53.8009 64.2717 53.7886 64.3976 53.8061C64.3529 53.6593 64.3521 53.469 64.2565 53.3725C63.4865 52.5944 62.6324 51.8899 61.9287 51.0574C59.7658 48.4987 57.4855 46.032 55.8681 43.0482C54.5335 40.5864 52.6598 38.3691 52.6022 35.3657C52.5993 35.2147 52.4947 35.0096 52.3719 34.9259C51.3861 34.2537 50.4652 33.3617 49.3712 32.9977C46.9208 32.1823 44.9613 33.6452 45.622 36.3857C45.8227 37.2188 46.0959 38.0349 46.2814 38.8709C46.3455 39.1604 46.2444 39.4866 46.2187 39.796C45.9376 39.6389 45.5006 39.5477 45.402 39.3137C44.9011 38.1253 44.3003 36.932 44.0869 35.6803C43.738 33.6349 45.0403 31.9403 47.1226 31.7164C48.168 31.604 49.319 31.8072 50.3269 32.1489C52.5002 32.8857 54.0342 34.5871 55.6242 36.1335C57.7537 38.2047 60.0577 40.1826 61.7738 42.5695C63.5931 45.1 64.8071 48.0651 66.2999 50.8326C66.4342 51.0816 66.6748 51.2733 66.8661 51.4917C66.9167 51.2122 67.0308 50.9274 67.0079 50.6542C66.8141 48.3428 66.5952 46.0335 66.3839 43.7236ZM55.874 69.9718C55.8833 70.0747 55.8925 70.1775 55.9018 70.2804C57.9692 70.0636 60.0358 69.8382 62.1046 69.6349C62.7693 69.5695 62.8553 69.1682 62.7988 68.6246C62.5812 66.532 62.3607 64.4397 62.1636 62.3451C62.0756 61.4094 62.023 60.4693 61.9866 59.5299C61.9537 58.6824 61.6109 58.4089 60.9468 59.0136C59.3059 60.5078 57.6367 61.9814 56.1121 63.5894C54.8438 64.927 53.7763 66.4536 52.5909 67.8723C52.4014 68.099 51.9973 68.3798 51.8054 68.3126C51.5569 68.2257 51.3777 67.8332 51.2531 67.5367C51.1662 67.3301 51.192 67.0608 51.2174 66.8249C51.3562 65.5361 51.5181 64.2498 51.6542 62.9607C51.6917 62.6067 51.6675 62.2462 51.6716 61.8887C51.3659 62.0168 51.0558 62.1356 50.7554 62.2751C50.1964 62.5347 49.634 62.7893 49.089 63.0765C47.7644 63.7745 46.4583 64.5081 45.1237 65.186C44.7872 65.3568 44.3717 65.372 43.9925 65.4587C43.9578 64.9934 43.7206 64.3932 43.9246 64.0867C44.6794 62.9526 45.4982 61.8364 46.4444 60.8603C47.8899 59.3691 49.4643 58.0032 50.9733 56.5727C51.0984 56.454 51.1418 56.2492 51.2231 56.0844C51.0567 56.0648 50.8886 56.0195 50.724 56.0299C49.5693 56.1025 48.3962 56.3605 47.2646 56.2357C43.1788 55.7853 39.1428 56.5767 35.0797 56.5914C34.6706 56.5929 34.2377 56.6061 33.8611 56.7405C33.5966 56.835 33.2195 57.144 33.2185 57.3586C33.2135 58.5153 33.2013 59.6909 33.3936 60.8258C33.8727 63.6548 34.4535 66.4669 35.0105 69.2824C35.1364 69.9184 35.2663 70.5673 35.5096 71.1632C35.8941 72.1045 36.4552 72.2744 37.3791 71.9049C37.8205 71.7284 38.2853 71.5658 38.7533 71.5081C41.3588 71.1868 43.9635 70.8441 46.5779 70.6152C49.6716 70.3442 52.7748 70.1814 55.874 69.9718ZM72.6588 63.1368C72.6674 63.1368 72.6759 63.1368 72.6845 63.1368C72.6844 64.9531 72.7119 66.7701 72.6708 68.5854C72.6543 69.3095 72.9164 69.6684 73.626 69.7543C75.6918 70.0042 77.7528 70.4535 79.8215 70.4902C85.2245 70.5862 90.6305 70.4931 96.0353 70.5078C96.6368 70.5095 96.9118 70.3677 96.9715 69.7472C97.1512 67.8816 97.4474 66.0238 97.5488 64.1549C97.6354 62.5567 97.4621 60.9456 97.5118 59.3437C97.5342 58.624 97.3231 58.3022 96.6357 58.2904C93.9008 58.2435 91.1654 58.1648 88.4309 58.1852C87.4921 58.1922 87.0255 59.0989 87.5391 59.9052C88.1596 60.8796 88.9698 61.7311 89.6377 62.6784C89.8585 62.9915 89.892 63.4366 90.0112 63.8213C89.6369 63.7719 89.173 63.847 88.9032 63.6526C87.323 62.5149 85.8335 61.2468 84.2204 60.161C83.3129 59.5501 82.2531 59.1302 81.2138 58.7593C79.9646 58.3134 78.668 57.9971 77.385 57.6506C76.1995 57.3305 75.0091 57.0252 73.8122 56.7506C72.9768 56.559 72.6266 56.9155 72.6468 57.7908C72.6876 59.5719 72.6588 61.3548 72.6588 63.1368ZM70.6921 94.6367C70.7464 94.6365 70.8007 94.6363 70.8551 94.6362C70.8551 93.1322 70.8808 91.6276 70.8495 90.1243C70.7975 87.6369 70.618 85.1488 70.6577 82.6636C70.7119 79.2622 70.9078 75.8626 71.0727 72.4637C71.1137 71.6195 70.7999 71.2951 69.9511 71.2996C68.6519 71.3066 67.3473 71.2755 66.0539 71.1604C64.2783 71.0024 64.0847 71.1708 64.3239 72.9878C64.3551 73.2246 64.378 73.4645 64.3782 73.703C64.3853 79.9729 64.8087 86.2165 65.4464 92.4526C65.8357 96.2588 66.0625 100.082 66.3478 103.898C66.3828 104.366 66.3514 104.84 67.0074 104.819C67.7243 104.796 68.4444 104.776 69.1553 104.691C70.1073 104.576 70.7127 104.131 70.7016 103.039C70.673 100.239 70.6921 97.4377 70.6921 94.6367ZM68.1084 69.7698C68.1096 69.8 68.1108 69.8302 68.1119 69.8604C68.6245 69.8604 69.1377 69.8762 69.6495 69.8575C71.1159 69.8038 71.3823 69.4754 71.3242 67.9828C71.2715 66.6288 71.2634 65.2727 71.2506 63.9174C71.2324 62.0095 71.207 60.1011 71.2277 58.1935C71.2362 57.4119 70.9539 56.9995 70.15 57.1105C69.4813 57.2028 68.8268 57.4188 68.1571 57.4767C66.6343 57.6082 65.1042 57.658 63.5818 57.7935C63.3933 57.8102 63.0689 58.16 63.084 58.3312C63.3951 61.8659 63.7556 65.3963 64.0832 68.9296C64.1626 69.7867 64.8698 69.8635 65.4066 69.9048C66.2985 69.9736 67.207 69.8262 68.1084 69.7698ZM85.0357 52.1334C82.4966 52.5342 79.6903 52.9054 76.9167 53.4446C75.4932 53.7213 74.1254 54.29 72.7399 54.7492C72.567 54.8065 72.4398 55.0019 72.2915 55.1333C72.4748 55.1691 72.659 55.201 72.8411 55.2416C74.3378 55.5744 75.8411 55.8801 77.3277 56.2531C78.2842 56.4931 79.1973 56.9558 80.1625 57.1009C81.9854 57.375 83.578 58.0607 84.959 59.2667C85.1137 59.4018 85.2688 59.5446 85.4463 59.6432C85.6368 59.749 85.854 59.8067 86.0594 59.8854C86.0026 59.6953 85.9608 59.499 85.8862 59.3161C85.5765 58.5575 85.1709 57.8244 84.9751 57.0385C84.8676 56.6074 84.9388 55.8691 85.2224 55.6519C86.096 54.9828 87.0833 54.4404 88.0815 53.9644C88.6233 53.7061 89.2811 53.6986 89.8776 53.5435C90.0481 53.4992 90.1872 53.3344 90.3408 53.2249C90.1921 53.1573 90.0495 53.0565 89.8936 53.0271C88.3874 52.7427 86.879 52.4705 85.0357 52.1334ZM58.9073 55.5329C58.8998 55.4388 58.8924 55.3447 58.8849 55.2506C57.7078 55.4321 56.4623 55.4275 55.3668 55.8307C52.2944 56.9613 50.1006 59.3401 47.7873 61.5254C47.7039 61.6042 47.6814 61.7474 47.6304 61.8605C47.7594 61.8531 47.9039 61.8813 48.0149 61.8326C48.8917 61.4486 49.7785 61.0818 50.629 60.6454C51.2792 60.3118 51.8483 60.1306 52.5165 60.6392C53.1694 61.1363 53.249 61.7448 53.1009 62.4619C52.9697 63.0979 52.8257 63.7318 52.7192 64.372C52.6976 64.5022 52.818 64.656 52.8729 64.799C52.9846 64.7277 53.1186 64.6767 53.2045 64.5821C54.5791 63.0675 55.9057 61.5066 57.3279 60.0385C59.1335 58.1749 61.1363 56.5885 63.7999 56.1089C64.0254 56.0684 64.2313 55.9197 64.4464 55.8213C64.206 55.7252 63.9668 55.5497 63.725 55.546C62.1194 55.521 60.5132 55.5329 58.9073 55.5329ZM54.1924 36.5349C54.2605 36.9946 54.2332 37.2381 54.3315 37.4096C55.7619 39.9041 56.991 42.5529 58.7064 44.8354C60.9396 47.807 63.5611 50.4866 66.0198 53.2882C66.0978 53.377 66.2207 53.4265 66.3226 53.4943C66.3069 53.3702 66.3238 53.2295 66.2703 53.1246C65.6192 51.8488 64.9068 50.6017 64.308 49.3021C62.1505 44.6198 59.1048 40.6231 55.1739 37.2954C54.9395 37.0972 54.6887 36.9183 54.1924 36.5349ZM69.8379 54.0968C70.0622 53.847 70.1684 53.7122 70.2912 53.5947C71.2496 52.6766 72.223 51.7737 73.1666 50.8406C73.6013 50.4107 74.0928 49.9816 74.3639 49.4524C75.6938 46.8571 77.5874 44.6959 79.4756 42.5152C80.3672 41.4854 81.1084 40.3248 81.9047 39.2142C81.9889 39.0969 81.9852 38.9166 82.0222 38.7656C81.9282 38.7915 81.8314 38.8103 81.7405 38.8445C80.2638 39.4003 79.114 40.3279 78.1254 41.586C76.823 43.2433 75.4292 44.854 73.9033 46.3046C71.845 48.2616 70.5284 50.5793 69.8451 53.2965C69.7911 53.5111 69.8379 53.7512 69.8379 54.0968Z" fill="black"/>
<defs>
<filter id="filter0_b_902_6105" x="-4" y="-4.00002" width="139" height="139" filterUnits="userSpaceOnUse" color-interpolation-filters="sRGB">
<feFlood flood-opacity="0" result="BackgroundImageFix"/>
<feGaussianBlur in="BackgroundImageFix" stdDeviation="2"/>
<feComposite in2="SourceAlpha" operator="in" result="effect1_backgroundBlur_902_6105"/>
<feBlend mode="normal" in="SourceGraphic" in2="effect1_backgroundBlur_902_6105" result="shape"/>
</filter>
<linearGradient id="paint0_linear_902_6105" x1="42.5" y1="-2.14379e-05" x2="85.5" y2="131" gradientUnits="userSpaceOnUse">
<stop stop-color="#E3B79E"/>
<stop offset="0.223958" stop-color="#FFC6B5"/>
<stop offset="0.59375" stop-color="#FFDEC6"/>
<stop offset="1" stop-color="white" stop-opacity="0"/>
</linearGradient>
</defs>
</svg>
