<svg width="82" height="57" viewBox="0 0 82 57" fill="none" xmlns="http://www.w3.org/2000/svg">
<path d="M14.7467 52.5528C14.4788 50.4048 13.5266 47.1424 12.5203 45.1955C10.9505 42.2282 10.9775 41.5704 13.1262 38.6847C14.3349 37.007 16.6313 34.4301 18.2023 33.0344L20.9283 30.4039L20.8063 34.6729C20.7654 36.9685 21.2076 39.6402 21.8518 40.4324C24.0258 42.9971 25.6378 39.3058 24.9011 33.3987L24.2314 28.0287L29.6426 24.1908C32.6369 21.9631 35.2686 20.3261 35.4028 20.5275C35.631 20.6081 35.5633 22.6889 35.3076 25.0113C34.8768 29.4279 35.762 32.1533 37.373 31.9524C38.984 31.7515 40.7848 25.2008 40.316 21.4417C39.807 17.3605 39.995 17.1189 49.8092 14.477C54.978 13.0689 55.0854 13.0555 53.4201 15.4446C52.4934 16.7599 51.5127 19.3909 51.2168 21.3911C50.8267 24.3847 50.9876 24.8009 52.706 24.5866C55.3911 24.2517 58.5471 19.8225 59.0047 15.6207C59.4621 12.2915 59.5695 12.2781 65.9463 11.81C69.3965 11.4888 74.2832 11.3157 76.6728 11.2358L81.0224 11.1296L76.8072 10.5646C73.572 9.98642 72.7399 9.43578 72.9819 7.87859C73.4525 5.52941 69.1981 1.15178 66.0971 0.775023C62.6605 0.331044 62.4041 5.27124 65.6923 8.02421L68.2424 10.1057L58.4689 11.3246C49.1251 12.49 48.7895 12.4227 46.951 9.92525C45.2065 7.30695 40.3338 5.8423 38.5479 7.26481C36.8694 8.67392 37.9559 12.1378 40.3854 13.2527C43.5129 14.7169 43.4455 15.9251 40.2234 16.3269C38.8272 16.501 36.1554 17.8159 34.4635 19.1176C31.3886 21.5735 31.3886 21.5735 27.3081 19.4646C22.6504 17.1006 20.3548 17.0597 17.8169 19.4486C16.2592 20.9517 16.286 21.1665 18.9167 23.0198C20.4602 24.0271 22.6616 25.0614 23.7624 25.1423C25.4002 25.1562 24.5541 26.2433 20.5929 29.4641C15.5441 33.5841 15.0205 33.7584 10.5771 33.1128C6.68416 32.5076 5.51614 32.7623 2.80384 34.6276C-1.62712 37.5798 0.614169 39.8089 7.38042 38.965L12.2135 38.3623L10.4809 41.087C9.46025 42.5232 7.96929 45.4359 7.14978 47.6104C5.7258 51.0602 5.77938 51.4898 7.20262 50.6579C8.43785 50.0675 9.01504 50.3227 9.18917 51.719C9.41687 53.5448 12.9869 56.808 14.4905 56.6204C14.9201 56.5669 15.0146 54.7009 14.7467 52.5528ZM9.9685 49.2222C9.33896 44.1744 12.3053 46.0949 13.2972 51.4248C14.0612 55.8014 13.9806 56.0296 12.2358 54.2839C11.2293 53.2097 10.1828 50.9406 9.9685 49.2222ZM21.5975 37.5192C21.4636 36.4452 21.7057 34.888 22.1355 33.9618C23.1698 31.7604 24.7533 33.9625 24.2424 36.8621C23.718 39.6543 21.9056 39.9894 21.5975 37.5192ZM2.96433 36.789C2.69644 34.641 6.88532 33.246 10.8185 34.1734C13.4092 34.8319 13.785 35.2214 12.6974 36.1205C10.2267 38.1738 3.19204 38.6148 2.96433 36.789ZM36.5696 24.6357C37.1349 19.548 38.8267 18.2462 39.3491 22.4349C39.7644 25.7643 38.1385 31.0934 36.9305 30.1534C36.3266 29.6833 36.2467 27.2937 36.5696 24.6357ZM52.331 21.5793C52.1971 20.5053 53.4194 18.0624 55.0175 16.0089L58.0659 12.4656L57.7159 15.7814C57.0968 21.3122 52.8668 25.8754 52.331 21.5793ZM20.3129 22.8457C19.0243 22.1338 18.4474 21.006 18.8906 20.1872C19.8981 17.7711 28.0867 19.5857 28.4215 22.2707C28.609 23.7743 22.7692 24.1754 20.3129 22.8457ZM40.7617 11.8969C39.0572 10.4734 38.7352 9.64102 39.5813 8.55386C40.8973 6.86273 46.441 9.33442 46.7357 11.6972C47.0304 14.0601 43.3252 14.0859 40.7617 11.8969ZM67.5315 7.90391C64.5114 6.42635 63.1566 2.55967 65.412 2.27839C68.2044 1.93013 73.0494 6.67039 71.7467 8.46893C70.8873 9.44868 70.6725 9.47547 67.5315 7.90391Z" fill="black"/>
</svg>
