<svg width="115" height="198" viewBox="0 0 115 198" fill="none" xmlns="http://www.w3.org/2000/svg">
<rect width="1440" height="970" transform="translate(-1252 -715)" fill="url(#paint0_linear_4_37)"/>
<path d="M49.2329 24.5038C49.6272 24.7654 50.4193 25.1673 50.6907 25.5395C50.8857 25.807 50.8065 26.2562 51.0211 26.4575C51.5463 26.9501 53.0615 28.426 52.4161 28.1069C51.4958 27.6519 47.7963 26.3025 47.8852 25.1744C47.9409 24.4681 47.8256 23.5928 48.8115 24.0102C49.9116 24.4759 50.9974 25.191 51.9782 25.8136C52.7758 26.3199 51.9881 27.0959 52.6173 27.5617C53.2521 28.0316 54.1393 27.7824 54.4752 26.9888" stroke="#FF5539" stroke-width="3" stroke-linecap="round"/>
<path d="M71.2765 10.9631C70.502 10.7807 69.8357 10.296 69.0738 10.0701C68.5972 9.92873 68.0739 10.0256 67.6068 9.88248C66.9344 9.67646 66.3647 9.31386 66.7951 8.68193C67.32 7.91107 67.8813 7.61487 68.6009 7.12667C68.8668 6.94634 68.916 6.89254 69.2646 6.92003C69.4394 6.93382 69.7577 7.23549 69.7715 7.0607C69.8361 6.24165 68.0512 7.26324 67.6182 7.36569C66.5671 7.61437 65.3469 7.90595 64.2733 7.8213C62.5234 7.68333 61.4557 7.99513 59.8012 8.70597C59.2553 8.94049 58.3151 8.75413 59.0163 8.98937C59.8022 9.253 60.2595 10.2117 61.0031 10.6135C61.7726 11.0292 62.7377 11.1202 63.4399 11.64C64.2163 12.2148 65.1431 12.5189 66.1152 12.743C66.8163 12.9046 69.0043 12.7845 69.5193 13.5437C69.7615 13.9007 70.9087 13.7827 71.3107 13.8144C71.9867 13.8677 72.661 14.1828 72.1121 13.5035C70.9094 12.0153 71.4216 9.46059 70.4906 7.79358" stroke="#FF5539" stroke-width="7" stroke-linecap="round"/>
<path d="M94.8065 27.8379C94.8192 28.4452 94.5385 29.0568 94.3287 28.0592C94.1068 27.0047 94.2146 26.068 94.2531 25.0033C94.2949 23.8488 93.5582 22.84 93.419 21.7149C93.2605 20.4337 93.4176 19.1776 93.5187 17.8958C93.6269 16.5232 93.7351 15.1506 93.8434 13.778C93.9433 12.511 94.8993 12.8254 95.8547 12.9008C97.3952 13.0222 98.7583 15.9317 99.3724 17.005C100.127 18.3232 100.341 19.6103 99.9726 21.2533C99.7135 22.4088 98.9511 23.0612 98.4656 24.1269C98.2089 24.6904 97.6364 25.4217 97.1666 25.8228C96.7626 26.1678 96.8315 26.7683 96.4318 26.9302" stroke="#FF5539" stroke-width="7" stroke-linecap="round"/>
<path d="M89.4668 66.0025C88.4722 65.6689 90.7989 63.6864 91.1055 63.2831C92.116 61.954 93.2988 60.7938 94.1897 59.3829C94.7111 58.557 96.2285 57.1245 97.0628 56.5163C97.9328 55.882 98.6554 55.1121 99.5659 54.5124C100.987 53.5765 102.275 52.4882 103.573 51.318C104.31 50.6528 104.944 49.7543 105.804 49.2927C106.708 48.8076 107.259 48.3038 107.942 47.7205C108.219 47.484 108.709 46.845 108.92 47.366C109.374 48.4875 109.149 49.9543 109.027 51.115C108.766 53.5885 106.382 55.741 105.002 57.6457C103.991 59.0398 101.745 61.062 100.114 61.6052C98.3282 62.2003 96.6626 63.6154 94.7978 64.0778C94.5081 64.1496 92.9362 64.5376 92.7837 64.0772C92.4059 62.9365 94.4662 60.7567 95.0028 59.8354C95.4435 59.0788 95.8313 57.7975 96.6212 57.3734C97.663 56.8142 98.4513 55.7222 99.155 54.7966C99.2763 54.6371 100.339 52.2314 100.554 53.2955C100.944 55.2256 100.026 57.8492 101.184 59.3589C101.554 59.8417 101.968 61.1922 102.226 61.8293" stroke="#FF5539" stroke-width="7" stroke-linecap="round"/>
<path d="M58.7911 110.197C61.0609 108.259 63.7382 105.82 65.1792 103.076C65.6693 102.143 66.546 101.298 67.4222 100.721C68.5782 99.9593 69.6273 98.7883 70.8723 98.2015C71.8611 97.7355 72.278 96.663 73.4653 96.3343C75.5016 95.7705 77.2294 95.0011 79.305 94.7086C81.7779 94.3602 83.9936 92.7754 86.477 92.4255C86.6449 92.4019 86.8854 91.9576 86.889 92.1271C86.8999 92.6478 86.8362 93.2478 86.7319 93.7548C86.3909 95.4109 85.0691 97.1864 84.0541 98.5215C83.5298 99.2112 82.8292 99.6284 82.2347 100.248C81.3769 101.143 79.8149 101.045 78.9216 101.944C77.7838 103.089 75.8231 103.884 74.2818 104.225C72.6406 104.588 70.5432 105.726 68.9361 106.336C68.5558 106.48 64.7489 108.054 64.7839 107.907C65.128 106.462 67.225 105.025 68.2835 104.213C70.7176 102.344 73.3602 100.748 75.8232 98.9084C76.9334 98.0794 78.0962 97.5205 79.2943 96.8514C80.4761 96.1914 81.2781 94.9857 82.274 94.0939C83.599 92.9073 84.5172 91.6137 86.4081 91.6576C87.0637 91.6728 87.6086 91.4393 88.2359 91.2838C88.8077 91.142 88.6606 90.5404 89.3405 90.594" stroke="#FF5539" stroke-width="7" stroke-linecap="round"/>
<path d="M67.4048 99.4821C65.9091 98.8489 67.8626 96.8323 68.4776 96.4591C69.5481 95.8097 70.4812 95.2831 71.708 94.9011C73.6474 94.2973 75.9007 93.4189 77.9696 93.582C79.0512 93.6673 79.8092 93.5464 80.8412 93.2905" stroke="#FF5539" stroke-width="7" stroke-linecap="round"/>
<path d="M79.1966 104.296C80.1525 105.705 76.1289 105.927 75.3537 106.324C74.265 106.881 72.4278 107.129 71.2119 107.033" stroke="#FF5539" stroke-width="7" stroke-linecap="round"/>
<path d="M54.4169 119.693C54.6738 121.808 54.8818 122.792 56.6749 123.899C57.3591 124.322 58.0618 124.383 58.8475 124.445C60.6142 124.584 60.5855 123.567 60.6977 122.145C60.7806 121.092 57.7766 118.815 57.2682 119.659" stroke="#FF5539" stroke-width="7" stroke-linecap="round"/>
<path d="M76.5991 137.239C76.5601 137.521 76.0147 138.678 75.5502 138.134C75.2046 137.729 75.4862 136.695 75.5513 137.573C75.6702 139.178 75.5801 141.658 76.1896 143.162C76.4346 143.767 77.0575 144.255 77.2358 144.856C77.477 145.669 77.7719 145.465 78.3733 145.939C79.4065 146.752 79.1358 148.056 80.657 148.176C81.2277 148.221 81.9414 148.031 82.2621 147.526C82.8423 146.612 82.8694 146.545 83.6819 145.94C84.9155 145.021 85.5272 142.801 86.1678 141.417C86.8299 139.986 88.1003 138.765 88.7651 137.306C89.5322 135.622 90.604 133.809 91.5556 132.203C92.6583 130.341 93.482 128.42 94.643 126.619C95.3387 125.54 96.4735 124.06 96.6447 122.763C96.6987 122.354 96.8842 121.762 96.3541 121.705C94.6404 121.52 92.9109 121.433 91.1926 121.298C88.2447 121.065 85.0186 121.945 82.1512 122.656C81.662 122.778 79.0806 124.2 79.1726 124.853C79.2718 125.557 84.5657 124.884 85.1577 124.85C86.99 124.744 89.0344 124.62 89.2072 126.953C89.4255 129.899 87.1525 132.358 85.3672 134.419C84.1359 135.841 83.3869 137.117 82.566 138.745C81.9451 139.976 81.7255 141.194 81.6182 142.555C81.5663 143.213 81.6285 143.815 81.2188 144.336" stroke="#FF5539" stroke-width="7" stroke-linecap="round"/>
<path d="M62.757 148.577C63.6845 148.65 62.2622 155.1 62.1527 156.241C62.0303 157.517 61.1663 158.855 60.7835 160.104C60.4146 161.308 59.8891 161.959 59.783 163.305C59.6767 164.653 59.3163 165.94 59.21 167.288C58.9878 170.106 58.3658 175.071 62.3902 174.761C64.2125 174.621 65.9159 174.16 67.7529 174.076C68.3099 174.051 70.5803 174.162 70.6395 173.412C70.753 171.971 70.387 171.276 69.4964 170.027C68.1832 168.184 66.8463 165.644 66.2441 163.469C65.7043 161.519 65.7456 159.939 65.9027 157.946C66.0186 156.476 66.0549 153.739 65.2422 152.456C64.9254 151.956 64.9185 153.259 64.8465 153.461C64.2642 155.095 63.8667 156.501 63.8209 158.257C63.7807 159.795 64.0882 161.253 63.9662 162.8C63.8316 164.507 63.5586 165.983 63.0825 167.622C62.8204 168.525 62.7343 169.371 62.5846 170.288C62.0949 173.287 61.9497 164.221 62.0795 161.184C62.1906 158.586 62.4312 155.994 62.6356 153.402C62.6409 153.333 63.0605 153.631 63.1232 153.785" stroke="#FF5539" stroke-width="7" stroke-linecap="round"/>
<path d="M6.73216 133.284C7.34404 133.394 7.85614 133.853 8.35844 134.189C8.76928 134.463 9.98894 134.637 10.2236 134.983C10.8624 135.925 10.5825 137.549 11.5187 138.265C12.3141 138.873 10.8048 143.736 12.4312 143.113C16.2805 141.639 19.9982 140.835 22.9463 137.842C23.531 137.249 24.3902 137.009 24.9874 136.406C25.5699 135.818 25.9778 135.151 26.7033 134.714C27.5328 134.215 28.1801 133.435 28.9246 132.818C29.4142 132.412 30.044 132.366 30.5958 132.058C32.5643 130.958 34.5055 130.057 36.3989 128.89C37.2939 128.338 38.0569 127.986 38.9174 127.419C39.6551 126.933 38.7066 128.109 38.6113 128.201C36.1681 130.548 32.9318 132.19 29.6131 132.843C23.4582 134.055 17.1847 131.678 11.1675 133.23C9.12312 133.758 9.71298 134.193 11.501 134.839C12.6354 135.25 17.67 135.367 16.998 137.56C16.9535 137.706 16.8494 137.674 16.9277 137.54C17.4191 136.699 18.4471 136.038 19.2174 135.505C21.7649 133.742 24.428 132.017 27.5647 131.819" stroke="#FF5539" stroke-width="7" stroke-linecap="round"/>
<path d="M38.0269 117.365C41.1726 117.613 31.6426 118.042 28.5602 117.367C27.0486 117.035 25.7681 116.398 24.1865 116.274C23.3537 116.208 22.5771 116.232 21.8333 115.829C20.7208 115.226 17.5425 115.725 19.0059 113.736C19.9609 112.437 21.821 112.326 23.3 112.19C24.8631 112.045 26.3481 111.456 27.8808 111.386C29.7042 111.302 31.1107 110.02 32.8973 109.983C34.0743 109.958 35.6014 109.882 36.7054 109.492C37.4108 109.243 40.2114 109.635 38.4855 109.359C36.8424 109.096 35.2759 108.617 33.6064 108.47C32.2302 108.35 30.8286 108.325 29.4623 108.115C28.2312 107.926 27.1115 107.359 25.8847 107.142C25.1134 107.006 23.3496 106.55 22.539 106.879C22.3061 106.973 22.6738 108.231 22.6679 108.529C22.6495 109.449 23.7583 107.299 23.8762 107.07C24.6046 105.659 25.8444 104.741 26.7497 103.47C28.4512 101.082 29.6798 98.5406 31.9 96.5388C34.2853 94.388 35.0724 91.6467 36.1178 88.8435C36.2456 88.501 36.4044 88.233 36.8251 88.2662C38.1806 88.3731 35.925 90.7117 35.5985 91.2339C35.2712 91.7572 33.3793 94.5348 33.409 94.3702C33.5797 93.4229 34.6823 90.9479 35.6274 90.5024C37.4088 89.6628 38.5708 92.8957 39.2902 94.0427C39.6922 94.6835 40.2078 95.2423 40.6133 95.8734C41.4688 97.2046 41.3311 95.5247 41.304 94.7769C41.2636 93.6593 40.778 92.7827 40.576 91.7846C40.4806 91.3127 40.1317 90.6686 40.1676 90.213C40.2359 89.3475 40.4111 89.9277 40.7784 90.6784C41.3902 91.9288 41.9536 93.255 42.1491 94.6421C42.4006 96.4272 43.7724 98.0245 44.672 99.5024C46.1274 101.893 47.0038 104.542 48.2834 106.981C48.4991 107.392 48.854 107.992 49.1542 108.344C49.9485 109.274 47.6111 107.228 47.3924 106.968C45.3023 104.485 44.9257 101.04 44.2745 97.9748C44.0496 96.9164 44.6686 94.8724 43.3286 94.4618C42.5222 94.2147 42.229 93.3999 41.2588 93.7087C38.9425 94.4461 35.6527 95.6326 34.0914 97.5748C33.603 98.1823 33.7492 99.3606 33.6917 100.09C33.5929 101.343 32.8964 102.102 32.6826 103.218C32.3052 105.187 33.5592 107.454 34.9546 108.706C35.6046 109.29 36.1703 109.883 36.7529 110.531C37.5409 111.408 37.0236 111.063 36.7687 110.331C36.5012 109.563 34.5027 107.767 35.9799 108.658C36.944 109.239 38.9039 109.747 39.5952 110.612C40.0495 111.18 38.9995 110.712 38.8889 110.628C37.7094 109.728 36.6685 108.755 35.3364 108.06C34.4838 107.615 34.3118 107.391 33.6913 106.664" stroke="#FF5539" stroke-width="7" stroke-linecap="round"/>
<path d="M26.1111 156.823C25.4647 156.606 30.0009 152.073 30.3765 151.261C30.835 150.27 31.9643 149.525 32.7045 148.74C33.9331 147.437 35.106 146.199 36.5044 145.069C37.6159 144.17 39.0235 143.851 40.1561 142.911C40.9429 142.258 41.8093 142.048 42.6054 141.406C43.5877 140.615 45.3585 140.264 46.5552 139.847C48.8791 139.038 51.3005 138.573 53.6113 137.757C54.7256 137.363 56.3283 137.001 57.2357 136.129C57.5271 135.849 57.679 135.083 58.2229 135.286C58.6704 135.453 55.9617 139.724 55.8943 139.821C54.3452 142.069 53.0954 144.555 51.5063 146.755C50.7171 147.848 49.8452 148.678 48.5977 149.159C47.1173 149.728 45.9801 150.745 44.4117 151.159C43.2782 151.458 42.4174 151.96 41.2889 152.265C39.7869 152.672 38.7037 152.889 37.0899 152.97C35.8699 153.032 34.8899 153.616 33.7112 153.855C33.3689 153.924 31.7592 154.268 31.5342 154.46C31.2201 154.728 31.2279 155.324 30.9248 155.62C30.5059 156.029 31.6779 154.717 32.1196 154.333C35.4481 151.439 39.1754 150.119 43.0546 148.117C43.9175 147.672 44.2621 146.627 44.8958 145.932C45.3678 145.414 46.2699 145.032 46.5707 144.395C46.9756 143.538 47.2608 142.628 47.7527 141.812C48.117 141.208 48.7646 140.829 49.1131 140.251C49.8561 139.018 48.9099 138.998 48.0587 139.391C45.6255 140.512 43.0822 141.429 40.6716 142.577C39.5289 143.122 37.717 143.817 36.9107 144.842C36.6898 145.123 37.0622 144.12 37.2778 143.835C37.9644 142.928 39.0201 142.53 39.9709 141.975C41.3492 141.171 42.9723 140.639 44.2762 139.74C45.1965 139.105 46.2083 139.132 47.1097 138.654C48.7353 137.791 50.7919 138.352 52.4818 137.668" stroke="#FF5539" stroke-width="7" stroke-linecap="round"/>
<path d="M13.3271 184.301C10.553 184.828 13.5792 185.098 14.6389 185.182C15.7025 185.265 16.862 185.221 17.8977 185.453C18.3317 185.55 18.5433 185.96 18.9204 186.167C19.7373 186.614 20.6871 186.676 21.5434 187.021C22.6601 187.47 22.3249 187.875 22.2833 188.949C22.2667 189.377 22.9913 189.725 23.3994 189.757C25.4883 189.921 25.9743 188.491 27.2204 187.094C29.0394 185.056 30.555 183.013 31.5143 180.441C31.5246 180.413 31.97 179.804 31.6219 179.989C30.4137 180.63 29.3769 181.154 28.0438 181.577C25.8852 182.263 23.62 183.215 21.3173 183.32C20.3865 183.362 18.376 182.593 17.9121 183.627C17.5668 184.397 16.8845 185.165 16.8197 185.987C16.7142 187.325 18.1831 190.088 19.6496 190.238C20.4404 190.319 21.2515 190.31 22.0363 190.441C22.5803 190.531 22.9095 190.953 23.4123 191.053C23.9839 191.166 23.808 191.861 24.6382 191.926" stroke="#FF5539" stroke-width="7" stroke-linecap="round"/>
<path d="M77.5966 1.55558C65.4504 0.80557 57.3157 3.01961 49.9128 8.97349C41.5053 16.1795 39.3997 20.7354 43.0576 24.6527C49.6337 31.7926 53.4682 32.7696 57.6799 28.585C65.4122 20.959 71.6096 18.4786 78.772 20.1177C87.9361 22.2977 92.5991 29.8901 92.737 42.176C92.6896 50.5928 91.8136 52.3942 74.405 80.2796C64.3102 96.2903 55.3406 109.716 54.5207 109.91C53.532 109.999 51.5139 105.694 49.8896 99.9912C46.7696 89.1353 41.9218 82.6011 36.5921 81.3981C34.2127 81.0913 31.6166 84.1691 25.4521 94.1778C20.9593 101.472 15.8154 109.066 14.1838 111.336C11.861 114.349 11.8049 115.956 14.6346 118.185C18.0352 121.004 39.2569 122.941 38.7824 120.299C38.5894 119.475 35.3257 119.088 31.3708 119.444C27.6893 119.735 22.3838 119.251 19.5381 118.185L14.6908 116.578L24.9703 99.5091C36.568 80.6792 36.8413 80.6145 44.1894 91.05C49.1016 97.8588 52.7929 114.232 49.0789 111.922C47.7283 111.082 45.7586 108.215 44.7375 105.703C42.7997 100.509 37.711 96.6403 36.1437 99.1848C35.5168 100.203 36.731 103.539 38.7007 106.406L42.6802 111.696L37.0371 111.002C34.0468 110.55 31.145 111.092 30.5181 112.109C29.1598 114.315 30.848 115.365 38.0263 115.841C43.6051 116.26 43.9427 116.47 41.6842 119.758C38.9033 123.894 19.2097 129.712 10.2628 129.074C2.91557 128.493 -0.58076 132.654 4.31496 135.698C6.5096 137.063 7.32176 139.915 6.76742 143.089C6.14874 145.989 6.51878 148.8 7.19405 149.22C9.21987 150.48 23.7126 144.008 30.9708 138.668C35.9623 134.734 34.8372 137.319 20.3299 159.736L3.87765 184.931L14.9955 191.142L25.9444 197.247L40.2427 175.17C48.0388 162.891 55.3686 149.853 56.132 146.34L57.8917 139.692L55.1834 145.984C52.8286 151.324 50.9397 152.495 39.3566 155.38C32.1462 157.23 25.796 158.443 25.1207 158.023C22.7572 156.553 32.2333 143.442 38.2135 139.419C41.6136 137.31 48.4621 134.531 53.5503 133.472L62.7381 131.444L61.8142 136.735C61.1955 139.635 59.5161 145.394 57.9972 149.377C53.7298 160.096 53.1121 172.85 56.6495 178.1C59.383 182.381 60.4361 182.567 66.8023 180.191C75.3549 177.299 77.4688 174.625 74.5263 170.683C70.378 165.288 66.3012 152.195 66.7989 145.7C67.3528 137.599 69.2016 136.871 70.4322 143.971C71.5742 150.078 79.0264 155.416 84.2593 153.744C86.8235 152.992 88.4952 150.278 90.7614 143.945C92.5294 139.179 95.4308 133.71 97.1267 131.715C101.274 127.256 102.101 119.089 98.7249 116.99C97.3744 116.15 91.4822 116.239 85.6785 117.322L75.1644 119.229L89.9367 94.8661C98.0221 81.3597 106.148 67.409 107.795 63.9758C118.452 41.7454 111.946 17.053 92.6611 5.52825C89.96 3.84838 83.0709 2.14469 77.5966 1.55558ZM89.157 12.7338C88.2892 16.4172 87.566 19.4867 87.4616 19.6564C87.2526 19.9957 85.251 19.4547 82.9117 18.7037C79.9615 17.8074 77.9516 15.3843 76.8821 11.4345C74.8075 3.80949 75.3299 2.96129 81.6884 3.6311C89.3732 4.42195 90.5791 5.87578 89.157 12.7338ZM103.112 18.1282C103.579 18.8874 101.995 22.5952 99.6968 26.3272C97.5026 29.8896 95.1154 32.6282 94.4402 32.2082C90.1554 29.3088 89.1889 10.4074 93.1196 9.33271C94.655 9.11447 101.183 14.8166 103.112 18.1282ZM109.351 29.9854C110.903 33.5313 111.426 37.6104 110.695 38.7979C108.918 41.6817 96.5801 49.9624 95.2296 49.1225C94.7231 48.8075 94.4576 45.8269 95.0119 42.6524C95.6383 36.7073 103.78 21.5934 105.637 22.7483C106.143 23.0633 107.904 26.2699 109.351 29.9854ZM73.8918 10.9824C75.267 17.4686 75.267 17.4686 70.7413 17.2348C64.8893 16.8799 53.7473 9.9505 55.1056 7.7452C56.4639 5.53989 69.1402 2.39648 71.166 3.65638C72.0101 4.18133 73.2242 7.51724 73.8918 10.9824ZM109.739 51.3424C107.24 62.2231 103.993 65.5998 95.4323 66.6103L87.1447 67.5562L89.9977 60.6497C91.9746 55.5445 94.9486 52.2324 100.72 48.5484C105.253 45.737 109.264 43.7738 109.94 44.1937C110.615 44.6137 110.503 47.8286 109.739 51.3424ZM64.1018 19.6748C62.3256 22.5587 58.0974 22.9791 51.5459 21.4855C43.1616 19.5557 42.8641 18.9015 47.9359 14.0787C51.0786 10.8716 52.5095 10.823 58.2493 14.3927C61.7944 16.5975 64.5197 18.9963 64.1018 19.6748ZM54.143 28.2622C53.6205 29.1104 51.5788 29.0137 49.8906 27.9638C48.0336 26.8089 46.5302 24.7008 46.5461 23.5376C46.4978 22.0998 48.4351 22.3662 50.7985 23.8361C53.162 25.306 54.7699 27.2444 54.143 28.2622ZM97.7565 78.3791C93.1994 85.3989 91.5838 86.5057 82.5406 87.9202L72.5088 89.4236L78.0464 80.4327C82.8527 72.6294 84.6772 71.1833 92.4342 69.2035C97.1848 67.9349 101.477 67.7891 102.008 68.8229C102.37 69.7518 100.642 74.0735 97.7565 78.3791ZM68.4513 109.658L55.8795 112.632L62.044 102.623C67.9996 92.9539 68.7551 92.4853 79.5426 90.5134L90.8123 88.1375L85.7811 97.4433C80.9589 106.41 80.4766 106.814 68.4513 109.658ZM98.7177 124.962C97.7613 127.652 96.1941 130.197 95.1652 130.73C94.0319 131.433 91.4841 135.948 89.6116 140.884C84.3478 154.737 75.6181 155.643 72.9722 142.501C71.7658 136.12 76.2266 131.152 78.8798 136.321C79.7723 138.284 79.1855 138.857 76.0264 138.3C72.6984 137.638 72.4894 137.978 74.8529 139.448C78.4624 141.927 82.5779 139.794 80.9216 136.418C80.0291 134.455 80.6561 133.437 84.0561 131.329C89.6184 127.984 88.8304 125.852 81.861 125.037C73.5009 123.826 74.4011 122.743 85.5421 119.818C97.1253 116.933 100.751 118.25 98.7177 124.962ZM74.939 115.805C71.0731 122.081 70.3577 122.106 64.465 117.268L59.8184 113.439L67.4065 111.355C77.0765 108.922 78.5959 109.867 74.939 115.805ZM41.8516 105.081C41.3292 105.929 40.4691 106.567 40.1315 106.357C39.625 106.042 39.3034 104.669 39.3193 103.506C39.4398 102.173 40.1954 101.705 41.0394 102.23C42.0524 102.86 42.4785 104.063 41.8516 105.081ZM63.7583 124.101C63.7989 128.584 62.8745 128.948 56.0255 126.8C49.0077 124.547 49.61 117.883 56.531 117.26C61.9168 116.856 63.798 118.73 63.7583 124.101ZM48.5826 133.198C41.0989 135.113 40.8256 135.178 42.5133 131.301C45.1573 124.733 48.2038 123.578 52.4726 127.64L56.3395 131.218L48.5826 133.198ZM32.1521 134.476C14.1311 147.434 6.98509 149.559 9.07428 141.239C9.71714 139.058 8.73616 136.102 6.91931 134.503C4.25837 132.379 5.56054 131.781 15.07 131.126C21.1711 130.697 29.9811 128.903 34.3298 127.149C38.8472 125.501 42.6734 124.596 42.6976 125.315C42.8263 125.864 38.1724 130.009 32.1521 134.476ZM71.3672 170.126L73.9962 174.577L67.1878 176.912C61.8505 178.754 59.9132 178.488 58.2811 175.83C55.2501 170.895 55.6352 162.689 59.4846 152.648L62.9805 143.56L65.8915 154.755C67.3068 160.797 69.7994 167.744 71.3672 170.126ZM43.385 167.035C38.5787 174.839 37.5499 175.372 24.785 177.522L11.0314 179.761L15.8536 170.794C20.5713 161.997 21.3269 161.529 33.7299 158.45C40.9403 156.6 47.1459 156.001 47.6765 157.035C48.0384 157.964 46.206 162.455 43.385 167.035ZM30.8228 186.673L25.3011 194.501L17.0532 190.075C12.2862 187.58 8.94994 185.036 9.47236 184.187C10.5172 182.491 33.0324 177.02 34.8894 178.175C35.5647 178.595 33.877 182.473 30.8228 186.673Z" fill="black"/>
<defs>
<linearGradient id="paint0_linear_4_37" x1="720" y1="0" x2="720" y2="970" gradientUnits="userSpaceOnUse">
</linearGradient>
</defs>
</svg>
