<svg width="51" height="86" viewBox="0 0 51 86" fill="none" xmlns="http://www.w3.org/2000/svg">
<path d="M24.7752 0.78202C24.6782 1.00731 24.4519 1.77975 24.2255 2.48781C23.8052 3.7752 23.8052 3.7752 21.8651 3.93613C19.4077 4.12924 19.2137 4.70856 21.2184 6.18906C22.0268 6.76839 22.6735 7.31553 22.6735 7.34772C22.6735 7.3799 22.4471 8.0236 22.1884 8.76385C21.9298 9.5041 21.7034 10.3409 21.7034 10.5984C21.7034 11.4996 22.7058 11.403 23.9669 10.4053C24.6459 9.85813 25.3249 9.40754 25.4866 9.40754C25.6159 9.40754 26.3273 9.85813 27.0063 10.3731C29.1404 11.9823 29.7871 11.4352 28.9141 8.89258L28.3967 7.34772L29.8841 6.12469C31.8242 4.48327 31.6302 3.93613 29.1081 3.93613H27.2327L26.683 2.16597C26.2626 0.84639 25.9716 0.395802 25.5189 0.395802C25.1956 0.395802 24.8399 0.588911 24.7752 0.78202Z" fill="white"/>
<path d="M24.5489 11.6605C24.2579 11.8536 21.3477 16.2951 18.1143 21.5734C14.8808 26.8195 11.809 31.8081 11.324 32.6128C10.1276 34.5117 10.0953 35.96 11.2593 37.1508C11.7444 37.6336 12.4557 38.052 12.8761 38.052C13.2964 38.052 13.6198 38.1164 13.6198 38.2129C13.6198 38.3095 13.1347 39.1785 12.5204 40.1118C11.6473 41.4636 11.4857 41.9464 11.7767 42.236C12.0354 42.5257 12.0354 42.59 11.809 42.4613C11.324 42.1716 10.9037 42.7188 8.21988 47.0637C5.34209 51.7627 5.21275 51.988 5.21275 53.0179C5.21275 54.3053 5.79478 55.1099 7.18517 55.7214L8.44622 56.3008L6.4738 59.4871C5.37443 61.225 3.91937 63.6067 3.208 64.7654C-0.478148 70.6874 -0.639821 71.2345 0.976911 72.8437L1.91462 73.7771H11.4857H21.0567V79.5704V85.3958L25.5189 85.2993L29.9488 85.2027V79.5704V73.938L39.7462 73.7771L49.5436 73.6162L50.1903 72.8116C51.6453 70.9448 51.5807 70.8161 46.2454 62.2228C44.3054 59.133 42.7533 56.4295 42.818 56.2364C42.8826 56.0755 43.2383 55.8824 43.594 55.818C44.4994 55.6893 45.5987 54.4662 45.7927 53.3398C45.9868 52.4064 45.3077 51.0225 42.5593 46.7419C40.1665 43.0084 37.5474 38.5991 37.5474 38.3417C37.5474 38.1807 37.8384 38.052 38.2264 38.052C39.2288 38.052 40.7809 36.3462 40.7809 35.2519C40.7809 34.6404 39.4552 32.1944 36.9007 28.0747C34.799 24.6309 31.6948 19.6101 30.0458 16.9066C26.8123 11.6283 25.9716 10.8558 24.5489 11.6605ZM26.4566 15.2652C26.9093 16.0376 28.8817 19.1917 30.7571 22.2814C32.6649 25.3712 35.187 29.4908 36.351 31.4219C37.5474 33.353 38.5175 35.1232 38.5175 35.3807C38.5175 35.7025 37.8708 35.7991 35.9307 35.7991C34.508 35.7991 33.3439 35.8634 33.3439 35.9922C33.3439 36.0887 33.6996 36.668 34.1523 37.3117C34.5726 37.9554 34.896 38.5669 34.799 38.6313C34.605 38.8566 28.2674 35.6703 24.6135 33.5139C21.0891 31.4219 16.8532 28.4609 16.8532 28.0425C16.8532 27.9138 18.0496 25.8861 19.5047 23.5045C20.9597 21.155 22.8675 18.0331 23.7405 16.5526C24.6135 15.1042 25.3896 13.9134 25.4542 13.9134C25.5189 13.9134 25.9716 14.5249 26.4566 15.2652ZM19.44 32.8059C23.1585 35.2841 25.3249 36.5071 30.4338 39.0175C33.0206 40.2727 35.6073 41.5279 36.2217 41.8498C36.9977 42.236 37.8061 43.2337 39.0025 45.197L40.7162 47.9649L38.0971 49.7351C31.5655 54.0478 24.4195 57.4594 16.2065 60.1308C13.4258 61.0641 7.92886 62.5124 7.28217 62.5124C7.15283 62.5124 8.76956 59.8089 10.936 56.4939C12.7144 53.7582 12.7144 53.8225 10.0953 53.8225C6.66781 53.8225 6.66781 53.5007 10.0953 48.1902C12.4234 44.5533 17.4999 36.1853 17.4999 35.9922C17.4999 35.8956 16.4005 35.7991 15.0748 35.7991C12.8761 35.7991 12.6497 35.7347 12.6497 35.1554C12.6497 34.8013 13.3288 33.4818 14.1371 32.2265L15.5922 29.9414L16.3035 30.5529C16.6916 30.907 18.1143 31.9047 19.44 32.8059ZM42.818 51.3765C43.303 52.1489 43.691 52.9214 43.691 53.1145C43.691 53.5651 42.7533 53.7904 40.3605 53.8869L38.5175 53.9835L39.7462 55.9145C41.5569 58.7146 48.0562 69.3034 48.5089 70.1724C48.7352 70.5586 48.7999 71.0414 48.7029 71.2023C48.5735 71.3954 40.1342 71.5242 25.3896 71.5242C3.62835 71.5242 2.30263 71.492 2.30263 70.9448C2.30263 70.6552 3.01399 69.239 3.88703 67.8551L5.43909 65.2803L10.0953 64.0895C21.1537 61.2572 30.6601 57.1698 38.9378 51.7305C40.3929 50.7972 41.6539 49.9925 41.7509 49.9925C41.8479 49.9604 42.3006 50.6041 42.818 51.3765ZM27.847 78.4439V83.1107H25.5836H23.3202V78.4439V73.7771H25.5836H27.847V78.4439Z" fill="white"/>
<path d="M24.2579 26.8195C22.9968 28.0747 23.9992 30.3277 25.81 30.3277C26.78 30.3277 27.847 29.2334 27.847 28.2356C27.847 26.4011 25.5836 25.4999 24.2579 26.8195Z" fill="white"/>
<path d="M28.332 44.0062C27.362 44.9396 27.2973 45.8729 28.1703 46.7419C30.1427 48.7052 32.9559 45.9373 31.0804 43.9096C30.2074 42.9763 29.302 43.0085 28.332 44.0062Z" fill="white"/>
<path d="M17.6616 48.8339C16.7562 49.7029 16.6916 50.0248 17.2089 51.0225C17.7263 51.9558 18.1143 52.2133 19.149 52.2133C20.9274 52.2133 21.7034 49.9282 20.3454 48.673C19.4077 47.804 18.5993 47.8684 17.6616 48.8339Z" fill="white"/>
<path d="M34.3786 59.8089C32.4709 61.1285 34.8313 64.4757 36.8037 63.2205C37.8384 62.5768 37.8384 60.1951 36.8037 59.5514C36.1894 59.1652 35.1547 59.2618 34.3786 59.8089Z" fill="white"/>
<path d="M25.4219 63.9607C24.5166 64.8297 24.4519 65.1516 24.9692 66.1493C25.4866 67.0827 25.8746 67.3401 26.9093 67.3401C28.6877 67.3401 29.5608 64.6688 28.1057 63.6711C27.071 62.963 26.3273 63.0274 25.4219 63.9607Z" fill="white"/>
<path d="M15.1072 66.0206C14.2988 66.8896 14.5575 68.2735 15.6569 69.0781C16.4976 69.6896 16.6269 69.6896 17.4353 69.2391C19.44 68.1448 18.955 65.4091 16.7239 65.4091C16.0772 65.4091 15.4305 65.6666 15.1072 66.0206Z" fill="white"/>
</svg>
