<svg width="88" height="62" viewBox="0 0 88 62" fill="none" xmlns="http://www.w3.org/2000/svg">
<path d="M6.26576 0.497124C5.70498 1.05791 5.28439 4.56281 5.28439 8.34809C5.28439 12.1334 3.88243 23.0687 2.34028 32.7422C0.657926 42.2755 -0.323446 50.5471 0.0971421 50.9677C0.51773 51.3882 11.1726 52.9304 23.7903 54.4726C36.4079 55.8745 50.4275 57.6971 55.0539 58.398C59.6804 59.2392 67.3912 60.0804 72.1579 60.501L80.9902 61.0618L82.252 56.0147C84.3549 48.0235 88 21.3863 88 14.3765C88 10.0304 87.4392 8.0677 86.1775 8.0677C85.0559 8.0677 78.0461 7.08633 70.3353 5.96476C62.7647 4.703 47.3432 3.16085 36.1275 2.45987C24.9118 1.75889 13.8363 0.777515 11.5932 0.356926C9.20988 -0.203857 6.96674 -0.0636597 6.26576 0.497124ZM27.7157 18.5824C32.3422 22.9285 36.1275 26.7138 36.1275 26.9942C36.1275 27.2745 30.9402 30.7794 24.6314 34.8451C18.1824 38.9108 10.6118 43.9579 7.66772 46.3412C4.72361 48.5843 2.05989 50.1265 1.77949 49.8461C1.35891 49.5657 2.34028 41.7147 3.88243 32.4618C5.42459 23.3491 6.68635 13.255 6.68635 10.0304C6.68635 6.94614 7.10694 3.86182 7.52753 3.44124C8.78929 2.17947 17.4814 8.76868 27.7157 18.5824ZM59.9608 6.10496C80.149 8.48829 83.7941 9.32947 83.7941 11.0118C83.7941 11.7128 83.2333 12.2736 82.6726 12.2736C81.6912 12.2736 59.6804 25.0314 47.7638 32.3216C46.9226 32.8824 41.8755 29.3775 36.5481 24.6108C31.3608 19.704 23.5099 12.8344 19.304 9.04908L11.5932 2.45987L27.0148 3.30104C35.5667 3.72163 50.2873 4.98339 59.9608 6.10496ZM86.598 15.9187C86.598 19.8442 84.6353 34.7049 82.252 48.4441C80.4294 58.5382 79.3078 59.2392 65.9892 58.1177C50.4275 56.8559 5.28439 50.8275 5.28439 49.9863C5.28439 48.7245 35.5667 29.0971 37.5295 29.0971C38.651 29.0971 40.8942 30.4991 42.5765 32.0412L45.801 35.1255L50.8481 32.0412C53.652 30.4991 56.4559 29.0971 57.0167 29.0971C58.4187 29.0971 71.7373 46.902 74.6814 52.65C75.9431 55.3137 77.3451 57.1363 77.6255 56.7157C78.7471 55.5941 74.8216 48.8647 66.9706 38.35C63.0451 33.1628 60.101 28.1157 60.3814 27.2745C60.802 25.8726 83.5137 12.4138 85.6167 12.2736C86.1775 12.2736 86.598 13.9559 86.598 15.9187Z" fill="black"/>
<path d="M45.9413 10.0306C45.9413 13.8159 43.4178 15.2178 39.0717 14.0963C37.3893 13.6757 36.1276 13.9561 36.1276 14.9374C36.1276 15.7786 37.8099 16.4796 40.053 16.4796H43.8383L40.3334 19.2835C37.5295 21.5267 37.2491 22.0874 39.3521 22.0874C40.6138 22.0874 41.7354 21.3865 41.7354 20.6855C41.7354 19.8443 42.4364 19.2835 43.1374 19.2835C43.9785 19.2835 44.5393 20.5453 44.5393 22.0874C44.5393 23.6296 45.1001 24.8914 45.9413 24.8914C46.6423 24.8914 46.9227 23.91 46.5021 22.7884C45.9413 21.6669 46.3619 20.6855 47.203 20.6855C48.0442 20.6855 48.7452 21.2463 48.7452 22.0874C48.7452 22.7884 49.7266 23.4894 51.1285 23.4894C53.2315 23.4894 53.2315 23.3492 51.1285 20.9659C47.7638 17.3208 48.1844 16.3394 52.2501 17.3208C54.353 17.8816 55.755 17.6012 55.755 16.76C55.755 15.9188 54.0726 15.0776 51.9697 14.7972C48.605 14.5169 48.0442 13.8159 48.3246 10.4512C48.4648 8.34824 48.0442 6.66589 47.203 6.66589C46.5021 6.66589 45.9413 8.20804 45.9413 10.0306Z" fill="black"/>
<path d="M38.9316 9.32976C38.9316 10.0307 39.913 11.2925 41.0346 12.2739C43.2777 14.2366 43.5581 13.6758 42.2963 10.3111C41.4552 7.9278 38.9316 7.22682 38.9316 9.32976Z" fill="black"/>
<path d="M50.2872 11.4327C48.8853 13.1151 49.1657 13.2553 51.4088 12.6945C53.0911 12.2739 54.3529 11.4327 54.3529 10.7318C54.3529 8.76902 52.1098 9.18961 50.2872 11.4327Z" fill="black"/>
<path d="M33.7441 37.9295C34.3049 39.6119 36.5481 40.0325 47.0627 40.8737C51.1284 41.2943 54.3529 41.0139 54.3529 40.1727C54.3529 39.4717 52.5304 38.9109 50.1471 38.9109C47.9039 38.9109 45.5206 38.7707 44.9598 38.6305C37.95 36.9482 33.3235 36.6678 33.7441 37.9295Z" fill="black"/>
<path d="M24.9119 45.9208C24.9119 46.3414 27.155 46.762 29.8187 46.9022C32.4824 47.0424 34.7256 46.4816 34.7256 45.7806C34.7256 45.0797 32.4824 44.5189 29.8187 44.7993C27.155 44.9395 24.9119 45.5002 24.9119 45.9208Z" fill="black"/>
<path d="M40.3335 47.1824C40.3335 49.005 44.6796 49.706 49.4462 48.5844C51.8296 48.0236 52.6707 47.603 51.5492 47.4628C50.4276 47.1824 47.3433 46.902 44.96 46.4814C42.4364 46.2011 40.3335 46.4814 40.3335 47.1824Z" fill="black"/>
<path d="M57.157 49.566C57.157 50.5474 58.5589 50.8278 60.6619 50.4072C65.8491 49.4258 66.2697 47.6033 61.3629 47.8836C58.9795 47.8836 57.157 48.7248 57.157 49.566Z" fill="black"/>
</svg>
