<svg width="37" height="48" viewBox="0 0 37 48" fill="none" xmlns="http://www.w3.org/2000/svg">
<path d="M5.90067 0.497089C4.40107 0.918262 3.96867 2.52055 4.50227 5.56948C4.58507 6.02728 4.67707 7.35489 4.72307 8.61841C4.80587 11.063 4.94387 11.9054 5.41307 12.702C5.90067 13.526 6.66427 14.0204 7.44627 14.0204H7.74987L7.24387 14.817C6.60907 15.8241 6.20427 16.6573 5.79947 17.8201C5.07267 19.9168 4.83347 21.455 4.72307 24.8244C4.58507 28.7249 4.29987 30.6018 3.56387 32.4605C3.16827 33.4585 2.86467 33.9987 2.05507 35.2164C1.26387 36.3976 1.07067 36.7729 0.895868 37.5237C0.619868 38.6957 0.877468 39.5289 1.74227 40.2888C3.16827 41.534 6.25947 42.4496 10.6111 42.8983C13.0675 43.1546 12.7363 43.0265 13.1871 43.9421C14.1531 45.8923 16.3151 47.2565 18.4495 47.2565C19.4063 47.2565 19.9951 47.1192 20.8691 46.7071C22.1479 46.0937 23.0311 45.2147 23.6935 43.8963C24.1259 43.0356 23.8959 43.1363 25.8371 42.9532C28.6339 42.6877 31.5871 42.0742 33.1143 41.4425C35.5431 40.4445 36.3803 39.2908 35.9663 37.5237C35.7823 36.7546 35.6259 36.4525 34.7151 35.0699C33.8687 33.7973 33.4547 32.9915 33.0683 31.8287C32.4703 30.0342 32.2587 28.4685 32.1391 24.7787C32.0931 23.3686 31.9919 21.8121 31.9183 21.3177C31.5043 18.6991 30.7131 16.4925 29.5355 14.6705L29.1031 14.0204H29.4067C30.2531 14.0204 31.1087 13.407 31.5411 12.5005C31.9643 11.6124 32.0563 10.999 32.1391 8.61841C32.1851 7.2084 32.2771 6.05475 32.3783 5.50539C32.5899 4.31512 32.5991 2.40152 32.3875 1.85217C31.7895 0.323124 30.4463 0.0209808 27.9163 0.854172C25.9015 1.5134 23.7211 2.8227 21.0623 4.9835C20.8691 5.13915 20.8415 5.13 20.0963 4.7546C19.3511 4.37005 19.3051 4.3609 18.4403 4.3609C17.5939 4.3609 17.5111 4.37921 16.8395 4.70882L16.1311 5.05675L15.2295 4.34259C11.8899 1.65989 7.77747 -0.0247993 5.90067 0.497089ZM7.63947 2.4473C9.61747 2.85017 12.4327 4.40668 14.4659 6.2104L14.8799 6.57664L14.7143 7.09853C14.5119 7.73944 14.5027 8.70082 14.6959 9.25017C14.7787 9.46992 14.8431 9.66219 14.8431 9.67134C14.8431 9.71712 13.7575 10.1749 13.6471 10.1749C13.5827 10.1749 13.3987 10.2482 13.2423 10.3489C13.0859 10.4404 12.6443 10.6327 12.2671 10.7701C11.8899 10.9074 11.2827 11.1455 10.9147 11.2828C10.0959 11.6124 8.22827 12.0977 7.79587 12.0977C7.32667 12.0977 7.12427 11.9512 6.90347 11.4751C6.72867 11.0905 6.70107 10.8067 6.64587 8.57263C6.59987 6.78722 6.52627 5.77091 6.38827 4.91026C6.15827 3.47277 6.13987 2.78608 6.34227 2.50224C6.50787 2.26419 6.70107 2.25503 7.63947 2.4473ZM30.5199 2.50224C30.7223 2.78608 30.7039 3.48193 30.4739 4.86448C30.3359 5.69767 30.2715 6.69566 30.2163 8.52685C30.1611 10.7975 30.1335 11.0905 29.9587 11.4751C29.8483 11.704 29.6735 11.9512 29.5539 12.0061C29.0847 12.2625 27.3091 11.8138 25.2115 10.9074C23.4635 10.1566 22.2491 9.61641 22.1663 9.53401C22.1295 9.49738 22.1387 9.31427 22.2031 9.13115C22.3503 8.67335 22.3319 7.62041 22.1571 7.14431L22.0191 6.74144L22.4515 6.34774C24.5031 4.50739 27.4103 2.83186 29.2319 2.43815C30.0783 2.25503 30.3543 2.26419 30.5199 2.50224ZM19.3879 6.42099C19.5443 6.49423 19.8203 6.78722 20.0135 7.0619C20.3355 7.52885 20.3631 7.62041 20.3631 8.18808C20.3631 9.47907 19.5627 10.2115 18.2655 10.12C17.6031 10.0742 17.2259 9.89109 16.8579 9.43329C16.5543 9.04874 16.5451 9.02127 16.5451 8.19724V7.35489L16.9223 6.91541C17.1247 6.67735 17.4375 6.43014 17.6123 6.3569C18.0079 6.2104 19.0291 6.24702 19.3879 6.42099ZM22.2675 11.7681C22.3871 11.8779 23.6843 15.3206 23.6291 15.3755C23.6107 15.3938 23.3347 15.3206 23.0219 15.2107C22.1663 14.9177 21.6235 15.1008 21.4211 15.7509C21.3843 15.8608 21.3291 15.9249 21.2923 15.8882C21.2555 15.8425 20.9611 15.1008 20.6391 14.2493C20.3263 13.3887 19.9859 12.5005 19.8939 12.2625L19.7283 11.8413L20.1147 11.6399C20.3263 11.53 20.5931 11.3652 20.7127 11.2736C20.9151 11.1088 20.9335 11.1088 21.5407 11.3835C21.8811 11.5392 22.2031 11.7131 22.2675 11.7681ZM16.6095 11.5758L17.1155 11.8779L16.3611 13.8556C15.6343 15.7967 15.4871 16.1263 15.4871 15.8241C15.4871 15.5769 15.0363 15.1283 14.7235 15.0734C14.5395 15.0367 14.2267 15.0917 13.8863 15.2107C13.5827 15.3114 13.3251 15.3755 13.2975 15.348C13.2607 15.3114 14.3923 12.3266 14.5671 12.0153C14.6223 11.9146 15.8643 11.3011 16.0483 11.2828C16.0851 11.2736 16.3335 11.411 16.6095 11.5758ZM11.3471 14.8719C10.9423 15.9065 10.6111 16.8771 10.6111 17.0236C10.6111 17.3898 10.9975 17.8476 11.3747 17.9117C11.5863 17.9483 11.9911 17.8568 12.7731 17.5912C13.3711 17.3898 13.8771 17.225 13.8863 17.225C13.8955 17.225 14.0795 17.7377 14.2911 18.3695C14.7235 19.6605 14.8983 19.8802 15.5055 19.8802C16.1311 19.8802 16.2599 19.6696 17.3639 16.694C17.9159 15.229 18.3943 14.0204 18.4311 14.0204C18.4679 14.0204 18.9463 15.229 19.4983 16.694C20.6023 19.6696 20.7311 19.8802 21.3567 19.8802C21.9639 19.8802 22.1387 19.6605 22.5711 18.3695C22.7827 17.7377 22.9667 17.225 22.9759 17.225C22.9851 17.225 23.4911 17.3898 24.0891 17.5912C24.8711 17.8568 25.2759 17.9483 25.4875 17.9117C25.8555 17.8476 26.2511 17.3898 26.2511 17.0419C26.2511 16.8954 25.9475 15.934 25.5703 14.9177C25.1931 13.8922 24.8987 13.0499 24.9171 13.0316C24.9815 12.9583 25.5979 13.3429 26.1775 13.8098C27.3275 14.7254 28.4407 16.3186 29.0939 17.9849C29.8575 19.9443 30.0967 21.4276 30.2071 24.8977C30.4003 30.5561 31.0259 32.9824 33.1511 36.2694C33.8503 37.3589 34.1631 38.0182 34.1631 38.4393C34.1631 39.6113 29.9311 40.7283 23.5831 41.2319C21.5775 41.3875 15.2847 41.3875 13.2791 41.2319C6.92187 40.7283 2.69907 39.6113 2.69907 38.4393C2.69907 38.0273 3.00267 37.3589 3.68347 36.3151C4.54827 34.9601 4.91627 34.2825 5.32107 33.2571C6.17667 31.1054 6.65507 28.0107 6.65507 24.6322C6.65507 20.7226 7.54747 17.5455 9.30467 15.2565C9.97627 14.3775 10.9423 13.4985 11.6231 13.1506C11.8531 13.0316 12.0463 12.9492 12.0647 12.9583C12.0739 12.9766 11.7519 13.8373 11.3471 14.8719ZM21.9271 43.3011C21.9271 43.3194 21.8075 43.5117 21.6603 43.7223C21.2739 44.2808 20.7863 44.6745 20.0871 45.0041C19.5259 45.2697 19.4247 45.288 18.3851 45.288C17.3823 45.288 17.2351 45.2697 16.7567 45.0408C16.1679 44.7661 15.4779 44.171 15.1559 43.6674C15.0363 43.4751 14.9351 43.3103 14.9351 43.3011C14.9351 43.2828 16.5083 43.2737 18.4311 43.2737C20.3539 43.2737 21.9271 43.2828 21.9271 43.3011Z" fill="white"/>
</svg>
