<svg width="62" height="40" viewBox="0 0 62 40" fill="none" xmlns="http://www.w3.org/2000/svg">
<path d="M28.3079 8.19667C24.9151 8.80797 21.7669 11.1768 20.2234 14.2791C19.3217 16.0978 19.016 17.2898 19.0008 19.2001C18.9855 21.0493 19.1994 21.9969 20.0094 23.7085C21.4613 26.7497 24.64 28.7365 28.7511 29.195C30.264 29.3631 31.074 29.3019 33.2747 28.8282C36.3924 28.1405 39.9532 29.4853 42.0469 32.1139C42.4137 32.5877 42.4595 32.603 42.3679 32.2668C42.1692 31.5179 41.1147 30.1883 40.0755 29.4089C38.7917 28.4308 37.8136 28.0488 35.6282 27.682C33.5192 27.3305 32.4342 26.8262 31.4866 25.7717L30.7836 25.0075L30.8601 25.8175L30.9365 26.6275L30.1571 26.5358C28.9497 26.3677 27.2534 25.7564 26.1836 25.0839C23.6008 23.4487 22.1184 20.6825 22.1184 17.4885C22.1184 14.4167 23.4938 11.9562 25.8626 10.7794C26.6421 10.3974 26.9936 10.3362 28.2773 10.2904C30.0654 10.214 31.3032 10.5349 32.7704 11.4366C36.0409 13.4539 37.8442 16.7091 37.6761 20.3616C37.5844 22.1497 37.5385 22.2567 36.9272 21.9357C36.6674 21.8135 36.1173 21.6759 35.6741 21.6301L34.8794 21.5689L35.7199 21.8746C36.8967 22.3025 37.615 22.9444 38.1346 24.0294L38.5778 24.9464L38.9598 24.3504C40.2589 22.3942 40.8243 20.545 40.8396 18.2832C40.8396 16.2964 40.6409 15.3642 39.8309 13.6831C38.8223 11.5436 36.6827 9.58738 34.3445 8.67043C32.6634 7.99799 30.3404 7.8146 28.3079 8.19667Z" fill="#FF5539"/>
<path d="M37.1718 24.8853C37.2176 25.1298 37.3704 25.4201 37.4927 25.5424C37.6761 25.7258 37.7067 25.7105 37.7067 25.359C37.7067 24.7936 37.5538 24.4726 37.294 24.4726C37.1106 24.4726 37.0801 24.5796 37.1718 24.8853Z" fill="#FF5539"/>
<path d="M34.9099 25.3437C34.5279 25.7105 35.1544 26.7497 35.6435 26.551C36.2395 26.3218 36.0103 25.2367 35.3684 25.2367C35.1697 25.2367 34.9558 25.2826 34.9099 25.3437Z" fill="#FF5539"/>
<rect x="0.75" y="0.75" width="60.5" height="38.5" rx="5.25" stroke="#FF5539" stroke-width="1.5"/>
</svg>
