<svg width="64" height="62" viewBox="0 0 64 62" fill="none" xmlns="http://www.w3.org/2000/svg">
<path d="M47.8521 4.52148C48.5971 6.30694 50.1983 8.88815 51.531 10.3236C53.5932 12.5027 53.7275 13.0756 52.5682 16.0749C51.9292 17.809 50.5689 20.5778 49.5503 22.1558L47.833 25.0736L46.9158 21.3684C46.4013 19.3819 45.3808 17.1874 44.6364 16.6594C42.1502 14.9716 41.6461 18.5361 43.6949 23.4461L45.5575 27.9098L41.817 32.5103C39.7721 35.1455 37.898 37.1853 37.7343 37.044C37.5185 37.0292 37.0785 35.2213 36.7426 33.1603C36.056 29.2541 34.6411 27.1193 33.302 27.678C31.9629 28.2368 31.9809 34.3087 33.2847 37.4332C34.7003 40.8256 34.5962 41.0786 26.7781 45.7035C22.6645 48.1538 22.5752 48.191 23.4371 45.735C23.9201 44.3805 24.1346 41.8802 23.9104 40.0871C23.5295 37.4159 23.2913 37.0961 21.8629 37.6921C19.6311 38.6234 17.9741 43.193 18.5862 46.9207C18.9895 49.8969 18.9003 49.9341 13.5214 51.8641C10.6274 52.9669 6.46114 54.2861 4.42264 54.9271L0.702713 56.06L4.4676 55.5372C7.39177 55.2604 8.24019 55.5353 8.40462 56.9341C8.56199 59.0696 13.2736 61.8203 16.034 61.4022C19.0994 60.9616 18.1373 56.6463 14.6467 55.0632L11.9524 53.8815L20.0762 50.4916C27.843 47.2507 28.1481 47.2282 30.3292 48.9385C32.4582 50.7754 37.0048 50.8698 38.2019 49.2172C39.3098 47.602 37.5448 44.8795 35.1858 44.5012C32.1422 43.9893 31.911 42.9328 34.5892 41.8153C35.7497 41.331 37.7356 39.559 38.8807 38.033C40.9404 35.1821 40.9404 35.1821 44.959 36.0208C49.5357 36.9411 51.5221 36.4267 53.1355 33.762C54.1168 32.0947 54.0423 31.9161 51.3333 30.9502C49.763 30.4524 47.6198 30.0889 46.6525 30.2829C45.2389 30.6631 45.7071 29.5244 48.3468 25.8025C51.7077 21.046 52.1168 20.7705 56.0974 20.2624C59.5945 19.8513 60.5393 19.3523 62.4281 17.0967C65.5366 13.4936 63.0729 12.1109 57.4487 14.4577L53.4314 16.134L54.2708 13.373C54.8058 11.8919 55.3922 9.02684 55.5771 6.95814C55.9772 3.64668 55.8282 3.28959 54.8019 4.34675C53.8796 5.15085 53.3215 5.06929 52.8373 3.90874C52.204 2.3911 48.3485 0.436111 47.0987 0.957628C46.7416 1.10663 47.1071 2.73602 47.8521 4.52148ZM52.7641 6.24526C54.5149 10.4411 51.5008 9.49764 49.3704 5.14574C47.6645 1.56006 47.6793 1.34426 49.5997 2.42966C50.7236 3.11365 52.168 4.81689 52.7641 6.24526ZM45.5529 19.1071C45.9254 19.9998 46.0899 21.3986 45.9415 22.2991C45.578 24.4423 43.6872 22.9253 43.4329 20.3062C43.2158 17.7763 44.6961 17.0538 45.5529 19.1071ZM61.7724 15.274C62.5174 17.0595 59.2445 19.2637 55.6357 19.4069C53.2471 19.4603 52.8303 19.2149 53.5515 18.1802C55.1873 15.8206 61.1391 13.7564 61.7724 15.274ZM35.7458 33.7858C36.4774 38.3022 35.3323 39.8282 33.8795 36.3465C32.7247 33.579 32.8486 28.6009 34.1138 29.1212C34.7464 29.3813 35.3874 31.4198 35.7458 33.7858ZM22.9059 40.1918C23.2785 41.0845 22.8109 43.4807 21.9265 45.6316L20.1501 49.4126L19.6575 46.4737C18.8662 41.563 21.4159 36.6208 22.9059 40.1918ZM50.1727 31.4344C51.4527 31.7389 52.2196 32.5719 52.034 33.383C51.745 35.7048 44.2595 36.103 43.3283 33.8712C42.8067 32.6214 47.7392 30.8776 50.1727 31.4344ZM35.1865 45.7587C36.9951 46.5763 37.4716 47.216 37.0035 48.3547C36.2751 50.126 30.9098 49.3252 30.0902 47.3612C29.2707 45.3972 32.455 44.4877 35.1865 45.7587ZM13.0918 55.6072C16.0461 56.1563 18.1386 59.1614 16.2639 59.9436C13.9428 60.9122 8.63584 57.9906 9.32689 56.13C9.83234 55.0806 10.0109 55.006 13.0918 55.6072Z" fill="black"/>
</svg>
