<svg width="64" height="42" viewBox="0 0 64 42" fill="none" xmlns="http://www.w3.org/2000/svg">
<path d="M5.5168 0.777321C3.47032 1.08006 1.60547 2.82381 1.18165 4.85818C0.91524 6.08123 0.91524 35.9187 1.18165 37.1418C1.61758 39.2367 3.45821 40.9199 5.62579 41.2226C6.64297 41.3801 57.357 41.3801 58.3742 41.2226C60.5418 40.9199 62.3824 39.2367 62.8184 37.1418C63.0848 35.9187 63.0848 6.08123 62.8184 4.85818C62.3824 2.76326 60.5418 1.08006 58.3742 0.777321C57.4539 0.644119 6.42501 0.644119 5.5168 0.777321ZM59.2703 2.6906C60.1422 3.11443 60.6508 3.63513 61.0988 4.53123C61.341 5.0156 61.3652 5.29412 61.4016 7.21951L61.45 9.37498H32H2.55001L2.59844 7.21951C2.63477 5.29412 2.65899 5.0156 2.90118 4.53123C3.47032 3.36873 4.46329 2.59373 5.62579 2.36365C5.91641 2.3031 17.9168 2.26677 32.3027 2.27888L58.459 2.29099L59.2703 2.6906ZM61.4016 25.0808L61.3652 36.9238L61.0988 37.4687C60.6508 38.3648 60.1422 38.8855 59.2703 39.3094L58.459 39.709H32H5.54102L4.72969 39.3094C3.85782 38.8855 3.34922 38.3648 2.90118 37.4687L2.63477 36.9238L2.59844 25.0808L2.57422 13.25H32H61.4258L61.4016 25.0808Z" fill="#FF5539"/>
<path d="M9.82775 22.1262C8.72579 22.441 7.89025 23.325 7.66017 24.4754C7.4422 25.5289 7.55119 29.2828 7.81759 29.9004C8.084 30.5059 8.66525 31.1113 9.29494 31.4504C9.7672 31.7168 9.87619 31.7168 15.2285 31.7168C20.593 31.7168 20.6899 31.7168 21.1742 31.4504C21.8887 31.075 22.5063 30.3242 22.7242 29.5855C22.9906 28.6895 22.9906 25.0566 22.7242 24.1605C22.4942 23.3855 21.8402 22.6227 21.1016 22.2836C20.5809 22.0414 20.3508 22.0293 15.4707 22.0051C11.6926 21.9809 10.2395 22.0172 9.82775 22.1262ZM20.484 23.7609C21.2348 24.1727 21.3438 24.548 21.3438 26.8488C21.3438 29.1375 21.2348 29.5613 20.5688 29.973C20.2176 30.191 19.8785 30.2031 15.2406 30.2031C10.4938 30.2031 10.2758 30.191 9.9004 29.9609C9.21017 29.5371 9.11329 29.1496 9.11329 26.8488C9.11329 24.548 9.22228 24.1727 9.97306 23.7609C10.3485 23.5551 10.7602 23.543 15.2285 23.543C19.6969 23.543 20.1086 23.5551 20.484 23.7609Z" fill="#FF5539"/>
<path d="M29.9414 22.0535C29.4449 22.2351 29.2875 22.998 29.675 23.3371C29.8809 23.5308 30.9828 23.5429 43.0438 23.5429C55.6133 23.5429 56.1945 23.5308 56.3762 23.325C56.5942 23.0949 56.6426 22.6105 56.4852 22.3804C56.2188 21.9808 55.9645 21.9687 42.9953 21.9808C35.9113 21.9808 30.0383 22.0172 29.9414 22.0535Z" fill="#FF5539"/>
<path d="M29.7234 28.3383C29.5418 28.4594 29.457 28.641 29.457 28.9316C29.457 29.743 29.2633 29.7187 36.3836 29.7187C42.6199 29.7187 42.7894 29.7066 43.0195 29.4765C43.1527 29.3433 43.2617 29.1012 43.2617 28.9316C43.2617 28.7621 43.1527 28.5199 43.0195 28.3867C42.7894 28.1566 42.6199 28.1445 36.3836 28.1445C30.8012 28.1445 29.9656 28.1687 29.7234 28.3383Z" fill="#FF5539"/>
</svg>
