<svg width="121" height="134" viewBox="0 0 121 134" fill="none" xmlns="http://www.w3.org/2000/svg">
<path d="M84.7653 2.55553C84.7653 6.52499 81.8466 12.1289 78.8111 13.6467C77.1767 14.5806 76.7097 15.6314 77.1767 17.2659C77.7604 19.0171 77.1767 19.8343 74.3747 20.7683C69.2378 22.6363 65.5018 30.6919 67.1363 36.6461C68.654 42.2501 67.3698 43.0673 60.4816 41.0826C57.6797 40.1486 55.2279 39.3313 54.9944 39.0978C54.8777 38.8643 53.8269 37.1131 52.7762 35.2451L50.9082 31.7427L51.6087 35.1284C52.3092 38.1639 52.1925 38.2806 49.9742 37.1131C46.9388 35.4786 44.7206 35.4786 45.6545 36.9964C46.0048 37.5801 47.289 38.1639 48.3398 38.1639C49.3905 38.1639 51.1417 38.7476 52.0757 39.3313C53.4767 40.2653 53.36 40.8491 51.1417 43.184C47.289 47.2702 48.1063 48.321 52.1925 44.2348C55.4614 40.9658 56.0452 40.8491 60.0146 42.0166C65.7353 43.651 65.7353 43.651 62.6998 46.8033C59.4309 50.3057 58.1466 58.8284 60.2481 62.6811C61.5324 65.016 61.2989 65.5998 58.1466 68.0515C56.2787 69.5692 53.4767 73.3052 52.0757 76.3407C48.5733 83.8126 49.2738 90.8175 54.2939 98.1726L58.0299 103.66L42.1521 103.31C29.7767 103.193 26.0408 103.426 25.2235 104.711C23.5891 107.396 25.3403 109.381 29.4265 109.381H33.3959V117.553V125.725H25.8073C12.9649 125.725 6.54376 120.822 6.54376 111.132C6.54376 108.096 7.24425 106.579 9.57922 105.178C12.2644 103.31 12.3812 103.076 10.63 101.325C8.99548 99.6904 8.52848 99.6904 5.60977 101.208C-3.49663 106.345 -1.16165 120.238 10.0462 127.593C16.4674 131.913 25.1068 132.613 76.5929 133.431C113.602 134.014 118.272 133.898 119.673 132.263C120.49 131.213 120.957 129.578 120.49 128.644C120.023 127.243 117.688 126.893 109.866 126.893H99.9426L100.059 123.624C100.059 121.873 100.41 118.37 100.877 115.802C101.694 111.248 101.927 111.132 106.831 110.548C112.551 109.848 113.836 108.33 111.034 105.411C109.633 104.127 106.948 103.543 101.577 103.543C93.8717 103.543 92.5875 102.726 96.09 99.9239C102.394 94.6702 104.029 81.3608 99.4757 72.021C96.9072 66.6505 96.7904 65.8333 98.3082 62.9146C99.5924 60.6963 99.8259 57.8944 99.2422 52.9909C98.3082 44.0013 100.059 41.7831 107.882 42.3668C110.917 42.4836 112.085 42.4836 110.45 42.1333C104.029 40.8491 103.795 40.4988 108.115 36.7629L112.201 33.2604L108.349 35.8289L104.496 38.3974L105.313 35.3619C105.663 33.7274 105.78 32.3264 105.313 32.3264C104.963 32.3264 104.146 34.3111 103.445 36.7629C102.861 39.2146 100.993 42.4836 99.4757 43.8845C96.7904 46.3363 96.4402 46.453 94.689 44.8185C93.0545 43.184 93.0545 42.6003 94.9225 38.7476C96.6737 35.1284 96.6737 33.8442 95.5062 29.291C94.4555 25.3215 94.3387 23.4535 95.3895 22.286C96.09 21.4688 96.3234 19.7176 95.8565 18.3166C95.2727 16.4486 96.09 14.9309 99.3589 11.8954C101.811 9.79395 103.328 7.45898 102.978 6.75848C102.278 5.70775 94.5722 2.43878 87.4505 0.337311C85.1156 -0.363174 84.7653 -0.129684 84.7653 2.55553ZM94.4555 3.83977C97.4909 4.8905 100.176 6.17474 100.643 6.75848C100.993 7.34222 99.5924 9.79395 97.4909 12.2457L93.755 16.6821L88.618 14.9309C84.2983 13.4131 83.5978 12.7127 84.1816 10.7279C84.6486 9.4437 85.2323 6.99198 85.5826 5.12401C86.2831 1.50479 87.1003 1.2713 94.4555 3.83977ZM91.5368 17.6161C93.9885 18.9003 94.9225 20.0678 94.5722 21.2353C93.755 23.3368 94.3387 23.4535 88.8515 20.6516C86.2831 19.3673 83.0141 18.3166 81.6131 18.3166C80.0954 18.3166 78.9279 17.6161 78.9279 16.6821C78.9279 13.2964 83.9481 13.6466 91.5368 17.6161ZM90.6028 24.0373C97.0239 30.4584 96.5569 37.8136 89.4353 42.6003C86.0496 44.9353 84.4151 45.2855 80.0954 44.7018C72.7402 43.651 69.121 40.7323 68.654 35.2451C68.0703 28.5905 69.2378 25.4383 73.4407 22.9865C79.1614 19.3673 86.5166 19.8343 90.6028 24.0373ZM73.9077 44.3515C73.9077 44.4683 73.791 45.986 73.4407 47.7372C72.7402 51.5899 70.7555 51.9402 67.8368 48.6712C64.9181 45.4023 66.3191 42.3668 70.522 43.4175C72.2732 43.8845 73.791 44.2348 73.9077 44.3515ZM92.7042 46.1028C93.0545 47.387 87.3338 51.0062 84.7653 51.0062C82.1969 51.0062 83.7146 46.6865 86.8668 45.519C90.486 44.118 92.0037 44.2348 92.7042 46.1028ZM82.1969 49.1382C81.7299 52.1737 75.7757 53.3412 74.725 50.5392C73.6742 47.7372 76.1259 45.4023 79.6284 46.1028C81.8466 46.453 82.4304 47.2702 82.1969 49.1382ZM70.8722 52.0569L74.0245 53.2244L72.1565 59.6456C71.2225 63.2648 70.6387 66.417 70.8722 66.6505C71.1057 66.884 73.2072 67.351 75.4254 67.5845C79.2781 67.9348 79.5116 67.7013 80.2121 63.4983C81.1461 57.5441 81.9634 57.1939 84.1816 61.3968C86.3998 65.7165 87.8008 65.8333 92.354 62.2141L95.7397 59.5289L91.887 55.6761L88.0343 51.8234L90.8363 49.6052C94.689 46.6865 95.9732 47.0368 97.4909 51.1229C99.2422 56.1431 99.1254 58.5949 96.9072 62.7978C94.5722 67.4678 88.9683 69.686 79.2781 69.686C63.6338 69.686 56.1619 61.0466 62.1161 49.6052L63.9841 45.986L65.9688 48.4377C67.0195 49.722 69.2378 51.3564 70.8722 52.0569ZM80.0954 55.3259C80.0954 56.4934 79.7451 59.4121 79.3949 61.7471C78.6944 65.7165 78.2274 66.1835 75.3087 66.1835C71.3392 66.1835 71.3392 65.95 73.791 58.8284C75.0752 54.8589 76.2427 53.3412 77.8772 53.3412C79.1614 53.3412 80.0954 54.1584 80.0954 55.3259ZM90.7195 56.3766L93.5215 59.4121L90.7195 61.6303C87.4505 64.3155 86.6333 63.8485 83.5978 57.8944L81.2629 53.3412H84.5318C86.6333 53.3412 88.9683 54.5087 90.7195 56.3766ZM66.5525 68.6352C70.1718 70.7367 72.0397 70.9702 80.4456 70.5032C85.6993 70.153 91.42 69.5692 93.0545 69.1022C95.8565 68.4017 96.4402 68.8687 98.6584 73.4219C101.927 80.1934 101.811 87.782 98.4249 94.2032C94.3387 102.025 90.3693 103.543 74.258 103.543C60.9486 103.543 60.5984 103.426 57.5629 100.274C54.0604 96.5382 50.9082 89.65 50.9082 85.447C50.9082 81.0106 54.0604 74.2392 58.1466 69.9195C60.2481 67.9348 61.9994 66.1835 62.1161 66.1835C62.3496 66.1835 64.3343 67.2343 66.5525 68.6352ZM7.47774 104.711C4.09203 107.396 4.09203 115.218 7.361 119.654C12.1477 126.192 16.3506 127.126 42.6191 127.827C55.8117 128.177 78.3442 128.411 92.7042 128.177C115.12 127.944 118.622 128.177 118.622 129.695C118.622 132.613 112.318 132.964 73.4407 132.263C24.0561 131.329 16.2339 130.629 10.0462 126.309C7.361 124.441 4.55903 121.639 3.74179 120.005C-0.110915 112.299 0.706325 104.36 5.60977 102.492C9.46247 100.975 10.5132 102.259 7.47774 104.711ZM106.714 105.294C111.034 106.112 111.851 109.264 107.882 109.497C106.364 109.614 97.0239 110.081 87.1003 110.548L69.0043 111.248L82.1969 111.482L95.3895 111.715L95.0392 119.538L94.689 127.477L80.6791 127.243C72.9737 127.126 60.4816 126.893 53.0097 126.776L39.2334 126.659V118.253V109.731L53.5934 109.964L67.8368 110.315L54.9944 109.381C47.9895 108.914 38.6496 108.447 34.3299 108.33C28.259 108.213 26.391 107.863 26.391 106.579C26.391 105.528 27.792 104.711 30.2437 104.477C36.6649 103.893 102.628 104.594 106.714 105.294ZM37.9491 117.553C38.0659 122.807 36.8984 127.01 35.6142 126.192C34.3299 125.492 34.2132 111.248 35.3807 110.081C36.5481 108.914 37.8324 112.766 37.9491 117.553ZM99.4757 116.035C99.1254 118.487 98.7752 121.873 98.7752 123.624C98.7752 125.492 98.3082 126.893 97.6077 126.893C96.3234 126.893 95.9732 113.7 97.2574 112.533C99.2422 110.548 100.176 112.066 99.4757 116.035Z" fill="black"/>
<path d="M73.6743 26.4889C73.3241 27.0727 73.5576 27.6564 74.1413 27.6564C74.8418 27.6564 75.4256 27.0727 75.4256 26.4889C75.4256 25.7885 75.1921 25.3215 74.9586 25.3215C74.6083 25.3215 74.0246 25.7885 73.6743 26.4889Z" fill="black"/>
<path d="M85.3491 29.8747C84.6486 31.1589 86.3999 32.5599 87.5673 31.5091C88.6181 30.4584 88.3846 28.8239 87.2171 28.8239C86.5166 28.8239 85.8161 29.2909 85.3491 29.8747Z" fill="black"/>
<path d="M71.923 31.1589C70.1718 32.3264 69.3546 38.1638 70.989 38.1638C71.456 38.1638 71.923 37.6968 71.923 37.1131C71.923 36.5293 73.6743 36.1791 75.7757 36.2958C79.0447 36.4126 79.5117 36.0623 79.5117 33.4939C79.5117 31.2757 78.8112 30.4584 76.593 30.2249C74.9585 30.1082 72.857 30.4584 71.923 31.1589ZM78.9279 32.9101C78.9279 35.4786 76.126 36.2958 72.9738 34.5446C70.2885 33.1436 70.2885 33.1436 72.5068 32.2096C76.3595 30.6919 78.9279 31.0422 78.9279 32.9101Z" fill="black"/>
<path d="M69.9382 77.3913C68.8875 80.0766 71.456 82.0613 73.6742 80.1933C75.0752 79.0258 75.1919 78.3253 74.1412 77.1578C72.3899 75.0564 70.8722 75.0564 69.9382 77.3913ZM73.0904 78.5588C73.0904 79.4928 72.5067 79.9598 71.9229 79.6096C71.2225 79.1426 70.989 78.3253 71.3392 77.7416C72.3899 76.1071 73.0904 76.4574 73.0904 78.5588Z" fill="black"/>
<path d="M68.4206 91.7514C67.6034 93.3859 67.6034 94.3199 68.5373 94.9036C70.1718 95.8376 73.5575 92.4519 72.6235 90.8174C71.3393 88.8327 69.8216 89.2997 68.4206 91.7514ZM71.9231 92.3351C71.9231 92.6854 71.4561 93.2691 70.7556 93.6194C70.1718 93.9696 69.5881 93.7361 69.5881 93.1524C69.5881 92.4519 70.1718 91.8682 70.7556 91.8682C71.4561 91.8682 71.9231 92.1017 71.9231 92.3351Z" fill="black"/>
</svg>
