<svg width="73" height="53" viewBox="0 0 73 53" fill="none" xmlns="http://www.w3.org/2000/svg">
<path d="M5.36701 33.7951C5.36346 33.8506 5.37725 34.1402 5.51218 34.0215C5.56754 33.9728 5.54306 33.7718 5.59057 33.6945C5.64792 33.6011 6.03369 33.1716 6.12623 33.1572C6.83988 33.0458 7.54977 32.8658 8.2804 32.7745C8.81534 32.7076 9.33308 32.49 9.8774 32.4169C10.1518 32.38 10.3783 32.2436 10.6678 32.2407C11.1897 32.2355 11.7844 32.1067 12.2859 31.9515C13.0019 31.7299 13.7266 31.729 14.4649 31.73C15.2873 31.7312 16.1003 31.6783 16.9242 31.7181C17.6666 31.7539 18.4662 31.6796 19.2086 31.6471C20.4121 31.5943 21.6502 31.7966 22.8571 31.8134C23.9852 31.8291 25.1005 31.8387 26.229 31.9109C27.394 31.9854 28.5312 32.177 29.6871 32.3077C30.8142 32.4352 31.9307 32.6373 33.0623 32.7535C33.433 32.7915 33.8172 32.9262 34.1786 33.0228C34.3604 33.0715 34.516 33.1544 34.6893 33.2247C34.9078 33.3134 35.1482 33.2999 35.3625 33.3827C35.7622 33.5372 36.3497 33.9255 36.4563 34.3531C36.5336 34.6635 36.5316 34.9133 36.3396 35.179C36.1236 35.4778 36.1747 35.8487 36.0894 36.1943C35.9671 36.69 35.4008 35.9691 35.1776 35.8742C34.8289 35.7258 34.4589 35.6518 34.1083 35.5184C33.5956 35.3233 33.1335 35.1358 32.5815 35.0791C31.3752 34.9553 30.1781 34.7096 28.9809 34.5136C27.9218 34.3401 26.8529 34.1794 25.7932 33.9808C23.8118 33.6096 21.8026 33.2945 19.7883 33.1657C18.0694 33.0558 16.3376 32.7724 14.6122 32.8219C14.0751 32.8373 13.565 32.8135 13.0305 32.7909C12.6859 32.7764 12.2496 32.8429 11.9065 32.8915C11.2035 32.9909 10.5076 33.0408 9.80641 33.1275C9.07862 33.2176 8.35659 33.1432 7.63136 33.2375C7.53508 33.25 7.04681 33.3175 7.29144 33.2604C8.0074 33.0933 8.76035 33.1344 9.49167 33.0563C10.2142 32.9792 10.9396 33.0911 11.6527 33.0157C12.1109 32.9673 12.5395 32.9894 12.9999 33.0189C13.7637 33.0677 14.5225 33.0013 15.2873 33.0502C16.0257 33.0975 16.7688 33.0875 17.5105 33.135C17.7883 33.1527 18.5678 33.3641 18.2984 32.898" stroke="#FF5539" stroke-width="3" stroke-linecap="round"/>
<path d="M10.235 22.3819C10.2302 22.4571 10.1924 22.7177 10.0703 22.7099C9.93273 22.7011 10.3902 22.3254 10.4124 22.3039C10.6969 22.0286 10.745 21.329 11.1177 21.1612C11.5235 20.9785 11.9299 20.7716 12.3873 20.6805C12.6086 20.6364 13.0105 20.5781 13.2053 20.471C13.3044 20.4165 13.3764 20.3989 13.4873 20.406C13.5462 20.4097 13.3759 20.4448 13.3206 20.4656C13.0757 20.5575 12.8317 20.6573 12.5739 20.7084C12.4831 20.7263 11.9395 20.904 11.8429 20.8053C11.598 20.5548 12.0442 20.4236 12.1914 20.3486C12.4197 20.2324 12.8131 20.3312 13.0561 20.3081C13.9109 20.2269 14.8547 20.278 15.7083 20.3756C15.8709 20.3942 16.1431 20.5063 16.2968 20.5601C16.8677 20.7601 17.4015 20.8378 17.9959 20.953C18.8314 21.1148 19.7255 20.9702 20.5421 21.2308C21.0261 21.3852 21.601 21.4634 22.1025 21.5445C22.7196 21.6443 23.3585 21.83 23.9776 21.8815C24.4937 21.9245 24.8891 22.0766 25.3666 22.229C25.6796 22.3289 25.9856 22.37 26.2839 22.5144C26.4621 22.6006 26.6629 22.6997 26.853 22.7519C27.2021 22.8478 27.5194 22.8947 27.8494 23.0487C28.1855 23.2057 28.5495 23.3354 28.9031 23.4482C29.8075 23.7368 30.8327 23.6675 31.6949 24.0291C31.9677 24.1435 32.1347 24.352 32.3726 24.5162C32.7094 24.7488 33.1028 24.8569 33.4592 25.0487C34.0161 25.3484 34.7287 25.7135 35.3605 25.8249C35.8471 25.9107 36.2473 26.1621 36.6928 26.3603C36.9997 26.4968 37.3965 26.6929 37.5267 27.0011" stroke="#FF5539" stroke-width="3" stroke-linecap="round"/>
<path d="M8.85998 23.2136C8.85153 23.3457 8.84287 23.3867 8.7088 23.4306C8.58761 23.4703 8.96478 23.4071 9.08635 23.3685C9.51145 23.2338 9.79824 23.1586 10.2601 23.1882C10.5585 23.2073 10.8413 23.016 11.1208 22.9111C11.1831 22.8878 11.2609 22.9103 11.3253 22.9083C11.4996 22.9028 11.6441 22.7943 11.8159 22.7768C12.0869 22.7493 12.3488 22.747 12.6213 22.7645C13.0816 22.7939 13.5934 22.8859 14.0326 22.7142C14.4388 22.5554 15.0715 22.6913 15.501 22.7187C15.9802 22.7494 16.3996 22.9486 16.8765 22.9791C17.3602 23.0101 17.8299 23.0976 18.3166 23.1287C18.7758 23.1581 19.3084 23.1131 19.7537 23.2238C20.2719 23.3527 20.8367 23.4048 21.3747 23.4393C22.1662 23.4899 22.949 23.5974 23.7433 23.6482C24.9706 23.7267 26.1877 23.9719 27.366 24.3174C27.9458 24.4873 28.476 24.6348 29.0862 24.6796C29.4861 24.709 29.8139 24.8334 30.2017 24.9106C30.4478 24.9596 30.7023 24.9874 30.9385 25.0727C31.1369 25.1443 31.391 25.2747 31.6009 25.3002C31.8407 25.3294 32.0134 25.5185 32.2476 25.5715C32.5009 25.6288 32.756 25.7861 33.0005 25.8815C33.6961 26.1528 34.3244 26.333 35.0559 26.444C35.3679 26.4913 35.6053 26.5659 35.8786 26.7105C36.1269 26.8419 36.9676 26.9654 36.6873 26.9474C36.382 26.9279 36.1483 26.7588 35.8544 26.6898C35.1388 26.5219 34.2925 26.5999 33.6193 26.2914C33.1626 26.0822 32.6083 25.9423 32.2114 25.6394C31.8994 25.4013 31.2632 25.3661 30.8783 25.3147C30.2027 25.2245 29.5277 25.0223 28.8721 24.832C28.7263 24.7896 28.5554 24.7331 28.4092 24.681C27.9776 24.5273 27.5071 24.554 27.0755 24.3658C26.4705 24.102 25.814 24.0055 25.2188 23.7426C24.8599 23.5841 24.4914 23.4393 24.115 23.3272C23.5407 23.156 22.9523 23.0479 22.3737 22.8965C21.7061 22.7218 20.9672 22.6855 20.2805 22.6253C19.5133 22.5581 18.6369 22.4785 17.8646 22.557C17.2788 22.6165 16.7735 22.7858 16.1752 22.7619C15.8303 22.748 15.3039 22.7974 15.0212 23.0329C14.7385 23.2683 14.3769 23.1561 14.0244 23.1416C13.7494 23.1302 13.4925 23.2587 13.2218 23.2595C12.8408 23.2605 12.4538 23.2135 12.0737 23.1892C11.5723 23.1571 11.0709 23.1251 10.5695 23.093C10.3328 23.0779 10.037 23.0315 9.81338 23.1341C9.56978 23.2458 9.31697 23.268 9.0808 23.3554C8.86658 23.4347 8.78062 23.5813 8.60174 23.6568" stroke="#FF5539" stroke-width="2" stroke-linecap="round"/>
<path d="M19.0866 12.4879C19.0662 12.5951 18.2699 12.6285 18.7479 12.1917C18.961 11.997 19.0279 11.8244 19.3096 11.6976C19.6114 11.5617 19.9321 11.4186 20.2247 11.2676C20.7672 10.9875 21.2305 10.5722 21.825 10.4089C21.9889 10.3638 22.118 10.2753 22.2896 10.2342C22.4794 10.1889 22.7477 10.2508 22.9391 10.263C23.1935 10.2793 23.533 10.2479 23.7816 10.3201C23.8134 10.3293 22.8499 10.4051 22.8881 10.3619C22.9921 10.2445 22.6014 10.176 22.7622 10.0346C22.8377 9.96807 23.2699 10.0463 23.3524 10.0915C23.8795 10.3797 24.5483 10.3871 25.0649 10.6736C25.5281 10.9303 26.0151 11.0333 26.5317 11.1537C26.902 11.24 27.3471 11.2306 27.5975 11.5635C27.695 11.6931 27.984 11.8174 28.1228 11.8877C28.4439 12.0503 28.7945 12.2807 29.1248 12.3956C29.6622 12.5826 30.0382 12.9955 30.5356 13.2521C30.9587 13.4704 31.3406 13.7864 31.7676 14.0078C32.2557 14.2609 32.647 14.6294 33.1131 14.9368C33.264 15.0363 33.4091 15.1427 33.5527 15.2523C33.6525 15.3284 33.828 15.3609 33.8971 15.4595C34.0605 15.6929 34.4139 15.9405 34.6578 16.0957C35.2959 16.5017 35.9033 17.0509 36.4027 17.6186C36.5773 17.8169 36.778 17.9624 36.9904 18.116C37.2531 18.3058 37.4899 18.5319 37.7665 18.7116C38.1622 18.9688 38.3597 19.3555 38.6251 19.7148C38.7877 19.9351 38.922 20.156 39.1135 20.3655C39.2423 20.5064 39.5117 20.6736 39.5739 20.8547C39.6 20.9305 39.7801 21.2218 39.8472 21.2745C39.9769 21.3765 40.0085 21.5923 40.1356 21.708C40.1751 21.7441 40.3005 21.9838 40.3124 22.0386C40.3425 22.1769 40.266 22.1867 40.1923 22.0693C39.9478 21.6795 39.8024 21.2612 39.5138 20.8956C39.124 20.4017 38.6829 20.2649 38.1097 20.0842C37.924 20.0256 37.508 19.869 37.391 19.6902C37.0896 19.2298 36.4884 18.9731 36.0634 18.6314C35.4448 18.1342 34.8021 17.7094 34.0598 17.4081C33.7618 17.2871 33.4999 17.0683 33.198 16.9538C32.7246 16.7743 32.269 16.5199 31.7913 16.3338C31.1125 16.0694 30.4369 15.7909 29.7539 15.5394C29.3981 15.4084 29.0804 15.167 28.72 15.0294C28.3156 14.875 27.913 14.7946 27.5045 14.6643C26.786 14.4351 26.0054 14.4999 25.2982 14.2646C24.6474 14.048 23.9423 14.0028 23.28 13.8194C22.491 13.6009 21.6937 13.2956 20.8808 13.1902C20.5027 13.1412 20.2206 13.1651 19.906 12.9554C19.8524 12.9197 19.467 12.8103 19.5689 12.7359C19.8559 12.5263 20.4594 12.5298 20.8039 12.4956C21.3446 12.442 21.879 12.487 22.4204 12.5319C23.9594 12.6596 25.3993 13.0936 26.835 13.6508C27.2682 13.819 27.6901 14.0107 28.1346 14.149C28.4204 14.238 28.7285 14.2901 29.002 14.4153C29.2558 14.5314 29.4389 14.7464 29.7168 14.8218C29.9445 14.8835 30.1636 14.9206 30.3992 14.9357C30.6807 14.9537 30.5724 14.83 30.4183 14.6368C29.9782 14.085 29.2533 13.9507 28.6344 13.6733C27.6013 13.2105 26.57 12.7941 25.4705 12.5195C24.6915 12.3249 23.9812 11.9656 23.1803 11.8334C22.9324 11.7925 22.7333 11.6924 22.4981 11.6173C21.2564 11.2212 25.0481 12.1623 26.3087 12.4933C27.3283 12.7609 28.42 12.9954 29.3763 13.4558C29.7421 13.6319 29.8724 13.8821 30.1431 14.1466C30.5755 14.569 31.0754 14.469 31.5778 14.679C31.6739 14.7191 31.7129 14.8432 31.7468 14.9325C31.8974 15.3293 30.5147 14.6294 30.4557 14.6008C28.8433 13.8217 27.2494 13.3194 25.5143 12.8831C24.8506 12.7162 24.341 12.4219 23.7169 12.1806C23.3175 12.0262 22.9956 11.6632 22.5747 11.568C22.4352 11.5364 22.2784 11.5426 22.1363 11.5335" stroke="#FF5539" stroke-width="2" stroke-linecap="round"/>
<path d="M32.8456 5.83898C32.7271 5.83141 32.4216 5.80837 32.5436 5.61851C32.6327 5.47981 33.0628 5.43978 33.2138 5.473C33.5878 5.55525 34.1142 5.66805 34.4755 5.51538C34.514 5.49913 34.6401 5.49397 34.5984 5.49131C34.4078 5.47912 34.2168 5.46178 34.0258 5.45788C33.9943 5.45723 33.4418 5.53656 33.6561 5.34802C33.8748 5.15557 34.3051 5.19392 34.5687 5.15734C35.0062 5.09662 35.4504 5.14211 35.8834 5.06901C36.4544 4.97264 36.8633 5.28774 37.3487 5.52353C37.715 5.70148 38.2362 5.93407 38.475 6.28524C38.6299 6.51308 38.7352 6.76187 38.9226 6.97481C39.1084 7.18608 39.4349 7.39148 39.5565 7.64756C39.631 7.8046 39.8885 8.09554 40.0226 8.19782C40.2584 8.37778 40.3912 8.70965 40.5526 8.94694C40.846 9.37848 41.3239 9.81151 41.4806 10.3122C41.6257 10.7758 42.0409 11.3052 42.3321 11.6758C42.4137 11.7796 42.4371 11.9294 42.4516 12.0538C42.4659 12.1764 42.6126 12.3196 42.6566 12.4437C42.7703 12.7641 42.9595 13.0648 43.1404 13.3655C43.5775 14.0919 43.8683 15.0155 43.8148 15.8512C43.7886 16.2612 43.8739 15.734 43.8895 15.5814C43.8982 15.497 44.0019 15.5127 44.0575 15.4517C44.1462 15.3542 44.0101 15.5887 43.9856 15.677C43.9271 15.8881 43.9284 16.2033 43.6497 16.1855C43.3175 16.1643 43.6613 16.366 43.7191 16.4486C43.8938 16.698 43.5787 16.5826 43.4291 16.4907C43.2658 16.3904 43.1703 16.1934 42.9952 16.0862C42.7789 15.9537 42.6747 15.7755 42.5228 15.5834C42.284 15.2813 42.2729 14.796 41.9437 14.5533C41.5714 14.2789 41.2531 13.983 40.914 13.6797C40.707 13.4944 40.5398 13.1236 40.429 12.876C40.3086 12.6067 40.0694 12.3853 39.8832 12.1737C39.4349 11.6641 38.9635 11.1885 38.5264 10.6725C38.3262 10.436 38.2218 10.1761 38.0145 9.94046C37.8857 9.79413 37.5904 9.47345 37.413 9.41027C36.9081 9.23044 36.381 8.87881 35.9615 8.54155C35.7152 8.34354 35.5221 8.07745 35.2626 7.88699C34.9781 7.67818 34.6083 7.4732 34.2669 7.37949C34.0122 7.30958 33.4479 7.17874 33.292 6.94675C32.8661 6.31309 34.1101 6.16407 34.4875 6.17708C35.4302 6.20959 36.2694 6.83313 37.0342 7.34575C37.7108 7.79926 38.4223 8.26033 38.8517 8.98184C39.2392 9.63297 39.6839 10.2898 40.1409 10.8907C40.4294 11.2699 40.6004 11.7219 40.8011 12.1494C40.9444 12.4545 41.1186 12.6978 41.2121 13.0123C41.2689 13.2032 41.4217 13.3873 41.5017 13.5768C41.7289 14.1145 42.0265 14.6538 42.4003 15.103C42.6115 15.3568 42.7714 15.5334 43.0201 15.7461C43.2625 15.9534 43.5111 16.1815 43.721 16.4199C43.9206 16.6469 43.9804 16.8569 44.0088 16.4128C44.0258 16.1463 44.1825 15.5461 44.0231 15.2898C43.9179 15.1206 43.8228 15.1766 43.63 15.1465C43.2084 15.0809 42.9164 14.5513 42.6983 14.2376C42.1431 13.439 41.6712 12.8036 40.8708 12.2592C40.5221 12.0222 40.22 11.752 39.8983 11.4882C39.5824 11.2292 39.1607 11.1276 38.8326 10.8772C38.4903 10.616 38.1369 10.3611 37.7761 10.1232C37.4549 9.91137 37.5657 9.67179 37.5622 9.32403C37.5553 8.63722 37.67 7.97479 37.6949 7.2986C37.7045 7.03978 37.5261 6.78409 37.4563 6.53619C37.3761 6.25133 37.2707 6.02457 37.2786 5.7202C37.2842 5.5079 37.2477 5.30441 37.2615 5.09009C37.2772 4.84313 37.0863 5.2889 37.0748 5.36233C36.9992 5.84746 37.2001 6.36722 37.3193 6.83076C37.4744 7.43359 37.5819 8.04163 37.7462 8.64293C37.8234 8.92537 37.9147 9.21323 37.9692 9.50013C38.0143 9.73753 38.2245 9.91102 38.3651 10.1002C38.8163 10.7075 39.1361 11.3927 39.638 11.9633" stroke="#FF5539" stroke-width="2" stroke-linecap="round"/>
<path d="M31.8557 5.65355C31.8067 5.65042 31.4684 5.70106 31.4553 5.64073C31.4291 5.52059 31.2422 5.528 31.1448 5.52177" stroke="#FF5539" stroke-width="2" stroke-linecap="round"/>
<path d="M49.8184 9.15369C49.834 8.9102 49.6224 8.65867 49.5529 8.4334C49.4334 8.04671 49.3419 7.5421 49.0689 7.23176C48.7938 6.91906 48.5264 6.67101 48.171 6.44655C48.0311 6.35826 47.9167 6.27734 47.7853 6.17707C47.6691 6.08835 47.5831 5.94564 47.4645 5.86944C47.3839 5.81769 47.2001 5.70326 47.1689 5.61907C47.0467 5.28871 47.4251 5.60425 47.5367 5.68042C47.7583 5.83163 47.9976 5.85445 48.2135 6.02418C48.4085 6.17738 48.5808 6.36901 48.7882 6.50383C48.9959 6.63877 49.2813 6.74434 49.4388 6.94606C49.5514 7.09036 49.6569 7.24359 49.7711 7.38796C49.9321 7.5916 50.1091 7.78104 50.2762 7.98112C50.3991 8.12832 50.5872 8.3849 50.616 8.58375C50.6468 8.79649 50.7651 9.00589 50.7723 9.23696C50.7845 9.62823 50.7723 10.0842 50.4625 10.3567C50.1819 10.6035 49.9536 10.7743 49.6269 10.8952C49.4191 10.9721 49.3717 10.5296 49.3771 10.4163C49.3956 10.0241 49.1803 9.76262 49.022 9.42547C48.8005 8.95364 48.3642 8.59241 48.2355 8.08207C48.1811 7.86637 48.1539 7.59871 48.0472 7.40679C47.9645 7.25793 47.4864 6.90637 47.8758 6.88615C48.3367 6.86221 48.8941 6.80808 49.2072 7.19164C49.4135 7.4445 49.7942 7.45148 50.0363 7.62526C50.1961 7.7399 50.2213 7.4464 50.2992 7.58643C50.4937 7.93621 50.7205 8.27569 50.9345 8.61525C51.0412 8.7845 51.0407 9.06116 51.0093 9.25434C50.9847 9.4058 50.9149 9.53616 50.8512 9.67378C50.7901 9.80567 50.7919 9.93571 50.7437 10.0675C50.6491 10.3258 50.3263 10.4275 50.0879 10.4729C49.8427 10.5196 49.3123 10.7451 49.1109 10.5061C49.0025 10.3775 48.9204 10.3402 48.8712 10.1837C48.8372 10.0759 48.8061 9.94604 48.7525 9.84668C48.6862 9.72381 48.8249 9.37058 48.9627 9.37939" stroke="#FF5539" stroke-width="2" stroke-linecap="round"/>
<path d="M65.1967 7.9281C64.9601 8.27086 65.0799 8.63642 65.4363 8.65922C65.864 8.68657 66.2433 8.35293 66.2661 7.99649C66.2934 7.56876 66.1691 7.27449 66.0265 7.26537C65.8126 7.25169 65.438 7.51405 65.1967 7.9281Z" fill="black"/>
<path d="M59.2202 11.8406C59.4112 12.2108 59.7449 12.59 59.9587 12.6037C60.1013 12.6128 60.2667 12.2655 60.2895 11.909C60.3169 11.4813 59.9787 11.1733 59.5509 11.146C59.1945 11.1232 59.0337 11.3992 59.2202 11.8406Z" fill="black"/>
<path d="M66.6599 13.0323C66.6371 13.3887 66.9707 13.768 67.3984 13.7953C67.7549 13.8181 67.9202 13.4708 67.7292 13.1007C67.5427 12.6593 67.2045 12.3513 66.9906 12.3377C66.848 12.3285 66.6872 12.6046 66.6599 13.0323Z" fill="black"/>
<path d="M22.1316 37.7425C22.0951 38.3128 22.2058 38.821 22.3484 38.8301C22.491 38.8392 22.808 38.3584 23.1297 37.8064C23.38 37.2497 23.2693 36.7416 22.9129 36.7188C22.4852 36.6915 22.1681 37.1722 22.1316 37.7425Z" fill="black"/>
<path d="M25.6686 38.3982C25.6458 38.7546 25.9931 38.92 26.3632 38.729C26.8046 38.5424 27.1126 38.2042 27.1263 37.9904C27.1354 37.8478 26.8593 37.687 26.4316 37.6596C26.0752 37.6368 25.6959 37.9705 25.6686 38.3982Z" fill="black"/>
<path d="M29.5941 38.5777C29.3574 38.9205 29.4772 39.286 29.8336 39.3088C30.2614 39.3362 30.6406 39.0025 30.6634 38.6461C30.6908 38.2184 30.5664 37.9241 30.4238 37.915C30.21 37.9013 29.8353 38.1636 29.5941 38.5777Z" fill="black"/>
<path d="M7.08814 37.9256C7.06534 38.2821 7.41267 38.4475 7.78278 38.2564C8.22419 38.0699 8.53214 37.7317 8.54582 37.5178C8.55494 37.3752 8.27891 37.2144 7.85118 37.1871C7.49474 37.1643 7.1155 37.4979 7.08814 37.9256Z" fill="black"/>
<path d="M17.6537 40.6056C17.6263 41.0334 17.8795 41.5506 18.2936 41.7918C18.7076 42.0331 18.7972 41.7525 18.6198 41.1685C18.2028 39.8534 17.7175 39.6076 17.6537 40.6056Z" fill="black"/>
<path d="M21.635 42.1487C21.3362 42.3443 21.0858 42.9009 21.0585 43.3287C21.0311 43.7564 21.3921 43.7079 21.9231 43.2408C22.3782 42.8404 22.6285 42.2838 22.4996 42.0608C22.2994 41.8333 21.8671 41.8772 21.635 42.1487Z" fill="black"/>
<path d="M7.17096 42.2257C6.85845 42.6352 6.75981 43.0584 6.95999 43.2859C7.08889 43.5089 7.46813 43.1753 7.72303 42.5474C8.29956 41.3674 7.8855 41.1261 7.17096 42.2257Z" fill="black"/>
<path d="M32.7937 44.5087C32.9848 44.8788 33.5323 45.2717 33.8887 45.2945C34.3165 45.3219 34.4106 44.97 34.2195 44.5999C34.033 44.1585 33.4809 43.8369 33.1245 43.8141C32.6967 43.7867 32.6072 44.0673 32.7937 44.5087Z" fill="black"/>
<path d="M14.1676 44.7491C14.3586 45.1192 14.6923 45.4984 14.9061 45.5121C15.0487 45.5212 15.2141 45.1739 15.2369 44.8174C15.2642 44.3897 14.926 44.0818 14.4983 44.0544C14.1419 44.0316 13.9811 44.3076 14.1676 44.7491Z" fill="black"/>
<path d="M63.4104 4.52121C63.0842 5.14456 62.1969 5.58887 61.4127 5.53871C60.6285 5.48856 59.955 5.94654 59.9185 6.51684C59.841 7.72874 55.6756 10.1824 53.8934 10.0684C53.2518 10.0273 52.5846 9.26886 52.4254 8.39973C51.9873 6.29589 52.1345 6.23372 54.4049 7.66737C55.509 8.31063 56.5601 8.66417 56.7118 8.53072C57.9254 7.46306 46.5334 3.15546 41.6858 2.84541C34.058 2.35755 22.0202 7.02769 15.2561 13.1804C10.5399 17.5314 5.42116 25.9368 3.82171 31.9188C3.24352 34.2439 2.24216 36.4704 1.71579 36.8662C1.03772 37.3955 0.567289 39.1549 0.375791 42.149C-0.0208831 48.3511 0.669201 48.7531 11.7296 48.1721C16.3953 47.9694 23.1146 48.1129 27.3782 48.6003C37.8211 49.8409 37.4418 50.1745 38.2033 38.2694L38.8097 28.7881L41.9775 22.9064C43.7601 19.6562 45.9174 16.1436 46.77 15.1244C48.7118 12.7433 53.135 10.7357 55.8439 10.9089C57.6928 11.0988 57.7596 11.1746 56.493 11.9525C55.2976 12.7351 55.2885 12.8776 56.3305 13.3737C57.0251 13.7045 57.2692 14.3643 57.0007 15.2061C56.7321 16.0479 56.9899 16.4939 57.7786 16.4727C58.4202 16.5138 58.8297 16.8263 58.7311 17.2494C58.6278 17.7439 59.1132 17.9897 59.911 17.826C60.8515 17.6714 61.4748 17.9976 61.7144 18.7287C62.0737 19.8254 62.145 19.8299 63.0688 18.8153C63.618 18.0631 64.563 17.8372 65.4761 18.1103C66.5271 18.4639 67.0444 18.2106 67.3934 17.2308C67.6711 16.2465 68.1929 15.9219 69.0256 16.3331C69.8628 16.673 70.0858 16.5441 69.7795 15.7371C69.3671 14.3507 70.2076 12.4002 71.0266 13.0253C71.3694 13.2619 71.6682 13.0663 71.691 12.7099C71.7184 12.2821 71.3847 11.9029 70.957 11.8755C70.5293 11.8482 70.361 11.1216 70.5628 10.204C70.7693 9.21507 70.3962 8.33226 69.5014 7.77397C68.7446 7.29608 68.2153 6.61801 68.3094 6.26613C68.4035 5.91425 67.6421 5.50766 66.6487 5.37254C65.6506 5.3087 64.6087 4.81258 64.3554 4.29533C64.0355 3.70223 63.7457 3.75528 63.4104 4.52121ZM45.1271 4.99817C46.9727 7.47834 48.2173 12.6401 47.2222 13.6502C45.9145 15.0697 45.6431 14.8376 43.7187 11.3503C42.7543 9.64225 41.1801 7.39418 40.2459 6.33231C39.3072 5.34173 38.5868 4.29354 38.6096 3.9371C38.6826 2.79649 44.1353 3.71788 45.1271 4.99817ZM39.3329 6.05917C41.7169 9.07484 45.0864 14.5872 45.0272 15.514C44.9998 15.9417 44.6645 16.7077 44.2716 17.2552C43.6466 18.0741 42.8276 17.4491 40.3814 14.2863C38.6602 12.1004 35.7013 9.11957 33.8586 7.71328L30.4492 5.06151L32.914 4.57494C36.7653 3.67598 37.5403 3.86871 39.3329 6.05917ZM50.196 6.32448C52.0918 8.02049 52.3297 9.89678 50.8886 11.1646C49.4475 12.4325 48.9667 12.1154 47.4261 8.22314C46.063 4.91486 46.0858 4.55842 47.1551 4.62682C47.868 4.67241 49.1814 5.40063 50.196 6.32448ZM66.9761 6.96823C70.2172 8.89344 70.5247 11.9195 67.9049 14.8298C64.8966 18.2164 60.0975 18.2674 58.2354 14.9272C57.3998 13.4421 57.365 12.8673 58.3664 10.6408C59.4664 7.9911 62.2682 5.59343 64.0504 5.70741C64.6207 5.74389 65.9432 6.32953 66.9761 6.96823ZM34.1466 8.8054C37.6273 11.4617 42.7198 18.0149 42.6149 19.6545C42.5055 21.3654 42.0247 21.0483 38.3273 17.3045C34.8968 13.864 27.4 9.08969 24.9762 8.93467C23.7688 8.78587 23.8492 8.64785 25.4238 7.5317C27.904 5.6861 30.5279 6.06866 34.1466 8.8054ZM29.188 11.3514C34.3841 14.0459 41.9974 21.4761 40.708 22.6105C40.4759 22.8819 39.7145 22.4753 39.1139 21.7927C36.7602 19.4232 29.0524 15.7091 24.1124 14.6058C16.4953 12.8302 16.5621 12.906 19.426 10.6555C22.2142 8.47169 23.7112 8.56744 29.188 11.3514ZM26.2539 15.8165C31.5185 17.4416 36.5584 20.3408 38.7513 22.9864C41.0109 25.7078 39.9855 26.0717 36.0983 24.1767C31.5209 21.8797 24.0025 19.6809 17.4138 18.6153L11.8139 17.7561L13.5099 15.8603C14.898 14.3028 15.7004 14.0678 18.4806 14.2456C20.3341 14.3641 23.7953 15.0866 26.2539 15.8165ZM29.8357 22.4877C37.1796 25.1764 38.6311 25.985 38.5353 27.4821C38.4852 28.2662 37.9725 28.4482 36.9214 28.0947C23.2921 24.0734 21.1004 23.6469 14.51 23.7265L7.84829 23.8015L8.81317 22.1453C10.9705 18.6327 11.1176 18.5705 17.5775 19.4132C20.9098 19.9126 26.4777 21.2708 29.8357 22.4877ZM28.3685 26.4023C36.8758 28.8075 38.4744 29.554 37.8979 30.734C37.5671 31.4286 36.6312 31.5119 33.8071 30.9018C25.1207 29.0578 11.6593 29.1274 5.81032 31.0438C4.64236 31.3986 4.58019 31.2515 5.10366 29.7818C6.91532 24.9587 7.29456 24.625 12.2408 24.5119C20.4845 24.3233 21.478 24.4585 28.3685 26.4023ZM36.3005 32.2066C37.0619 32.6132 37.4303 33.5673 37.3209 35.2782C37.1431 38.0584 37.6467 38.019 30.8457 35.7946C27.835 34.7431 11.3447 34.0463 6.43325 34.7342C4.69953 34.9813 4.42806 34.7492 4.50557 33.5373C4.58308 32.3254 5.39917 31.8765 8.44798 31.2125C10.4805 30.7699 13.0166 30.2879 14.0284 30.1379C16.6266 29.803 34.8445 31.4692 36.3005 32.2066ZM34.4341 37.8852C36.7759 39.3234 37.6599 41.1694 37.4593 44.3061C37.204 48.2982 36.036 48.653 26.1452 47.7341C21.3021 47.3527 14.5115 47.2047 10.9152 47.4758C1.92669 48.1177 0.746712 47.5412 1.09323 42.1233C1.47623 36.1351 2.88998 35.295 13.7092 35.128C19.6535 35.0787 32.5019 36.7595 34.4341 37.8852Z" fill="black"/>
</svg>
