<svg width="665" height="957" viewBox="0 0 665 957" fill="none" xmlns="http://www.w3.org/2000/svg">
<g clip-path="url(#clip0_93_127)">
<path d="M186.569 296.724C186.519 298.725 187.337 301.211 188.675 303.367C191.717 308.022 195.138 309.444 200.694 308.421L204.889 307.649L213.393 313.35C220.021 317.696 225.455 320.564 237.864 326.073C251.209 332.113 255.181 334.194 261.47 338.604L269.016 343.953L260.974 346.312C244.526 350.98 231.611 357.048 221.461 364.775C213.431 370.823 211.504 373.697 212.793 377.855C213.286 379.639 214.577 381.569 215.674 382.305C218.828 384.42 221.478 383.58 227.154 378.376C238.102 368.568 254.323 361.423 274.595 357.575L285.594 355.551L290.257 358.677C295.058 361.895 312.377 375.055 318.375 380.045L321.741 382.883L293.076 387.982C263.572 393.295 249.908 396.923 232.458 403.825C220.124 408.732 218.479 410.148 219.477 414.886C220.33 418.655 222.804 420.895 226.28 420.9C227.393 420.871 233.689 418.892 240.118 416.42C258.883 409.333 275.4 404.712 294.359 401.34C310.415 398.444 332.695 395.457 337.444 395.637C339.398 395.688 342.919 398.145 370.259 418.895L377.969 424.742L368.412 430.251C355.488 437.668 348.516 440.357 336.677 442.302C327.695 443.838 310.442 444.962 305.779 444.355C304.756 444.251 300.407 443.176 296.216 442.014C285.306 438.865 273.048 437.43 266.994 438.602C262.617 439.349 261.886 446.222 265.864 448.889C268.195 450.452 280.35 453.078 290.287 454.12C294.562 454.564 300.208 455.927 303.492 457.257C313.957 461.366 333.913 472.225 346.188 480.454C357.435 487.993 368.398 496.698 368.731 498.278C368.873 498.955 358.561 501.439 329.7 507.57L318.887 509.912L314.666 505.532C305.42 495.749 294.545 489.138 261.183 473.07C240.851 463.218 224.74 453 218.243 445.641C214.523 441.403 214.043 441.081 211.794 441.027C206.818 440.888 203.626 446.983 206.394 451.454C211.724 460.258 228.046 471.2 254.969 483.823C277.374 494.29 291.894 501.989 299.601 507.543L305.913 512.065L298.537 512.836C294.498 513.228 285.105 514.488 277.687 515.619L264.213 517.63L244.715 504.753C233.972 497.648 219.774 487.839 213.095 482.975L201.017 474.006L198.137 474.595C193.035 475.534 190.661 481.595 193.745 485.891C194.437 486.936 205.641 494.835 220.249 504.627L245.51 521.658L223.112 526.6C210.803 529.392 192.214 533.399 181.898 535.591L163.058 539.527L159.602 536.823C155.437 533.546 151.571 533.086 147.482 535.479C144.07 537.455 142.905 539.193 142.35 542.986C141.588 548.869 146.207 554.581 152.713 555.552C157.035 556.221 159.458 555.424 162.042 552.311C164.356 549.6 165.421 549.346 207.192 541.6L249.87 533.687L242.395 545.727C238.3 552.281 234.947 558.172 234.929 558.644C234.911 559.116 232.861 563.36 230.246 568.002C224.172 579.139 223.403 581.917 224.633 587.199C225.463 590.855 226.085 591.853 228.209 592.986C230.013 594.002 231.582 594.182 233.28 593.576C235.816 592.758 235.861 592.691 238.693 584.611C242.192 574.944 245.267 568.577 253.627 554.031C257.024 548.074 261.177 540.395 262.94 537.024L266.063 530.883L276.951 529.172C282.895 528.313 292.126 526.848 297.39 526.114L307.054 524.746L303.852 529.671C302.015 532.411 299.176 537.387 297.413 540.758C295.719 544.175 284.169 562.59 271.65 581.71C250.309 614.583 248.989 616.701 249.327 618.865C249.811 621.999 252.926 624.765 256.383 625.242C261.159 625.828 262.799 623.827 279.211 598.307C298.311 568.776 308.11 550.157 315.573 529.682L318.01 523.081L343.026 518.829C356.794 516.529 368.248 514.714 368.499 514.785C368.773 514.969 367.756 517.969 366.336 521.57C362.518 531.12 355.739 539.751 336.366 559.605C327.614 568.657 317.576 578.59 314.062 581.757C310.548 584.923 307.06 588.494 306.253 589.697C304.596 592.17 305.129 595.822 307.493 598.375C311.302 602.479 325.075 600.765 344.727 593.691C363.178 587.073 369.161 585.562 381.937 584.148C388.495 583.41 397.208 582.275 401.29 581.524L408.684 580.28L405.176 586.551C403.299 589.943 398.611 598.716 394.84 605.973C391 613.183 387.785 619.165 387.672 619.186C387.49 619.161 384.623 618.693 381.324 618.128C372.906 616.747 369.773 616.972 345.279 621.187C307.722 627.689 277.55 632.069 270.826 632.018C263.487 631.845 261.544 632.964 260.633 637.585C259.162 645.415 266.072 648.303 279.699 645.619C283.826 644.801 292.651 643.646 299.347 643C305.997 642.42 323.691 639.75 338.568 637.129C364.468 632.597 378.148 630.724 379.588 631.69C379.931 631.919 375.545 639.055 368.376 649.749L356.502 667.461L350.044 666.716C346.542 666.306 339.955 666.347 335.416 666.889C316.491 669.024 301.964 670.233 294.628 670.352C290.335 670.381 285.841 670.856 284.71 671.357C280.207 673.182 280.183 680.335 284.641 683.323C288.344 685.806 297.064 685.548 322.092 682.466C343.941 679.676 348.345 679.334 348.285 680.165C348.266 680.637 342.752 688.566 335.933 697.848C323.15 715.435 314.71 728.766 310.302 738.308L307.764 743.872L303.659 744.511C298.419 745.358 295.538 748.173 294.878 752.865C293.739 762.274 303.551 769.433 311.368 764.889C316.204 762.124 317.469 758.903 316.248 752.272C315.817 749.949 316.054 748.558 316.866 747.939C323.186 743.554 346.964 713.865 354.093 701.303L358.118 694.41L360.671 705.132C362.113 711.136 364.46 719.2 365.883 723.157C367.351 727.047 369.476 733.218 370.576 736.766C372.963 744.178 375.353 747.137 379.079 747.213C388.008 747.386 388.477 739.272 380.721 721.188C378.143 715.1 374.75 704.592 372.366 694.952L368.218 678.899L371.435 673.209C373.133 670.085 377.784 662.256 381.677 655.856L388.814 644.171L392.372 660.216C394.271 668.948 397.624 682.628 399.742 690.441C401.86 698.255 405.201 712.992 407.227 723.166C409.229 733.227 411.453 742.661 412.191 743.932C415.54 749.761 419.488 751.729 423.031 749.261C424.566 748.158 425.008 746.905 425.579 742.347C426.171 737.609 425.563 733.326 421.353 715.585C418.654 703.895 415.205 689.764 413.584 684.027C411.987 678.403 409.166 665.856 407.259 656.246C405.352 646.636 402.804 636.499 401.598 633.85L399.325 628.936L407.322 616.859C411.758 610.242 417.061 601.59 419.182 597.684C421.304 593.778 423.228 590.612 423.455 590.57C424.362 590.403 433.37 606.323 436.782 614.133C444.024 630.613 445.256 640.933 443.068 664.363C441.641 679.391 442.008 682.253 445.506 684.598C449.209 687.08 454.222 686.275 456.462 682.933C457.314 681.663 460.038 674.189 462.509 666.351C468.665 646.937 470.623 642.534 477.881 631.706C485.991 619.608 491.343 613.701 497.465 610.055L502.434 607.09L503.01 610.382C503.322 612.141 505.19 622.403 507.177 633.229L510.767 652.783L505.448 659.68C498.4 668.711 490.241 678.064 476.518 692.308C468.802 700.408 462.196 708.186 455.509 716.975C450.169 724.052 443.95 731.993 441.681 734.637C439.208 737.436 437.371 740.177 437.155 741.388C436 746.523 441.305 752.695 445.93 751.726C449.194 751.008 454.566 744.922 469.24 725.405C476.42 715.881 485.986 703.984 490.528 698.988C499.027 689.572 509.97 674.433 512.326 668.843C513.593 665.915 513.733 666.299 517.358 684.617C520.881 701.898 520.987 703.519 519.453 704.622C516.068 707.002 503.703 723.223 495.87 735.798C491.147 743.288 486.26 750.281 483.764 752.967C478.795 758.452 478.297 761.121 481.627 764.903C484.956 768.685 489.165 769.375 493.433 766.715C496.188 764.977 497.849 762.797 510.772 743.075C518.565 731.152 525.2 721.552 525.405 721.69C527.188 722.885 533.335 746.188 538.594 771.704C542.068 788.467 545.593 803.522 546.266 805.038C547.47 807.395 547.454 808.16 545.976 810.365C544.542 812.504 544.394 813.762 545.155 817.372C545.963 821.207 546.425 822.001 549.306 823.932C559.867 831.012 571.574 819.776 564.458 809.483C563.284 807.825 561.588 806.203 560.517 805.873C557.577 804.773 554.578 795.013 548.817 766.835C545.798 752.508 542.272 737.453 540.894 733.43L538.394 726.038L550.116 733.315C556.536 737.231 563.275 741.264 565.1 742.1C566.925 742.936 573.777 746.948 580.379 750.89C592.122 757.986 592.372 758.057 595.115 757.377C596.678 756.972 598.395 755.894 599.022 754.959C600.68 752.486 601.385 747.727 600.345 745.867C598.519 742.512 584.814 734.487 566.632 726.173C558.282 722.32 556.317 721.099 549.588 715.716C545.467 712.373 539.794 708.085 537.05 706.246L531.976 702.844L528.36 685.404C526.408 675.861 525.039 667.969 525.379 667.906C525.651 667.798 529.884 671.12 534.806 675.195C539.66 679.223 554.004 690.001 566.628 699.045C590.734 716.465 598.844 721.417 607.27 723.675C616.039 726.163 621.935 722.558 620.529 715.61C619.7 711.954 617.524 710.011 610.659 707.055C599.848 702.424 588.445 695.265 555.361 672.408L521.385 648.954L519.432 636.891C516.61 619.305 515.087 607.046 515.722 606.988C516.856 606.779 542.479 618.822 551.157 623.67C567.164 632.56 577.797 642.498 584.318 654.716C588.687 662.876 592.114 664.883 597.244 662.122C602.533 659.274 602.516 654.999 597.247 645.364C594.45 640.195 588.366 623.619 583.424 607.712C578.038 590.539 574.075 570.058 574.648 563.273C575.006 560.219 575.366 557.457 575.5 557.257C575.635 557.056 585.439 563.338 597.166 571.199L618.631 585.589L618.19 591.881C617.634 600.42 619.179 615.019 622.727 634.932C624.358 644.066 626.124 658.038 626.675 665.963C627.712 682.062 628.729 688.847 631.021 695.808C633.098 701.754 634.973 703.108 639.962 702.19C645.858 701.105 646.591 699.271 644.626 690.785C642.709 682.524 638.745 652.258 637.744 637.442C636.962 626.746 633.298 609.081 629.632 598.388C628.51 595.02 627.734 592.175 627.961 592.133C628.142 592.158 633.402 595.878 639.511 600.554C645.665 605.164 654.541 611.792 659.231 615.324L667.832 621.768L669.081 626.577C669.697 629.218 670.582 636.496 671.004 642.688C671.736 655.386 676.73 684.115 678.88 688.172C681.841 693.838 687.142 694.679 690.278 690.001C691.936 687.527 691.788 686.266 687.245 664.426C682.868 643.376 681.494 634.898 682.3 633.695C682.435 633.495 689.681 638.255 698.211 644.361C712.412 654.462 729.549 665.078 741.304 671.118C744.796 672.878 745.118 673.287 744.678 674.833C744.391 675.706 744.708 678.05 745.315 679.813C748.44 688.496 759 690.537 764.886 683.536C770.142 677.178 765.611 666.293 757.425 665.456C755.742 665.297 754.875 664.812 754.228 663.7C753.65 662.635 752.142 661.624 749.383 660.549C747.194 659.663 740.848 656.378 735.343 653.172C724.289 646.827 688.22 622.938 687.982 621.81C687.839 621.133 699.262 618.328 724.246 613.085C738.121 610.18 744.884 607.061 748.29 601.981C751.426 597.302 749.235 591.377 743.837 589.793C741.4 589.128 740.427 589.541 733.899 593.497C731.821 594.816 727.133 596.324 722.711 597.137C718.629 597.889 711.832 599.726 707.666 601.195C703.5 602.665 695.568 604.711 690.105 605.892C684.617 606.96 678.339 608.467 676.164 609.044L672.245 610.292L657.759 598.837C649.772 592.514 643.248 587.269 643.156 587.11C643.177 586.931 649.168 586.297 656.478 585.772C700.378 582.263 728.73 577.631 744.21 571.443C748.555 569.706 749.858 568.06 749.506 564.433C749.281 562.248 748.682 561.362 746.213 559.707C743.058 557.592 736.89 556.266 734.81 557.294C728.139 560.572 701.24 565.112 666.633 568.845C657.192 569.879 644.691 571.476 638.84 572.495L628.157 574.343L607.99 560.242L587.867 546.074L594.353 542.478C616.386 530.22 642.245 528.567 671.767 537.314C677.234 538.944 682.582 540.011 683.761 539.735C686.867 539.105 688.902 535.625 688.457 531.84C687.966 527.829 686.568 526.504 678.811 522.951C664.574 516.313 649.867 508.004 635.009 498.141C619.465 487.818 601.982 474.16 603.43 473.484C603.859 473.288 613.843 472.036 625.688 470.677L647.245 468.174L655.817 473.921C660.549 477.093 669.137 482.075 674.89 485.06C689.111 492.462 705.639 503.541 718.142 514.248C723.729 518.962 732.927 526 738.687 529.862C748.655 536.64 749.18 536.895 751.674 536.436C753.602 536.082 754.775 535.221 756.298 532.949C758.942 529.005 758.041 525.011 753.995 522.298C752.487 521.287 744.702 514.809 736.686 507.788C719.83 493.195 714.753 489.501 691.79 475.27C681.965 469.168 675.426 464.687 675.65 464.353C675.943 464.065 681.317 463.017 687.621 461.916L699.076 460.101L707.366 464.786C738.083 482.278 737.671 482.002 751.322 493.962C754.002 496.34 754.572 496.528 757.747 495.944C761.942 495.172 765.108 491.191 764.371 487.694C763.42 483.181 760.123 480.389 740.807 467.538L722.338 455.351L735.623 452.437C761.082 446.932 805.38 434.971 810.397 432.231C812.137 431.266 813.25 431.237 814.69 432.203C819.422 435.375 826.223 433.83 829.538 428.884C832.989 423.738 830.093 415.306 824.146 413.353C818.312 411.38 814.077 412.804 810.943 417.775C809.196 420.382 808.766 420.578 805.9 420.11C802.556 419.612 800.267 420.209 780.446 426.2C769.823 429.444 721.125 439.812 720.935 438.91C720.888 438.684 723.344 434.131 726.382 428.708C729.353 423.24 733.703 414.822 735.906 409.905C738.178 405.034 741.208 398.734 742.705 396.056C744.178 393.265 745.422 390.224 745.572 389.259C745.924 385.62 744.681 381.396 742.898 380.2C740.84 378.821 736.099 379.518 732.917 381.744C729.532 384.125 725.349 391.106 720.503 402.486C715.123 414.96 707.659 428.17 701.307 436.311L696.704 442.139L683.51 444.919C676.301 446.48 670.36 447.632 670.404 447.565C670.381 447.452 674.329 442.155 679.108 435.768C691.987 418.632 710.716 390.693 719.345 375.746C725.962 364.391 727.053 362.022 727.65 357.87C728.508 352.438 727.308 350.374 722.273 348.84C715.643 346.72 713.391 348.892 707.049 362.95C699.328 380.25 686.057 399.157 659.819 430.587C653.013 438.812 646.231 447.15 644.841 449.222C642.353 452.786 642.106 453.007 636.481 453.983C622.714 456.283 592.096 459.105 591.814 458.044C591.671 457.367 595.205 451.501 600.919 443.126C611.652 427.264 614.238 424.444 639.73 400.651C648.49 392.477 656.346 384.761 657.197 383.491C659.303 380.35 658.009 375.608 654.306 373.125C650.809 370.78 649.153 371.027 643.057 375.078C635.042 380.362 625.848 383.401 604.853 387.734C594.469 389.879 584.858 392.058 583.727 392.559C581.328 393.47 564.1 394.999 563.072 394.31C562.66 394.034 567.296 386.97 574.695 376.526L587.049 359.136L596.375 355.603C609.458 350.617 614.352 349.248 637.09 344.243C661.301 338.967 670.652 338.066 683.279 340.137C700.273 342.81 702.433 342.999 706.971 342.457C710.76 341.994 711.664 341.534 713.233 339.195C714.666 337.056 714.903 335.665 714.401 333.003C713.54 328.357 710.913 326.79 703.3 326.433C699.959 326.228 691.475 325.094 684.444 323.868C677.413 322.642 669.976 321.726 667.933 321.809C655.626 322.375 634.834 326.552 615.037 332.657L605.297 335.621L609.053 329.129C611.108 325.47 614.487 319.984 616.524 316.797C620.13 311.27 620.536 310.961 626.956 307.612C647.258 297.196 665.09 292.391 677.556 294.257C681.446 294.83 685.536 294.956 686.578 294.589C689.52 293.461 691.373 289.956 690.908 286.35C690.633 283.647 690.034 282.761 687.702 281.198C680.433 276.325 665.307 276.648 648.16 281.913L640.526 284.255L646.029 275.156C648.981 270.16 654.479 260.476 658.163 253.646C661.916 246.862 667.508 237.629 670.648 233.243C676.23 225.36 676.388 225.272 679.766 224.534C682.872 223.903 683.526 223.373 685.901 219.83C688.455 216.021 688.587 215.528 687.62 211.78C686.701 208.257 686.126 207.484 682.903 205.324C678.308 202.243 673.604 201.996 670.129 204.51C667.376 206.54 665.368 210.426 665.285 213.664C665.325 215.531 664.877 216.199 661.495 218.873C656.784 222.787 650.242 232.545 645.412 243.161C641.449 251.742 619.291 287.167 618.531 286.076C618.278 285.713 616.466 276.554 614.455 265.615C611.679 250.482 609.933 243.596 606.956 236.175C604.164 229.072 602.522 226.034 600.945 224.977C597.31 222.54 591.404 224.975 589.789 229.608C589.392 230.794 590.363 235.127 592.396 241.14C597.351 255.99 603.606 288.471 603.309 297.96C603.144 302.209 603.204 306.123 603.481 306.6C603.853 307.527 586.94 332.906 584.483 334.94C583.13 336.068 582.94 335.165 582.736 325.535C582.397 313.585 580.313 302.016 576.797 292.878C575.493 289.485 573.292 282.39 571.947 277.13C568.837 265.163 565.617 256.029 558.438 239.01C552.466 224.641 550.511 222.071 546.205 223.156C538.115 225.29 538.5 232.426 547.676 254.175C553.694 268.477 557.806 280.728 562.187 297.324C565.765 310.67 566.523 316.507 566.877 332.438C567.006 338.918 567.512 346.911 567.951 350.111L568.847 356.04L563.662 362.736C560.789 366.429 554.036 375.465 548.654 382.901C543.227 390.403 538.717 396.39 538.579 396.298C537.414 395.516 532.788 386.699 530.948 381.882C527.871 373.425 526.429 367.421 525.196 357.1C523.123 339.435 524.264 315.788 528.029 298.161C528.988 293.766 529.442 288.936 529.133 287.47C528.003 283.225 522.319 280.286 518.016 281.664C515.706 282.441 514.499 284.538 512.274 291.862C509.808 300.284 505.324 311.422 500.153 322.1C495.384 331.884 468.877 373.5 466.639 374.615C465.576 375.162 464.538 371.076 460.84 352.128L456.376 328.985L466.165 314.234C471.541 306.213 478.723 294.462 482.118 288.212C491.919 269.885 499.586 259.04 520.007 234.657C524.77 229.035 528.898 223.47 529.364 222.33C529.807 221.076 529.516 219.138 528.753 217.755C524.735 210.701 518.34 211.937 507.21 221.719C498.334 229.622 492.253 237.655 480.957 256.434C475.23 265.866 466.095 280.087 460.715 287.815L450.876 302.047L449.953 293.194C449.339 288.326 448.271 281.023 447.46 276.895L446.118 269.407L456.198 256.595C462.102 249.122 468.808 239.861 472.187 234.376C476.841 226.839 478.591 224.525 481.275 222.449C485.448 219.337 486.447 216.81 485.183 212.765C483.659 207.772 477.364 205.005 473.298 207.511C469.322 209.883 461.889 219.044 451.763 234.15C446.027 242.706 441.185 249.632 441.048 249.54C440.911 249.448 437.205 232.142 432.76 211.046C428.36 189.883 424.314 172.639 423.836 172.61C423.246 172.601 423.554 171.549 424.495 170.145C428.886 163.595 425.146 154.791 417.527 153.849C411 153.058 406.247 157.331 405.791 164.388C405.568 167.241 406.127 168.779 407.921 171.144C409.945 173.76 411.503 180.036 418.363 213.988C422.793 235.849 426.003 253.598 425.433 253.41C424.863 253.221 419.255 248.687 412.935 243.288C394.547 227.57 376.002 216.979 368.606 217.93C365.521 218.381 363.417 221.815 364.244 225.178C364.928 227.865 364.996 227.911 384.818 241.49C400.091 251.921 408.051 257.839 418.629 266.673L432.48 278.187L433.613 282.725C434.136 285.206 435.124 291.294 435.693 296.228C436.193 301.117 436.975 307.067 437.451 309.323C437.86 311.826 437.737 313.196 437.188 312.828C436.64 312.46 427.352 305.556 416.601 297.574C383.5 272.963 369.689 263.317 357.311 256.278C343.585 248.433 340.233 247.058 337.288 247.893C334.411 248.774 331.567 253.164 332.138 255.872C332.399 257.113 333.645 259.11 334.861 260.41C337.91 263.423 355.467 275.192 378.659 289.674C394.403 299.55 399.114 302.902 407.104 309.517C419.971 320.274 432.3 329.314 437.936 332.026L442.636 334.208L447.417 357.176L452.242 380.077L442.984 373.871C431.6 366.239 406.402 346.15 397.187 337.358C391.228 331.716 383.058 322.848 368.823 306.718C366.573 304.144 363.824 301.72 362.799 301.323C360.064 300.362 355.035 301.931 353.512 304.204C351.227 307.613 352.507 310.893 358.682 317.842C364.903 324.725 371.818 335.464 375.439 343.704C376.693 346.578 378.826 353.627 380.152 359.36C381.477 365.092 384.284 376.177 386.447 383.924C391.176 401.335 393.335 416.055 391.294 416.43C390.954 416.493 381.145 409.626 369.481 401.226L348.258 386.03L346.901 381.827C346.175 379.499 344.032 373.8 342.195 369.275C338.426 359.773 332.784 341.944 329.341 328.398C324.128 307.854 322.133 286.366 324.558 276.075C325.935 270.314 324.813 266.946 320.891 265.383C310.221 261.136 306.685 271.747 309.356 299.791C311.222 319.545 314.383 334.549 320.531 353.105L325.489 368.248L320.074 364.908C317.035 363.065 311.57 359.208 307.864 356.433C302.098 351.986 301.272 351.142 301.76 349.822C302.002 349.015 301.854 347.754 301.234 347.047C298.522 343.679 297.585 340.629 293.884 323.908C290.208 307.299 289.938 305.181 290.748 297.005C291.723 287.099 291.331 284.124 288.58 281.408C287.09 279.924 286.043 279.707 283.116 280.069C279.848 280.495 279.284 280.892 277.133 284.1C275.455 286.753 274.638 289.305 274.22 293.191C273.4 300.197 273.799 304.049 277.183 320.946L279.973 335.023L270.034 328.942C264.506 325.623 252.473 319.107 243.208 314.543C233.942 309.978 222.733 304.014 218.165 301.339C210.534 296.708 209.893 296.181 208.893 293.67C207.446 289.601 202.983 286.027 199.027 285.701C192.775 285.094 186.827 290.407 186.569 296.724ZM406.917 364.805C422.446 378.412 442.864 392.584 451.23 395.674L456.404 397.592L457.846 403.597C458.649 406.847 461.294 415.208 463.767 422.194C468.83 436.438 474.63 454.18 474.361 454.581C474.227 454.781 472.666 455.479 470.833 456.285C467.732 457.5 465.138 459.442 460.794 463.699C459.128 465.294 459.059 465.248 455.831 462.503C449.579 457.149 428.672 441.778 416.397 433.549L404.097 425.207L404.881 419.145C405.305 415.844 405.34 409.861 404.916 405.896C404.194 399.115 396.355 362.472 394.438 356.731C393.947 355.239 393.754 354.044 393.981 354.002C394.208 353.961 400.001 358.812 406.917 364.805ZM343.368 453.375C357.001 451.276 370.807 445.806 383.585 437.419L389.997 433.192L412.082 448.288C424.2 456.605 438.601 466.259 444.04 469.711L453.799 476.06L453.054 478.951L452.264 481.909L444.306 483.549C439.908 484.476 429.595 486.96 421.347 489.181C406.436 493.038 389.046 496.59 382.983 496.885L379.827 496.997L376.057 492.242C369.62 484.052 360.232 476.111 343.931 464.99L329.026 454.901L332.364 454.814C334.157 454.66 339.149 454.034 343.368 453.375ZM406.457 507.39C421.06 504.585 437.835 500.912 443.771 499.175L454.6 496.069L455.735 498.379L456.938 500.736L453.313 504.216C448.27 509.07 443.972 515.779 436.653 529.957C430.228 542.507 420.915 559.514 418.361 563.324C417.062 565.262 416.495 565.366 410.83 564.475C406.349 563.894 402.035 564.102 394.507 565.546C385.958 567.178 355.627 573.873 344.362 576.59C341.235 577.4 341.235 577.4 342.698 575.959C351.748 567.204 356.105 561.89 364.708 549.057C374.542 534.24 376.613 529.815 378.753 518.172C379.271 515.322 379.772 512.945 379.793 512.765C379.882 512.632 391.854 510.194 406.457 507.39ZM475.783 388.108C477.407 386.872 480.94 383.233 483.636 380.1C488.647 374.256 492.271 368.257 503.45 346.688C506.217 341.374 508.652 337.001 508.811 336.913C508.993 336.938 509.258 340.991 509.418 345.942C509.838 356.88 513.407 376.614 516.58 385.522C518.774 391.739 525.822 404.505 528.713 407.606L530.159 409.156L517.66 428.097C510.784 438.503 503.551 449.736 501.675 453.128C498.95 458.083 497.962 459.261 497.141 459.002C496.503 458.767 493.881 457.785 491.26 456.803L486.518 454.98L484.152 444.869C482.805 439.316 479.322 426.422 476.341 416.189C470.541 395.928 469.917 392.41 471.679 391.266C472.288 390.802 474.183 389.457 475.783 388.108ZM469.69 513.741C470.924 514.568 473.683 515.643 475.846 516.124L479.693 517.056L486.24 536.945C490.495 549.873 494.002 562.88 496.31 574.115L499.834 591.396L495.059 593.33C485.396 597.218 473.551 608.362 463.963 622.666L458.541 630.753L457.498 626.082C454.228 611.684 442.446 588.188 433.909 578.978C432.189 577.244 431.06 575.518 431.284 575.184C431.553 574.783 434.03 570.05 436.773 564.623C441.28 555.825 457.533 527.873 464.741 516.527L467.451 512.337L469.69 513.741ZM538.99 425.636C542.631 421.392 546.74 416.3 548.129 414.228C550.638 410.485 550.752 410.464 556.221 409.867C559.285 409.596 565.959 409.13 571.091 408.889C576.109 408.668 587.566 407.146 596.366 405.585C605.233 404.07 612.356 402.935 612.266 403.069C612.132 403.269 610.039 405.354 607.653 407.726C604.816 410.475 599.16 417.727 591.806 428.104C579.834 445.072 577.668 449.045 576.779 456.006C576.503 458.049 576.09 460 575.865 460.334C575.641 460.668 570.112 462.096 563.604 463.352C548.413 466.441 537.513 469.209 522.676 473.697C516.152 475.718 510.306 477.321 509.829 477.292C509.283 477.216 508.455 476.08 507.806 474.676L506.85 472.098L519.617 452.756C528.531 439.162 534.406 430.991 538.99 425.636ZM512.988 516.319C518.746 519.889 533.28 529.05 545.141 536.711C569.526 552.379 567.347 550.144 564.522 556.582C561.452 563.533 562.48 576.235 568.854 609.28L570.69 618.552L565.222 614.402C557.214 608.258 546.416 602.57 528.513 595.025L512.731 588.32L511.832 582.099C510.124 569.522 504.351 544.921 499.602 530.209L494.713 515.112L498.573 512.468L502.433 509.825L512.988 516.319ZM525.854 490.456C530.927 488.819 540.309 486.389 546.816 485.133C553.256 483.831 564.046 481.376 570.867 479.652C580.747 477.072 583.492 476.684 584.479 477.733C599.389 493.153 609.763 502.143 623.822 511.567L631.64 516.808L626.577 517.095C618.041 517.67 602.085 521.602 594.779 524.939C590.956 526.639 584.721 530.306 580.975 532.929L574.046 537.778L542.02 516.309L510.062 494.885L513.326 494.167C515.185 493.767 520.781 492.093 525.854 490.456Z" fill="#F1EDEC" fill-opacity="0.51"/>
<path d="M234.4 439.034C233.21 442.886 234.493 446.459 238.04 449.321C241.794 452.322 244.592 452.745 248.779 451.095C252.581 449.575 254.352 447.081 254.831 442.364C255.883 433.382 245.082 427.401 238.23 433.173C235.639 435.408 235.459 435.675 234.4 439.034Z" fill="#F1EDEC" fill-opacity="0.51"/>
<path d="M335.605 293.847C335.456 297.332 337.377 301.138 340.12 302.977C344.235 305.735 351.423 304.354 354.157 300.277C356.935 296.133 355.437 289.026 351.185 286.175C346.865 283.279 339.79 284.639 336.922 288.917C336.25 289.92 335.658 292.138 335.605 293.847Z" fill="#F1EDEC" fill-opacity="0.51"/>
<path d="M515 260.364C513.338 264.771 514.808 268.954 519.06 271.804C521.46 273.413 522.758 273.702 526.138 273.255C529.677 272.721 530.468 272.283 532.26 269.609C535.128 265.332 534.174 260.527 529.619 256.795C526.78 254.504 526.029 254.291 522.988 254.675C519.223 255.251 516.199 257.389 515 260.364Z" fill="#F1EDEC" fill-opacity="0.51"/>
<path d="M286.548 607.972C287.402 614.26 293.988 618.966 299.673 617.158C303.66 615.956 306.77 610.872 306.093 606.543C305.102 600.163 297.203 595.933 291.642 598.89C288.093 600.774 286.127 604.3 286.548 607.972Z" fill="#F1EDEC" fill-opacity="0.51"/>
<path d="M430.188 703.295C429.768 706.888 431.573 710.423 434.796 712.584C440.076 716.124 445.904 714.993 449.533 709.579C450.967 707.44 451.204 706.049 450.697 702.802C450.025 699.059 449.748 698.582 446.114 696.146C442.479 693.709 441.933 693.634 438.215 694.435C434.906 695.22 433.822 695.947 432.299 698.219C431.224 699.824 430.291 702.105 430.188 703.295Z" fill="#F1EDEC" fill-opacity="0.51"/>
<path d="M659.199 369.236C659.889 372.508 660.487 373.394 663.299 375.279C667.688 378.221 671.916 378.439 675.164 375.966C680.328 371.969 680.558 364.954 675.633 360.587C670.365 355.99 664.305 356.578 660.631 362.059C658.705 364.933 658.486 365.852 659.199 369.236Z" fill="#F1EDEC" fill-opacity="0.51"/>
<path d="M595.52 679.373C596.285 685.795 601.41 689.715 607.533 688.588C613.384 687.57 616.942 681.817 615.366 676.014C614.473 672.897 609.873 669.231 606.302 668.775C600.435 668.039 594.83 673.582 595.52 679.373Z" fill="#F1EDEC" fill-opacity="0.51"/>
</g>
<defs>
<clipPath id="clip0_93_127">
<rect width="683.983" height="700.956" fill="white" transform="translate(0 566.136) rotate(-56.1635)"/>
</clipPath>
</defs>
</svg>
