<svg width="681" height="668" viewBox="0 0 681 668" fill="none" xmlns="http://www.w3.org/2000/svg">
<g clip-path="url(#clip0_93_116)">
<path d="M145.267 60.2207C143.335 61.6765 141.639 64.2241 140.672 66.9614C138.707 73.0006 140.104 76.9385 145.522 80.8424L149.613 83.7902L151.036 95.2014C152.236 104.023 153.878 110.734 158.61 125.284C163.591 141.018 164.805 145.913 165.673 154.496L166.66 164.84L157.986 159.847C140.393 149.517 124.307 143.204 108.867 140.456C96.7135 138.233 92.4517 138.764 89.5522 142.957C88.2606 144.706 87.4686 147.235 87.6521 148.707C88.1797 152.941 91.0966 154.54 100.566 155.415C118.613 157.278 138.367 165.563 158.249 179.72L168.975 187.448L169.755 193.706C170.558 200.148 171.989 224.548 172.076 233.322L172.089 238.273L144.299 218C115.635 197.18 101.257 188.412 80.7479 178.913C66.2251 172.219 63.5679 171.896 59.887 176.279C57.0064 179.816 56.8705 183.571 59.6506 186.495C60.5697 187.409 67.4862 191.22 74.9745 194.772C96.7113 205.24 114.316 215.662 132.695 229.072C148.298 240.398 168.974 256.885 172.608 261.012C174.126 262.692 174.623 267.489 176.905 305.989L177.554 316.842L164.686 312.932C147.316 307.621 139.188 303.774 127.862 295.279C119.214 288.881 104.327 275.223 101.165 270.851C100.444 269.913 97.976 265.454 95.7176 261.063C89.9533 249.539 81.49 238.164 75.5301 233.954C71.3166 230.834 64.2315 235.362 64.8968 240.7C65.2868 243.828 72.5418 256.008 79.5176 265.138C82.523 269.062 85.7577 274.827 87.1314 278.581C91.6303 290.45 97.3499 315.344 99.403 331.816C101.284 346.908 101.835 362.633 100.608 364.095C100.082 364.721 89.4705 357.913 60.5484 338.248L49.6698 330.912L50.4297 324.089C52.2731 309 49.8129 294.914 38.2781 254.858C31.3044 230.401 28.0602 209.217 29.8136 198.251C30.8406 191.955 30.7603 191.311 29.0098 189.38C25.1542 185.094 16.833 186.972 14.8223 192.644C10.7664 203.709 13.4963 225.611 23.1298 257.681C31.1831 284.34 35.5354 302.301 36.458 312.933L37.2389 321.621L30.5999 316C26.9925 312.898 18.2755 305.948 11.263 300.56L-1.43492 290.741L-4.87913 264.723C-6.76756 250.379 -8.86743 231.109 -9.61799 221.857L-10.8135 204.997L-13.6771 203.018C-18.6533 199.433 -26.288 201.973 -27.8794 207.779C-28.3135 209.141 -26.8059 224.467 -24.3628 244.068L-20.2295 278.038L-42.8485 262.914C-55.3515 254.659 -74.0355 242.035 -84.3727 235.006L-103.19 222.118L-103.402 217.192C-103.64 211.24 -106.302 207.647 -111.842 206.001C-116.444 204.612 -119.021 204.933 -123.053 207.305C-129.227 211.065 -130.928 219.221 -126.634 225.414C-123.803 229.547 -121.108 230.987 -116.095 230.829C-111.677 230.746 -110.582 231.451 -69.7896 260.758L-28.1122 290.702L-45.4868 293.428C-54.967 294.89 -63.2235 296.48 -63.6846 296.818C-64.1458 297.156 -69.8025 298.608 -76.2864 299.884C-91.6862 303.112 -94.9298 304.544 -98.9383 309.529C-101.731 312.962 -102.177 314.232 -101.547 316.864C-101.062 319.14 -99.975 320.593 -98.0419 321.567C-95.2356 323.086 -95.1365 323.074 -85.2263 319.409C-73.2807 315.116 -64.7957 312.937 -44.3413 309.079C-35.9857 307.477 -25.3965 305.223 -20.7956 304.182L-12.4859 302.212L-2.14455 310.082C3.43037 314.433 12.2121 321.095 17.1235 324.969L26.1608 332.067L18.9372 333.061C14.8737 333.567 7.89419 334.904 3.29335 335.945C-1.29603 337.078 -27.9641 341.149 -56.0772 344.934C-104.264 351.594 -107.325 352.069 -109.1 353.972C-111.676 356.723 -111.797 361.411 -109.478 364.673C-106.205 369.125 -102.999 369.006 -65.715 363.704C-22.4839 357.662 2.97516 351.965 28.3187 342.919L36.5136 340.028L60.5785 357.869C73.7834 367.719 84.6777 375.987 84.8112 376.25C84.8571 376.618 81.2056 378.008 76.6621 379.509C64.5715 383.446 50.9777 384.205 16.6795 382.78C1.10681 382.197 -16.3302 381.193 -22.1401 380.609C-27.95 380.025 -34.1219 379.766 -35.9059 379.988C-39.573 380.445 -42.5986 383.626 -43.1195 387.523C-43.9482 393.794 -31.292 404.085 -8.85743 415.307C12.1855 425.862 18.4083 429.759 29.9816 439.437C35.9342 444.396 43.9877 450.869 47.9686 453.737L55.0687 459.02L46.3282 460.764C41.6167 461.725 29.5638 464.349 19.6798 466.608C9.78428 468.776 1.55074 470.55 1.44017 470.471C1.31812 470.299 -0.535572 467.539 -2.64484 464.344C-8.08388 456.238 -10.8066 453.773 -34.4177 436.343C-70.6578 409.646 -98.9746 387.569 -104.314 381.879C-110.03 375.583 -112.646 374.787 -117.745 377.479C-126.329 382.1 -123.524 390.068 -110.067 399.512C-105.987 402.368 -97.8232 408.92 -91.8478 414.063C-85.9714 419.218 -69.2696 432.089 -54.8712 442.63C-29.8341 461.004 -17.1018 471.099 -16.8609 473.032C-16.8035 473.492 -27.0652 475.145 -42.9229 477.121L-69.1872 480.395L-73.6572 474.41C-76.0753 471.16 -81.3914 465.655 -85.5402 462.247C-102.723 447.94 -115.505 436.637 -121.496 430.561C-124.963 426.975 -129.012 423.555 -130.393 422.979C-135.727 420.56 -142.51 425.891 -141.765 431.873C-141.145 436.842 -133.915 443.978 -110.948 462.703C-90.8024 478.977 -86.9509 482.422 -87.7856 482.993C-88.2467 483.331 -100.163 484.63 -114.405 485.844C-141.279 488.259 -160.647 491.14 -173.203 494.574L-180.499 496.605L-184.392 493.633C-189.391 489.863 -194.362 489.548 -199.329 492.504C-209.139 498.586 -208.047 512.188 -197.487 515.357C-190.998 517.352 -186.938 516.005 -181.645 510.019C-179.793 507.919 -178.288 507.077 -177.053 507.297C-167.842 509.326 -120.714 507.097 -103.122 503.689L-93.3787 501.914L-101.472 512.082C-105.995 517.785 -111.741 525.791 -114.343 529.947C-116.846 534.09 -120.98 540.493 -123.452 544.073C-128.55 551.624 -129.433 555.846 -126.519 559.034C-119.529 566.667 -111.48 560.991 -100.592 540.943C-96.9007 534.221 -89.6807 523.509 -82.4753 514.293L-70.6176 498.797L-62.6585 497.244C-58.3435 496.333 -47.2128 494.384 -38.0414 492.868L-21.2729 490.123L-33.5958 505.117C-40.3327 513.246 -50.5825 526.299 -56.2751 533.924C-61.9676 541.549 -73.2274 555.382 -81.2256 564.696C-89.1362 573.906 -96.2769 582.834 -96.8862 584.405C-99.716 591.58 -98.4143 596.371 -93.2409 597.501C-90.9687 597.966 -89.4288 597.4 -84.6609 594.469C-79.7063 591.422 -76.1433 587.707 -62.7384 570.897C-53.8449 559.882 -43.2445 546.412 -39.118 540.757C-35.0792 535.207 -25.4731 523.45 -17.9131 514.657C-10.353 505.865 -2.80861 496.139 -1.26961 493.144L1.55695 487.558L19.3854 485.243C29.1974 484.02 41.6279 482.003 47.0217 480.864C52.4154 479.724 56.9516 478.972 57.1727 479.131C58.0574 479.768 50.2191 499.249 45.5677 507.96C35.7849 526.375 27.0126 535.131 3.10107 550.822C-12.2543 560.866 -14.6665 563.316 -14.0815 568.009C-13.4621 572.979 -8.68423 576.589 -3.7287 575.971C-1.84561 575.736 7.40521 572.434 16.7969 568.647C40.0894 559.295 45.8222 557.646 61.8781 555.645C79.8171 553.409 89.6906 553.487 98.0438 555.903L104.83 557.861L102.178 560.809C100.764 562.387 92.5563 571.634 83.9101 581.403L68.2945 599.049L57.5103 599.739C43.3218 600.573 27.94 600.715 3.47348 599.839C-10.3685 599.415 -23.017 599.683 -36.6869 600.639C-47.6579 601.446 -60.15 602.162 -64.4691 602.233C-69.097 602.249 -73.1605 602.755 -74.4793 603.48C-80.2612 606.351 -81.8475 615.426 -77.2261 618.589C-73.9316 620.795 -63.8714 620.756 -33.6574 618.485C-18.8973 617.393 0.0181561 616.531 8.38199 616.61C24.0956 616.707 47.181 614.578 54.3546 612.375C58.1396 611.249 57.8882 611.654 43.4692 628.404C29.9496 644.294 28.5015 645.596 26.2293 645.132C21.2655 644.069 -3.98151 645.813 -22.1491 648.639C-33.0168 650.273 -43.5455 651.399 -48.0857 651.311C-57.2539 651.238 -60.1772 652.818 -61.0863 658.445C-61.9953 664.072 -59.2758 668.125 -53.3398 669.722C-49.4891 670.737 -46.0964 670.501 -17.0914 666.606C0.428213 664.235 14.8222 662.628 14.8566 662.904C15.1548 665.297 -1.95718 687.896 -21.8746 711.406C-34.9445 726.866 -46.3566 741.092 -47.2518 742.792C-48.5164 745.567 -49.252 746.126 -52.5226 746.533C-55.6942 746.929 -57.0014 747.746 -59.8059 751.086C-62.7857 754.635 -63.1666 755.617 -62.6848 759.482C-60.9185 773.654 -40.9119 775.085 -36.8799 761.406C-36.2517 759.178 -36.0773 756.539 -36.6229 755.392C-37.9392 752.099 -31.1115 742.276 -9.07927 716.353C2.05109 703.097 13.4632 688.871 16.1645 684.703L21.1518 677.072L23.6619 692.366C25.1021 700.691 26.6873 709.372 27.359 711.531C28.0308 713.69 29.7265 722.451 31.2888 730.947C33.9857 746.125 34.1192 746.388 36.9599 748.184C38.5956 749.195 40.9899 749.831 42.3775 749.658C46.0445 749.201 51.1098 746.233 52.0353 743.968C53.7455 739.923 50.3539 722.403 43.6482 700.903C40.6025 691.003 40.1822 688.438 39.8813 678.756C39.7419 672.793 39.2511 664.817 38.7923 661.136L37.9435 654.326L51.5393 638.239C59.0002 629.459 65.3677 622.404 65.6994 622.643C66.0197 622.79 66.2697 628.833 66.36 636.018C66.4388 643.111 67.7385 663.229 69.3001 680.603C72.1409 713.893 73.9555 724.414 78.5713 733.184C83.2446 742.415 91.3766 744.672 96.8218 738.293C99.6149 734.861 99.709 731.578 97.0032 723.598C92.7215 711.048 90.3563 696.109 85.4643 651.207L80.4231 605.107L90.2659 594.442C104.636 578.913 115.008 568.461 115.573 568.952C116.679 569.748 125.82 600.29 128.187 611.21C132.605 631.313 131.727 647.683 125.396 662.304C121.18 672.081 122.028 676.461 128.749 678.708C135.681 681.021 139.709 677.809 144.6 666.172C147.247 659.954 158.048 642.44 169.131 626.386C181.057 609.013 197.252 590.359 204.127 585.764C207.302 583.78 210.202 582.016 210.499 581.979C210.797 581.942 212.711 594.881 214.673 610.617L218.263 639.421L211.959 643.758C203.437 649.68 190.869 661.9 174.88 679.78C167.549 687.983 155.751 699.921 148.697 706.314C134.303 719.229 128.702 725.161 123.954 732.294C119.996 738.488 120.218 741.077 125.083 744.583C130.834 748.726 133.155 747.969 139.606 739.969C145.882 732.178 171.329 706.203 184.538 694.277C194.027 685.618 207.798 669.322 214.972 658.242C217.258 654.779 219.327 651.998 219.548 652.157C219.67 652.329 220.367 659.532 220.839 668.164C221.41 676.784 222.253 689.202 222.671 695.785L223.468 707.835L219.921 712.483C217.917 714.976 211.743 721.165 206.225 726.152C194.804 736.267 171.636 761.958 169.522 766.8C166.536 773.527 169.987 778.611 176.925 777.746C180.592 777.289 181.667 776.221 198.681 756.063C215.081 736.637 221.997 729.139 223.781 728.917C224.078 728.88 225.382 738.53 226.442 750.267C228.268 769.758 231.958 792.101 235.665 806.499C236.799 810.75 236.669 811.327 234.855 812.113C233.799 812.525 231.837 814.546 230.656 816.375C224.949 825.497 231.479 835.898 242.816 835.606C253.04 835.267 259.703 823.315 253.936 815.81C252.739 814.277 252.502 813.185 253.035 811.81C253.58 810.527 253.327 808.503 252.133 805.381C251.217 802.878 249.24 795.087 247.861 788.063C245.004 774.027 238.697 725.843 239.573 724.799C240.099 724.173 251.904 731.673 276.88 748.747C290.744 758.233 299.113 761.582 306.645 760.644C313.583 759.779 317.431 753.505 314.604 747.783C313.28 745.238 312.11 744.729 303.139 742.203C300.226 741.444 295.045 738.632 290.732 735.525C286.751 732.657 279.567 728.319 274.84 725.918C270.112 723.516 261.822 718.381 256.328 714.674C250.921 710.862 244.465 706.713 242.177 705.316L237.857 702.958L237.084 682.214C236.664 670.771 236.397 661.365 236.474 661.169C236.66 661.052 242.06 665.613 248.413 671.363C286.905 705.629 314.001 725.99 332.257 734.368C337.381 736.72 339.981 736.583 343.129 733.574C345.015 731.75 345.373 730.584 344.96 727.271C344.433 723.038 340.744 716.862 338.106 715.883C329.661 712.73 303.815 693.522 272.558 667.232C264.016 660.073 252.488 650.762 246.837 646.607L236.53 639.013L233.707 611.515L230.983 584.005L239.58 586.766C268.826 596.111 291.108 616.604 306.49 647.956C309.328 653.771 312.605 659.063 313.81 659.847C316.894 661.986 321.816 661.092 325.039 657.887C328.439 654.473 328.571 652.307 325.716 643.13C320.587 626.2 316.661 607.625 314.084 587.759C311.393 566.974 310.301 542.064 312.101 542.775C312.631 542.989 321.813 550.442 332.59 559.379L352.228 575.622L353.662 587.125C354.453 593.475 356.622 604.419 358.409 611.486C362.803 628.975 365.567 651.153 365.46 669.671C365.478 677.893 366.192 690.887 367.155 698.617C368.731 712.066 368.91 712.697 371.343 714.45C373.223 715.805 374.977 716.147 378.346 715.727C384.194 714.998 387.25 711.253 386.573 705.823C386.321 703.799 386.21 692.411 386.427 680.422C386.722 655.339 386.148 648.308 381.208 618.364C379.107 605.542 378.105 596.695 378.6 596.634C379.107 596.664 384.404 600.396 390.497 604.87L401.391 613.138L403.602 623.61C411.672 662.509 411.603 661.957 411.229 682.377C411.127 686.408 411.406 687.028 414.502 689.258C418.594 692.206 424.895 691.888 427.612 688.652C431.118 684.477 431.116 679.618 427.794 653.771L424.521 629.133L437.921 638.117C463.525 655.392 510.329 683.67 516.94 685.836C519.247 686.577 520.166 687.49 520.407 689.423C521.198 695.772 528.107 700.332 535.442 699.417C543.073 698.466 548.727 689.724 545.809 683.266C543.001 676.887 538.261 674.394 531.049 675.48C527.184 675.962 526.654 675.747 524.8 672.988C522.592 669.805 520.193 668.328 498.647 656.155C487.067 649.654 438.244 616.488 438.945 615.653C439.121 615.445 445.395 614.102 452.958 612.599C460.509 611.003 471.956 608.362 478.371 606.534C484.797 604.798 493.183 602.632 496.915 601.886C500.735 601.036 504.607 599.806 505.64 599.21C509.364 596.783 512.362 592.578 512.064 590.185C511.72 587.425 507.262 583.962 502.607 582.953C497.644 581.89 487.691 583.597 473.046 588.039C456.938 592.851 438.466 596.461 425.676 597.214L416.478 597.707L403.277 588.698C396.025 583.808 390.175 579.677 390.274 579.665C390.362 579.561 398.535 578.916 408.404 578.153C434.928 576.155 476.357 570.992 497.406 567.06C513.446 564.126 516.56 563.271 520.966 560.666C526.79 557.323 527.78 554.77 525.197 549.391C521.889 542.233 518.031 541.967 499.655 547.154C477.109 553.609 448.595 556.602 397.849 558.067C384.617 558.502 371.298 559.04 368.225 559.423C362.862 559.998 362.454 559.956 357.024 555.96C343.819 546.111 316.619 522.492 317.396 521.461C317.922 520.835 326.3 519.417 338.8 517.952C362.399 515.104 367.138 515.168 410.064 518.789C424.813 520.035 438.404 520.864 440.287 520.63C444.945 520.049 448.393 515.414 447.774 510.444C447.189 505.751 445.629 504.544 436.914 502.452C425.496 499.67 415.255 494.218 394.336 479.816C383.987 472.695 374.226 466.249 372.846 465.673C370.062 464.338 354.813 451.005 354.641 449.625C354.572 449.073 364.967 447.684 380.772 446.088L407.116 443.458L417.929 448.652C433.127 455.917 438.343 459.005 461.294 474.368C485.682 490.767 494.026 497.951 502.184 510.111C513.272 526.392 514.824 528.348 518.973 531.756C522.447 534.594 523.606 535.01 527.075 534.578C530.246 534.183 531.752 533.341 533.867 530.928C537.571 526.728 536.948 523.348 531.186 516.683C528.703 513.721 522.978 505.744 518.504 498.918C514.03 492.093 508.938 485.158 507.222 483.503C496.826 473.584 476.217 459.237 454.582 447.168L443.975 441.201L453.123 439.5C458.231 438.489 466.126 437.225 470.772 436.552C478.888 435.447 479.505 435.557 487.817 438.446C513.933 447.714 532.766 459.105 540.989 470.977C543.563 474.674 546.721 478.206 547.903 478.806C551.327 480.435 556.126 479.37 559.163 476.281C561.499 474.027 561.857 472.861 561.467 469.733C560.251 459.978 547.827 447.508 529.109 437.038L520.778 432.375L533.792 430.193C540.882 428.935 554.445 426.31 563.856 424.296C573.279 422.374 586.491 420.167 593.154 419.523C605.082 418.317 605.292 418.384 608.697 420.67C611.781 422.809 612.807 422.961 618.06 422.306C623.709 421.602 624.281 421.344 627.051 417.728C629.646 414.32 629.916 413.259 629.377 408.934C628.608 402.768 625.073 398.629 619.911 397.59C615.786 396.796 610.503 398.015 607.374 400.368C605.64 401.799 604.649 401.923 599.411 401.08C591.935 400.049 577.465 401.853 563.556 405.736C552.265 408.825 501.01 416.709 501.433 415.255C501.574 414.77 508.783 406.395 517.517 396.521C529.604 382.866 534.718 376.247 539.35 368.194C543.831 360.533 545.388 356.881 545.125 354.764C544.517 349.887 537.482 346.745 531.807 348.854C530.366 349.407 527.047 353.466 522.989 359.672C512.916 374.946 487.21 404.504 477.998 411.353C473.848 414.394 470.193 417.373 469.965 417.962C469.386 418.968 431.834 423.742 427.942 423.199C425.792 422.907 426.493 422.072 435.437 414.695C446.466 405.471 455.737 395.063 461.563 385.272C463.727 381.638 468.672 374.479 472.57 369.414C481.395 357.848 487.452 348.308 497.795 329.543C506.6 313.773 507.464 310.207 502.987 307.401C494.488 302.199 488.048 307.861 474.832 331.844C466.127 347.601 457.837 360.223 445.651 376.321C435.897 389.312 430.985 394.316 416.202 406.532C410.177 411.489 403.024 417.894 400.349 420.658L395.46 425.846L384.973 426.499C379.179 426.847 365.223 427.933 353.878 428.973C342.435 430.025 333.16 430.714 333.137 430.53C332.942 428.966 337.574 418.482 340.656 413.332C346.188 404.418 350.711 398.714 359.483 389.958C374.528 374.999 397.806 358.266 417.492 348.243C422.417 345.76 427.348 342.528 428.488 341.172C431.597 337.046 429.822 330.071 425.071 327.486C422.486 326.126 419.535 326.68 410.826 330.289C400.886 334.519 386.76 339.083 372.519 342.727C359.444 346.039 298.85 354.9 296.002 353.853C294.633 353.369 297.666 349.44 312.623 332.156L330.932 311.089L352.725 308.279C364.618 306.797 381.486 304.041 390.116 302.217C415.301 296.742 431.7 295.072 471.121 293.99C480.254 293.786 488.824 293.092 490.276 292.631C491.816 292.065 493.416 290.37 494.113 288.694C497.564 280.04 491.272 275.591 473.103 273.557C458.517 272.01 446.048 272.91 419.239 277.467C405.73 279.711 384.962 282.673 373.344 283.935L352 286.314L359.633 278.915C363.745 274.757 369.796 268.396 373.051 264.626L379.056 257.896L399.249 256.781C411.047 256.152 425.178 254.858 433.072 253.594C443.929 251.867 447.52 251.606 451.633 252.308C457.92 253.487 461.11 252.435 463.922 248.347C467.423 243.331 464.996 235.97 459.369 234.429C453.94 232.862 439.321 233.47 416.922 236.261C404.236 237.843 393.806 238.956 393.783 238.772C393.76 238.588 407.158 222.526 423.546 203.007C440.034 183.476 453.1 167.175 452.745 166.752C452.28 166.249 453.523 165.72 455.604 165.461C465.317 164.25 470.647 154.521 465.433 147.414C460.951 141.337 453.102 140.54 446.063 145.436C443.185 147.383 442.179 149.004 441.38 152.281C440.527 155.939 435.841 161.943 409.228 193.11C392.104 213.187 377.891 229.164 377.612 228.545C377.334 227.925 377.129 219.82 377.171 210.469C377.302 183.258 372.46 159.75 365.634 154.246C362.736 151.99 357.803 152.792 355.285 156.003C353.292 158.588 353.303 158.68 356.344 185.496C358.715 206.134 359.497 217.252 359.617 232.75L359.826 253.004L356.442 257.351C354.514 259.647 349.549 265.032 345.338 269.201C341.116 273.279 336.116 278.388 334.363 280.476C332.325 282.692 330.93 283.614 330.838 282.878C330.746 282.141 329.834 269.171 328.769 254.164C325.523 207.935 323.58 189.112 320.319 173.445C316.74 156.041 315.355 152.195 312.206 150.344C309.068 148.586 302.637 149.481 300.534 151.986C299.569 153.134 298.678 155.675 298.424 157.67C298.018 162.486 300.954 186.045 305.841 216.369C309.115 236.988 309.72 243.455 309.865 255.119C310.002 273.98 311.331 291.103 313.281 297.869L314.983 303.451L297.093 324.652L279.302 345.841L277.754 333.418C275.85 318.141 274.659 281.936 275.591 267.615C276.152 258.386 277.992 244.886 281.841 220.856C282.473 217.039 282.563 212.916 282.116 211.756C280.834 208.739 275.321 205.688 271.951 206.108C266.896 206.738 264.82 210.268 263.196 220.656C261.671 231.033 257.056 244.879 252.164 254.086C250.45 257.291 245.493 264.357 241.134 269.76C236.775 275.163 228.541 285.815 222.947 293.428C210.271 310.428 198.08 323.255 196.09 321.821C195.758 321.582 194.392 308.201 192.991 292.115L190.358 262.911L193.246 258.626C194.865 256.275 198.538 250.21 201.346 245.281C207.312 235.005 219.653 216.925 229.704 203.897C244.957 184.146 263.679 166.392 275.354 160.732C281.906 157.579 284.192 154.116 282.528 149.651C277.995 137.506 265.127 142.474 240.745 165.7C223.559 182.047 211.903 195.929 199.28 214.979L188.932 230.473L187.751 223.425C187.06 219.492 186.329 212.013 185.984 206.823C185.569 198.651 185.706 197.325 187.345 196.747C188.302 196.347 189.376 195.279 189.548 194.23C190.56 189.431 192.694 186.361 205.542 170.741C218.303 155.226 220.091 153.415 228.472 147.978C238.621 141.386 241.121 138.831 241.485 134.487C241.694 132.125 241.061 131.082 238.372 128.894C235.352 126.467 234.525 126.289 229.768 126.882C225.914 127.456 222.845 128.68 218.836 131.235C211.553 135.788 208.23 139.006 194.962 154.491L183.884 167.366L181.673 154.465C180.381 147.336 176.903 132.35 173.796 121.149C170.689 109.948 167.348 96.0653 166.218 90.2251C164.483 80.3481 164.468 79.4156 166.041 76.6962C168.731 72.4359 168.534 66.012 165.674 62.4434C161.238 56.7348 151.448 55.712 145.267 60.2207ZM257.429 296.326C257.003 319.556 259.96 347.317 263.741 356.659L266.072 362.443L261.55 368.147C259.119 371.253 253.331 379.731 248.706 387.037C239.291 401.948 227.16 420.095 226.566 420.169C226.268 420.206 224.358 419.416 222.128 418.479C218.494 416.783 214.579 416.056 207.073 415.589C204.229 415.383 204.217 415.291 204.227 410.524C204.281 401.265 202.067 372.196 200.014 355.724L198.048 339.147L204.409 335.27C207.87 333.156 213.556 328.709 216.966 325.387C222.801 319.707 251.173 285.704 255.067 279.799C256.085 278.27 257.06 277.214 257.281 277.373C257.502 277.532 257.555 286.03 257.429 296.326ZM122.752 309.187C135.659 319.073 151.894 326.582 170.064 331.046L179.199 333.272L182.618 363.125C184.461 379.53 186.87 398.856 187.963 406.009L189.778 418.96L186.447 420.496L183.017 422.045L175.089 416.585C170.689 413.582 160.077 406.774 151.369 401.505C135.774 391.86 118.481 379.904 113.344 375.03L110.709 372.462L112.186 365.736C114.774 354.199 114.761 340.369 112.218 318.35L109.817 298.276L112.574 301.017C114.157 302.408 118.748 306.135 122.752 309.187ZM122.218 402.615C136.57 412.788 153.485 424.138 159.883 427.826L171.497 434.602L170.221 437.285L168.957 440.059L162.762 439.616C154.131 439.01 144.342 440.417 125.069 444.875C108.053 448.865 84.5078 453.762 78.8585 454.466C75.9843 454.825 75.4314 454.426 71.7355 448.999C68.6957 444.799 65.0424 441.329 57.645 436.083C49.2523 430.12 18.6183 409.64 7.0229 402.207C3.75136 400.185 3.75136 400.185 6.28648 400.336C21.8175 401.391 30.3336 401.077 49.3629 398.705C71.2548 395.883 77.0982 394.314 89.8244 387.401C92.9344 385.705 95.5834 384.347 95.7701 384.23C95.9684 384.205 107.865 392.442 122.218 402.615ZM290.569 371.632C293.039 372.072 299.31 372.318 304.434 372.24C313.975 372.079 322.552 370.636 351.907 363.894C359.149 362.243 365.237 361.017 365.446 361.085C365.568 361.256 361.948 364.511 357.394 368.35C347.386 376.887 331.584 394.65 325.702 403.981C321.579 410.476 315.154 425.949 314.538 430.699L314.23 433.073L286.304 436.741C270.953 438.748 254.535 441.074 249.824 442.036C242.955 443.452 241.049 443.503 240.637 442.62C240.347 441.908 239.175 438.97 238.004 436.032L235.928 430.684L243.595 421.13C247.767 415.844 257.171 403.271 264.46 393.11C278.973 373.077 281.8 369.921 284.294 370.545C285.22 370.71 288.011 371.297 290.569 371.632ZM166.875 460.505C167.081 462.161 168.276 465.283 169.554 467.46L171.755 471.392L158.191 491.773C149.374 505.021 139.883 517.699 131.108 528.045L117.588 543.935L111.934 541.369C100.514 536.157 80.485 534.541 59.2753 537.185L47.2829 538.68L50.8647 534.308C61.8616 520.788 74.6412 493.308 76.5117 479.244C76.7737 476.501 77.501 474.261 77.9966 474.199C78.5912 474.125 85.0522 472.666 92.3823 470.911C104.313 468.115 143.77 460.861 160.275 458.43L166.409 457.572L166.875 460.505ZM305.721 452.825C312.651 452.709 320.76 452.352 323.832 451.97C329.382 451.278 329.493 451.357 334.439 455.507C337.15 457.879 342.939 463.139 347.278 467.271C351.508 471.323 362.127 479.812 370.654 486.039C379.191 492.358 385.971 497.494 385.773 497.519C385.475 497.556 381.827 497.356 377.672 497.126C372.8 496.799 361.41 497.471 345.704 499.055C320.065 501.69 314.572 502.842 307.277 507.302C305.124 508.599 302.947 509.711 302.452 509.773C301.956 509.834 296.176 506.256 289.774 501.727C274.681 491.272 263.33 484.182 247.198 475.072C240.06 471.102 233.86 467.389 233.506 466.966C233.139 466.451 233.551 464.904 234.358 463.308L236.031 460.577L264.552 456.835C284.549 454.156 296.984 452.979 305.721 452.825ZM199.128 498.82C200.366 506.329 203.346 525.396 205.605 541.095C210.325 573.31 210.693 569.806 202.342 572.249C193.308 574.87 182.119 585.236 155.975 615.316L148.678 623.796L148.222 616.096C147.615 604.77 144.344 591.44 137.135 570.75L130.831 552.471L135.994 547.061C146.519 536.217 165.16 512.96 175.268 497.962L185.627 482.559L191.22 483.825L196.813 485.09L199.128 498.82ZM233.895 490.281C239.508 493.32 249.322 499.386 255.725 503.915C262.115 508.352 273.082 515.583 280.178 520.025C290.534 526.398 293.1 528.414 292.899 530.028C290.262 554.094 290.073 569.538 292.424 588.403L293.732 598.894L289.404 594.854C282.021 588.111 265.518 577.645 256.509 574.002C251.838 572.061 243.374 569.564 237.892 568.378L227.755 566.184L222.398 523.208L217.053 480.325L220.348 482.531C222.216 483.793 228.283 487.242 233.895 490.281Z" fill="#E2DCDA" fill-opacity="0.4"/>
<path d="M49.0069 206.887C44.4102 208.768 42.0595 212.519 42.1948 217.642C42.3645 223.041 44.2067 225.709 49.1214 227.993C53.6052 230.051 57.3829 229.674 62.2269 226.547C71.5645 220.71 68.567 207.159 57.6181 205.72C53.4284 205.214 53.032 205.264 49.0069 206.887Z" fill="#E2DCDA" fill-opacity="0.4"/>
<path d="M267.398 183.312C263.984 185.793 261.923 190.255 262.382 193.936C263.07 199.458 270.136 204.465 276.181 203.711C282.326 202.946 287.848 196.37 287.137 190.664C286.414 184.867 279.459 179.939 273.116 180.73C271.629 180.915 269.056 182.077 267.398 183.312Z" fill="#E2DCDA" fill-opacity="0.4"/>
<path d="M442.798 309.015C437.298 310.916 434.52 315.28 435.232 320.986C435.633 324.207 436.4 325.513 439.53 328.02C442.871 330.594 443.919 330.931 447.884 330.437C454.227 329.646 458.007 325.25 457.886 318.63C457.778 314.531 457.377 313.74 454.578 311.472C451.017 308.738 446.572 307.797 442.798 309.015Z" fill="#E2DCDA" fill-opacity="0.4"/>
<path d="M455.372 511.647C452.83 514.674 452.472 515.84 452.943 519.613C453.677 525.503 456.857 529.218 461.798 530.098C469.717 531.447 476.535 526.392 476.719 518.986C476.845 511.12 471.434 506.467 463.307 507.48C459.046 508.012 458.001 508.516 455.372 511.647Z" fill="#E2DCDA" fill-opacity="0.4"/>
<path d="M323.911 668.214C317.515 671.815 315.845 679.406 320.082 685.14C323.721 690.106 332.066 690.842 337.687 686.683C345.241 681.069 343.136 669.837 333.944 667.151C329.762 665.896 327.768 666.051 323.911 668.214Z" fill="#E2DCDA" fill-opacity="0.4"/>
</g>
<defs>
<clipPath id="clip0_93_116">
<rect width="848.959" height="787.34" fill="white" transform="translate(-259 105.001) rotate(-7.10465)"/>
</clipPath>
</defs>
</svg>
