<svg width="36" height="57" viewBox="0 0 36 57" fill="none" xmlns="http://www.w3.org/2000/svg">
<path d="M17.6447 0.729888C17.483 1.00469 17.2 1.57544 16.9978 1.99822C16.7148 2.65352 16.5127 2.82263 15.9265 2.90719C13.622 3.28768 13.3996 3.68932 14.754 5.08448C15.6232 5.97231 15.6435 6.03573 15.4817 6.88128C15.0977 8.99516 15.3807 9.48136 16.6542 8.84719C17.0585 8.65694 17.4021 8.53011 17.4628 8.57239C17.6245 8.7415 15.9467 13.7303 15.1987 15.2734C13.723 18.3597 11.1153 21.9321 9.13427 23.6232C7.94159 24.659 7.6788 25.1452 8.0831 25.5891C8.3661 25.8639 8.58847 25.8639 10.2259 25.5469C11.2164 25.3566 12.591 25.0184 13.2581 24.807C13.9454 24.5956 14.4912 24.4476 14.4912 24.4899C14.4912 24.7647 13.2783 27.0266 12.308 28.5697C10.6302 31.2332 8.46718 33.8333 6.3244 35.8203C3.51454 38.3781 3.69647 38.9277 7.19364 38.2724C8.3661 38.061 9.78114 37.7439 10.3269 37.5748C12.0654 37.0252 12.1463 37.0886 11.4185 38.357C9.49814 41.6123 6.20311 45.6076 3.17089 48.3133C1.99842 49.3703 0.987682 50.3427 0.906822 50.4695C0.825963 50.6175 0.886608 50.8923 1.02811 51.1037C1.2909 51.4842 1.37176 51.4842 3.37303 51.1248C6.60741 50.5752 9.7205 49.7508 12.4495 48.7573C12.6719 48.6938 12.6314 48.567 12.308 48.1865C11.9037 47.7426 11.9037 47.7003 12.2474 47.7003C12.4495 47.7003 12.6112 47.8483 12.591 48.0174C12.5506 48.567 13.2581 48.5247 14.6125 47.8483C15.3604 47.4889 15.9871 47.193 16.0275 47.193C16.068 47.193 16.1286 49.3069 16.1488 51.8858L16.2095 56.5998L18.1703 56.6632C19.9088 56.7055 20.1312 56.6843 20.2322 56.325C20.3131 56.1136 20.3737 53.9786 20.4142 51.5687C20.4344 49.1589 20.5152 47.193 20.5759 47.193C20.6365 47.193 21.1823 47.4467 21.7888 47.7426C25.4881 49.624 34.605 51.9069 35.4338 51.1882C35.9392 50.7655 35.737 50.4484 34.2209 49.1166C32.3409 47.4889 29.5715 44.5929 28.0554 42.6481C26.9031 41.1896 24.3965 37.448 24.3965 37.1943C24.3965 37.1309 24.6997 37.1732 25.0636 37.2789C25.4072 37.3846 26.9436 37.7439 28.4597 38.0822C32.6644 38.9911 33.1293 38.4838 30.3801 36.0106C27.4287 33.3682 24.7401 29.838 22.5974 25.8005C22.2537 25.1452 21.9707 24.5533 21.9707 24.511C21.9707 24.4476 22.5165 24.5956 23.2038 24.807C23.8709 25.0184 25.2253 25.3566 26.236 25.5469C27.6713 25.8217 28.0958 25.8428 28.3384 25.6314C28.8438 25.1875 28.7022 24.8704 27.5096 23.8135C25.0434 21.5939 22.2537 17.5564 20.7578 14.0262C20.0099 12.2083 19.1406 9.50249 19.1406 8.93175C19.1406 8.53011 19.1608 8.53011 19.8279 8.86833C21.0004 9.43908 21.2228 9.18541 21.0812 7.38861L20.9397 5.86662L21.8292 4.95765C22.4356 4.32349 22.6984 3.90071 22.6378 3.64704C22.5367 3.26655 22.2941 3.16085 20.6567 2.90719C19.9088 2.80149 19.7875 2.67466 19.2417 1.57544C18.5746 0.243696 18.1097 -0.00997021 17.6447 0.729888ZM18.8172 2.9706C19.1608 3.75274 19.2619 3.81615 20.1918 3.94299L21.2228 4.09096L20.495 4.87309C19.8279 5.61295 19.7875 5.71865 19.8886 6.66989L20.0099 7.7057L19.1406 7.24064L18.2512 6.77559L17.3617 7.2195L16.452 7.68456L16.5936 6.69103C16.7148 5.73979 16.6744 5.63409 15.9871 4.89423L15.2594 4.1121L16.3105 3.96413C17.3213 3.81615 17.3819 3.77388 17.766 2.88605C17.9682 2.35758 18.231 1.99822 18.3118 2.04049C18.3927 2.10391 18.6353 2.52669 18.8172 2.9706ZM18.9183 13.1384C20.0099 16.2881 21.9505 19.6703 24.1943 22.3338C24.8614 23.137 25.387 23.8346 25.3466 23.8557C25.2253 23.9826 23.0623 23.3061 21.7686 22.7565C21.0408 22.4394 20.0301 21.8687 19.4843 21.4671C18.9587 21.0866 18.4129 20.7695 18.2714 20.7695C18.1299 20.7695 17.5639 21.0866 16.9978 21.4882C16.4318 21.8898 15.3807 22.4606 14.6731 22.7777C13.3592 23.3273 11.2164 23.9826 11.1153 23.8557C11.0749 23.8135 11.4994 23.285 12.0654 22.6508C14.188 20.2621 16.9776 15.3157 17.8671 12.3774C18.049 11.7643 18.231 11.2782 18.2512 11.3204C18.2714 11.3416 18.5746 12.166 18.9183 13.1384ZM19.1406 23.0102C19.7673 23.4541 20.1918 24.046 21.0408 25.7794C22.6782 29.0559 24.6391 31.9519 26.8425 34.3617C27.9139 35.5455 28.7225 36.539 28.6214 36.5813C28.3384 36.7081 25.8722 36.0528 23.9113 35.3764C22.0516 34.7 19.7471 33.495 19.0193 32.7975C18.4735 32.2479 18.0086 32.2901 17.2606 32.9454C16.9372 33.2414 16.1084 33.7698 15.4413 34.1081C13.9454 34.9113 9.88222 36.3276 8.54804 36.539L7.53729 36.687L8.60868 35.5455C11.4994 32.5015 13.8039 29.1616 15.5828 25.5257C16.2297 24.1517 16.7148 23.4541 17.2606 23.0525C17.6852 22.7354 18.0895 22.4817 18.1905 22.4606C18.2714 22.4606 18.6959 22.7143 19.1406 23.0102ZM19.4438 34.8056C20.0705 35.2073 20.9802 35.7146 21.4451 35.9049C22.1729 36.222 22.4559 36.539 23.1634 37.8285C25.104 41.3164 28.5405 45.7556 31.1887 48.2499C31.876 48.8841 32.4016 49.4337 32.3814 49.476C32.2398 49.6451 27.9139 48.567 25.7913 47.8272C23.2038 46.9393 20.96 45.8401 19.4843 44.7409C18.9587 44.3393 18.3927 44.0222 18.231 44.0222C18.0692 44.0222 17.5032 44.3393 16.9776 44.7409C14.5721 46.5377 11.2366 47.9117 6.64784 48.9898C5.41474 49.2857 4.34335 49.5183 4.26249 49.5183C4.18163 49.5183 5.0913 48.5036 6.26376 47.2353C9.37685 43.9588 12.6719 39.4985 13.8039 36.9829C14.0465 36.4756 14.3497 36.1797 14.8753 35.9894C15.2796 35.8415 16.1488 35.3764 16.8159 34.9325C17.483 34.4886 18.0895 34.1081 18.1501 34.1081C18.231 34.0869 18.797 34.404 19.4438 34.8056ZM23.9922 35.8415C23.9922 35.8837 23.7496 36.1374 23.4464 36.4333L22.8804 36.9407L23.3655 36.3488C23.8305 35.8203 23.9922 35.6723 23.9922 35.8415ZM18.7565 45.9247C19.1204 46.1361 19.1406 46.4109 19.1406 50.6386C19.1406 53.3232 19.2215 55.2469 19.3428 55.3949C19.4843 55.5851 19.4843 55.5851 19.3023 55.4371C19.1608 55.3103 18.6757 55.2257 18.2107 55.2257H17.3617L17.3415 50.8077C17.3213 47.0239 17.3617 46.3263 17.6447 46.0515C18.0086 45.6499 18.2107 45.6287 18.7565 45.9247Z" fill="white"/>
</svg>
