<svg width="36" height="56" viewBox="0 0 36 56" fill="none" xmlns="http://www.w3.org/2000/svg">
<path d="M18.6799 0.466213C18.8484 0.737747 19.1011 1.19726 19.2274 1.51057C19.438 1.9492 19.6906 2.07452 20.4276 2.19985C20.954 2.2834 21.5225 2.38783 21.6699 2.45049C22.1753 2.63848 21.9858 3.24421 21.2067 3.99615C20.4697 4.68542 20.4487 4.74809 20.575 5.87599C20.6803 6.81591 20.6382 7.10833 20.3855 7.31721C20.1118 7.54697 19.9433 7.54697 19.6275 7.35898C19.4169 7.21277 19.2274 7.15011 19.2274 7.21277C19.2274 7.35898 20.7435 9.74012 24.3862 15.3379C26.176 18.0741 27.6499 20.4552 27.6499 20.6432C27.6499 20.8312 27.3762 21.2698 27.0182 21.6249L26.3865 22.2724L29.4397 26.8467C31.1242 29.3741 32.4929 31.5881 32.4929 31.7761C32.4929 32.2983 31.6927 33.1964 30.7873 33.6351L29.9661 34.0528L30.5136 34.9509C30.8084 35.4314 31.5664 36.5801 32.177 37.4992C35.546 42.5539 36.0935 43.5147 35.9882 43.9742C35.6934 45.123 33.2088 46.606 30.3872 47.2744C28.6817 47.6921 25.1653 48.1934 22.7438 48.3814L20.9119 48.5276V51.9949C20.9119 54.4387 20.8277 55.5666 20.6592 55.7337C20.3013 56.0888 15.6268 56.0888 15.2688 55.7337C15.1004 55.5666 15.0161 54.4387 15.0161 52.0158V48.5485L12.2157 48.2979C5.41447 47.6503 1.20321 46.2509 0.171455 44.2666C-0.228615 43.5356 -0.333897 43.7444 4.61433 36.246C5.28814 35.2016 5.87771 34.3034 5.91982 34.2199C5.96194 34.1572 5.64609 33.9275 5.22497 33.7395C4.42483 33.3426 3.43518 32.3192 3.43518 31.8388C3.43518 31.5672 4.15109 30.4393 8.25707 24.2567L9.54151 22.3142L8.90982 21.604C8.57292 21.2072 8.27813 20.7686 8.27813 20.6223C8.27813 20.4761 9.05721 19.1602 10.0047 17.6981C13.458 12.4555 15.7531 8.90463 16.2374 8.11092L16.7428 7.29632L16.2374 7.42164C15.4373 7.63052 15.1846 7.15011 15.4162 5.93865C15.6057 4.93607 15.6057 4.91518 14.7845 4.03792C14.3423 3.55751 13.9633 3.07711 13.9633 2.99356C13.9844 2.55493 14.3845 2.32517 15.3952 2.17896C16.469 2.05364 16.5322 1.99097 17.0375 1.03017C17.6061 -0.118629 18.1746 -0.306614 18.6799 0.466213ZM17.6482 2.09541C17.4376 2.7638 16.9323 3.13977 16.2585 3.13977C15.5004 3.13977 15.4794 3.32775 16.1953 3.87082C16.6796 4.2259 16.7217 4.37212 16.6164 5.16583L16.4901 6.06398L17.1218 5.75067C17.8798 5.35381 18.1325 5.35381 18.8905 5.75067L19.5011 6.06398L19.3537 5.27026C19.2485 4.58099 19.3116 4.393 19.7538 3.97526C20.0486 3.70372 20.2802 3.4113 20.2802 3.34864C20.2802 3.26509 19.9223 3.13977 19.459 3.05622C18.8063 2.95179 18.5957 2.80558 18.3852 2.30428C18.0904 1.57323 17.8377 1.51057 17.6482 2.09541ZM16.827 9.78189C16.2585 10.6592 15.2057 12.2884 14.4897 13.3745C13.7738 14.4606 12.8684 15.8601 12.4894 16.4449C11.7314 17.6355 11.6682 17.6772 11.2471 17.2804C11.0154 17.0715 11.0154 17.1133 11.226 17.4684C11.4787 17.8652 11.4155 18.0741 10.6364 19.3064L9.75207 20.6641L10.3416 20.9565C11.8577 21.7294 16.3216 22.2307 19.6275 22.0427C23.3755 21.8129 26.4076 21.0401 26.0496 20.4135C25.8601 20.1002 22.1753 14.4188 20.1749 11.3902C19.3537 10.1161 18.5536 8.88375 18.4062 8.61221C18.2799 8.36156 18.0904 8.15269 18.0061 8.15269C17.9219 8.17358 17.3955 8.88375 16.827 9.78189ZM22.07 23.2123C21.3751 23.3168 19.5222 23.4003 17.964 23.4003C15.3741 23.4003 14.3213 23.2959 11.7524 22.8782L10.9102 22.7319L9.12038 25.4264C8.15179 26.8885 6.80419 28.9354 6.13039 29.9589C5.18285 31.3584 4.95123 31.8596 5.11968 32.0894C5.4987 32.528 8.02545 33.3844 9.96263 33.7186C13.0158 34.2826 16.5533 34.4497 20.575 34.2617C25.797 33.9901 29.566 33.2173 30.682 32.173C31.061 31.8179 30.9979 31.7134 29.2291 29.019C28.2184 27.4733 26.8498 25.4264 26.197 24.4865L25.0179 22.7319L24.1756 22.8782C23.7124 22.9617 22.7649 23.1079 22.07 23.2123ZM25.797 35.1389C23.6913 35.5149 22.5543 35.5776 17.8587 35.5776C13.1421 35.5776 12.0472 35.5149 9.89946 35.1389C8.50975 34.8883 7.37271 34.6794 7.3306 34.6794C7.28848 34.6794 4.65645 38.648 2.42448 42.0944C1.39272 43.6818 1.35061 43.7653 1.70856 44.1413C3.05617 45.6243 8.99404 46.8775 15.8795 47.1282C23.7756 47.4206 32.4297 46.0211 34.1563 44.204L34.6406 43.7027L32.6613 40.6949C31.5664 39.0657 30.2609 37.0397 29.7345 36.2042C29.2291 35.3687 28.6817 34.7003 28.5343 34.6794C28.3658 34.6794 27.1446 34.8883 25.797 35.1389ZM16.4901 51.4936V54.5222H17.964H19.438V51.4936V48.465H17.964H16.4901V51.4936Z" fill="white"/>
</svg>
