<svg width="35" height="59" viewBox="0 0 35 59" fill="none" xmlns="http://www.w3.org/2000/svg">
<path d="M16.9349 0.303612C16.8231 0.458244 16.5101 1.0105 16.2418 1.51858C15.817 2.35801 15.6829 2.46846 14.9898 2.46846C13.939 2.46846 13.0894 2.82191 13.0894 3.2858C13.0894 3.48462 13.4918 4.05897 13.9613 4.56704L14.8556 5.45066L14.632 6.64354C14.4308 7.61551 14.4532 7.90268 14.7438 8.16777C15.0345 8.45494 15.191 8.45494 15.6829 8.23404C16.0182 8.1015 16.3089 8.01313 16.3312 8.03522C16.3536 8.07941 14.5426 12.0778 12.2845 16.9376C10.0263 21.7975 7.94706 26.326 7.65641 26.9887C7.00804 28.4246 2.06696 39.0721 1.4633 40.3534C0.144192 43.1368 -0.101744 43.8878 0.032403 44.5064C0.255981 45.5225 1.84338 47.0467 3.52022 47.8862C5.86779 49.057 8.48365 49.6755 13.7154 50.3161L14.6544 50.4266V54.4912C14.6544 57.3629 14.7215 58.6 14.9227 58.7104C15.0568 58.7988 16.1747 58.9092 17.4044 58.9534C20.5792 59.086 20.4451 59.2627 20.4451 54.4249C20.4451 52.3042 20.4898 50.5149 20.5345 50.4707C20.5792 50.4266 21.5182 50.294 22.6138 50.1615C23.7093 50.051 24.7601 49.8743 24.939 49.808C25.1179 49.7418 25.3638 49.6976 25.4532 49.7197C25.8333 49.7859 29.3658 48.7919 30.6402 48.2396C33.2114 47.1351 35 45.4121 35 44.0645C35 43.7995 34.5528 42.6729 34.0163 41.5462C33.1443 39.7348 30.6849 34.4111 29.187 31.0754C28.9187 30.4569 27.5772 27.5852 26.2357 24.6692C24.8719 21.7533 23.6422 19.0583 23.4634 18.7049C23.3069 18.3293 22.1219 15.7889 20.8475 13.0056C19.5508 10.2443 18.5447 7.99104 18.567 7.99104C18.6117 7.99104 18.9024 8.07941 19.2154 8.21195C20.378 8.65376 20.7357 7.94687 20.2439 6.22382C20.0426 5.51693 20.065 5.40648 20.9369 4.54495C22.2784 3.19744 21.943 2.55682 19.8414 2.49055C19.1707 2.46846 19.0589 2.35801 18.567 1.25349C18.0081 0.0164375 17.4491 -0.314919 16.9349 0.303612ZM18.0081 2.66727C18.2316 3.21954 18.4329 3.35208 19.2825 3.48462L20.2886 3.61716L19.5731 4.34614C18.9471 4.98676 18.9024 5.14139 19.0365 6.00291L19.193 6.97489L18.3658 6.44472L17.5162 5.93665L16.6219 6.44472L15.7276 6.93071L15.8841 5.98082C16.0182 5.1193 15.9512 4.94258 15.4593 4.47868C15.1463 4.16942 14.878 3.86015 14.878 3.77179C14.878 3.68343 15.2804 3.55089 15.7499 3.46253C16.4654 3.35208 16.689 3.17535 17.002 2.55682C17.4044 1.6953 17.6056 1.71739 18.0081 2.66727ZM19.0365 12.7846L20.4451 15.8331L19.8414 16.3191C18.8353 17.1585 16.4207 18.3293 14.6991 18.7932C13.8272 19.0362 13.0894 19.1688 13.0894 19.0804C13.0894 18.7932 17.4268 9.53737 17.5162 9.64782C17.5609 9.692 18.254 11.1058 19.0365 12.7846ZM22.502 20.2733C23.2174 21.7975 23.8211 23.1892 23.8211 23.3438C23.8211 23.7194 20.7581 25.7738 19.0365 26.5469C16.7784 27.5631 13.5812 28.513 11.6585 28.7339C10.1605 28.9106 8.88609 28.8885 8.68487 28.6676C8.64015 28.6234 9.42268 26.8783 10.4064 24.7576C12.1727 20.9139 12.195 20.9139 13.0223 20.7372C15.3028 20.2733 16.7113 19.8094 18.3434 18.992C19.3272 18.506 20.2886 17.9759 20.4674 17.7991C20.6463 17.6224 20.8699 17.4899 20.9817 17.4899C21.0711 17.4899 21.7642 18.749 22.502 20.2733ZM25.0061 25.7075C26.8841 29.7942 27.1971 30.5674 27.0853 30.9208C26.7947 31.8044 23.3739 34.146 20.3109 35.5156C16.1524 37.3933 10.9654 38.5861 7.72348 38.4315C6.67267 38.3652 5.53242 38.1885 5.19705 38.0339C4.43689 37.6584 4.4816 37.4154 5.68893 34.8529C6.15844 33.8809 6.82917 32.445 7.16454 31.694L7.7682 30.3244H9.98162C13.2235 30.3244 16.6442 29.4408 20.2662 27.6514C21.8089 26.9004 23.9329 25.5749 24.1565 25.2215C24.4024 24.8239 24.6483 24.9785 25.0061 25.7075ZM28.6504 33.66C28.9858 34.3006 29.5894 35.604 29.9919 36.5317L30.7297 38.2548L29.5671 39.4256C26.0345 43.0042 18.0081 46.5387 10.9654 47.6432L8.48365 48.0187L6.6056 47.4444C4.3251 46.7596 2.40233 45.655 1.86574 44.7273L1.4633 44.0425L2.60355 41.5904C3.54258 39.6465 3.85559 39.1605 4.12388 39.2709C5.55478 39.8674 6.85153 40.0441 9.17674 39.9337C15.1463 39.6465 23.128 36.6422 27.0183 33.2403C27.4654 32.8427 27.8902 32.5113 27.9573 32.5113C28.0244 32.5113 28.3374 33.0415 28.6504 33.66ZM32.4512 41.8997C33.4126 43.932 33.435 44.0204 33.0996 44.661C32.6524 45.5225 31.4675 46.2957 29.4105 47.0688C28.4939 47.4002 27.5325 47.7757 27.2866 47.8641C27.0406 47.9524 26.5935 48.0629 26.2805 48.085C25.9674 48.1292 24.6707 48.328 23.3739 48.5047C21.25 48.814 13.7601 49.0128 14.006 48.7477C14.0731 48.7035 15.0121 48.3942 16.13 48.085C22.0772 46.384 28.2479 43.1809 30.5955 40.5743C30.9756 40.1546 31.311 39.8011 31.378 39.8011C31.4228 39.8011 31.8923 40.751 32.4512 41.8997ZM18.7906 53.9389V57.3629L17.5162 57.4292L16.2194 57.4955V53.9389V50.3824L17.5162 50.4486L18.7906 50.5149V53.9389ZM20.0203 54.8888C20.0203 54.933 19.7967 55.1539 19.5284 55.3969L19.0142 55.8166L19.439 55.3085C19.8414 54.8446 20.0203 54.7121 20.0203 54.8888ZM17.1138 57.7605C17.1138 57.8047 16.8902 58.0256 16.6219 58.2686L16.1077 58.6883L16.5325 58.1803C16.9349 57.7164 17.1138 57.5838 17.1138 57.7605Z" fill="white"/>
</svg>
