<svg width="37" height="57" viewBox="0 0 37 57" fill="none" xmlns="http://www.w3.org/2000/svg">
<path d="M17.3815 1.25996L16.7346 2.49856L15.3975 2.69075C13.4567 2.96837 13.3057 3.33141 14.6212 4.65543L15.6779 5.70184L15.4407 6.91908C15.0956 8.77699 15.4622 9.22544 16.7993 8.52072C17.2306 8.30717 17.5756 8.15768 17.5756 8.20039C17.5756 8.26446 16.5189 10.6349 15.6348 12.4928C15.225 13.3897 11.1492 22.2308 10.1356 24.4517C8.7339 27.5482 5.11095 35.3642 2.67408 40.5749C1.01356 44.1626 0.0431304 46.5116 0.0215652 46.9814L0 47.7289L8.79859 47.7929L17.5756 47.8356V52.0853C17.5756 55.673 17.6187 56.3991 17.9207 56.6767C18.2873 57.0611 18.4382 57.0824 18.8264 56.8475C19.0205 56.6981 19.1067 55.5662 19.1499 52.2989L19.193 47.9424L28.0347 47.8356C32.9085 47.7716 36.898 47.6862 36.9411 47.6648C37.1568 47.4726 36.7902 46.3621 35.6688 43.949C34.9356 42.3901 34.0945 40.5322 33.7711 39.8274C30.4069 32.4385 28.6817 28.8722 28.5092 28.979C28.3798 29.0431 28.3582 29.0004 28.4445 28.8509C28.5307 28.7227 27.2368 25.6262 25.49 21.825C19.9694 9.88745 19.3008 8.39259 19.3008 8.26446C19.3008 8.17904 19.6459 8.30717 20.0772 8.52072C21.4142 9.22544 21.7377 8.84105 21.4142 6.96179L21.1986 5.72319L22.1043 4.80492C22.7513 4.16426 22.9885 3.75851 22.9238 3.39547C22.8591 2.94701 22.7081 2.8616 21.5005 2.69075L20.1419 2.49856L19.4949 1.25996C19.0421 0.363037 18.7401 -3.8147e-06 18.4382 -3.8147e-06C18.1363 -3.8147e-06 17.8344 0.363037 17.3815 1.25996ZM18.9774 2.77617C19.2793 3.45954 19.4734 3.63038 19.9262 3.63038C20.2281 3.63038 20.7026 3.69445 20.9829 3.75851C21.4573 3.88665 21.4573 3.908 20.7026 4.63408C19.9909 5.31744 19.9694 5.40286 20.1419 6.25707C20.2713 6.74824 20.3144 7.1967 20.2497 7.23941C20.2066 7.30348 19.7753 7.11128 19.3008 6.85502L18.4382 6.3852L17.4678 6.91908L16.4974 7.45296L16.6268 6.55605C16.713 6.06488 16.7993 5.61642 16.864 5.5737C16.9071 5.50964 16.5836 5.10389 16.1523 4.67679L15.3544 3.86529L16.1954 3.73716C17.4894 3.52361 17.5541 3.4809 17.9207 2.56262C18.1147 2.09281 18.3304 1.75113 18.4167 1.81519C18.5029 1.8579 18.7617 2.285 18.9774 2.77617ZM19.84 13.1762C20.4869 14.607 21.026 15.8456 21.026 15.9096C21.026 15.9737 19.8615 16.0164 18.4167 16.0164C15.376 16.0164 15.5054 16.4008 17.209 12.6636C17.8128 11.3396 18.3951 10.3359 18.4814 10.4213C18.5676 10.5068 19.1714 11.7454 19.84 13.1762ZM22.514 19.0488C22.9022 19.903 23.2688 20.7359 23.3335 20.8854C23.4198 21.0989 22.4278 21.1416 18.4598 21.1416C12.7235 21.0989 13.1979 21.3766 14.384 18.878L15.0309 17.5113H18.4167H21.824L22.514 19.0488ZM24.9509 24.2809L25.7057 25.9466L22.0612 26.0106C20.0772 26.032 16.7993 26.032 14.7721 26.0106L11.1061 25.9466L11.904 24.2809L12.6803 22.6365H18.4382H24.1961L24.9509 24.2809ZM26.9565 28.616C27.3231 29.3207 27.6034 29.641 27.7759 29.5556C27.97 29.4488 27.97 29.4702 27.7759 29.6837C27.6034 29.8759 27.5819 30.0895 27.7544 30.4525C27.8838 30.7301 27.9485 31.0077 27.8838 31.0718C27.8191 31.1359 23.506 31.1572 18.2657 31.1359L8.75546 31.0718L9.5965 29.2993L10.4375 27.5482H18.4167H26.4173L26.9565 28.616ZM29.5443 34.2964C29.954 35.1934 30.2991 35.9835 30.2991 36.0689C30.2991 36.133 24.9725 36.1971 18.4382 36.1971C11.9255 36.1971 6.57738 36.1116 6.57738 36.0049C6.57738 35.9194 6.90086 35.1293 7.28903 34.2537L7.97912 32.6735H18.3951H28.8111L29.5443 34.2964ZM25.296 37.7987H31.1832L31.9165 39.4217C32.3262 40.3186 32.6712 41.0874 32.6712 41.1301C32.6712 41.1728 26.2664 41.2155 18.4167 41.2155C4.93843 41.2155 4.16208 41.1942 4.29147 40.8311C4.37773 40.6389 4.70121 39.8702 5.02469 39.1441L5.60695 37.8201L10.5669 37.756C13.3057 37.7133 16.4111 37.7133 17.4678 37.7346C18.5461 37.7773 22.0612 37.7987 25.296 37.7987ZM34.1808 44.3334C34.5905 45.2303 34.9787 46.0418 35.0003 46.1486C35.0434 46.2554 27.9916 46.3408 18.4598 46.3408C9.31616 46.3408 1.83304 46.2981 1.83304 46.234C1.83304 46.1699 2.17808 45.3371 2.60939 44.4188L3.4073 42.7104H18.4167H33.426L34.1808 44.3334Z" fill="white"/>
</svg>
