<svg width="37" height="55" viewBox="0 0 37 55" fill="none" xmlns="http://www.w3.org/2000/svg">
<path d="M17.8438 0.458733C17.6555 0.747311 17.5091 1.07711 17.5091 1.20079C17.5091 1.63366 16.6517 2.23143 16.0242 2.23143C15.1877 2.23143 14.5812 2.56123 14.5812 3.01471C14.5812 3.22084 14.9158 3.71554 15.3341 4.10719C16.0661 4.7874 16.0661 4.82863 15.9406 6.02417C15.7733 7.38461 15.9824 7.6938 16.8399 7.36399C17.1327 7.26093 17.3836 7.19909 17.4255 7.24032C17.4673 7.28154 16.2752 9.11608 14.7485 11.3216C8.57879 20.3088 6.84292 22.8854 6.84292 22.9472C6.84292 23.0091 7.67948 23.0709 8.72519 23.0915L10.6075 23.1533L9.7709 24.4932C9.31079 25.2352 8.32782 26.74 7.61674 27.8324C5.00247 31.8725 3.60122 34.0781 3.53848 34.2224C3.49665 34.3048 4.33322 34.4079 5.37893 34.4285L7.28212 34.4903L6.46646 35.8302C1.84444 43.4775 -0.10058 46.7961 0.00399108 46.8992C0.129476 47.0023 2.34638 46.7343 11.8623 45.4151C13.7655 45.1677 15.3759 45.0028 15.4805 45.0441C15.5641 45.0853 15.6269 47.3527 15.6269 50.0736V55H18.5548H21.4828V49.9499V44.8998L21.9638 45.0028C23.0723 45.2502 36.7502 47.0023 36.9802 46.9198C37.1475 46.858 36.3319 45.4357 31.5216 37.4792C29.472 34.0987 29.4511 34.3873 31.6889 34.3873H33.5921L32.5882 32.7795C32.0236 31.9137 30.4341 29.4402 29.0328 27.2965C27.6525 25.1528 26.5022 23.3182 26.5022 23.2152C26.5022 23.1327 27.3597 23.0503 28.3845 23.0503H30.2877L27.1924 18.5567C21.3573 10.0643 19.7679 7.6938 19.6633 7.44645C19.5796 7.24032 19.747 7.2197 20.228 7.30215C21.1064 7.48767 21.2528 7.2197 21.0436 5.87988C20.8554 4.80802 20.8763 4.80802 21.692 4.06596C22.1521 3.65371 22.5285 3.22084 22.5285 3.13839C22.5076 2.58184 22.1312 2.39633 20.5417 2.12836C20.2071 2.08714 19.8933 1.96346 19.8515 1.88101C19.6215 1.2214 18.8058 0.0670891 18.5339 0.00525284C18.3457 -0.0359726 18.032 0.170155 17.8438 0.458733ZM18.9522 2.41694C19.1614 2.89103 19.3914 3.03532 20.0607 3.13839L20.9181 3.28268L20.3325 3.88044C19.8306 4.39576 19.7679 4.58128 19.8933 5.32333L20.0188 6.16846L19.2241 5.7562C18.5339 5.40578 18.3666 5.40578 17.9274 5.65314C17.1536 6.06539 17.0281 6.00356 17.1536 5.24088C17.2373 4.68434 17.1745 4.4576 16.7562 4.06596C16.087 3.44758 16.1288 3.30329 17.0072 3.13839C17.5719 3.03532 17.8228 2.84981 18.0738 2.31388C18.4503 1.53059 18.5967 1.5512 18.9522 2.41694ZM19.4332 9.69323C20.3116 10.9094 26.3767 19.7316 27.1715 20.9478C27.3806 21.2364 27.4852 21.5249 27.4224 21.5868C27.3597 21.6486 26.6277 21.7104 25.7702 21.7104C24.9127 21.7311 24.1598 21.7929 24.0762 21.8547C23.9507 21.9784 30.1413 31.7488 30.8524 32.5734C31.2706 33.0474 31.0406 33.1299 28.9492 33.1917L27.3388 33.2536L28.029 34.3873C28.4263 35.0057 29.723 37.1494 30.8942 39.1282C32.0863 41.107 33.383 43.2714 33.7803 43.931C34.1777 44.57 34.4705 45.1471 34.4287 45.1883C34.3869 45.2296 32.0026 44.941 29.1165 44.57C26.2512 44.1989 22.6122 43.7455 21.0645 43.5393L18.2411 43.1889L10.3983 44.2402C6.09001 44.8173 2.5346 45.2502 2.51369 45.2296C2.49277 45.209 2.9738 44.3638 3.58031 43.3538C8.45331 35.253 9.56176 33.3773 9.56176 33.2536C9.56176 33.1711 8.76702 33.1505 7.78405 33.1917C6.80109 33.233 6.00635 33.1917 6.00635 33.1093C6.00635 33.0062 6.6756 31.8931 7.49126 30.6358C8.30691 29.3578 9.22713 27.9149 9.51993 27.4202C9.83364 26.9255 10.7539 25.5032 11.5904 24.2252C12.5943 22.6999 13.0126 21.8754 12.8662 21.7929C12.7198 21.7104 11.9251 21.6486 11.0885 21.6692C9.79181 21.7104 9.56176 21.6486 9.6245 21.4013C9.66633 21.2157 10.733 19.608 12.0087 17.794C13.2636 15.9801 15.2295 13.1356 16.3589 11.4453C17.4882 9.77568 18.4294 8.41525 18.4712 8.41525C18.4921 8.41525 18.9313 8.9924 19.4332 9.69323ZM19.5169 44.6936H20.0188V49.1254V53.5777L18.513 53.5159L16.9863 53.454V49.1254V44.7967L17.7183 44.673C18.1156 44.5906 18.5758 44.57 18.7222 44.6112C18.8895 44.6524 19.245 44.6936 19.5169 44.6936Z" fill="white"/>
<path d="M20.4372 16.1863C20.2071 16.4955 20.0607 16.8666 20.1235 17.0315C20.1862 17.1757 20.228 17.4025 20.228 17.5056C20.228 17.588 20.5208 17.8147 20.8555 18.0003C21.5038 18.3301 22.194 18.1652 22.5704 17.6086C22.905 17.1345 22.7377 16.2688 22.2776 15.9596C21.5874 15.4855 20.9391 15.568 20.4372 16.1863Z" fill="white"/>
<path d="M13.9955 18.2269C13.0753 18.8453 13.5982 20.5768 14.7066 20.5768C15.8987 20.5768 16.4843 19.1545 15.6268 18.3094C15.1249 17.8147 14.6229 17.7941 13.9955 18.2269Z" fill="white"/>
<path d="M21.6921 24.6993C21.1274 25.2558 21.1692 25.9773 21.7967 26.5544C22.2359 26.9667 22.4241 27.0079 22.9051 26.843C23.2188 26.74 23.5953 26.3895 23.7417 26.0804C24.3691 24.7818 22.7378 23.6687 21.6921 24.6993Z" fill="white"/>
<path d="M16.2963 27.111C15.6061 27.7088 15.5643 28.2653 16.129 28.8837C16.7564 29.5433 17.3629 29.5845 17.9276 29.028C19.1197 27.8531 17.572 26.0391 16.2963 27.111Z" fill="white"/>
<path d="M10.6492 29.6464C10.0427 30.2029 10.0636 30.7801 10.7119 31.3984C11.3184 32.0168 11.6531 32.0374 12.3642 31.4809C13.0125 30.9656 13.0752 30.2235 12.4896 29.6464C11.9459 29.1104 11.2348 29.131 10.6492 29.6464Z" fill="white"/>
<path d="M24.3482 35.1706C23.2816 36.3455 25.1221 38.0976 26.2514 37.0052C26.6488 36.6135 26.6697 35.5623 26.2932 35.1294C25.9377 34.6759 24.7665 34.7171 24.3482 35.1706Z" fill="white"/>
<path d="M16.6727 37.644C15.7734 38.3655 16.359 39.9526 17.4884 39.9526C18.5968 39.9526 19.1824 38.2006 18.304 37.6028C17.6975 37.1699 17.2374 37.1905 16.6727 37.644Z" fill="white"/>
<path d="M8.87173 40.1795C7.82602 40.9628 8.36979 42.4263 9.68738 42.4263C10.1684 42.4263 11.0259 41.5605 11.0259 41.0864C11.0259 40.6948 10.3566 40.0146 9.85469 39.8703C9.58281 39.7878 9.22727 39.8909 8.87173 40.1795Z" fill="white"/>
</svg>
