<svg width="35" height="56" viewBox="0 0 35 56" fill="none" xmlns="http://www.w3.org/2000/svg">
<path d="M16.8479 1.05315C16.3659 2.05891 16.1983 2.20559 15.5488 2.33131C15.1297 2.39417 14.522 2.49893 14.1868 2.56179L13.6001 2.68751L14.564 3.67232C15.5488 4.65713 15.5488 4.67808 15.3392 5.60003C14.9411 7.31821 14.9621 7.33916 16.324 6.6477L17.5184 6.04005L18.7337 6.6477C20.0747 7.33916 20.0747 7.33916 19.7185 5.57908C19.5509 4.65713 19.5509 4.61522 20.4938 3.67232L21.4367 2.68751L20.368 2.45703C19.7604 2.33131 19.1527 2.22654 19.0061 2.22654C18.8594 2.22654 18.5241 1.74461 18.2517 1.15792C17.9794 0.571221 17.6651 0.0683403 17.5812 0.00548029C17.4974 -0.0573797 17.1622 0.424548 16.8479 1.05315Z" fill="white"/>
<path d="M16.0516 9.2669C15.5278 10.3774 15.1087 11.3203 15.1087 11.3622C15.1087 11.4041 14.7734 12.1794 14.3544 13.0595C13.9353 13.9605 13.1391 15.7205 12.5524 16.9987C11.9866 18.2559 11.2952 19.7645 11.0228 20.3512C10.7713 20.917 10.2894 21.9647 9.97512 22.6561C8.88554 25.0658 5.00917 33.5519 4.48533 34.6834C4.19199 35.312 3.79387 36.213 3.58434 36.6949C3.3748 37.1978 3.10241 37.6587 2.97669 37.7216C2.85097 37.8054 2.7462 38.0149 2.7462 38.2035C2.7462 38.4969 1.489 41.4094 0.37847 43.6724C-0.438711 45.3486 -0.773965 45.2858 8.5922 45.3486L16.785 45.3905V50.0631C16.785 52.6195 16.8688 54.8405 16.9735 54.9872C17.0574 55.1548 17.3717 55.2386 17.6441 55.1967L18.1469 55.1339L18.2098 50.2517L18.2517 45.3905H26.2978C30.7399 45.3905 34.4906 45.3277 34.6792 45.2648C35.2868 45.0343 35.203 44.741 32.8981 39.775C32.5629 39.0626 32.2905 38.3712 32.2905 38.2454C32.2905 38.1197 32.1228 37.7635 31.9133 37.4702C31.7038 37.1559 31.3266 36.4015 31.0752 35.8148C30.8028 35.2072 30.1323 33.7195 29.5665 32.5042C28.9798 31.3099 28.5189 30.2831 28.5189 30.2203C28.5189 30.1784 28.2046 29.445 27.8064 28.5859C27.0521 26.9516 23.1548 18.4235 22.0233 15.9091C18.2727 7.6535 18.126 7.36015 17.5602 7.29729C17.0574 7.23442 16.9316 7.3811 16.0516 9.2669ZM18.6708 12.3261L19.6765 14.4843L18.6079 15.5739L17.5393 16.6844L16.5335 15.6996C15.9887 15.1548 15.5278 14.5891 15.5278 14.4424C15.5278 14.0652 17.4555 9.95837 17.5812 10.0841C17.6441 10.126 18.126 11.1527 18.6708 12.3261ZM15.9049 17.2292L16.785 18.1721V21.357V24.5419L14.7944 22.5513C13.7048 21.4618 12.8038 20.4979 12.8038 20.4141C12.8038 19.995 14.6058 16.2653 14.8153 16.2653C14.9411 16.2653 15.444 16.7054 15.9049 17.2292ZM21.3738 18.193C21.8557 19.2617 22.2328 20.2465 22.2328 20.3512C22.2328 20.477 21.3319 21.4618 20.2423 22.5513L18.2517 24.5419V21.357V18.193L19.2156 17.2292C19.7394 16.7054 20.2423 16.2653 20.3261 16.2653C20.4309 16.2653 20.8918 17.1454 21.3738 18.193ZM16.785 29.885V33.1328L13.4324 29.7803C11.5885 27.9364 10.0799 26.3649 10.0799 26.2811C10.0799 26.1972 10.5199 25.1705 11.0647 23.9971L12.0285 21.9018L14.4172 24.2695L16.785 26.6373V29.885ZM24.1186 24.2905L25.0406 26.3439L21.8138 29.5707C20.0327 31.3518 18.5031 32.8185 18.4193 32.8185C18.3146 32.8185 18.2517 31.4356 18.2517 29.7384V26.6792L20.5985 24.2905C21.8976 22.9914 23.0081 21.9856 23.071 22.0694C23.1548 22.1742 23.6158 23.159 24.1186 24.2905ZM16.785 38.3083C16.785 40.0265 16.7221 41.4094 16.6592 41.4094C16.5964 41.4094 14.4591 39.335 11.9447 36.8206L7.33499 32.2318L8.34075 30.0108L9.32556 27.7687L13.0553 31.4984L16.785 35.2281V38.3083ZM26.7378 30.0108L27.7436 32.2109L23.1548 36.8206C20.6404 39.335 18.5031 41.4094 18.4193 41.4094C18.3146 41.4094 18.2517 40.0265 18.2517 38.3502V35.2701L21.9605 31.5404C24.0139 29.466 25.6902 27.7897 25.7111 27.7897C25.7111 27.7897 26.1721 28.7955 26.7378 30.0108ZM11.6933 38.7274C14.3753 41.4094 16.5754 43.6724 16.5754 43.7562C16.5754 43.8609 15.1506 43.9238 13.3905 43.9238H10.2056L7.41881 41.0951C4.9044 38.5178 4.65296 38.2245 4.84154 37.7635C5.28156 36.5901 6.58067 33.8662 6.70639 33.8662C6.76925 33.8662 9.03222 36.0663 11.6933 38.7274ZM29.4199 35.8987C29.9646 37.0301 30.4047 38.0359 30.4047 38.1616C30.4047 38.2664 29.1475 39.6284 27.6179 41.137L24.8311 43.9238H21.6462C19.8861 43.9238 18.4612 43.8609 18.4612 43.7771C18.4612 43.5885 28.1417 33.8662 28.3303 33.8662C28.3931 33.8662 28.896 34.7881 29.4199 35.8987ZM7.77501 43.7562C7.77501 43.8609 6.49686 43.9238 4.94631 43.9238C3.39576 43.9238 2.1176 43.8609 2.1176 43.7981C2.1176 43.7352 2.51572 42.7923 2.99764 41.7027L3.87768 39.7122L5.82635 41.6608C6.89497 42.7295 7.77501 43.6724 7.77501 43.7562ZM32.8981 43.6514C32.9191 43.8609 32.2276 43.9238 30.0904 43.9238C28.5398 43.9238 27.2617 43.8609 27.2617 43.7771C27.2617 43.6933 28.1417 42.7295 29.2103 41.6608L31.138 39.7122L32.0181 41.5561C32.5 42.5618 32.8981 43.5257 32.8981 43.6514Z" fill="white"/>
</svg>
